G04 #@! TF.GenerationSoftware,KiCad,Pcbnew,10.0.4-10.0.4~ubuntu24.04.1*
G04 #@! TF.CreationDate,2026-07-20T12:57:22-04:00*
G04 #@! TF.ProjectId,fluidnc-bob,666c7569-646e-4632-9d62-6f622e6b6963,rev?*
G04 #@! TF.SameCoordinates,Original*
G04 #@! TF.FileFunction,Soldermask,Top*
G04 #@! TF.FilePolarity,Negative*
%FSLAX46Y46*%
G04 Gerber Fmt 4.6, Leading zero omitted, Abs format (unit mm)*
G04 Created by KiCad (PCBNEW 10.0.4-10.0.4~ubuntu24.04.1) date 2026-07-20 12:57:22*
%MOMM*%
%LPD*%
G01*
G04 APERTURE LIST*
G04 Aperture macros list*
%AMRoundRect*
0 Rectangle with rounded corners*
0 $1 Rounding radius*
0 $2 $3 $4 $5 $6 $7 $8 $9 X,Y pos of 4 corners*
0 Add a 4 corners polygon primitive as box body*
4,1,4,$2,$3,$4,$5,$6,$7,$8,$9,$2,$3,0*
0 Add four circle primitives for the rounded corners*
1,1,$1+$1,$2,$3*
1,1,$1+$1,$4,$5*
1,1,$1+$1,$6,$7*
1,1,$1+$1,$8,$9*
0 Add four rect primitives between the rounded corners*
20,1,$1+$1,$2,$3,$4,$5,0*
20,1,$1+$1,$4,$5,$6,$7,0*
20,1,$1+$1,$6,$7,$8,$9,0*
20,1,$1+$1,$8,$9,$2,$3,0*%
G04 Aperture macros list end*
%ADD10RoundRect,0.250000X-0.450000X0.262500X-0.450000X-0.262500X0.450000X-0.262500X0.450000X0.262500X0*%
%ADD11RoundRect,0.250000X0.262500X0.450000X-0.262500X0.450000X-0.262500X-0.450000X0.262500X-0.450000X0*%
%ADD12RoundRect,0.250000X-0.550000X-0.550000X0.550000X-0.550000X0.550000X0.550000X-0.550000X0.550000X0*%
%ADD13C,1.600000*%
%ADD14RoundRect,0.250000X-0.262500X-0.450000X0.262500X-0.450000X0.262500X0.450000X-0.262500X0.450000X0*%
%ADD15R,3.000000X3.000000*%
%ADD16C,3.000000*%
%ADD17RoundRect,0.250000X0.250000X0.475000X-0.250000X0.475000X-0.250000X-0.475000X0.250000X-0.475000X0*%
%ADD18R,1.600000X1.600000*%
%ADD19RoundRect,0.250000X1.000000X0.650000X-1.000000X0.650000X-1.000000X-0.650000X1.000000X-0.650000X0*%
%ADD20C,3.200000*%
%ADD21RoundRect,0.250000X-0.650000X1.000000X-0.650000X-1.000000X0.650000X-1.000000X0.650000X1.000000X0*%
%ADD22RoundRect,0.150000X-0.150000X0.587500X-0.150000X-0.587500X0.150000X-0.587500X0.150000X0.587500X0*%
%ADD23RoundRect,0.250000X0.550000X-0.550000X0.550000X0.550000X-0.550000X0.550000X-0.550000X-0.550000X0*%
%ADD24RoundRect,0.250000X-1.075000X0.375000X-1.075000X-0.375000X1.075000X-0.375000X1.075000X0.375000X0*%
%ADD25RoundRect,0.250000X0.450000X-0.262500X0.450000X0.262500X-0.450000X0.262500X-0.450000X-0.262500X0*%
%ADD26RoundRect,0.250000X0.475000X-0.250000X0.475000X0.250000X-0.475000X0.250000X-0.475000X-0.250000X0*%
%ADD27R,1.700000X1.700000*%
%ADD28C,1.700000*%
%ADD29RoundRect,0.250000X-0.475000X0.250000X-0.475000X-0.250000X0.475000X-0.250000X0.475000X0.250000X0*%
%ADD30R,1.800000X1.800000*%
%ADD31C,1.800000*%
G04 APERTURE END LIST*
D10*
X73187600Y-58920300D03*
X73187600Y-60745300D03*
D11*
X55262500Y-41830000D03*
X53437500Y-41830000D03*
D12*
X58030000Y-39290000D03*
D13*
X58030000Y-41830000D03*
X58030000Y-44370000D03*
X58030000Y-46910000D03*
X58030000Y-49450000D03*
X58030000Y-51990000D03*
X58030000Y-54530000D03*
X58030000Y-57070000D03*
X58030000Y-59610000D03*
X58030000Y-62150000D03*
X65650000Y-62150000D03*
X65650000Y-59610000D03*
X65650000Y-57070000D03*
X65650000Y-54530000D03*
X65650000Y-51990000D03*
X65650000Y-49450000D03*
X65650000Y-46910000D03*
X65650000Y-44370000D03*
X65650000Y-41830000D03*
X65650000Y-39290000D03*
D14*
X80475000Y-27485714D03*
X82300000Y-27485714D03*
D11*
X55262500Y-44370000D03*
X53437500Y-44370000D03*
D15*
X91000000Y-64400000D03*
D16*
X85920000Y-64400000D03*
D11*
X55262500Y-57070000D03*
X53437500Y-57070000D03*
X55262500Y-49450000D03*
X53437500Y-49450000D03*
D17*
X78600000Y-36100000D03*
X76700000Y-36100000D03*
D18*
X47752000Y-69088000D03*
D13*
X47752000Y-66548000D03*
X47752000Y-64008000D03*
X47752000Y-61468000D03*
X47752000Y-58928000D03*
X47752000Y-56388000D03*
X47752000Y-53848000D03*
X47752000Y-51308000D03*
X47752000Y-48768000D03*
X47752000Y-46228000D03*
X47752000Y-43688000D03*
X47752000Y-41148000D03*
X47752000Y-38608000D03*
X47752000Y-36068000D03*
X47752000Y-33528000D03*
X47752000Y-30988000D03*
X47752000Y-28448000D03*
X47752000Y-25908000D03*
X47752000Y-23368000D03*
X47752000Y-20828000D03*
X47752000Y-18288000D03*
X47752000Y-15748000D03*
X22352000Y-69088000D03*
X22352000Y-66548000D03*
X22352000Y-64008000D03*
X22352000Y-61468000D03*
X22352000Y-58928000D03*
X22352000Y-56388000D03*
X22352000Y-53848000D03*
X22352000Y-51308000D03*
X22352000Y-48768000D03*
X22352000Y-46228000D03*
X22352000Y-43688000D03*
X22352000Y-41148000D03*
X22352000Y-38608000D03*
X22352000Y-36068000D03*
X22352000Y-33528000D03*
X22352000Y-30988000D03*
X22352000Y-28448000D03*
X22352000Y-25908000D03*
X22352000Y-23368000D03*
X22352000Y-20828000D03*
X22352000Y-18288000D03*
X22352000Y-15748000D03*
D11*
X55262500Y-46910000D03*
X53437500Y-46910000D03*
D17*
X78560000Y-69966667D03*
X76660000Y-69966667D03*
D11*
X55262500Y-54530000D03*
X53437500Y-54530000D03*
D17*
X78600000Y-31133334D03*
X76700000Y-31133334D03*
D15*
X85960000Y-31166667D03*
D16*
X91040000Y-31166667D03*
D11*
X82300000Y-34942857D03*
X80475000Y-34942857D03*
D15*
X91000000Y-58825000D03*
D16*
X85920000Y-58825000D03*
D19*
X80420000Y-64100000D03*
X76420000Y-64100000D03*
X63350000Y-35190000D03*
X59350000Y-35190000D03*
D11*
X82300000Y-29971429D03*
X80475000Y-29971429D03*
X55262500Y-51990000D03*
X53437500Y-51990000D03*
D20*
X91000000Y-16900000D03*
D14*
X80475000Y-32457143D03*
X82300000Y-32457143D03*
D15*
X85920000Y-70200000D03*
D16*
X91000000Y-70200000D03*
D20*
X16500000Y-16900000D03*
D21*
X16700000Y-49500000D03*
X16700000Y-53500000D03*
D20*
X16500000Y-70850000D03*
D22*
X78020800Y-59061300D03*
X76120800Y-59061300D03*
X77070800Y-60936300D03*
D15*
X85960000Y-36233333D03*
D16*
X91040000Y-36233333D03*
D15*
X91000000Y-53250000D03*
D16*
X85920000Y-53250000D03*
X80840000Y-53250000D03*
D17*
X78600000Y-26166667D03*
X76700000Y-26166667D03*
D11*
X82260000Y-68814286D03*
X80435000Y-68814286D03*
D14*
X80475000Y-37428571D03*
X82300000Y-37428571D03*
D23*
X53700000Y-18200000D03*
D13*
X53700000Y-15700000D03*
D20*
X60800000Y-70850000D03*
D11*
X82300000Y-25000000D03*
X80475000Y-25000000D03*
X18712500Y-31100000D03*
X16887500Y-31100000D03*
D24*
X16700000Y-43400000D03*
X16700000Y-46200000D03*
D25*
X80807600Y-60692600D03*
X80807600Y-58867600D03*
D15*
X91000000Y-42100000D03*
D16*
X85920000Y-42100000D03*
X80840000Y-42100000D03*
D26*
X58800000Y-17850000D03*
X58800000Y-15950000D03*
D11*
X55262500Y-59610000D03*
X53437500Y-59610000D03*
D15*
X91000000Y-47675000D03*
D16*
X85920000Y-47675000D03*
X80840000Y-47675000D03*
D15*
X85960000Y-26100000D03*
D16*
X91040000Y-26100000D03*
D27*
X85095200Y-15895000D03*
D28*
X85095200Y-18435000D03*
X82555200Y-15895000D03*
X82555200Y-18435000D03*
X80015200Y-15895000D03*
X80015200Y-18435000D03*
X77475200Y-15895000D03*
X77475200Y-18435000D03*
X74935200Y-15895000D03*
X74935200Y-18435000D03*
X72395200Y-15895000D03*
X72395200Y-18435000D03*
D29*
X66950000Y-34340000D03*
X66950000Y-36240000D03*
D15*
X16650000Y-34760000D03*
D16*
X16650000Y-39840000D03*
D30*
X15060000Y-26600000D03*
D31*
X17600000Y-26600000D03*
D14*
X80435000Y-71300000D03*
X82260000Y-71300000D03*
M02*
