G04 #@! TF.GenerationSoftware,KiCad,Pcbnew,10.0.4-10.0.4~ubuntu24.04.1*
G04 #@! TF.CreationDate,2026-07-20T12:57:22-04:00*
G04 #@! TF.ProjectId,fluidnc-bob,666c7569-646e-4632-9d62-6f622e6b6963,rev?*
G04 #@! TF.SameCoordinates,Original*
G04 #@! TF.FileFunction,Legend,Top*
G04 #@! TF.FilePolarity,Positive*
%FSLAX46Y46*%
G04 Gerber Fmt 4.6, Leading zero omitted, Abs format (unit mm)*
G04 Created by KiCad (PCBNEW 10.0.4-10.0.4~ubuntu24.04.1) date 2026-07-20 12:57:22*
%MOMM*%
%LPD*%
G01*
G04 APERTURE LIST*
G04 Aperture macros list*
%AMRoundRect*
0 Rectangle with rounded corners*
0 $1 Rounding radius*
0 $2 $3 $4 $5 $6 $7 $8 $9 X,Y pos of 4 corners*
0 Add a 4 corners polygon primitive as box body*
4,1,4,$2,$3,$4,$5,$6,$7,$8,$9,$2,$3,0*
0 Add four circle primitives for the rounded corners*
1,1,$1+$1,$2,$3*
1,1,$1+$1,$4,$5*
1,1,$1+$1,$6,$7*
1,1,$1+$1,$8,$9*
0 Add four rect primitives between the rounded corners*
20,1,$1+$1,$2,$3,$4,$5,0*
20,1,$1+$1,$4,$5,$6,$7,0*
20,1,$1+$1,$6,$7,$8,$9,0*
20,1,$1+$1,$8,$9,$2,$3,0*%
G04 Aperture macros list end*
%ADD10C,0.100000*%
%ADD11C,0.093750*%
%ADD12C,0.150000*%
%ADD13C,0.120000*%
%ADD14C,0.300000*%
%ADD15RoundRect,0.250000X-0.450000X0.262500X-0.450000X-0.262500X0.450000X-0.262500X0.450000X0.262500X0*%
%ADD16RoundRect,0.250000X0.262500X0.450000X-0.262500X0.450000X-0.262500X-0.450000X0.262500X-0.450000X0*%
%ADD17RoundRect,0.250000X-0.550000X-0.550000X0.550000X-0.550000X0.550000X0.550000X-0.550000X0.550000X0*%
%ADD18C,1.600000*%
%ADD19RoundRect,0.250000X-0.262500X-0.450000X0.262500X-0.450000X0.262500X0.450000X-0.262500X0.450000X0*%
%ADD20R,3.000000X3.000000*%
%ADD21C,3.000000*%
%ADD22RoundRect,0.250000X0.250000X0.475000X-0.250000X0.475000X-0.250000X-0.475000X0.250000X-0.475000X0*%
%ADD23R,1.600000X1.600000*%
%ADD24RoundRect,0.250000X1.000000X0.650000X-1.000000X0.650000X-1.000000X-0.650000X1.000000X-0.650000X0*%
%ADD25C,3.200000*%
%ADD26RoundRect,0.250000X-0.650000X1.000000X-0.650000X-1.000000X0.650000X-1.000000X0.650000X1.000000X0*%
%ADD27RoundRect,0.150000X-0.150000X0.587500X-0.150000X-0.587500X0.150000X-0.587500X0.150000X0.587500X0*%
%ADD28RoundRect,0.250000X0.550000X-0.550000X0.550000X0.550000X-0.550000X0.550000X-0.550000X-0.550000X0*%
%ADD29RoundRect,0.250000X-1.075000X0.375000X-1.075000X-0.375000X1.075000X-0.375000X1.075000X0.375000X0*%
%ADD30RoundRect,0.250000X0.450000X-0.262500X0.450000X0.262500X-0.450000X0.262500X-0.450000X-0.262500X0*%
%ADD31RoundRect,0.250000X0.475000X-0.250000X0.475000X0.250000X-0.475000X0.250000X-0.475000X-0.250000X0*%
%ADD32R,1.700000X1.700000*%
%ADD33C,1.700000*%
%ADD34RoundRect,0.250000X-0.475000X0.250000X-0.475000X-0.250000X0.475000X-0.250000X0.475000X0.250000X0*%
%ADD35R,1.800000X1.800000*%
%ADD36C,1.800000*%
G04 APERTURE END LIST*
D10*
X71058741Y-52514038D02*
X71011122Y-52466419D01*
X71011122Y-52466419D02*
X70939693Y-52466419D01*
X70939693Y-52466419D02*
X70868265Y-52514038D01*
X70868265Y-52514038D02*
X70820646Y-52609276D01*
X70820646Y-52609276D02*
X70796836Y-52704514D01*
X70796836Y-52704514D02*
X70773027Y-52894990D01*
X70773027Y-52894990D02*
X70773027Y-53037847D01*
X70773027Y-53037847D02*
X70796836Y-53228323D01*
X70796836Y-53228323D02*
X70820646Y-53323561D01*
X70820646Y-53323561D02*
X70868265Y-53418800D01*
X70868265Y-53418800D02*
X70939693Y-53466419D01*
X70939693Y-53466419D02*
X70987312Y-53466419D01*
X70987312Y-53466419D02*
X71058741Y-53418800D01*
X71058741Y-53418800D02*
X71082550Y-53371180D01*
X71082550Y-53371180D02*
X71082550Y-53037847D01*
X71082550Y-53037847D02*
X70987312Y-53037847D01*
X71296836Y-53466419D02*
X71296836Y-52466419D01*
X71296836Y-52466419D02*
X71582550Y-53466419D01*
X71582550Y-53466419D02*
X71582550Y-52466419D01*
X71820646Y-53466419D02*
X71820646Y-52466419D01*
X71820646Y-52466419D02*
X71939694Y-52466419D01*
X71939694Y-52466419D02*
X72011122Y-52514038D01*
X72011122Y-52514038D02*
X72058741Y-52609276D01*
X72058741Y-52609276D02*
X72082551Y-52704514D01*
X72082551Y-52704514D02*
X72106360Y-52894990D01*
X72106360Y-52894990D02*
X72106360Y-53037847D01*
X72106360Y-53037847D02*
X72082551Y-53228323D01*
X72082551Y-53228323D02*
X72058741Y-53323561D01*
X72058741Y-53323561D02*
X72011122Y-53418800D01*
X72011122Y-53418800D02*
X71939694Y-53466419D01*
X71939694Y-53466419D02*
X71820646Y-53466419D01*
X72701598Y-53085466D02*
X73082551Y-53085466D01*
X73701598Y-53466419D02*
X73701598Y-52466419D01*
X73701598Y-52466419D02*
X73820646Y-52466419D01*
X73820646Y-52466419D02*
X73892074Y-52514038D01*
X73892074Y-52514038D02*
X73939693Y-52609276D01*
X73939693Y-52609276D02*
X73963503Y-52704514D01*
X73963503Y-52704514D02*
X73987312Y-52894990D01*
X73987312Y-52894990D02*
X73987312Y-53037847D01*
X73987312Y-53037847D02*
X73963503Y-53228323D01*
X73963503Y-53228323D02*
X73939693Y-53323561D01*
X73939693Y-53323561D02*
X73892074Y-53418800D01*
X73892074Y-53418800D02*
X73820646Y-53466419D01*
X73820646Y-53466419D02*
X73701598Y-53466419D01*
X74201598Y-53466419D02*
X74201598Y-52466419D01*
X74725407Y-53466419D02*
X74558741Y-52990228D01*
X74439693Y-53466419D02*
X74439693Y-52466419D01*
X74439693Y-52466419D02*
X74630169Y-52466419D01*
X74630169Y-52466419D02*
X74677788Y-52514038D01*
X74677788Y-52514038D02*
X74701598Y-52561657D01*
X74701598Y-52561657D02*
X74725407Y-52656895D01*
X74725407Y-52656895D02*
X74725407Y-52799752D01*
X74725407Y-52799752D02*
X74701598Y-52894990D01*
X74701598Y-52894990D02*
X74677788Y-52942609D01*
X74677788Y-52942609D02*
X74630169Y-52990228D01*
X74630169Y-52990228D02*
X74439693Y-52990228D01*
X75320645Y-53085466D02*
X75701598Y-53085466D01*
X76296836Y-53418800D02*
X76368264Y-53466419D01*
X76368264Y-53466419D02*
X76487312Y-53466419D01*
X76487312Y-53466419D02*
X76534931Y-53418800D01*
X76534931Y-53418800D02*
X76558740Y-53371180D01*
X76558740Y-53371180D02*
X76582550Y-53275942D01*
X76582550Y-53275942D02*
X76582550Y-53180704D01*
X76582550Y-53180704D02*
X76558740Y-53085466D01*
X76558740Y-53085466D02*
X76534931Y-53037847D01*
X76534931Y-53037847D02*
X76487312Y-52990228D01*
X76487312Y-52990228D02*
X76392074Y-52942609D01*
X76392074Y-52942609D02*
X76344455Y-52894990D01*
X76344455Y-52894990D02*
X76320645Y-52847371D01*
X76320645Y-52847371D02*
X76296836Y-52752133D01*
X76296836Y-52752133D02*
X76296836Y-52656895D01*
X76296836Y-52656895D02*
X76320645Y-52561657D01*
X76320645Y-52561657D02*
X76344455Y-52514038D01*
X76344455Y-52514038D02*
X76392074Y-52466419D01*
X76392074Y-52466419D02*
X76511121Y-52466419D01*
X76511121Y-52466419D02*
X76582550Y-52514038D01*
X76725407Y-52466419D02*
X77011121Y-52466419D01*
X76868264Y-53466419D02*
X76868264Y-52466419D01*
X77177787Y-52942609D02*
X77344454Y-52942609D01*
X77415882Y-53466419D02*
X77177787Y-53466419D01*
X77177787Y-53466419D02*
X77177787Y-52466419D01*
X77177787Y-52466419D02*
X77415882Y-52466419D01*
X77630168Y-53466419D02*
X77630168Y-52466419D01*
X77630168Y-52466419D02*
X77820644Y-52466419D01*
X77820644Y-52466419D02*
X77868263Y-52514038D01*
X77868263Y-52514038D02*
X77892073Y-52561657D01*
X77892073Y-52561657D02*
X77915882Y-52656895D01*
X77915882Y-52656895D02*
X77915882Y-52799752D01*
X77915882Y-52799752D02*
X77892073Y-52894990D01*
X77892073Y-52894990D02*
X77868263Y-52942609D01*
X77868263Y-52942609D02*
X77820644Y-52990228D01*
X77820644Y-52990228D02*
X77630168Y-52990228D01*
X71312741Y-41338038D02*
X71265122Y-41290419D01*
X71265122Y-41290419D02*
X71193693Y-41290419D01*
X71193693Y-41290419D02*
X71122265Y-41338038D01*
X71122265Y-41338038D02*
X71074646Y-41433276D01*
X71074646Y-41433276D02*
X71050836Y-41528514D01*
X71050836Y-41528514D02*
X71027027Y-41718990D01*
X71027027Y-41718990D02*
X71027027Y-41861847D01*
X71027027Y-41861847D02*
X71050836Y-42052323D01*
X71050836Y-42052323D02*
X71074646Y-42147561D01*
X71074646Y-42147561D02*
X71122265Y-42242800D01*
X71122265Y-42242800D02*
X71193693Y-42290419D01*
X71193693Y-42290419D02*
X71241312Y-42290419D01*
X71241312Y-42290419D02*
X71312741Y-42242800D01*
X71312741Y-42242800D02*
X71336550Y-42195180D01*
X71336550Y-42195180D02*
X71336550Y-41861847D01*
X71336550Y-41861847D02*
X71241312Y-41861847D01*
X71550836Y-42290419D02*
X71550836Y-41290419D01*
X71550836Y-41290419D02*
X71836550Y-42290419D01*
X71836550Y-42290419D02*
X71836550Y-41290419D01*
X72074646Y-42290419D02*
X72074646Y-41290419D01*
X72074646Y-41290419D02*
X72193694Y-41290419D01*
X72193694Y-41290419D02*
X72265122Y-41338038D01*
X72265122Y-41338038D02*
X72312741Y-41433276D01*
X72312741Y-41433276D02*
X72336551Y-41528514D01*
X72336551Y-41528514D02*
X72360360Y-41718990D01*
X72360360Y-41718990D02*
X72360360Y-41861847D01*
X72360360Y-41861847D02*
X72336551Y-42052323D01*
X72336551Y-42052323D02*
X72312741Y-42147561D01*
X72312741Y-42147561D02*
X72265122Y-42242800D01*
X72265122Y-42242800D02*
X72193694Y-42290419D01*
X72193694Y-42290419D02*
X72074646Y-42290419D01*
X72955598Y-41909466D02*
X73336551Y-41909466D01*
X73955598Y-42290419D02*
X73955598Y-41290419D01*
X73955598Y-41290419D02*
X74074646Y-41290419D01*
X74074646Y-41290419D02*
X74146074Y-41338038D01*
X74146074Y-41338038D02*
X74193693Y-41433276D01*
X74193693Y-41433276D02*
X74217503Y-41528514D01*
X74217503Y-41528514D02*
X74241312Y-41718990D01*
X74241312Y-41718990D02*
X74241312Y-41861847D01*
X74241312Y-41861847D02*
X74217503Y-42052323D01*
X74217503Y-42052323D02*
X74193693Y-42147561D01*
X74193693Y-42147561D02*
X74146074Y-42242800D01*
X74146074Y-42242800D02*
X74074646Y-42290419D01*
X74074646Y-42290419D02*
X73955598Y-42290419D01*
X74455598Y-42290419D02*
X74455598Y-41290419D01*
X74979407Y-42290419D02*
X74812741Y-41814228D01*
X74693693Y-42290419D02*
X74693693Y-41290419D01*
X74693693Y-41290419D02*
X74884169Y-41290419D01*
X74884169Y-41290419D02*
X74931788Y-41338038D01*
X74931788Y-41338038D02*
X74955598Y-41385657D01*
X74955598Y-41385657D02*
X74979407Y-41480895D01*
X74979407Y-41480895D02*
X74979407Y-41623752D01*
X74979407Y-41623752D02*
X74955598Y-41718990D01*
X74955598Y-41718990D02*
X74931788Y-41766609D01*
X74931788Y-41766609D02*
X74884169Y-41814228D01*
X74884169Y-41814228D02*
X74693693Y-41814228D01*
X75574645Y-41909466D02*
X75955598Y-41909466D01*
X76550836Y-42242800D02*
X76622264Y-42290419D01*
X76622264Y-42290419D02*
X76741312Y-42290419D01*
X76741312Y-42290419D02*
X76788931Y-42242800D01*
X76788931Y-42242800D02*
X76812740Y-42195180D01*
X76812740Y-42195180D02*
X76836550Y-42099942D01*
X76836550Y-42099942D02*
X76836550Y-42004704D01*
X76836550Y-42004704D02*
X76812740Y-41909466D01*
X76812740Y-41909466D02*
X76788931Y-41861847D01*
X76788931Y-41861847D02*
X76741312Y-41814228D01*
X76741312Y-41814228D02*
X76646074Y-41766609D01*
X76646074Y-41766609D02*
X76598455Y-41718990D01*
X76598455Y-41718990D02*
X76574645Y-41671371D01*
X76574645Y-41671371D02*
X76550836Y-41576133D01*
X76550836Y-41576133D02*
X76550836Y-41480895D01*
X76550836Y-41480895D02*
X76574645Y-41385657D01*
X76574645Y-41385657D02*
X76598455Y-41338038D01*
X76598455Y-41338038D02*
X76646074Y-41290419D01*
X76646074Y-41290419D02*
X76765121Y-41290419D01*
X76765121Y-41290419D02*
X76836550Y-41338038D01*
X76979407Y-41290419D02*
X77265121Y-41290419D01*
X77122264Y-42290419D02*
X77122264Y-41290419D01*
X77431787Y-41766609D02*
X77598454Y-41766609D01*
X77669882Y-42290419D02*
X77431787Y-42290419D01*
X77431787Y-42290419D02*
X77431787Y-41290419D01*
X77431787Y-41290419D02*
X77669882Y-41290419D01*
X77884168Y-42290419D02*
X77884168Y-41290419D01*
X77884168Y-41290419D02*
X78074644Y-41290419D01*
X78074644Y-41290419D02*
X78122263Y-41338038D01*
X78122263Y-41338038D02*
X78146073Y-41385657D01*
X78146073Y-41385657D02*
X78169882Y-41480895D01*
X78169882Y-41480895D02*
X78169882Y-41623752D01*
X78169882Y-41623752D02*
X78146073Y-41718990D01*
X78146073Y-41718990D02*
X78122263Y-41766609D01*
X78122263Y-41766609D02*
X78074644Y-41814228D01*
X78074644Y-41814228D02*
X77884168Y-41814228D01*
X71312741Y-46926038D02*
X71265122Y-46878419D01*
X71265122Y-46878419D02*
X71193693Y-46878419D01*
X71193693Y-46878419D02*
X71122265Y-46926038D01*
X71122265Y-46926038D02*
X71074646Y-47021276D01*
X71074646Y-47021276D02*
X71050836Y-47116514D01*
X71050836Y-47116514D02*
X71027027Y-47306990D01*
X71027027Y-47306990D02*
X71027027Y-47449847D01*
X71027027Y-47449847D02*
X71050836Y-47640323D01*
X71050836Y-47640323D02*
X71074646Y-47735561D01*
X71074646Y-47735561D02*
X71122265Y-47830800D01*
X71122265Y-47830800D02*
X71193693Y-47878419D01*
X71193693Y-47878419D02*
X71241312Y-47878419D01*
X71241312Y-47878419D02*
X71312741Y-47830800D01*
X71312741Y-47830800D02*
X71336550Y-47783180D01*
X71336550Y-47783180D02*
X71336550Y-47449847D01*
X71336550Y-47449847D02*
X71241312Y-47449847D01*
X71550836Y-47878419D02*
X71550836Y-46878419D01*
X71550836Y-46878419D02*
X71836550Y-47878419D01*
X71836550Y-47878419D02*
X71836550Y-46878419D01*
X72074646Y-47878419D02*
X72074646Y-46878419D01*
X72074646Y-46878419D02*
X72193694Y-46878419D01*
X72193694Y-46878419D02*
X72265122Y-46926038D01*
X72265122Y-46926038D02*
X72312741Y-47021276D01*
X72312741Y-47021276D02*
X72336551Y-47116514D01*
X72336551Y-47116514D02*
X72360360Y-47306990D01*
X72360360Y-47306990D02*
X72360360Y-47449847D01*
X72360360Y-47449847D02*
X72336551Y-47640323D01*
X72336551Y-47640323D02*
X72312741Y-47735561D01*
X72312741Y-47735561D02*
X72265122Y-47830800D01*
X72265122Y-47830800D02*
X72193694Y-47878419D01*
X72193694Y-47878419D02*
X72074646Y-47878419D01*
X72955598Y-47497466D02*
X73336551Y-47497466D01*
X73955598Y-47878419D02*
X73955598Y-46878419D01*
X73955598Y-46878419D02*
X74074646Y-46878419D01*
X74074646Y-46878419D02*
X74146074Y-46926038D01*
X74146074Y-46926038D02*
X74193693Y-47021276D01*
X74193693Y-47021276D02*
X74217503Y-47116514D01*
X74217503Y-47116514D02*
X74241312Y-47306990D01*
X74241312Y-47306990D02*
X74241312Y-47449847D01*
X74241312Y-47449847D02*
X74217503Y-47640323D01*
X74217503Y-47640323D02*
X74193693Y-47735561D01*
X74193693Y-47735561D02*
X74146074Y-47830800D01*
X74146074Y-47830800D02*
X74074646Y-47878419D01*
X74074646Y-47878419D02*
X73955598Y-47878419D01*
X74455598Y-47878419D02*
X74455598Y-46878419D01*
X74979407Y-47878419D02*
X74812741Y-47402228D01*
X74693693Y-47878419D02*
X74693693Y-46878419D01*
X74693693Y-46878419D02*
X74884169Y-46878419D01*
X74884169Y-46878419D02*
X74931788Y-46926038D01*
X74931788Y-46926038D02*
X74955598Y-46973657D01*
X74955598Y-46973657D02*
X74979407Y-47068895D01*
X74979407Y-47068895D02*
X74979407Y-47211752D01*
X74979407Y-47211752D02*
X74955598Y-47306990D01*
X74955598Y-47306990D02*
X74931788Y-47354609D01*
X74931788Y-47354609D02*
X74884169Y-47402228D01*
X74884169Y-47402228D02*
X74693693Y-47402228D01*
X75574645Y-47497466D02*
X75955598Y-47497466D01*
X76550836Y-47830800D02*
X76622264Y-47878419D01*
X76622264Y-47878419D02*
X76741312Y-47878419D01*
X76741312Y-47878419D02*
X76788931Y-47830800D01*
X76788931Y-47830800D02*
X76812740Y-47783180D01*
X76812740Y-47783180D02*
X76836550Y-47687942D01*
X76836550Y-47687942D02*
X76836550Y-47592704D01*
X76836550Y-47592704D02*
X76812740Y-47497466D01*
X76812740Y-47497466D02*
X76788931Y-47449847D01*
X76788931Y-47449847D02*
X76741312Y-47402228D01*
X76741312Y-47402228D02*
X76646074Y-47354609D01*
X76646074Y-47354609D02*
X76598455Y-47306990D01*
X76598455Y-47306990D02*
X76574645Y-47259371D01*
X76574645Y-47259371D02*
X76550836Y-47164133D01*
X76550836Y-47164133D02*
X76550836Y-47068895D01*
X76550836Y-47068895D02*
X76574645Y-46973657D01*
X76574645Y-46973657D02*
X76598455Y-46926038D01*
X76598455Y-46926038D02*
X76646074Y-46878419D01*
X76646074Y-46878419D02*
X76765121Y-46878419D01*
X76765121Y-46878419D02*
X76836550Y-46926038D01*
X76979407Y-46878419D02*
X77265121Y-46878419D01*
X77122264Y-47878419D02*
X77122264Y-46878419D01*
X77431787Y-47354609D02*
X77598454Y-47354609D01*
X77669882Y-47878419D02*
X77431787Y-47878419D01*
X77431787Y-47878419D02*
X77431787Y-46878419D01*
X77431787Y-46878419D02*
X77669882Y-46878419D01*
X77884168Y-47878419D02*
X77884168Y-46878419D01*
X77884168Y-46878419D02*
X78074644Y-46878419D01*
X78074644Y-46878419D02*
X78122263Y-46926038D01*
X78122263Y-46926038D02*
X78146073Y-46973657D01*
X78146073Y-46973657D02*
X78169882Y-47068895D01*
X78169882Y-47068895D02*
X78169882Y-47211752D01*
X78169882Y-47211752D02*
X78146073Y-47306990D01*
X78146073Y-47306990D02*
X78122263Y-47354609D01*
X78122263Y-47354609D02*
X78074644Y-47402228D01*
X78074644Y-47402228D02*
X77884168Y-47402228D01*
D11*
X85469105Y-60911053D02*
X85397677Y-60875339D01*
X85397677Y-60875339D02*
X85290534Y-60875339D01*
X85290534Y-60875339D02*
X85183391Y-60911053D01*
X85183391Y-60911053D02*
X85111962Y-60982482D01*
X85111962Y-60982482D02*
X85076248Y-61053910D01*
X85076248Y-61053910D02*
X85040534Y-61196767D01*
X85040534Y-61196767D02*
X85040534Y-61303910D01*
X85040534Y-61303910D02*
X85076248Y-61446767D01*
X85076248Y-61446767D02*
X85111962Y-61518196D01*
X85111962Y-61518196D02*
X85183391Y-61589625D01*
X85183391Y-61589625D02*
X85290534Y-61625339D01*
X85290534Y-61625339D02*
X85361962Y-61625339D01*
X85361962Y-61625339D02*
X85469105Y-61589625D01*
X85469105Y-61589625D02*
X85504819Y-61553910D01*
X85504819Y-61553910D02*
X85504819Y-61303910D01*
X85504819Y-61303910D02*
X85361962Y-61303910D01*
X85826248Y-61625339D02*
X85826248Y-60875339D01*
X85826248Y-60875339D02*
X86254819Y-61625339D01*
X86254819Y-61625339D02*
X86254819Y-60875339D01*
X86611962Y-61625339D02*
X86611962Y-60875339D01*
X86611962Y-60875339D02*
X86790533Y-60875339D01*
X86790533Y-60875339D02*
X86897676Y-60911053D01*
X86897676Y-60911053D02*
X86969105Y-60982482D01*
X86969105Y-60982482D02*
X87004819Y-61053910D01*
X87004819Y-61053910D02*
X87040533Y-61196767D01*
X87040533Y-61196767D02*
X87040533Y-61303910D01*
X87040533Y-61303910D02*
X87004819Y-61446767D01*
X87004819Y-61446767D02*
X86969105Y-61518196D01*
X86969105Y-61518196D02*
X86897676Y-61589625D01*
X86897676Y-61589625D02*
X86790533Y-61625339D01*
X86790533Y-61625339D02*
X86611962Y-61625339D01*
X90513391Y-66717339D02*
X90156248Y-66717339D01*
X90156248Y-66717339D02*
X90120534Y-67074482D01*
X90120534Y-67074482D02*
X90156248Y-67038767D01*
X90156248Y-67038767D02*
X90227677Y-67003053D01*
X90227677Y-67003053D02*
X90406248Y-67003053D01*
X90406248Y-67003053D02*
X90477677Y-67038767D01*
X90477677Y-67038767D02*
X90513391Y-67074482D01*
X90513391Y-67074482D02*
X90549105Y-67145910D01*
X90549105Y-67145910D02*
X90549105Y-67324482D01*
X90549105Y-67324482D02*
X90513391Y-67395910D01*
X90513391Y-67395910D02*
X90477677Y-67431625D01*
X90477677Y-67431625D02*
X90406248Y-67467339D01*
X90406248Y-67467339D02*
X90227677Y-67467339D01*
X90227677Y-67467339D02*
X90156248Y-67431625D01*
X90156248Y-67431625D02*
X90120534Y-67395910D01*
X90763391Y-66717339D02*
X91013391Y-67467339D01*
X91013391Y-67467339D02*
X91263391Y-66717339D01*
X90549105Y-72595053D02*
X90477677Y-72559339D01*
X90477677Y-72559339D02*
X90370534Y-72559339D01*
X90370534Y-72559339D02*
X90263391Y-72595053D01*
X90263391Y-72595053D02*
X90191962Y-72666482D01*
X90191962Y-72666482D02*
X90156248Y-72737910D01*
X90156248Y-72737910D02*
X90120534Y-72880767D01*
X90120534Y-72880767D02*
X90120534Y-72987910D01*
X90120534Y-72987910D02*
X90156248Y-73130767D01*
X90156248Y-73130767D02*
X90191962Y-73202196D01*
X90191962Y-73202196D02*
X90263391Y-73273625D01*
X90263391Y-73273625D02*
X90370534Y-73309339D01*
X90370534Y-73309339D02*
X90441962Y-73309339D01*
X90441962Y-73309339D02*
X90549105Y-73273625D01*
X90549105Y-73273625D02*
X90584819Y-73237910D01*
X90584819Y-73237910D02*
X90584819Y-72987910D01*
X90584819Y-72987910D02*
X90441962Y-72987910D01*
X90906248Y-73309339D02*
X90906248Y-72559339D01*
X90906248Y-72559339D02*
X91334819Y-73309339D01*
X91334819Y-73309339D02*
X91334819Y-72559339D01*
X91691962Y-73309339D02*
X91691962Y-72559339D01*
X91691962Y-72559339D02*
X91870533Y-72559339D01*
X91870533Y-72559339D02*
X91977676Y-72595053D01*
X91977676Y-72595053D02*
X92049105Y-72666482D01*
X92049105Y-72666482D02*
X92084819Y-72737910D01*
X92084819Y-72737910D02*
X92120533Y-72880767D01*
X92120533Y-72880767D02*
X92120533Y-72987910D01*
X92120533Y-72987910D02*
X92084819Y-73130767D01*
X92084819Y-73130767D02*
X92049105Y-73202196D01*
X92049105Y-73202196D02*
X91977676Y-73273625D01*
X91977676Y-73273625D02*
X91870533Y-73309339D01*
X91870533Y-73309339D02*
X91691962Y-73309339D01*
D12*
X71854819Y-60542857D02*
X71378628Y-60876190D01*
X71854819Y-61114285D02*
X70854819Y-61114285D01*
X70854819Y-61114285D02*
X70854819Y-60733333D01*
X70854819Y-60733333D02*
X70902438Y-60638095D01*
X70902438Y-60638095D02*
X70950057Y-60590476D01*
X70950057Y-60590476D02*
X71045295Y-60542857D01*
X71045295Y-60542857D02*
X71188152Y-60542857D01*
X71188152Y-60542857D02*
X71283390Y-60590476D01*
X71283390Y-60590476D02*
X71331009Y-60638095D01*
X71331009Y-60638095D02*
X71378628Y-60733333D01*
X71378628Y-60733333D02*
X71378628Y-61114285D01*
X71188152Y-59685714D02*
X71854819Y-59685714D01*
X70807200Y-59923809D02*
X71521485Y-60161904D01*
X71521485Y-60161904D02*
X71521485Y-59542857D01*
X70854819Y-58971428D02*
X70854819Y-58876190D01*
X70854819Y-58876190D02*
X70902438Y-58780952D01*
X70902438Y-58780952D02*
X70950057Y-58733333D01*
X70950057Y-58733333D02*
X71045295Y-58685714D01*
X71045295Y-58685714D02*
X71235771Y-58638095D01*
X71235771Y-58638095D02*
X71473866Y-58638095D01*
X71473866Y-58638095D02*
X71664342Y-58685714D01*
X71664342Y-58685714D02*
X71759580Y-58733333D01*
X71759580Y-58733333D02*
X71807200Y-58780952D01*
X71807200Y-58780952D02*
X71854819Y-58876190D01*
X71854819Y-58876190D02*
X71854819Y-58971428D01*
X71854819Y-58971428D02*
X71807200Y-59066666D01*
X71807200Y-59066666D02*
X71759580Y-59114285D01*
X71759580Y-59114285D02*
X71664342Y-59161904D01*
X71664342Y-59161904D02*
X71473866Y-59209523D01*
X71473866Y-59209523D02*
X71235771Y-59209523D01*
X71235771Y-59209523D02*
X71045295Y-59161904D01*
X71045295Y-59161904D02*
X70950057Y-59114285D01*
X70950057Y-59114285D02*
X70902438Y-59066666D01*
X70902438Y-59066666D02*
X70854819Y-58971428D01*
X52288319Y-41075857D02*
X51812128Y-41409190D01*
X52288319Y-41647285D02*
X51288319Y-41647285D01*
X51288319Y-41647285D02*
X51288319Y-41266333D01*
X51288319Y-41266333D02*
X51335938Y-41171095D01*
X51335938Y-41171095D02*
X51383557Y-41123476D01*
X51383557Y-41123476D02*
X51478795Y-41075857D01*
X51478795Y-41075857D02*
X51621652Y-41075857D01*
X51621652Y-41075857D02*
X51716890Y-41123476D01*
X51716890Y-41123476D02*
X51764509Y-41171095D01*
X51764509Y-41171095D02*
X51812128Y-41266333D01*
X51812128Y-41266333D02*
X51812128Y-41647285D01*
X52288319Y-40123476D02*
X52288319Y-40694904D01*
X52288319Y-40409190D02*
X51288319Y-40409190D01*
X51288319Y-40409190D02*
X51431176Y-40504428D01*
X51431176Y-40504428D02*
X51526414Y-40599666D01*
X51526414Y-40599666D02*
X51574033Y-40694904D01*
X51288319Y-39504428D02*
X51288319Y-39409190D01*
X51288319Y-39409190D02*
X51335938Y-39313952D01*
X51335938Y-39313952D02*
X51383557Y-39266333D01*
X51383557Y-39266333D02*
X51478795Y-39218714D01*
X51478795Y-39218714D02*
X51669271Y-39171095D01*
X51669271Y-39171095D02*
X51907366Y-39171095D01*
X51907366Y-39171095D02*
X52097842Y-39218714D01*
X52097842Y-39218714D02*
X52193080Y-39266333D01*
X52193080Y-39266333D02*
X52240700Y-39313952D01*
X52240700Y-39313952D02*
X52288319Y-39409190D01*
X52288319Y-39409190D02*
X52288319Y-39504428D01*
X52288319Y-39504428D02*
X52240700Y-39599666D01*
X52240700Y-39599666D02*
X52193080Y-39647285D01*
X52193080Y-39647285D02*
X52097842Y-39694904D01*
X52097842Y-39694904D02*
X51907366Y-39742523D01*
X51907366Y-39742523D02*
X51669271Y-39742523D01*
X51669271Y-39742523D02*
X51478795Y-39694904D01*
X51478795Y-39694904D02*
X51383557Y-39647285D01*
X51383557Y-39647285D02*
X51335938Y-39599666D01*
X51335938Y-39599666D02*
X51288319Y-39504428D01*
X54638095Y-37654819D02*
X54638095Y-38464342D01*
X54638095Y-38464342D02*
X54685714Y-38559580D01*
X54685714Y-38559580D02*
X54733333Y-38607200D01*
X54733333Y-38607200D02*
X54828571Y-38654819D01*
X54828571Y-38654819D02*
X55019047Y-38654819D01*
X55019047Y-38654819D02*
X55114285Y-38607200D01*
X55114285Y-38607200D02*
X55161904Y-38559580D01*
X55161904Y-38559580D02*
X55209523Y-38464342D01*
X55209523Y-38464342D02*
X55209523Y-37654819D01*
X56209523Y-38654819D02*
X55638095Y-38654819D01*
X55923809Y-38654819D02*
X55923809Y-37654819D01*
X55923809Y-37654819D02*
X55828571Y-37797676D01*
X55828571Y-37797676D02*
X55733333Y-37892914D01*
X55733333Y-37892914D02*
X55638095Y-37940533D01*
X77407142Y-28454819D02*
X77073809Y-27978628D01*
X76835714Y-28454819D02*
X76835714Y-27454819D01*
X76835714Y-27454819D02*
X77216666Y-27454819D01*
X77216666Y-27454819D02*
X77311904Y-27502438D01*
X77311904Y-27502438D02*
X77359523Y-27550057D01*
X77359523Y-27550057D02*
X77407142Y-27645295D01*
X77407142Y-27645295D02*
X77407142Y-27788152D01*
X77407142Y-27788152D02*
X77359523Y-27883390D01*
X77359523Y-27883390D02*
X77311904Y-27931009D01*
X77311904Y-27931009D02*
X77216666Y-27978628D01*
X77216666Y-27978628D02*
X76835714Y-27978628D01*
X77788095Y-27550057D02*
X77835714Y-27502438D01*
X77835714Y-27502438D02*
X77930952Y-27454819D01*
X77930952Y-27454819D02*
X78169047Y-27454819D01*
X78169047Y-27454819D02*
X78264285Y-27502438D01*
X78264285Y-27502438D02*
X78311904Y-27550057D01*
X78311904Y-27550057D02*
X78359523Y-27645295D01*
X78359523Y-27645295D02*
X78359523Y-27740533D01*
X78359523Y-27740533D02*
X78311904Y-27883390D01*
X78311904Y-27883390D02*
X77740476Y-28454819D01*
X77740476Y-28454819D02*
X78359523Y-28454819D01*
X78978571Y-27454819D02*
X79073809Y-27454819D01*
X79073809Y-27454819D02*
X79169047Y-27502438D01*
X79169047Y-27502438D02*
X79216666Y-27550057D01*
X79216666Y-27550057D02*
X79264285Y-27645295D01*
X79264285Y-27645295D02*
X79311904Y-27835771D01*
X79311904Y-27835771D02*
X79311904Y-28073866D01*
X79311904Y-28073866D02*
X79264285Y-28264342D01*
X79264285Y-28264342D02*
X79216666Y-28359580D01*
X79216666Y-28359580D02*
X79169047Y-28407200D01*
X79169047Y-28407200D02*
X79073809Y-28454819D01*
X79073809Y-28454819D02*
X78978571Y-28454819D01*
X78978571Y-28454819D02*
X78883333Y-28407200D01*
X78883333Y-28407200D02*
X78835714Y-28359580D01*
X78835714Y-28359580D02*
X78788095Y-28264342D01*
X78788095Y-28264342D02*
X78740476Y-28073866D01*
X78740476Y-28073866D02*
X78740476Y-27835771D01*
X78740476Y-27835771D02*
X78788095Y-27645295D01*
X78788095Y-27645295D02*
X78835714Y-27550057D01*
X78835714Y-27550057D02*
X78883333Y-27502438D01*
X78883333Y-27502438D02*
X78978571Y-27454819D01*
X52288319Y-43869857D02*
X51812128Y-44203190D01*
X52288319Y-44441285D02*
X51288319Y-44441285D01*
X51288319Y-44441285D02*
X51288319Y-44060333D01*
X51288319Y-44060333D02*
X51335938Y-43965095D01*
X51335938Y-43965095D02*
X51383557Y-43917476D01*
X51383557Y-43917476D02*
X51478795Y-43869857D01*
X51478795Y-43869857D02*
X51621652Y-43869857D01*
X51621652Y-43869857D02*
X51716890Y-43917476D01*
X51716890Y-43917476D02*
X51764509Y-43965095D01*
X51764509Y-43965095D02*
X51812128Y-44060333D01*
X51812128Y-44060333D02*
X51812128Y-44441285D01*
X52288319Y-42917476D02*
X52288319Y-43488904D01*
X52288319Y-43203190D02*
X51288319Y-43203190D01*
X51288319Y-43203190D02*
X51431176Y-43298428D01*
X51431176Y-43298428D02*
X51526414Y-43393666D01*
X51526414Y-43393666D02*
X51574033Y-43488904D01*
X52288319Y-41965095D02*
X52288319Y-42536523D01*
X52288319Y-42250809D02*
X51288319Y-42250809D01*
X51288319Y-42250809D02*
X51431176Y-42346047D01*
X51431176Y-42346047D02*
X51526414Y-42441285D01*
X51526414Y-42441285D02*
X51574033Y-42536523D01*
X94604419Y-65855562D02*
X94128228Y-66188895D01*
X94604419Y-66426990D02*
X93604419Y-66426990D01*
X93604419Y-66426990D02*
X93604419Y-66046038D01*
X93604419Y-66046038D02*
X93652038Y-65950800D01*
X93652038Y-65950800D02*
X93699657Y-65903181D01*
X93699657Y-65903181D02*
X93794895Y-65855562D01*
X93794895Y-65855562D02*
X93937752Y-65855562D01*
X93937752Y-65855562D02*
X94032990Y-65903181D01*
X94032990Y-65903181D02*
X94080609Y-65950800D01*
X94080609Y-65950800D02*
X94128228Y-66046038D01*
X94128228Y-66046038D02*
X94128228Y-66426990D01*
X94080609Y-65426990D02*
X94080609Y-65093657D01*
X94604419Y-64950800D02*
X94604419Y-65426990D01*
X94604419Y-65426990D02*
X93604419Y-65426990D01*
X93604419Y-65426990D02*
X93604419Y-64950800D01*
X94604419Y-64046038D02*
X94604419Y-64522228D01*
X94604419Y-64522228D02*
X93604419Y-64522228D01*
X94318704Y-63760323D02*
X94318704Y-63284133D01*
X94604419Y-63855561D02*
X93604419Y-63522228D01*
X93604419Y-63522228D02*
X94604419Y-63188895D01*
X94128228Y-62665085D02*
X94604419Y-62665085D01*
X93604419Y-62998418D02*
X94128228Y-62665085D01*
X94128228Y-62665085D02*
X93604419Y-62331752D01*
X52204819Y-58232857D02*
X51728628Y-58566190D01*
X52204819Y-58804285D02*
X51204819Y-58804285D01*
X51204819Y-58804285D02*
X51204819Y-58423333D01*
X51204819Y-58423333D02*
X51252438Y-58328095D01*
X51252438Y-58328095D02*
X51300057Y-58280476D01*
X51300057Y-58280476D02*
X51395295Y-58232857D01*
X51395295Y-58232857D02*
X51538152Y-58232857D01*
X51538152Y-58232857D02*
X51633390Y-58280476D01*
X51633390Y-58280476D02*
X51681009Y-58328095D01*
X51681009Y-58328095D02*
X51728628Y-58423333D01*
X51728628Y-58423333D02*
X51728628Y-58804285D01*
X52204819Y-57280476D02*
X52204819Y-57851904D01*
X52204819Y-57566190D02*
X51204819Y-57566190D01*
X51204819Y-57566190D02*
X51347676Y-57661428D01*
X51347676Y-57661428D02*
X51442914Y-57756666D01*
X51442914Y-57756666D02*
X51490533Y-57851904D01*
X51204819Y-56423333D02*
X51204819Y-56613809D01*
X51204819Y-56613809D02*
X51252438Y-56709047D01*
X51252438Y-56709047D02*
X51300057Y-56756666D01*
X51300057Y-56756666D02*
X51442914Y-56851904D01*
X51442914Y-56851904D02*
X51633390Y-56899523D01*
X51633390Y-56899523D02*
X52014342Y-56899523D01*
X52014342Y-56899523D02*
X52109580Y-56851904D01*
X52109580Y-56851904D02*
X52157200Y-56804285D01*
X52157200Y-56804285D02*
X52204819Y-56709047D01*
X52204819Y-56709047D02*
X52204819Y-56518571D01*
X52204819Y-56518571D02*
X52157200Y-56423333D01*
X52157200Y-56423333D02*
X52109580Y-56375714D01*
X52109580Y-56375714D02*
X52014342Y-56328095D01*
X52014342Y-56328095D02*
X51776247Y-56328095D01*
X51776247Y-56328095D02*
X51681009Y-56375714D01*
X51681009Y-56375714D02*
X51633390Y-56423333D01*
X51633390Y-56423333D02*
X51585771Y-56518571D01*
X51585771Y-56518571D02*
X51585771Y-56709047D01*
X51585771Y-56709047D02*
X51633390Y-56804285D01*
X51633390Y-56804285D02*
X51681009Y-56851904D01*
X51681009Y-56851904D02*
X51776247Y-56899523D01*
X52288319Y-49457857D02*
X51812128Y-49791190D01*
X52288319Y-50029285D02*
X51288319Y-50029285D01*
X51288319Y-50029285D02*
X51288319Y-49648333D01*
X51288319Y-49648333D02*
X51335938Y-49553095D01*
X51335938Y-49553095D02*
X51383557Y-49505476D01*
X51383557Y-49505476D02*
X51478795Y-49457857D01*
X51478795Y-49457857D02*
X51621652Y-49457857D01*
X51621652Y-49457857D02*
X51716890Y-49505476D01*
X51716890Y-49505476D02*
X51764509Y-49553095D01*
X51764509Y-49553095D02*
X51812128Y-49648333D01*
X51812128Y-49648333D02*
X51812128Y-50029285D01*
X52288319Y-48505476D02*
X52288319Y-49076904D01*
X52288319Y-48791190D02*
X51288319Y-48791190D01*
X51288319Y-48791190D02*
X51431176Y-48886428D01*
X51431176Y-48886428D02*
X51526414Y-48981666D01*
X51526414Y-48981666D02*
X51574033Y-49076904D01*
X51288319Y-48172142D02*
X51288319Y-47553095D01*
X51288319Y-47553095D02*
X51669271Y-47886428D01*
X51669271Y-47886428D02*
X51669271Y-47743571D01*
X51669271Y-47743571D02*
X51716890Y-47648333D01*
X51716890Y-47648333D02*
X51764509Y-47600714D01*
X51764509Y-47600714D02*
X51859747Y-47553095D01*
X51859747Y-47553095D02*
X52097842Y-47553095D01*
X52097842Y-47553095D02*
X52193080Y-47600714D01*
X52193080Y-47600714D02*
X52240700Y-47648333D01*
X52240700Y-47648333D02*
X52288319Y-47743571D01*
X52288319Y-47743571D02*
X52288319Y-48029285D01*
X52288319Y-48029285D02*
X52240700Y-48124523D01*
X52240700Y-48124523D02*
X52193080Y-48172142D01*
X73880742Y-36522646D02*
X73833123Y-36570266D01*
X73833123Y-36570266D02*
X73690266Y-36617885D01*
X73690266Y-36617885D02*
X73595028Y-36617885D01*
X73595028Y-36617885D02*
X73452171Y-36570266D01*
X73452171Y-36570266D02*
X73356933Y-36475027D01*
X73356933Y-36475027D02*
X73309314Y-36379789D01*
X73309314Y-36379789D02*
X73261695Y-36189313D01*
X73261695Y-36189313D02*
X73261695Y-36046456D01*
X73261695Y-36046456D02*
X73309314Y-35855980D01*
X73309314Y-35855980D02*
X73356933Y-35760742D01*
X73356933Y-35760742D02*
X73452171Y-35665504D01*
X73452171Y-35665504D02*
X73595028Y-35617885D01*
X73595028Y-35617885D02*
X73690266Y-35617885D01*
X73690266Y-35617885D02*
X73833123Y-35665504D01*
X73833123Y-35665504D02*
X73880742Y-35713123D01*
X74261695Y-35713123D02*
X74309314Y-35665504D01*
X74309314Y-35665504D02*
X74404552Y-35617885D01*
X74404552Y-35617885D02*
X74642647Y-35617885D01*
X74642647Y-35617885D02*
X74737885Y-35665504D01*
X74737885Y-35665504D02*
X74785504Y-35713123D01*
X74785504Y-35713123D02*
X74833123Y-35808361D01*
X74833123Y-35808361D02*
X74833123Y-35903599D01*
X74833123Y-35903599D02*
X74785504Y-36046456D01*
X74785504Y-36046456D02*
X74214076Y-36617885D01*
X74214076Y-36617885D02*
X74833123Y-36617885D01*
X75214076Y-35713123D02*
X75261695Y-35665504D01*
X75261695Y-35665504D02*
X75356933Y-35617885D01*
X75356933Y-35617885D02*
X75595028Y-35617885D01*
X75595028Y-35617885D02*
X75690266Y-35665504D01*
X75690266Y-35665504D02*
X75737885Y-35713123D01*
X75737885Y-35713123D02*
X75785504Y-35808361D01*
X75785504Y-35808361D02*
X75785504Y-35903599D01*
X75785504Y-35903599D02*
X75737885Y-36046456D01*
X75737885Y-36046456D02*
X75166457Y-36617885D01*
X75166457Y-36617885D02*
X75785504Y-36617885D01*
X32679143Y-15482819D02*
X32679143Y-16292342D01*
X32679143Y-16292342D02*
X32726762Y-16387580D01*
X32726762Y-16387580D02*
X32774381Y-16435200D01*
X32774381Y-16435200D02*
X32869619Y-16482819D01*
X32869619Y-16482819D02*
X33060095Y-16482819D01*
X33060095Y-16482819D02*
X33155333Y-16435200D01*
X33155333Y-16435200D02*
X33202952Y-16387580D01*
X33202952Y-16387580D02*
X33250571Y-16292342D01*
X33250571Y-16292342D02*
X33250571Y-15482819D01*
X33679143Y-16435200D02*
X33822000Y-16482819D01*
X33822000Y-16482819D02*
X34060095Y-16482819D01*
X34060095Y-16482819D02*
X34155333Y-16435200D01*
X34155333Y-16435200D02*
X34202952Y-16387580D01*
X34202952Y-16387580D02*
X34250571Y-16292342D01*
X34250571Y-16292342D02*
X34250571Y-16197104D01*
X34250571Y-16197104D02*
X34202952Y-16101866D01*
X34202952Y-16101866D02*
X34155333Y-16054247D01*
X34155333Y-16054247D02*
X34060095Y-16006628D01*
X34060095Y-16006628D02*
X33869619Y-15959009D01*
X33869619Y-15959009D02*
X33774381Y-15911390D01*
X33774381Y-15911390D02*
X33726762Y-15863771D01*
X33726762Y-15863771D02*
X33679143Y-15768533D01*
X33679143Y-15768533D02*
X33679143Y-15673295D01*
X33679143Y-15673295D02*
X33726762Y-15578057D01*
X33726762Y-15578057D02*
X33774381Y-15530438D01*
X33774381Y-15530438D02*
X33869619Y-15482819D01*
X33869619Y-15482819D02*
X34107714Y-15482819D01*
X34107714Y-15482819D02*
X34250571Y-15530438D01*
X35012476Y-15959009D02*
X35155333Y-16006628D01*
X35155333Y-16006628D02*
X35202952Y-16054247D01*
X35202952Y-16054247D02*
X35250571Y-16149485D01*
X35250571Y-16149485D02*
X35250571Y-16292342D01*
X35250571Y-16292342D02*
X35202952Y-16387580D01*
X35202952Y-16387580D02*
X35155333Y-16435200D01*
X35155333Y-16435200D02*
X35060095Y-16482819D01*
X35060095Y-16482819D02*
X34679143Y-16482819D01*
X34679143Y-16482819D02*
X34679143Y-15482819D01*
X34679143Y-15482819D02*
X35012476Y-15482819D01*
X35012476Y-15482819D02*
X35107714Y-15530438D01*
X35107714Y-15530438D02*
X35155333Y-15578057D01*
X35155333Y-15578057D02*
X35202952Y-15673295D01*
X35202952Y-15673295D02*
X35202952Y-15768533D01*
X35202952Y-15768533D02*
X35155333Y-15863771D01*
X35155333Y-15863771D02*
X35107714Y-15911390D01*
X35107714Y-15911390D02*
X35012476Y-15959009D01*
X35012476Y-15959009D02*
X34679143Y-15959009D01*
X35679143Y-16101866D02*
X36441048Y-16101866D01*
X37488666Y-16387580D02*
X37441047Y-16435200D01*
X37441047Y-16435200D02*
X37298190Y-16482819D01*
X37298190Y-16482819D02*
X37202952Y-16482819D01*
X37202952Y-16482819D02*
X37060095Y-16435200D01*
X37060095Y-16435200D02*
X36964857Y-16339961D01*
X36964857Y-16339961D02*
X36917238Y-16244723D01*
X36917238Y-16244723D02*
X36869619Y-16054247D01*
X36869619Y-16054247D02*
X36869619Y-15911390D01*
X36869619Y-15911390D02*
X36917238Y-15720914D01*
X36917238Y-15720914D02*
X36964857Y-15625676D01*
X36964857Y-15625676D02*
X37060095Y-15530438D01*
X37060095Y-15530438D02*
X37202952Y-15482819D01*
X37202952Y-15482819D02*
X37298190Y-15482819D01*
X37298190Y-15482819D02*
X37441047Y-15530438D01*
X37441047Y-15530438D02*
X37488666Y-15578057D01*
X38583905Y-16482819D02*
X39107714Y-15816152D01*
X38583905Y-15816152D02*
X39107714Y-16482819D01*
X39441048Y-15578057D02*
X39488667Y-15530438D01*
X39488667Y-15530438D02*
X39583905Y-15482819D01*
X39583905Y-15482819D02*
X39822000Y-15482819D01*
X39822000Y-15482819D02*
X39917238Y-15530438D01*
X39917238Y-15530438D02*
X39964857Y-15578057D01*
X39964857Y-15578057D02*
X40012476Y-15673295D01*
X40012476Y-15673295D02*
X40012476Y-15768533D01*
X40012476Y-15768533D02*
X39964857Y-15911390D01*
X39964857Y-15911390D02*
X39393429Y-16482819D01*
X39393429Y-16482819D02*
X40012476Y-16482819D01*
X52288319Y-46663857D02*
X51812128Y-46997190D01*
X52288319Y-47235285D02*
X51288319Y-47235285D01*
X51288319Y-47235285D02*
X51288319Y-46854333D01*
X51288319Y-46854333D02*
X51335938Y-46759095D01*
X51335938Y-46759095D02*
X51383557Y-46711476D01*
X51383557Y-46711476D02*
X51478795Y-46663857D01*
X51478795Y-46663857D02*
X51621652Y-46663857D01*
X51621652Y-46663857D02*
X51716890Y-46711476D01*
X51716890Y-46711476D02*
X51764509Y-46759095D01*
X51764509Y-46759095D02*
X51812128Y-46854333D01*
X51812128Y-46854333D02*
X51812128Y-47235285D01*
X52288319Y-45711476D02*
X52288319Y-46282904D01*
X52288319Y-45997190D02*
X51288319Y-45997190D01*
X51288319Y-45997190D02*
X51431176Y-46092428D01*
X51431176Y-46092428D02*
X51526414Y-46187666D01*
X51526414Y-46187666D02*
X51574033Y-46282904D01*
X51383557Y-45330523D02*
X51335938Y-45282904D01*
X51335938Y-45282904D02*
X51288319Y-45187666D01*
X51288319Y-45187666D02*
X51288319Y-44949571D01*
X51288319Y-44949571D02*
X51335938Y-44854333D01*
X51335938Y-44854333D02*
X51383557Y-44806714D01*
X51383557Y-44806714D02*
X51478795Y-44759095D01*
X51478795Y-44759095D02*
X51574033Y-44759095D01*
X51574033Y-44759095D02*
X51716890Y-44806714D01*
X51716890Y-44806714D02*
X52288319Y-45378142D01*
X52288319Y-45378142D02*
X52288319Y-44759095D01*
X73525142Y-70463580D02*
X73477523Y-70511200D01*
X73477523Y-70511200D02*
X73334666Y-70558819D01*
X73334666Y-70558819D02*
X73239428Y-70558819D01*
X73239428Y-70558819D02*
X73096571Y-70511200D01*
X73096571Y-70511200D02*
X73001333Y-70415961D01*
X73001333Y-70415961D02*
X72953714Y-70320723D01*
X72953714Y-70320723D02*
X72906095Y-70130247D01*
X72906095Y-70130247D02*
X72906095Y-69987390D01*
X72906095Y-69987390D02*
X72953714Y-69796914D01*
X72953714Y-69796914D02*
X73001333Y-69701676D01*
X73001333Y-69701676D02*
X73096571Y-69606438D01*
X73096571Y-69606438D02*
X73239428Y-69558819D01*
X73239428Y-69558819D02*
X73334666Y-69558819D01*
X73334666Y-69558819D02*
X73477523Y-69606438D01*
X73477523Y-69606438D02*
X73525142Y-69654057D01*
X73906095Y-69654057D02*
X73953714Y-69606438D01*
X73953714Y-69606438D02*
X74048952Y-69558819D01*
X74048952Y-69558819D02*
X74287047Y-69558819D01*
X74287047Y-69558819D02*
X74382285Y-69606438D01*
X74382285Y-69606438D02*
X74429904Y-69654057D01*
X74429904Y-69654057D02*
X74477523Y-69749295D01*
X74477523Y-69749295D02*
X74477523Y-69844533D01*
X74477523Y-69844533D02*
X74429904Y-69987390D01*
X74429904Y-69987390D02*
X73858476Y-70558819D01*
X73858476Y-70558819D02*
X74477523Y-70558819D01*
X74810857Y-69558819D02*
X75429904Y-69558819D01*
X75429904Y-69558819D02*
X75096571Y-69939771D01*
X75096571Y-69939771D02*
X75239428Y-69939771D01*
X75239428Y-69939771D02*
X75334666Y-69987390D01*
X75334666Y-69987390D02*
X75382285Y-70035009D01*
X75382285Y-70035009D02*
X75429904Y-70130247D01*
X75429904Y-70130247D02*
X75429904Y-70368342D01*
X75429904Y-70368342D02*
X75382285Y-70463580D01*
X75382285Y-70463580D02*
X75334666Y-70511200D01*
X75334666Y-70511200D02*
X75239428Y-70558819D01*
X75239428Y-70558819D02*
X74953714Y-70558819D01*
X74953714Y-70558819D02*
X74858476Y-70511200D01*
X74858476Y-70511200D02*
X74810857Y-70463580D01*
X52288319Y-55299857D02*
X51812128Y-55633190D01*
X52288319Y-55871285D02*
X51288319Y-55871285D01*
X51288319Y-55871285D02*
X51288319Y-55490333D01*
X51288319Y-55490333D02*
X51335938Y-55395095D01*
X51335938Y-55395095D02*
X51383557Y-55347476D01*
X51383557Y-55347476D02*
X51478795Y-55299857D01*
X51478795Y-55299857D02*
X51621652Y-55299857D01*
X51621652Y-55299857D02*
X51716890Y-55347476D01*
X51716890Y-55347476D02*
X51764509Y-55395095D01*
X51764509Y-55395095D02*
X51812128Y-55490333D01*
X51812128Y-55490333D02*
X51812128Y-55871285D01*
X52288319Y-54347476D02*
X52288319Y-54918904D01*
X52288319Y-54633190D02*
X51288319Y-54633190D01*
X51288319Y-54633190D02*
X51431176Y-54728428D01*
X51431176Y-54728428D02*
X51526414Y-54823666D01*
X51526414Y-54823666D02*
X51574033Y-54918904D01*
X51288319Y-53442714D02*
X51288319Y-53918904D01*
X51288319Y-53918904D02*
X51764509Y-53966523D01*
X51764509Y-53966523D02*
X51716890Y-53918904D01*
X51716890Y-53918904D02*
X51669271Y-53823666D01*
X51669271Y-53823666D02*
X51669271Y-53585571D01*
X51669271Y-53585571D02*
X51716890Y-53490333D01*
X51716890Y-53490333D02*
X51764509Y-53442714D01*
X51764509Y-53442714D02*
X51859747Y-53395095D01*
X51859747Y-53395095D02*
X52097842Y-53395095D01*
X52097842Y-53395095D02*
X52193080Y-53442714D01*
X52193080Y-53442714D02*
X52240700Y-53490333D01*
X52240700Y-53490333D02*
X52288319Y-53585571D01*
X52288319Y-53585571D02*
X52288319Y-53823666D01*
X52288319Y-53823666D02*
X52240700Y-53918904D01*
X52240700Y-53918904D02*
X52193080Y-53966523D01*
X73779142Y-31674513D02*
X73731523Y-31722133D01*
X73731523Y-31722133D02*
X73588666Y-31769752D01*
X73588666Y-31769752D02*
X73493428Y-31769752D01*
X73493428Y-31769752D02*
X73350571Y-31722133D01*
X73350571Y-31722133D02*
X73255333Y-31626894D01*
X73255333Y-31626894D02*
X73207714Y-31531656D01*
X73207714Y-31531656D02*
X73160095Y-31341180D01*
X73160095Y-31341180D02*
X73160095Y-31198323D01*
X73160095Y-31198323D02*
X73207714Y-31007847D01*
X73207714Y-31007847D02*
X73255333Y-30912609D01*
X73255333Y-30912609D02*
X73350571Y-30817371D01*
X73350571Y-30817371D02*
X73493428Y-30769752D01*
X73493428Y-30769752D02*
X73588666Y-30769752D01*
X73588666Y-30769752D02*
X73731523Y-30817371D01*
X73731523Y-30817371D02*
X73779142Y-30864990D01*
X74160095Y-30864990D02*
X74207714Y-30817371D01*
X74207714Y-30817371D02*
X74302952Y-30769752D01*
X74302952Y-30769752D02*
X74541047Y-30769752D01*
X74541047Y-30769752D02*
X74636285Y-30817371D01*
X74636285Y-30817371D02*
X74683904Y-30864990D01*
X74683904Y-30864990D02*
X74731523Y-30960228D01*
X74731523Y-30960228D02*
X74731523Y-31055466D01*
X74731523Y-31055466D02*
X74683904Y-31198323D01*
X74683904Y-31198323D02*
X74112476Y-31769752D01*
X74112476Y-31769752D02*
X74731523Y-31769752D01*
X75683904Y-31769752D02*
X75112476Y-31769752D01*
X75398190Y-31769752D02*
X75398190Y-30769752D01*
X75398190Y-30769752D02*
X75302952Y-30912609D01*
X75302952Y-30912609D02*
X75207714Y-31007847D01*
X75207714Y-31007847D02*
X75112476Y-31055466D01*
X94278628Y-32280952D02*
X94754819Y-32280952D01*
X93754819Y-32614285D02*
X94278628Y-32280952D01*
X94278628Y-32280952D02*
X93754819Y-31947619D01*
X94754819Y-31138095D02*
X94754819Y-31614285D01*
X94754819Y-31614285D02*
X93754819Y-31614285D01*
X94754819Y-30804761D02*
X93754819Y-30804761D01*
X94754819Y-30328571D02*
X93754819Y-30328571D01*
X93754819Y-30328571D02*
X94469104Y-29995238D01*
X94469104Y-29995238D02*
X93754819Y-29661905D01*
X93754819Y-29661905D02*
X94754819Y-29661905D01*
X77357142Y-34854819D02*
X77023809Y-34378628D01*
X76785714Y-34854819D02*
X76785714Y-33854819D01*
X76785714Y-33854819D02*
X77166666Y-33854819D01*
X77166666Y-33854819D02*
X77261904Y-33902438D01*
X77261904Y-33902438D02*
X77309523Y-33950057D01*
X77309523Y-33950057D02*
X77357142Y-34045295D01*
X77357142Y-34045295D02*
X77357142Y-34188152D01*
X77357142Y-34188152D02*
X77309523Y-34283390D01*
X77309523Y-34283390D02*
X77261904Y-34331009D01*
X77261904Y-34331009D02*
X77166666Y-34378628D01*
X77166666Y-34378628D02*
X76785714Y-34378628D01*
X77690476Y-33854819D02*
X78309523Y-33854819D01*
X78309523Y-33854819D02*
X77976190Y-34235771D01*
X77976190Y-34235771D02*
X78119047Y-34235771D01*
X78119047Y-34235771D02*
X78214285Y-34283390D01*
X78214285Y-34283390D02*
X78261904Y-34331009D01*
X78261904Y-34331009D02*
X78309523Y-34426247D01*
X78309523Y-34426247D02*
X78309523Y-34664342D01*
X78309523Y-34664342D02*
X78261904Y-34759580D01*
X78261904Y-34759580D02*
X78214285Y-34807200D01*
X78214285Y-34807200D02*
X78119047Y-34854819D01*
X78119047Y-34854819D02*
X77833333Y-34854819D01*
X77833333Y-34854819D02*
X77738095Y-34807200D01*
X77738095Y-34807200D02*
X77690476Y-34759580D01*
X78690476Y-33950057D02*
X78738095Y-33902438D01*
X78738095Y-33902438D02*
X78833333Y-33854819D01*
X78833333Y-33854819D02*
X79071428Y-33854819D01*
X79071428Y-33854819D02*
X79166666Y-33902438D01*
X79166666Y-33902438D02*
X79214285Y-33950057D01*
X79214285Y-33950057D02*
X79261904Y-34045295D01*
X79261904Y-34045295D02*
X79261904Y-34140533D01*
X79261904Y-34140533D02*
X79214285Y-34283390D01*
X79214285Y-34283390D02*
X78642857Y-34854819D01*
X78642857Y-34854819D02*
X79261904Y-34854819D01*
X94369504Y-60063094D02*
X94369504Y-59586904D01*
X94655219Y-60158332D02*
X93655219Y-59824999D01*
X93655219Y-59824999D02*
X94655219Y-59491666D01*
X93655219Y-59158332D02*
X94464742Y-59158332D01*
X94464742Y-59158332D02*
X94559980Y-59110713D01*
X94559980Y-59110713D02*
X94607600Y-59063094D01*
X94607600Y-59063094D02*
X94655219Y-58967856D01*
X94655219Y-58967856D02*
X94655219Y-58777380D01*
X94655219Y-58777380D02*
X94607600Y-58682142D01*
X94607600Y-58682142D02*
X94559980Y-58634523D01*
X94559980Y-58634523D02*
X94464742Y-58586904D01*
X94464742Y-58586904D02*
X93655219Y-58586904D01*
X93655219Y-58205951D02*
X94655219Y-57539285D01*
X93655219Y-57539285D02*
X94655219Y-58205951D01*
X73261905Y-64754819D02*
X73261905Y-63754819D01*
X73261905Y-63754819D02*
X73500000Y-63754819D01*
X73500000Y-63754819D02*
X73642857Y-63802438D01*
X73642857Y-63802438D02*
X73738095Y-63897676D01*
X73738095Y-63897676D02*
X73785714Y-63992914D01*
X73785714Y-63992914D02*
X73833333Y-64183390D01*
X73833333Y-64183390D02*
X73833333Y-64326247D01*
X73833333Y-64326247D02*
X73785714Y-64516723D01*
X73785714Y-64516723D02*
X73738095Y-64611961D01*
X73738095Y-64611961D02*
X73642857Y-64707200D01*
X73642857Y-64707200D02*
X73500000Y-64754819D01*
X73500000Y-64754819D02*
X73261905Y-64754819D01*
X74785714Y-64754819D02*
X74214286Y-64754819D01*
X74500000Y-64754819D02*
X74500000Y-63754819D01*
X74500000Y-63754819D02*
X74404762Y-63897676D01*
X74404762Y-63897676D02*
X74309524Y-63992914D01*
X74309524Y-63992914D02*
X74214286Y-64040533D01*
X55621905Y-35234819D02*
X55621905Y-34234819D01*
X55621905Y-34234819D02*
X55860000Y-34234819D01*
X55860000Y-34234819D02*
X56002857Y-34282438D01*
X56002857Y-34282438D02*
X56098095Y-34377676D01*
X56098095Y-34377676D02*
X56145714Y-34472914D01*
X56145714Y-34472914D02*
X56193333Y-34663390D01*
X56193333Y-34663390D02*
X56193333Y-34806247D01*
X56193333Y-34806247D02*
X56145714Y-34996723D01*
X56145714Y-34996723D02*
X56098095Y-35091961D01*
X56098095Y-35091961D02*
X56002857Y-35187200D01*
X56002857Y-35187200D02*
X55860000Y-35234819D01*
X55860000Y-35234819D02*
X55621905Y-35234819D01*
X56526667Y-34234819D02*
X57145714Y-34234819D01*
X57145714Y-34234819D02*
X56812381Y-34615771D01*
X56812381Y-34615771D02*
X56955238Y-34615771D01*
X56955238Y-34615771D02*
X57050476Y-34663390D01*
X57050476Y-34663390D02*
X57098095Y-34711009D01*
X57098095Y-34711009D02*
X57145714Y-34806247D01*
X57145714Y-34806247D02*
X57145714Y-35044342D01*
X57145714Y-35044342D02*
X57098095Y-35139580D01*
X57098095Y-35139580D02*
X57050476Y-35187200D01*
X57050476Y-35187200D02*
X56955238Y-35234819D01*
X56955238Y-35234819D02*
X56669524Y-35234819D01*
X56669524Y-35234819D02*
X56574286Y-35187200D01*
X56574286Y-35187200D02*
X56526667Y-35139580D01*
X77466142Y-29854819D02*
X77132809Y-29378628D01*
X76894714Y-29854819D02*
X76894714Y-28854819D01*
X76894714Y-28854819D02*
X77275666Y-28854819D01*
X77275666Y-28854819D02*
X77370904Y-28902438D01*
X77370904Y-28902438D02*
X77418523Y-28950057D01*
X77418523Y-28950057D02*
X77466142Y-29045295D01*
X77466142Y-29045295D02*
X77466142Y-29188152D01*
X77466142Y-29188152D02*
X77418523Y-29283390D01*
X77418523Y-29283390D02*
X77370904Y-29331009D01*
X77370904Y-29331009D02*
X77275666Y-29378628D01*
X77275666Y-29378628D02*
X76894714Y-29378628D01*
X77799476Y-28854819D02*
X78418523Y-28854819D01*
X78418523Y-28854819D02*
X78085190Y-29235771D01*
X78085190Y-29235771D02*
X78228047Y-29235771D01*
X78228047Y-29235771D02*
X78323285Y-29283390D01*
X78323285Y-29283390D02*
X78370904Y-29331009D01*
X78370904Y-29331009D02*
X78418523Y-29426247D01*
X78418523Y-29426247D02*
X78418523Y-29664342D01*
X78418523Y-29664342D02*
X78370904Y-29759580D01*
X78370904Y-29759580D02*
X78323285Y-29807200D01*
X78323285Y-29807200D02*
X78228047Y-29854819D01*
X78228047Y-29854819D02*
X77942333Y-29854819D01*
X77942333Y-29854819D02*
X77847095Y-29807200D01*
X77847095Y-29807200D02*
X77799476Y-29759580D01*
X79370904Y-29854819D02*
X78799476Y-29854819D01*
X79085190Y-29854819D02*
X79085190Y-28854819D01*
X79085190Y-28854819D02*
X78989952Y-28997676D01*
X78989952Y-28997676D02*
X78894714Y-29092914D01*
X78894714Y-29092914D02*
X78799476Y-29140533D01*
X52288319Y-52378857D02*
X51812128Y-52712190D01*
X52288319Y-52950285D02*
X51288319Y-52950285D01*
X51288319Y-52950285D02*
X51288319Y-52569333D01*
X51288319Y-52569333D02*
X51335938Y-52474095D01*
X51335938Y-52474095D02*
X51383557Y-52426476D01*
X51383557Y-52426476D02*
X51478795Y-52378857D01*
X51478795Y-52378857D02*
X51621652Y-52378857D01*
X51621652Y-52378857D02*
X51716890Y-52426476D01*
X51716890Y-52426476D02*
X51764509Y-52474095D01*
X51764509Y-52474095D02*
X51812128Y-52569333D01*
X51812128Y-52569333D02*
X51812128Y-52950285D01*
X52288319Y-51426476D02*
X52288319Y-51997904D01*
X52288319Y-51712190D02*
X51288319Y-51712190D01*
X51288319Y-51712190D02*
X51431176Y-51807428D01*
X51431176Y-51807428D02*
X51526414Y-51902666D01*
X51526414Y-51902666D02*
X51574033Y-51997904D01*
X51621652Y-50569333D02*
X52288319Y-50569333D01*
X51240700Y-50807428D02*
X51954985Y-51045523D01*
X51954985Y-51045523D02*
X51954985Y-50426476D01*
X77507142Y-33304819D02*
X77173809Y-32828628D01*
X76935714Y-33304819D02*
X76935714Y-32304819D01*
X76935714Y-32304819D02*
X77316666Y-32304819D01*
X77316666Y-32304819D02*
X77411904Y-32352438D01*
X77411904Y-32352438D02*
X77459523Y-32400057D01*
X77459523Y-32400057D02*
X77507142Y-32495295D01*
X77507142Y-32495295D02*
X77507142Y-32638152D01*
X77507142Y-32638152D02*
X77459523Y-32733390D01*
X77459523Y-32733390D02*
X77411904Y-32781009D01*
X77411904Y-32781009D02*
X77316666Y-32828628D01*
X77316666Y-32828628D02*
X76935714Y-32828628D01*
X77888095Y-32400057D02*
X77935714Y-32352438D01*
X77935714Y-32352438D02*
X78030952Y-32304819D01*
X78030952Y-32304819D02*
X78269047Y-32304819D01*
X78269047Y-32304819D02*
X78364285Y-32352438D01*
X78364285Y-32352438D02*
X78411904Y-32400057D01*
X78411904Y-32400057D02*
X78459523Y-32495295D01*
X78459523Y-32495295D02*
X78459523Y-32590533D01*
X78459523Y-32590533D02*
X78411904Y-32733390D01*
X78411904Y-32733390D02*
X77840476Y-33304819D01*
X77840476Y-33304819D02*
X78459523Y-33304819D01*
X79411904Y-33304819D02*
X78840476Y-33304819D01*
X79126190Y-33304819D02*
X79126190Y-32304819D01*
X79126190Y-32304819D02*
X79030952Y-32447676D01*
X79030952Y-32447676D02*
X78935714Y-32542914D01*
X78935714Y-32542914D02*
X78840476Y-32590533D01*
X94614819Y-72238094D02*
X93614819Y-72238094D01*
X93614819Y-72238094D02*
X93614819Y-71857142D01*
X93614819Y-71857142D02*
X93662438Y-71761904D01*
X93662438Y-71761904D02*
X93710057Y-71714285D01*
X93710057Y-71714285D02*
X93805295Y-71666666D01*
X93805295Y-71666666D02*
X93948152Y-71666666D01*
X93948152Y-71666666D02*
X94043390Y-71714285D01*
X94043390Y-71714285D02*
X94091009Y-71761904D01*
X94091009Y-71761904D02*
X94138628Y-71857142D01*
X94138628Y-71857142D02*
X94138628Y-72238094D01*
X94614819Y-70666666D02*
X94138628Y-70999999D01*
X94614819Y-71238094D02*
X93614819Y-71238094D01*
X93614819Y-71238094D02*
X93614819Y-70857142D01*
X93614819Y-70857142D02*
X93662438Y-70761904D01*
X93662438Y-70761904D02*
X93710057Y-70714285D01*
X93710057Y-70714285D02*
X93805295Y-70666666D01*
X93805295Y-70666666D02*
X93948152Y-70666666D01*
X93948152Y-70666666D02*
X94043390Y-70714285D01*
X94043390Y-70714285D02*
X94091009Y-70761904D01*
X94091009Y-70761904D02*
X94138628Y-70857142D01*
X94138628Y-70857142D02*
X94138628Y-71238094D01*
X93614819Y-70047618D02*
X93614819Y-69857142D01*
X93614819Y-69857142D02*
X93662438Y-69761904D01*
X93662438Y-69761904D02*
X93757676Y-69666666D01*
X93757676Y-69666666D02*
X93948152Y-69619047D01*
X93948152Y-69619047D02*
X94281485Y-69619047D01*
X94281485Y-69619047D02*
X94471961Y-69666666D01*
X94471961Y-69666666D02*
X94567200Y-69761904D01*
X94567200Y-69761904D02*
X94614819Y-69857142D01*
X94614819Y-69857142D02*
X94614819Y-70047618D01*
X94614819Y-70047618D02*
X94567200Y-70142856D01*
X94567200Y-70142856D02*
X94471961Y-70238094D01*
X94471961Y-70238094D02*
X94281485Y-70285713D01*
X94281485Y-70285713D02*
X93948152Y-70285713D01*
X93948152Y-70285713D02*
X93757676Y-70238094D01*
X93757676Y-70238094D02*
X93662438Y-70142856D01*
X93662438Y-70142856D02*
X93614819Y-70047618D01*
X94091009Y-68857142D02*
X94138628Y-68714285D01*
X94138628Y-68714285D02*
X94186247Y-68666666D01*
X94186247Y-68666666D02*
X94281485Y-68619047D01*
X94281485Y-68619047D02*
X94424342Y-68619047D01*
X94424342Y-68619047D02*
X94519580Y-68666666D01*
X94519580Y-68666666D02*
X94567200Y-68714285D01*
X94567200Y-68714285D02*
X94614819Y-68809523D01*
X94614819Y-68809523D02*
X94614819Y-69190475D01*
X94614819Y-69190475D02*
X93614819Y-69190475D01*
X93614819Y-69190475D02*
X93614819Y-68857142D01*
X93614819Y-68857142D02*
X93662438Y-68761904D01*
X93662438Y-68761904D02*
X93710057Y-68714285D01*
X93710057Y-68714285D02*
X93805295Y-68666666D01*
X93805295Y-68666666D02*
X93900533Y-68666666D01*
X93900533Y-68666666D02*
X93995771Y-68714285D01*
X93995771Y-68714285D02*
X94043390Y-68761904D01*
X94043390Y-68761904D02*
X94091009Y-68857142D01*
X94091009Y-68857142D02*
X94091009Y-69190475D01*
X94091009Y-68190475D02*
X94091009Y-67857142D01*
X94614819Y-67714285D02*
X94614819Y-68190475D01*
X94614819Y-68190475D02*
X93614819Y-68190475D01*
X93614819Y-68190475D02*
X93614819Y-67714285D01*
X19654819Y-52238094D02*
X18654819Y-52238094D01*
X18654819Y-52238094D02*
X18654819Y-51999999D01*
X18654819Y-51999999D02*
X18702438Y-51857142D01*
X18702438Y-51857142D02*
X18797676Y-51761904D01*
X18797676Y-51761904D02*
X18892914Y-51714285D01*
X18892914Y-51714285D02*
X19083390Y-51666666D01*
X19083390Y-51666666D02*
X19226247Y-51666666D01*
X19226247Y-51666666D02*
X19416723Y-51714285D01*
X19416723Y-51714285D02*
X19511961Y-51761904D01*
X19511961Y-51761904D02*
X19607200Y-51857142D01*
X19607200Y-51857142D02*
X19654819Y-51999999D01*
X19654819Y-51999999D02*
X19654819Y-52238094D01*
X18750057Y-51285713D02*
X18702438Y-51238094D01*
X18702438Y-51238094D02*
X18654819Y-51142856D01*
X18654819Y-51142856D02*
X18654819Y-50904761D01*
X18654819Y-50904761D02*
X18702438Y-50809523D01*
X18702438Y-50809523D02*
X18750057Y-50761904D01*
X18750057Y-50761904D02*
X18845295Y-50714285D01*
X18845295Y-50714285D02*
X18940533Y-50714285D01*
X18940533Y-50714285D02*
X19083390Y-50761904D01*
X19083390Y-50761904D02*
X19654819Y-51333332D01*
X19654819Y-51333332D02*
X19654819Y-50714285D01*
X76804761Y-57800057D02*
X76709523Y-57752438D01*
X76709523Y-57752438D02*
X76614285Y-57657200D01*
X76614285Y-57657200D02*
X76471428Y-57514342D01*
X76471428Y-57514342D02*
X76376190Y-57466723D01*
X76376190Y-57466723D02*
X76280952Y-57466723D01*
X76328571Y-57704819D02*
X76233333Y-57657200D01*
X76233333Y-57657200D02*
X76138095Y-57561961D01*
X76138095Y-57561961D02*
X76090476Y-57371485D01*
X76090476Y-57371485D02*
X76090476Y-57038152D01*
X76090476Y-57038152D02*
X76138095Y-56847676D01*
X76138095Y-56847676D02*
X76233333Y-56752438D01*
X76233333Y-56752438D02*
X76328571Y-56704819D01*
X76328571Y-56704819D02*
X76519047Y-56704819D01*
X76519047Y-56704819D02*
X76614285Y-56752438D01*
X76614285Y-56752438D02*
X76709523Y-56847676D01*
X76709523Y-56847676D02*
X76757142Y-57038152D01*
X76757142Y-57038152D02*
X76757142Y-57371485D01*
X76757142Y-57371485D02*
X76709523Y-57561961D01*
X76709523Y-57561961D02*
X76614285Y-57657200D01*
X76614285Y-57657200D02*
X76519047Y-57704819D01*
X76519047Y-57704819D02*
X76328571Y-57704819D01*
X77709523Y-57704819D02*
X77138095Y-57704819D01*
X77423809Y-57704819D02*
X77423809Y-56704819D01*
X77423809Y-56704819D02*
X77328571Y-56847676D01*
X77328571Y-56847676D02*
X77233333Y-56942914D01*
X77233333Y-56942914D02*
X77138095Y-56990533D01*
X93654819Y-37780951D02*
X93654819Y-37114285D01*
X93654819Y-37114285D02*
X94654819Y-37780951D01*
X94654819Y-37780951D02*
X94654819Y-37114285D01*
X94654819Y-36257142D02*
X94654819Y-36733332D01*
X94654819Y-36733332D02*
X93654819Y-36733332D01*
X94654819Y-35923808D02*
X93654819Y-35923808D01*
X94654819Y-35447618D02*
X93654819Y-35447618D01*
X93654819Y-35447618D02*
X94369104Y-35114285D01*
X94369104Y-35114285D02*
X93654819Y-34780952D01*
X93654819Y-34780952D02*
X94654819Y-34780952D01*
X93553619Y-53735732D02*
X93553619Y-53069066D01*
X93553619Y-53069066D02*
X94553619Y-53735732D01*
X94553619Y-53735732D02*
X94553619Y-53069066D01*
X73779142Y-26521580D02*
X73731523Y-26569200D01*
X73731523Y-26569200D02*
X73588666Y-26616819D01*
X73588666Y-26616819D02*
X73493428Y-26616819D01*
X73493428Y-26616819D02*
X73350571Y-26569200D01*
X73350571Y-26569200D02*
X73255333Y-26473961D01*
X73255333Y-26473961D02*
X73207714Y-26378723D01*
X73207714Y-26378723D02*
X73160095Y-26188247D01*
X73160095Y-26188247D02*
X73160095Y-26045390D01*
X73160095Y-26045390D02*
X73207714Y-25854914D01*
X73207714Y-25854914D02*
X73255333Y-25759676D01*
X73255333Y-25759676D02*
X73350571Y-25664438D01*
X73350571Y-25664438D02*
X73493428Y-25616819D01*
X73493428Y-25616819D02*
X73588666Y-25616819D01*
X73588666Y-25616819D02*
X73731523Y-25664438D01*
X73731523Y-25664438D02*
X73779142Y-25712057D01*
X74160095Y-25712057D02*
X74207714Y-25664438D01*
X74207714Y-25664438D02*
X74302952Y-25616819D01*
X74302952Y-25616819D02*
X74541047Y-25616819D01*
X74541047Y-25616819D02*
X74636285Y-25664438D01*
X74636285Y-25664438D02*
X74683904Y-25712057D01*
X74683904Y-25712057D02*
X74731523Y-25807295D01*
X74731523Y-25807295D02*
X74731523Y-25902533D01*
X74731523Y-25902533D02*
X74683904Y-26045390D01*
X74683904Y-26045390D02*
X74112476Y-26616819D01*
X74112476Y-26616819D02*
X74731523Y-26616819D01*
X75350571Y-25616819D02*
X75445809Y-25616819D01*
X75445809Y-25616819D02*
X75541047Y-25664438D01*
X75541047Y-25664438D02*
X75588666Y-25712057D01*
X75588666Y-25712057D02*
X75636285Y-25807295D01*
X75636285Y-25807295D02*
X75683904Y-25997771D01*
X75683904Y-25997771D02*
X75683904Y-26235866D01*
X75683904Y-26235866D02*
X75636285Y-26426342D01*
X75636285Y-26426342D02*
X75588666Y-26521580D01*
X75588666Y-26521580D02*
X75541047Y-26569200D01*
X75541047Y-26569200D02*
X75445809Y-26616819D01*
X75445809Y-26616819D02*
X75350571Y-26616819D01*
X75350571Y-26616819D02*
X75255333Y-26569200D01*
X75255333Y-26569200D02*
X75207714Y-26521580D01*
X75207714Y-26521580D02*
X75160095Y-26426342D01*
X75160095Y-26426342D02*
X75112476Y-26235866D01*
X75112476Y-26235866D02*
X75112476Y-25997771D01*
X75112476Y-25997771D02*
X75160095Y-25807295D01*
X75160095Y-25807295D02*
X75207714Y-25712057D01*
X75207714Y-25712057D02*
X75255333Y-25664438D01*
X75255333Y-25664438D02*
X75350571Y-25616819D01*
X77357142Y-68654819D02*
X77023809Y-68178628D01*
X76785714Y-68654819D02*
X76785714Y-67654819D01*
X76785714Y-67654819D02*
X77166666Y-67654819D01*
X77166666Y-67654819D02*
X77261904Y-67702438D01*
X77261904Y-67702438D02*
X77309523Y-67750057D01*
X77309523Y-67750057D02*
X77357142Y-67845295D01*
X77357142Y-67845295D02*
X77357142Y-67988152D01*
X77357142Y-67988152D02*
X77309523Y-68083390D01*
X77309523Y-68083390D02*
X77261904Y-68131009D01*
X77261904Y-68131009D02*
X77166666Y-68178628D01*
X77166666Y-68178628D02*
X76785714Y-68178628D01*
X77690476Y-67654819D02*
X78309523Y-67654819D01*
X78309523Y-67654819D02*
X77976190Y-68035771D01*
X77976190Y-68035771D02*
X78119047Y-68035771D01*
X78119047Y-68035771D02*
X78214285Y-68083390D01*
X78214285Y-68083390D02*
X78261904Y-68131009D01*
X78261904Y-68131009D02*
X78309523Y-68226247D01*
X78309523Y-68226247D02*
X78309523Y-68464342D01*
X78309523Y-68464342D02*
X78261904Y-68559580D01*
X78261904Y-68559580D02*
X78214285Y-68607200D01*
X78214285Y-68607200D02*
X78119047Y-68654819D01*
X78119047Y-68654819D02*
X77833333Y-68654819D01*
X77833333Y-68654819D02*
X77738095Y-68607200D01*
X77738095Y-68607200D02*
X77690476Y-68559580D01*
X78642857Y-67654819D02*
X79261904Y-67654819D01*
X79261904Y-67654819D02*
X78928571Y-68035771D01*
X78928571Y-68035771D02*
X79071428Y-68035771D01*
X79071428Y-68035771D02*
X79166666Y-68083390D01*
X79166666Y-68083390D02*
X79214285Y-68131009D01*
X79214285Y-68131009D02*
X79261904Y-68226247D01*
X79261904Y-68226247D02*
X79261904Y-68464342D01*
X79261904Y-68464342D02*
X79214285Y-68559580D01*
X79214285Y-68559580D02*
X79166666Y-68607200D01*
X79166666Y-68607200D02*
X79071428Y-68654819D01*
X79071428Y-68654819D02*
X78785714Y-68654819D01*
X78785714Y-68654819D02*
X78690476Y-68607200D01*
X78690476Y-68607200D02*
X78642857Y-68559580D01*
X77257142Y-38354819D02*
X76923809Y-37878628D01*
X76685714Y-38354819D02*
X76685714Y-37354819D01*
X76685714Y-37354819D02*
X77066666Y-37354819D01*
X77066666Y-37354819D02*
X77161904Y-37402438D01*
X77161904Y-37402438D02*
X77209523Y-37450057D01*
X77209523Y-37450057D02*
X77257142Y-37545295D01*
X77257142Y-37545295D02*
X77257142Y-37688152D01*
X77257142Y-37688152D02*
X77209523Y-37783390D01*
X77209523Y-37783390D02*
X77161904Y-37831009D01*
X77161904Y-37831009D02*
X77066666Y-37878628D01*
X77066666Y-37878628D02*
X76685714Y-37878628D01*
X77638095Y-37450057D02*
X77685714Y-37402438D01*
X77685714Y-37402438D02*
X77780952Y-37354819D01*
X77780952Y-37354819D02*
X78019047Y-37354819D01*
X78019047Y-37354819D02*
X78114285Y-37402438D01*
X78114285Y-37402438D02*
X78161904Y-37450057D01*
X78161904Y-37450057D02*
X78209523Y-37545295D01*
X78209523Y-37545295D02*
X78209523Y-37640533D01*
X78209523Y-37640533D02*
X78161904Y-37783390D01*
X78161904Y-37783390D02*
X77590476Y-38354819D01*
X77590476Y-38354819D02*
X78209523Y-38354819D01*
X78590476Y-37450057D02*
X78638095Y-37402438D01*
X78638095Y-37402438D02*
X78733333Y-37354819D01*
X78733333Y-37354819D02*
X78971428Y-37354819D01*
X78971428Y-37354819D02*
X79066666Y-37402438D01*
X79066666Y-37402438D02*
X79114285Y-37450057D01*
X79114285Y-37450057D02*
X79161904Y-37545295D01*
X79161904Y-37545295D02*
X79161904Y-37640533D01*
X79161904Y-37640533D02*
X79114285Y-37783390D01*
X79114285Y-37783390D02*
X78542857Y-38354819D01*
X78542857Y-38354819D02*
X79161904Y-38354819D01*
X53298333Y-7151580D02*
X53250714Y-7199200D01*
X53250714Y-7199200D02*
X53107857Y-7246819D01*
X53107857Y-7246819D02*
X53012619Y-7246819D01*
X53012619Y-7246819D02*
X52869762Y-7199200D01*
X52869762Y-7199200D02*
X52774524Y-7103961D01*
X52774524Y-7103961D02*
X52726905Y-7008723D01*
X52726905Y-7008723D02*
X52679286Y-6818247D01*
X52679286Y-6818247D02*
X52679286Y-6675390D01*
X52679286Y-6675390D02*
X52726905Y-6484914D01*
X52726905Y-6484914D02*
X52774524Y-6389676D01*
X52774524Y-6389676D02*
X52869762Y-6294438D01*
X52869762Y-6294438D02*
X53012619Y-6246819D01*
X53012619Y-6246819D02*
X53107857Y-6246819D01*
X53107857Y-6246819D02*
X53250714Y-6294438D01*
X53250714Y-6294438D02*
X53298333Y-6342057D01*
X54250714Y-7246819D02*
X53679286Y-7246819D01*
X53965000Y-7246819D02*
X53965000Y-6246819D01*
X53965000Y-6246819D02*
X53869762Y-6389676D01*
X53869762Y-6389676D02*
X53774524Y-6484914D01*
X53774524Y-6484914D02*
X53679286Y-6532533D01*
X77457142Y-24954819D02*
X77123809Y-24478628D01*
X76885714Y-24954819D02*
X76885714Y-23954819D01*
X76885714Y-23954819D02*
X77266666Y-23954819D01*
X77266666Y-23954819D02*
X77361904Y-24002438D01*
X77361904Y-24002438D02*
X77409523Y-24050057D01*
X77409523Y-24050057D02*
X77457142Y-24145295D01*
X77457142Y-24145295D02*
X77457142Y-24288152D01*
X77457142Y-24288152D02*
X77409523Y-24383390D01*
X77409523Y-24383390D02*
X77361904Y-24431009D01*
X77361904Y-24431009D02*
X77266666Y-24478628D01*
X77266666Y-24478628D02*
X76885714Y-24478628D01*
X77790476Y-23954819D02*
X78409523Y-23954819D01*
X78409523Y-23954819D02*
X78076190Y-24335771D01*
X78076190Y-24335771D02*
X78219047Y-24335771D01*
X78219047Y-24335771D02*
X78314285Y-24383390D01*
X78314285Y-24383390D02*
X78361904Y-24431009D01*
X78361904Y-24431009D02*
X78409523Y-24526247D01*
X78409523Y-24526247D02*
X78409523Y-24764342D01*
X78409523Y-24764342D02*
X78361904Y-24859580D01*
X78361904Y-24859580D02*
X78314285Y-24907200D01*
X78314285Y-24907200D02*
X78219047Y-24954819D01*
X78219047Y-24954819D02*
X77933333Y-24954819D01*
X77933333Y-24954819D02*
X77838095Y-24907200D01*
X77838095Y-24907200D02*
X77790476Y-24859580D01*
X79028571Y-23954819D02*
X79123809Y-23954819D01*
X79123809Y-23954819D02*
X79219047Y-24002438D01*
X79219047Y-24002438D02*
X79266666Y-24050057D01*
X79266666Y-24050057D02*
X79314285Y-24145295D01*
X79314285Y-24145295D02*
X79361904Y-24335771D01*
X79361904Y-24335771D02*
X79361904Y-24573866D01*
X79361904Y-24573866D02*
X79314285Y-24764342D01*
X79314285Y-24764342D02*
X79266666Y-24859580D01*
X79266666Y-24859580D02*
X79219047Y-24907200D01*
X79219047Y-24907200D02*
X79123809Y-24954819D01*
X79123809Y-24954819D02*
X79028571Y-24954819D01*
X79028571Y-24954819D02*
X78933333Y-24907200D01*
X78933333Y-24907200D02*
X78885714Y-24859580D01*
X78885714Y-24859580D02*
X78838095Y-24764342D01*
X78838095Y-24764342D02*
X78790476Y-24573866D01*
X78790476Y-24573866D02*
X78790476Y-24335771D01*
X78790476Y-24335771D02*
X78838095Y-24145295D01*
X78838095Y-24145295D02*
X78885714Y-24050057D01*
X78885714Y-24050057D02*
X78933333Y-24002438D01*
X78933333Y-24002438D02*
X79028571Y-23954819D01*
X14007142Y-31754819D02*
X13673809Y-31278628D01*
X13435714Y-31754819D02*
X13435714Y-30754819D01*
X13435714Y-30754819D02*
X13816666Y-30754819D01*
X13816666Y-30754819D02*
X13911904Y-30802438D01*
X13911904Y-30802438D02*
X13959523Y-30850057D01*
X13959523Y-30850057D02*
X14007142Y-30945295D01*
X14007142Y-30945295D02*
X14007142Y-31088152D01*
X14007142Y-31088152D02*
X13959523Y-31183390D01*
X13959523Y-31183390D02*
X13911904Y-31231009D01*
X13911904Y-31231009D02*
X13816666Y-31278628D01*
X13816666Y-31278628D02*
X13435714Y-31278628D01*
X14911904Y-30754819D02*
X14435714Y-30754819D01*
X14435714Y-30754819D02*
X14388095Y-31231009D01*
X14388095Y-31231009D02*
X14435714Y-31183390D01*
X14435714Y-31183390D02*
X14530952Y-31135771D01*
X14530952Y-31135771D02*
X14769047Y-31135771D01*
X14769047Y-31135771D02*
X14864285Y-31183390D01*
X14864285Y-31183390D02*
X14911904Y-31231009D01*
X14911904Y-31231009D02*
X14959523Y-31326247D01*
X14959523Y-31326247D02*
X14959523Y-31564342D01*
X14959523Y-31564342D02*
X14911904Y-31659580D01*
X14911904Y-31659580D02*
X14864285Y-31707200D01*
X14864285Y-31707200D02*
X14769047Y-31754819D01*
X14769047Y-31754819D02*
X14530952Y-31754819D01*
X14530952Y-31754819D02*
X14435714Y-31707200D01*
X14435714Y-31707200D02*
X14388095Y-31659580D01*
X15578571Y-30754819D02*
X15673809Y-30754819D01*
X15673809Y-30754819D02*
X15769047Y-30802438D01*
X15769047Y-30802438D02*
X15816666Y-30850057D01*
X15816666Y-30850057D02*
X15864285Y-30945295D01*
X15864285Y-30945295D02*
X15911904Y-31135771D01*
X15911904Y-31135771D02*
X15911904Y-31373866D01*
X15911904Y-31373866D02*
X15864285Y-31564342D01*
X15864285Y-31564342D02*
X15816666Y-31659580D01*
X15816666Y-31659580D02*
X15769047Y-31707200D01*
X15769047Y-31707200D02*
X15673809Y-31754819D01*
X15673809Y-31754819D02*
X15578571Y-31754819D01*
X15578571Y-31754819D02*
X15483333Y-31707200D01*
X15483333Y-31707200D02*
X15435714Y-31659580D01*
X15435714Y-31659580D02*
X15388095Y-31564342D01*
X15388095Y-31564342D02*
X15340476Y-31373866D01*
X15340476Y-31373866D02*
X15340476Y-31135771D01*
X15340476Y-31135771D02*
X15388095Y-30945295D01*
X15388095Y-30945295D02*
X15435714Y-30850057D01*
X15435714Y-30850057D02*
X15483333Y-30802438D01*
X15483333Y-30802438D02*
X15578571Y-30754819D01*
X19481009Y-44833333D02*
X19481009Y-45166666D01*
X20004819Y-45166666D02*
X19004819Y-45166666D01*
X19004819Y-45166666D02*
X19004819Y-44690476D01*
X20004819Y-43785714D02*
X20004819Y-44357142D01*
X20004819Y-44071428D02*
X19004819Y-44071428D01*
X19004819Y-44071428D02*
X19147676Y-44166666D01*
X19147676Y-44166666D02*
X19242914Y-44261904D01*
X19242914Y-44261904D02*
X19290533Y-44357142D01*
X83054819Y-60292857D02*
X82578628Y-60626190D01*
X83054819Y-60864285D02*
X82054819Y-60864285D01*
X82054819Y-60864285D02*
X82054819Y-60483333D01*
X82054819Y-60483333D02*
X82102438Y-60388095D01*
X82102438Y-60388095D02*
X82150057Y-60340476D01*
X82150057Y-60340476D02*
X82245295Y-60292857D01*
X82245295Y-60292857D02*
X82388152Y-60292857D01*
X82388152Y-60292857D02*
X82483390Y-60340476D01*
X82483390Y-60340476D02*
X82531009Y-60388095D01*
X82531009Y-60388095D02*
X82578628Y-60483333D01*
X82578628Y-60483333D02*
X82578628Y-60864285D01*
X82388152Y-59435714D02*
X83054819Y-59435714D01*
X82007200Y-59673809D02*
X82721485Y-59911904D01*
X82721485Y-59911904D02*
X82721485Y-59292857D01*
X83054819Y-58388095D02*
X83054819Y-58959523D01*
X83054819Y-58673809D02*
X82054819Y-58673809D01*
X82054819Y-58673809D02*
X82197676Y-58769047D01*
X82197676Y-58769047D02*
X82292914Y-58864285D01*
X82292914Y-58864285D02*
X82340533Y-58959523D01*
X93706019Y-42433332D02*
X94706019Y-41766666D01*
X93706019Y-41766666D02*
X94706019Y-42433332D01*
X59007180Y-19708266D02*
X59054800Y-19755885D01*
X59054800Y-19755885D02*
X59102419Y-19898742D01*
X59102419Y-19898742D02*
X59102419Y-19993980D01*
X59102419Y-19993980D02*
X59054800Y-20136837D01*
X59054800Y-20136837D02*
X58959561Y-20232075D01*
X58959561Y-20232075D02*
X58864323Y-20279694D01*
X58864323Y-20279694D02*
X58673847Y-20327313D01*
X58673847Y-20327313D02*
X58530990Y-20327313D01*
X58530990Y-20327313D02*
X58340514Y-20279694D01*
X58340514Y-20279694D02*
X58245276Y-20232075D01*
X58245276Y-20232075D02*
X58150038Y-20136837D01*
X58150038Y-20136837D02*
X58102419Y-19993980D01*
X58102419Y-19993980D02*
X58102419Y-19898742D01*
X58102419Y-19898742D02*
X58150038Y-19755885D01*
X58150038Y-19755885D02*
X58197657Y-19708266D01*
X58102419Y-19374932D02*
X58102419Y-18755885D01*
X58102419Y-18755885D02*
X58483371Y-19089218D01*
X58483371Y-19089218D02*
X58483371Y-18946361D01*
X58483371Y-18946361D02*
X58530990Y-18851123D01*
X58530990Y-18851123D02*
X58578609Y-18803504D01*
X58578609Y-18803504D02*
X58673847Y-18755885D01*
X58673847Y-18755885D02*
X58911942Y-18755885D01*
X58911942Y-18755885D02*
X59007180Y-18803504D01*
X59007180Y-18803504D02*
X59054800Y-18851123D01*
X59054800Y-18851123D02*
X59102419Y-18946361D01*
X59102419Y-18946361D02*
X59102419Y-19232075D01*
X59102419Y-19232075D02*
X59054800Y-19327313D01*
X59054800Y-19327313D02*
X59007180Y-19374932D01*
X52204819Y-61232857D02*
X51728628Y-61566190D01*
X52204819Y-61804285D02*
X51204819Y-61804285D01*
X51204819Y-61804285D02*
X51204819Y-61423333D01*
X51204819Y-61423333D02*
X51252438Y-61328095D01*
X51252438Y-61328095D02*
X51300057Y-61280476D01*
X51300057Y-61280476D02*
X51395295Y-61232857D01*
X51395295Y-61232857D02*
X51538152Y-61232857D01*
X51538152Y-61232857D02*
X51633390Y-61280476D01*
X51633390Y-61280476D02*
X51681009Y-61328095D01*
X51681009Y-61328095D02*
X51728628Y-61423333D01*
X51728628Y-61423333D02*
X51728628Y-61804285D01*
X52204819Y-60280476D02*
X52204819Y-60851904D01*
X52204819Y-60566190D02*
X51204819Y-60566190D01*
X51204819Y-60566190D02*
X51347676Y-60661428D01*
X51347676Y-60661428D02*
X51442914Y-60756666D01*
X51442914Y-60756666D02*
X51490533Y-60851904D01*
X51204819Y-59947142D02*
X51204819Y-59280476D01*
X51204819Y-59280476D02*
X52204819Y-59709047D01*
X94229828Y-47624199D02*
X94706019Y-47624199D01*
X93706019Y-47957532D02*
X94229828Y-47624199D01*
X94229828Y-47624199D02*
X93706019Y-47290866D01*
X93754819Y-27647618D02*
X94754819Y-26980952D01*
X93754819Y-26980952D02*
X94754819Y-27647618D01*
X94754819Y-26123809D02*
X94754819Y-26599999D01*
X94754819Y-26599999D02*
X93754819Y-26599999D01*
X94754819Y-25790475D02*
X93754819Y-25790475D01*
X94754819Y-25314285D02*
X93754819Y-25314285D01*
X93754819Y-25314285D02*
X94469104Y-24980952D01*
X94469104Y-24980952D02*
X93754819Y-24647619D01*
X93754819Y-24647619D02*
X94754819Y-24647619D01*
X86930019Y-17974523D02*
X87644304Y-17974523D01*
X87644304Y-17974523D02*
X87787161Y-18022142D01*
X87787161Y-18022142D02*
X87882400Y-18117380D01*
X87882400Y-18117380D02*
X87930019Y-18260237D01*
X87930019Y-18260237D02*
X87930019Y-18355475D01*
X87930019Y-16974523D02*
X87930019Y-17545951D01*
X87930019Y-17260237D02*
X86930019Y-17260237D01*
X86930019Y-17260237D02*
X87072876Y-17355475D01*
X87072876Y-17355475D02*
X87168114Y-17450713D01*
X87168114Y-17450713D02*
X87215733Y-17545951D01*
X86930019Y-16641189D02*
X86930019Y-16022142D01*
X86930019Y-16022142D02*
X87310971Y-16355475D01*
X87310971Y-16355475D02*
X87310971Y-16212618D01*
X87310971Y-16212618D02*
X87358590Y-16117380D01*
X87358590Y-16117380D02*
X87406209Y-16069761D01*
X87406209Y-16069761D02*
X87501447Y-16022142D01*
X87501447Y-16022142D02*
X87739542Y-16022142D01*
X87739542Y-16022142D02*
X87834780Y-16069761D01*
X87834780Y-16069761D02*
X87882400Y-16117380D01*
X87882400Y-16117380D02*
X87930019Y-16212618D01*
X87930019Y-16212618D02*
X87930019Y-16498332D01*
X87930019Y-16498332D02*
X87882400Y-16593570D01*
X87882400Y-16593570D02*
X87834780Y-16641189D01*
X67309580Y-32459466D02*
X67357200Y-32507085D01*
X67357200Y-32507085D02*
X67404819Y-32649942D01*
X67404819Y-32649942D02*
X67404819Y-32745180D01*
X67404819Y-32745180D02*
X67357200Y-32888037D01*
X67357200Y-32888037D02*
X67261961Y-32983275D01*
X67261961Y-32983275D02*
X67166723Y-33030894D01*
X67166723Y-33030894D02*
X66976247Y-33078513D01*
X66976247Y-33078513D02*
X66833390Y-33078513D01*
X66833390Y-33078513D02*
X66642914Y-33030894D01*
X66642914Y-33030894D02*
X66547676Y-32983275D01*
X66547676Y-32983275D02*
X66452438Y-32888037D01*
X66452438Y-32888037D02*
X66404819Y-32745180D01*
X66404819Y-32745180D02*
X66404819Y-32649942D01*
X66404819Y-32649942D02*
X66452438Y-32507085D01*
X66452438Y-32507085D02*
X66500057Y-32459466D01*
X66500057Y-32078513D02*
X66452438Y-32030894D01*
X66452438Y-32030894D02*
X66404819Y-31935656D01*
X66404819Y-31935656D02*
X66404819Y-31697561D01*
X66404819Y-31697561D02*
X66452438Y-31602323D01*
X66452438Y-31602323D02*
X66500057Y-31554704D01*
X66500057Y-31554704D02*
X66595295Y-31507085D01*
X66595295Y-31507085D02*
X66690533Y-31507085D01*
X66690533Y-31507085D02*
X66833390Y-31554704D01*
X66833390Y-31554704D02*
X67404819Y-32126132D01*
X67404819Y-32126132D02*
X67404819Y-31507085D01*
X19104819Y-37573333D02*
X19819104Y-37573333D01*
X19819104Y-37573333D02*
X19961961Y-37620952D01*
X19961961Y-37620952D02*
X20057200Y-37716190D01*
X20057200Y-37716190D02*
X20104819Y-37859047D01*
X20104819Y-37859047D02*
X20104819Y-37954285D01*
X20104819Y-36573333D02*
X20104819Y-37144761D01*
X20104819Y-36859047D02*
X19104819Y-36859047D01*
X19104819Y-36859047D02*
X19247676Y-36954285D01*
X19247676Y-36954285D02*
X19342914Y-37049523D01*
X19342914Y-37049523D02*
X19390533Y-37144761D01*
X16785752Y-23092419D02*
X16309562Y-23092419D01*
X16309562Y-23092419D02*
X16309562Y-22092419D01*
X17119086Y-22568609D02*
X17452419Y-22568609D01*
X17595276Y-23092419D02*
X17119086Y-23092419D01*
X17119086Y-23092419D02*
X17119086Y-22092419D01*
X17119086Y-22092419D02*
X17595276Y-22092419D01*
X18023848Y-23092419D02*
X18023848Y-22092419D01*
X18023848Y-22092419D02*
X18261943Y-22092419D01*
X18261943Y-22092419D02*
X18404800Y-22140038D01*
X18404800Y-22140038D02*
X18500038Y-22235276D01*
X18500038Y-22235276D02*
X18547657Y-22330514D01*
X18547657Y-22330514D02*
X18595276Y-22520990D01*
X18595276Y-22520990D02*
X18595276Y-22663847D01*
X18595276Y-22663847D02*
X18547657Y-22854323D01*
X18547657Y-22854323D02*
X18500038Y-22949561D01*
X18500038Y-22949561D02*
X18404800Y-23044800D01*
X18404800Y-23044800D02*
X18261943Y-23092419D01*
X18261943Y-23092419D02*
X18023848Y-23092419D01*
X19547657Y-23092419D02*
X18976229Y-23092419D01*
X19261943Y-23092419D02*
X19261943Y-22092419D01*
X19261943Y-22092419D02*
X19166705Y-22235276D01*
X19166705Y-22235276D02*
X19071467Y-22330514D01*
X19071467Y-22330514D02*
X18976229Y-22378133D01*
X77313942Y-72254819D02*
X76980609Y-71778628D01*
X76742514Y-72254819D02*
X76742514Y-71254819D01*
X76742514Y-71254819D02*
X77123466Y-71254819D01*
X77123466Y-71254819D02*
X77218704Y-71302438D01*
X77218704Y-71302438D02*
X77266323Y-71350057D01*
X77266323Y-71350057D02*
X77313942Y-71445295D01*
X77313942Y-71445295D02*
X77313942Y-71588152D01*
X77313942Y-71588152D02*
X77266323Y-71683390D01*
X77266323Y-71683390D02*
X77218704Y-71731009D01*
X77218704Y-71731009D02*
X77123466Y-71778628D01*
X77123466Y-71778628D02*
X76742514Y-71778628D01*
X77694895Y-71350057D02*
X77742514Y-71302438D01*
X77742514Y-71302438D02*
X77837752Y-71254819D01*
X77837752Y-71254819D02*
X78075847Y-71254819D01*
X78075847Y-71254819D02*
X78171085Y-71302438D01*
X78171085Y-71302438D02*
X78218704Y-71350057D01*
X78218704Y-71350057D02*
X78266323Y-71445295D01*
X78266323Y-71445295D02*
X78266323Y-71540533D01*
X78266323Y-71540533D02*
X78218704Y-71683390D01*
X78218704Y-71683390D02*
X77647276Y-72254819D01*
X77647276Y-72254819D02*
X78266323Y-72254819D01*
X78599657Y-71254819D02*
X79218704Y-71254819D01*
X79218704Y-71254819D02*
X78885371Y-71635771D01*
X78885371Y-71635771D02*
X79028228Y-71635771D01*
X79028228Y-71635771D02*
X79123466Y-71683390D01*
X79123466Y-71683390D02*
X79171085Y-71731009D01*
X79171085Y-71731009D02*
X79218704Y-71826247D01*
X79218704Y-71826247D02*
X79218704Y-72064342D01*
X79218704Y-72064342D02*
X79171085Y-72159580D01*
X79171085Y-72159580D02*
X79123466Y-72207200D01*
X79123466Y-72207200D02*
X79028228Y-72254819D01*
X79028228Y-72254819D02*
X78742514Y-72254819D01*
X78742514Y-72254819D02*
X78647276Y-72207200D01*
X78647276Y-72207200D02*
X78599657Y-72159580D01*
D13*
X72452600Y-59605736D02*
X72452600Y-60059864D01*
X73922600Y-59605736D02*
X73922600Y-60059864D01*
X54577064Y-41095000D02*
X54122936Y-41095000D01*
X54577064Y-42565000D02*
X54122936Y-42565000D01*
X59190000Y-37960000D02*
X59190000Y-63480000D01*
X59190000Y-63480000D02*
X64490000Y-63480000D01*
X60840000Y-37960000D02*
X59190000Y-37960000D01*
X64490000Y-37960000D02*
X62840000Y-37960000D01*
X64490000Y-63480000D02*
X64490000Y-37960000D01*
X56700000Y-37900000D02*
X66980000Y-37900000D01*
X66980000Y-63540000D01*
X56700000Y-63540000D01*
X56700000Y-37900000D01*
X62840000Y-37960000D02*
G75*
G02*
X60840000Y-37960000I-1000000J0D01*
G01*
X81160436Y-26750714D02*
X81614564Y-26750714D01*
X81160436Y-28220714D02*
X81614564Y-28220714D01*
X54577064Y-43635000D02*
X54122936Y-43635000D01*
X54577064Y-45105000D02*
X54122936Y-45105000D01*
X54577064Y-56335000D02*
X54122936Y-56335000D01*
X54577064Y-57805000D02*
X54122936Y-57805000D01*
X54577064Y-48715000D02*
X54122936Y-48715000D01*
X54577064Y-50185000D02*
X54122936Y-50185000D01*
X77911252Y-35365000D02*
X77388748Y-35365000D01*
X77911252Y-36835000D02*
X77388748Y-36835000D01*
D12*
X21082000Y-13528000D02*
X49002000Y-13528000D01*
X21102000Y-82728000D02*
X21102000Y-13528000D01*
X49002000Y-13528000D02*
X49002000Y-82728000D01*
X49022000Y-82728000D02*
X21102000Y-82728000D01*
D14*
X49952000Y-70358000D02*
X49952000Y-67818000D01*
D13*
X54577064Y-46175000D02*
X54122936Y-46175000D01*
X54577064Y-47645000D02*
X54122936Y-47645000D01*
X77871252Y-69231667D02*
X77348748Y-69231667D01*
X77871252Y-70701667D02*
X77348748Y-70701667D01*
X54577064Y-53795000D02*
X54122936Y-53795000D01*
X54577064Y-55265000D02*
X54122936Y-55265000D01*
X77911252Y-30398334D02*
X77388748Y-30398334D01*
X77911252Y-31868334D02*
X77388748Y-31868334D01*
X81614564Y-34207857D02*
X81160436Y-34207857D01*
X81614564Y-35677857D02*
X81160436Y-35677857D01*
X81930000Y-62450000D02*
X76420000Y-62450000D01*
X81930000Y-65750000D02*
X76420000Y-65750000D01*
X81930000Y-65750000D02*
X81930000Y-62450000D01*
X64860000Y-33540000D02*
X59350000Y-33540000D01*
X64860000Y-36840000D02*
X59350000Y-36840000D01*
X64860000Y-36840000D02*
X64860000Y-33540000D01*
X81614564Y-29236429D02*
X81160436Y-29236429D01*
X81614564Y-30706429D02*
X81160436Y-30706429D01*
X54577064Y-51255000D02*
X54122936Y-51255000D01*
X54577064Y-52725000D02*
X54122936Y-52725000D01*
X81160436Y-31722143D02*
X81614564Y-31722143D01*
X81160436Y-33192143D02*
X81614564Y-33192143D01*
X15050000Y-47990000D02*
X15050000Y-53500000D01*
X18350000Y-47990000D02*
X15050000Y-47990000D01*
X18350000Y-47990000D02*
X18350000Y-53500000D01*
X75510800Y-59238800D02*
X75560800Y-59238800D01*
X75510800Y-60758800D02*
X75510800Y-59238800D01*
X76510800Y-60758800D02*
X75510800Y-60758800D01*
X76680800Y-59238800D02*
X77460800Y-59238800D01*
X78580800Y-59238800D02*
X78630800Y-59238800D01*
X78630800Y-59238800D02*
X78630800Y-60758800D01*
X78630800Y-60758800D02*
X77630800Y-60758800D01*
X77450800Y-58698800D02*
X77120800Y-58938800D01*
X77120800Y-58458800D01*
X77450800Y-58698800D01*
G36*
X77450800Y-58698800D02*
G01*
X77120800Y-58938800D01*
X77120800Y-58458800D01*
X77450800Y-58698800D01*
G37*
X77911252Y-25431667D02*
X77388748Y-25431667D01*
X77911252Y-26901667D02*
X77388748Y-26901667D01*
X81574564Y-68079286D02*
X81120436Y-68079286D01*
X81574564Y-69549286D02*
X81120436Y-69549286D01*
X81160436Y-36693571D02*
X81614564Y-36693571D01*
X81160436Y-38163571D02*
X81614564Y-38163571D01*
X50470000Y-16910000D02*
X56930000Y-16910000D01*
X50470000Y-16950000D02*
X56930000Y-16950000D01*
X50471000Y-16870000D02*
X56929000Y-16870000D01*
X50472000Y-16830000D02*
X56928000Y-16830000D01*
X50474000Y-16790000D02*
X56926000Y-16790000D01*
X50476000Y-16750000D02*
X56924000Y-16750000D01*
X50479000Y-16710000D02*
X52660000Y-16710000D01*
X50482000Y-16670000D02*
X52660000Y-16670000D01*
X50486000Y-16630000D02*
X52660000Y-16630000D01*
X50490000Y-16590000D02*
X52660000Y-16590000D01*
X50495000Y-16550000D02*
X52660000Y-16550000D01*
X50500000Y-16510000D02*
X52660000Y-16510000D01*
X50505000Y-16470000D02*
X52660000Y-16470000D01*
X50512000Y-16430000D02*
X52660000Y-16430000D01*
X50518000Y-16390000D02*
X52660000Y-16390000D01*
X50526000Y-16350000D02*
X52660000Y-16350000D01*
X50533000Y-16310000D02*
X52660000Y-16310000D01*
X50541000Y-16270000D02*
X52660000Y-16270000D01*
X50550000Y-16230000D02*
X52660000Y-16230000D01*
X50560000Y-16190000D02*
X52660000Y-16190000D01*
X50569000Y-16150000D02*
X52660000Y-16150000D01*
X50580000Y-16110000D02*
X52660000Y-16110000D01*
X50591000Y-16070000D02*
X52660000Y-16070000D01*
X50602000Y-16030000D02*
X52660000Y-16030000D01*
X50614000Y-15990000D02*
X52660000Y-15990000D01*
X50627000Y-15950000D02*
X52660000Y-15950000D01*
X50640000Y-15910000D02*
X52660000Y-15910000D01*
X50653000Y-15870000D02*
X52660000Y-15870000D01*
X50668000Y-15830000D02*
X52660000Y-15830000D01*
X50683000Y-15790000D02*
X52660000Y-15790000D01*
X50698000Y-15750000D02*
X52660000Y-15750000D01*
X50714000Y-15710000D02*
X52660000Y-15710000D01*
X50731000Y-15670000D02*
X52660000Y-15670000D01*
X50748000Y-15630000D02*
X52660000Y-15630000D01*
X50766000Y-15590000D02*
X52660000Y-15590000D01*
X50785000Y-15550000D02*
X52660000Y-15550000D01*
X50804000Y-15510000D02*
X52660000Y-15510000D01*
X50824000Y-15470000D02*
X52660000Y-15470000D01*
X50845000Y-15430000D02*
X52660000Y-15430000D01*
X50866000Y-15390000D02*
X52660000Y-15390000D01*
X50888000Y-15350000D02*
X52660000Y-15350000D01*
X50911000Y-15310000D02*
X52660000Y-15310000D01*
X50935000Y-15270000D02*
X52660000Y-15270000D01*
X50959000Y-15230000D02*
X52660000Y-15230000D01*
X50984000Y-15190000D02*
X52660000Y-15190000D01*
X51010000Y-15150000D02*
X52660000Y-15150000D01*
X51037000Y-15110000D02*
X52660000Y-15110000D01*
X51064000Y-15070000D02*
X52660000Y-15070000D01*
X51093000Y-15030000D02*
X52660000Y-15030000D01*
X51123000Y-14990000D02*
X52660000Y-14990000D01*
X51153000Y-14950000D02*
X52660000Y-14950000D01*
X51184000Y-14910000D02*
X52660000Y-14910000D01*
X51217000Y-14870000D02*
X52660000Y-14870000D01*
X51250000Y-14830000D02*
X52660000Y-14830000D01*
X51285000Y-14790000D02*
X52660000Y-14790000D01*
X51321000Y-14750000D02*
X52660000Y-14750000D01*
X51358000Y-14710000D02*
X52660000Y-14710000D01*
X51396000Y-14670000D02*
X52660000Y-14670000D01*
X51436000Y-14630000D02*
X55964000Y-14630000D01*
X51477000Y-14590000D02*
X55923000Y-14590000D01*
X51519000Y-14550000D02*
X55881000Y-14550000D01*
X51546000Y-20135241D02*
X52176000Y-20135241D01*
X51563000Y-14510000D02*
X55837000Y-14510000D01*
X51609000Y-14470000D02*
X55791000Y-14470000D01*
X51656000Y-14430000D02*
X55744000Y-14430000D01*
X51705000Y-14390000D02*
X55695000Y-14390000D01*
X51757000Y-14350000D02*
X55643000Y-14350000D01*
X51810000Y-14310000D02*
X55590000Y-14310000D01*
X51861000Y-20450241D02*
X51861000Y-19820241D01*
X51866000Y-14270000D02*
X55534000Y-14270000D01*
X51925000Y-14230000D02*
X55475000Y-14230000D01*
X51986000Y-14190000D02*
X55414000Y-14190000D01*
X52051000Y-14150000D02*
X55349000Y-14150000D01*
X52119000Y-14110000D02*
X55281000Y-14110000D01*
X52191000Y-14070000D02*
X55209000Y-14070000D01*
X52268000Y-14030000D02*
X55132000Y-14030000D01*
X52350000Y-13990000D02*
X55050000Y-13990000D01*
X52439000Y-13950000D02*
X54961000Y-13950000D01*
X52535000Y-13910000D02*
X54865000Y-13910000D01*
X52642000Y-13870000D02*
X54758000Y-13870000D01*
X52761000Y-13830000D02*
X54639000Y-13830000D01*
X52899000Y-13790000D02*
X54501000Y-13790000D01*
X53067000Y-13750000D02*
X54333000Y-13750000D01*
X53298000Y-13710000D02*
X54102000Y-13710000D01*
X54740000Y-14670000D02*
X56004000Y-14670000D01*
X54740000Y-14710000D02*
X56042000Y-14710000D01*
X54740000Y-14750000D02*
X56079000Y-14750000D01*
X54740000Y-14790000D02*
X56115000Y-14790000D01*
X54740000Y-14830000D02*
X56150000Y-14830000D01*
X54740000Y-14870000D02*
X56183000Y-14870000D01*
X54740000Y-14910000D02*
X56216000Y-14910000D01*
X54740000Y-14950000D02*
X56247000Y-14950000D01*
X54740000Y-14990000D02*
X56277000Y-14990000D01*
X54740000Y-15030000D02*
X56307000Y-15030000D01*
X54740000Y-15070000D02*
X56336000Y-15070000D01*
X54740000Y-15110000D02*
X56363000Y-15110000D01*
X54740000Y-15150000D02*
X56390000Y-15150000D01*
X54740000Y-15190000D02*
X56416000Y-15190000D01*
X54740000Y-15230000D02*
X56441000Y-15230000D01*
X54740000Y-15270000D02*
X56465000Y-15270000D01*
X54740000Y-15310000D02*
X56489000Y-15310000D01*
X54740000Y-15350000D02*
X56512000Y-15350000D01*
X54740000Y-15390000D02*
X56534000Y-15390000D01*
X54740000Y-15430000D02*
X56555000Y-15430000D01*
X54740000Y-15470000D02*
X56576000Y-15470000D01*
X54740000Y-15510000D02*
X56596000Y-15510000D01*
X54740000Y-15550000D02*
X56615000Y-15550000D01*
X54740000Y-15590000D02*
X56634000Y-15590000D01*
X54740000Y-15630000D02*
X56652000Y-15630000D01*
X54740000Y-15670000D02*
X56669000Y-15670000D01*
X54740000Y-15710000D02*
X56686000Y-15710000D01*
X54740000Y-15750000D02*
X56702000Y-15750000D01*
X54740000Y-15790000D02*
X56717000Y-15790000D01*
X54740000Y-15830000D02*
X56732000Y-15830000D01*
X54740000Y-15870000D02*
X56747000Y-15870000D01*
X54740000Y-15910000D02*
X56760000Y-15910000D01*
X54740000Y-15950000D02*
X56773000Y-15950000D01*
X54740000Y-15990000D02*
X56786000Y-15990000D01*
X54740000Y-16030000D02*
X56798000Y-16030000D01*
X54740000Y-16070000D02*
X56809000Y-16070000D01*
X54740000Y-16110000D02*
X56820000Y-16110000D01*
X54740000Y-16150000D02*
X56831000Y-16150000D01*
X54740000Y-16190000D02*
X56840000Y-16190000D01*
X54740000Y-16230000D02*
X56850000Y-16230000D01*
X54740000Y-16270000D02*
X56859000Y-16270000D01*
X54740000Y-16310000D02*
X56867000Y-16310000D01*
X54740000Y-16350000D02*
X56874000Y-16350000D01*
X54740000Y-16390000D02*
X56882000Y-16390000D01*
X54740000Y-16430000D02*
X56888000Y-16430000D01*
X54740000Y-16470000D02*
X56895000Y-16470000D01*
X54740000Y-16510000D02*
X56900000Y-16510000D01*
X54740000Y-16550000D02*
X56905000Y-16550000D01*
X54740000Y-16590000D02*
X56910000Y-16590000D01*
X54740000Y-16630000D02*
X56914000Y-16630000D01*
X54740000Y-16670000D02*
X56918000Y-16670000D01*
X54740000Y-16710000D02*
X56921000Y-16710000D01*
X56970000Y-16950000D02*
G75*
G02*
X50430000Y-16950000I-3270000J0D01*
G01*
X50430000Y-16950000D02*
G75*
G02*
X56970000Y-16950000I3270000J0D01*
G01*
X81614564Y-24265000D02*
X81160436Y-24265000D01*
X81614564Y-25735000D02*
X81160436Y-25735000D01*
X18027064Y-30365000D02*
X17572936Y-30365000D01*
X18027064Y-31835000D02*
X17572936Y-31835000D01*
X15340000Y-44197936D02*
X15340000Y-45402064D01*
X18060000Y-44197936D02*
X18060000Y-45402064D01*
X80072600Y-60007164D02*
X80072600Y-59553036D01*
X81542600Y-60007164D02*
X81542600Y-59553036D01*
X58065000Y-17161252D02*
X58065000Y-16638748D01*
X59535000Y-17161252D02*
X59535000Y-16638748D01*
X54577064Y-58875000D02*
X54122936Y-58875000D01*
X54577064Y-60345000D02*
X54122936Y-60345000D01*
X71015200Y-14515000D02*
X71015200Y-19815000D01*
X83825200Y-14515000D02*
X71015200Y-14515000D01*
X83825200Y-14515000D02*
X83825200Y-17165000D01*
X83825200Y-17165000D02*
X86475200Y-17165000D01*
X85095200Y-14515000D02*
X86475200Y-14515000D01*
X86475200Y-14515000D02*
X86475200Y-15895000D01*
X86475200Y-17165000D02*
X86475200Y-19815000D01*
X86475200Y-19815000D02*
X71015200Y-19815000D01*
X66215000Y-35028748D02*
X66215000Y-35551252D01*
X67685000Y-35028748D02*
X67685000Y-35551252D01*
X13770000Y-25055000D02*
X13770000Y-28145000D01*
X13770000Y-25055170D02*
G75*
G02*
X19320000Y-26600000I2560000J-1544830D01*
G01*
X19320000Y-26600000D02*
G75*
G02*
X13770000Y-28144830I-2990000J0D01*
G01*
X18830000Y-26600000D02*
G75*
G02*
X13830000Y-26600000I-2500000J0D01*
G01*
X13830000Y-26600000D02*
G75*
G02*
X18830000Y-26600000I2500000J0D01*
G01*
X81120436Y-70565000D02*
X81574564Y-70565000D01*
X81120436Y-72035000D02*
X81574564Y-72035000D01*
%LPC*%
D15*
X73187600Y-58920300D03*
X73187600Y-60745300D03*
D16*
X55262500Y-41830000D03*
X53437500Y-41830000D03*
D17*
X58030000Y-39290000D03*
D18*
X58030000Y-41830000D03*
X58030000Y-44370000D03*
X58030000Y-46910000D03*
X58030000Y-49450000D03*
X58030000Y-51990000D03*
X58030000Y-54530000D03*
X58030000Y-57070000D03*
X58030000Y-59610000D03*
X58030000Y-62150000D03*
X65650000Y-62150000D03*
X65650000Y-59610000D03*
X65650000Y-57070000D03*
X65650000Y-54530000D03*
X65650000Y-51990000D03*
X65650000Y-49450000D03*
X65650000Y-46910000D03*
X65650000Y-44370000D03*
X65650000Y-41830000D03*
X65650000Y-39290000D03*
D19*
X80475000Y-27485714D03*
X82300000Y-27485714D03*
D16*
X55262500Y-44370000D03*
X53437500Y-44370000D03*
D20*
X91000000Y-64400000D03*
D21*
X85920000Y-64400000D03*
D16*
X55262500Y-57070000D03*
X53437500Y-57070000D03*
X55262500Y-49450000D03*
X53437500Y-49450000D03*
D22*
X78600000Y-36100000D03*
X76700000Y-36100000D03*
D23*
X47752000Y-69088000D03*
D18*
X47752000Y-66548000D03*
X47752000Y-64008000D03*
X47752000Y-61468000D03*
X47752000Y-58928000D03*
X47752000Y-56388000D03*
X47752000Y-53848000D03*
X47752000Y-51308000D03*
X47752000Y-48768000D03*
X47752000Y-46228000D03*
X47752000Y-43688000D03*
X47752000Y-41148000D03*
X47752000Y-38608000D03*
X47752000Y-36068000D03*
X47752000Y-33528000D03*
X47752000Y-30988000D03*
X47752000Y-28448000D03*
X47752000Y-25908000D03*
X47752000Y-23368000D03*
X47752000Y-20828000D03*
X47752000Y-18288000D03*
X47752000Y-15748000D03*
X22352000Y-69088000D03*
X22352000Y-66548000D03*
X22352000Y-64008000D03*
X22352000Y-61468000D03*
X22352000Y-58928000D03*
X22352000Y-56388000D03*
X22352000Y-53848000D03*
X22352000Y-51308000D03*
X22352000Y-48768000D03*
X22352000Y-46228000D03*
X22352000Y-43688000D03*
X22352000Y-41148000D03*
X22352000Y-38608000D03*
X22352000Y-36068000D03*
X22352000Y-33528000D03*
X22352000Y-30988000D03*
X22352000Y-28448000D03*
X22352000Y-25908000D03*
X22352000Y-23368000D03*
X22352000Y-20828000D03*
X22352000Y-18288000D03*
X22352000Y-15748000D03*
D16*
X55262500Y-46910000D03*
X53437500Y-46910000D03*
D22*
X78560000Y-69966667D03*
X76660000Y-69966667D03*
D16*
X55262500Y-54530000D03*
X53437500Y-54530000D03*
D22*
X78600000Y-31133334D03*
X76700000Y-31133334D03*
D20*
X85960000Y-31166667D03*
D21*
X91040000Y-31166667D03*
D16*
X82300000Y-34942857D03*
X80475000Y-34942857D03*
D20*
X91000000Y-58825000D03*
D21*
X85920000Y-58825000D03*
D24*
X80420000Y-64100000D03*
X76420000Y-64100000D03*
X63350000Y-35190000D03*
X59350000Y-35190000D03*
D16*
X82300000Y-29971429D03*
X80475000Y-29971429D03*
X55262500Y-51990000D03*
X53437500Y-51990000D03*
D25*
X91000000Y-16900000D03*
D19*
X80475000Y-32457143D03*
X82300000Y-32457143D03*
D20*
X85920000Y-70200000D03*
D21*
X91000000Y-70200000D03*
D25*
X16500000Y-16900000D03*
D26*
X16700000Y-49500000D03*
X16700000Y-53500000D03*
D25*
X16500000Y-70850000D03*
D27*
X78020800Y-59061300D03*
X76120800Y-59061300D03*
X77070800Y-60936300D03*
D20*
X85960000Y-36233333D03*
D21*
X91040000Y-36233333D03*
D20*
X91000000Y-53250000D03*
D21*
X85920000Y-53250000D03*
X80840000Y-53250000D03*
D22*
X78600000Y-26166667D03*
X76700000Y-26166667D03*
D16*
X82260000Y-68814286D03*
X80435000Y-68814286D03*
D19*
X80475000Y-37428571D03*
X82300000Y-37428571D03*
D28*
X53700000Y-18200000D03*
D18*
X53700000Y-15700000D03*
D25*
X60800000Y-70850000D03*
D16*
X82300000Y-25000000D03*
X80475000Y-25000000D03*
X18712500Y-31100000D03*
X16887500Y-31100000D03*
D29*
X16700000Y-43400000D03*
X16700000Y-46200000D03*
D30*
X80807600Y-60692600D03*
X80807600Y-58867600D03*
D20*
X91000000Y-42100000D03*
D21*
X85920000Y-42100000D03*
X80840000Y-42100000D03*
D31*
X58800000Y-17850000D03*
X58800000Y-15950000D03*
D16*
X55262500Y-59610000D03*
X53437500Y-59610000D03*
D20*
X91000000Y-47675000D03*
D21*
X85920000Y-47675000D03*
X80840000Y-47675000D03*
D20*
X85960000Y-26100000D03*
D21*
X91040000Y-26100000D03*
D32*
X85095200Y-15895000D03*
D33*
X85095200Y-18435000D03*
X82555200Y-15895000D03*
X82555200Y-18435000D03*
X80015200Y-15895000D03*
X80015200Y-18435000D03*
X77475200Y-15895000D03*
X77475200Y-18435000D03*
X74935200Y-15895000D03*
X74935200Y-18435000D03*
X72395200Y-15895000D03*
X72395200Y-18435000D03*
D34*
X66950000Y-34340000D03*
X66950000Y-36240000D03*
D20*
X16650000Y-34760000D03*
D21*
X16650000Y-39840000D03*
D35*
X15060000Y-26600000D03*
D36*
X17600000Y-26600000D03*
D19*
X80435000Y-71300000D03*
X82260000Y-71300000D03*
%LPD*%
M02*
