M48
; DRILL file KiCad 10.0.4-10.0.4~ubuntu24.04.1 date 2026-07-20T12:57:25
; FORMAT={-:-/ absolute / metric / decimal}
; #@! TF.CreationDate,2026-07-20T12:57:25-04:00
; #@! TF.GenerationSoftware,Kicad,Pcbnew,10.0.4-10.0.4~ubuntu24.04.1
; #@! TF.FileFunction,Plated,1,4,PTH
FMAT,2
METRIC
; #@! TA.AperFunction,Plated,PTH,ViaDrill
T1C0.300
; #@! TA.AperFunction,Plated,PTH,ComponentDrill
T2C0.800
; #@! TA.AperFunction,Plated,PTH,ComponentDrill
T3C0.900
; #@! TA.AperFunction,Plated,PTH,ComponentDrill
T4C1.000
; #@! TA.AperFunction,Plated,PTH,ComponentDrill
T5C1.300
%
G90
G05
T1
X16.764Y-63.246
X28.956Y-37.592
X30.48Y-22.86
X35.306Y-70.104
X37.846Y-54.356
X50.8Y-43.942
X50.8Y-46.736
X50.8Y-49.53
X50.8Y-52.07
X50.8Y-54.356
X50.8Y-56.896
X50.8Y-59.69
X52.07Y-41.91
X54.102Y-68.834
X59.436Y-32.766
X61.722Y-43.18
X62.23Y-59.182
X67.31Y-21.59
X70.358Y-63.5
X70.358Y-71.12
X77.978Y-28.702
X77.978Y-33.528
X77.978Y-38.354
X79.248Y-72.39
X79.502Y-23.368
X79.502Y-28.956
X79.502Y-34.036
X79.502Y-62.23
X83.312Y-20.32
T2
X53.7Y-15.7
X53.7Y-18.2
X58.03Y-39.29
X58.03Y-41.83
X58.03Y-44.37
X58.03Y-46.91
X58.03Y-49.45
X58.03Y-51.99
X58.03Y-54.53
X58.03Y-57.07
X58.03Y-59.61
X58.03Y-62.15
X65.65Y-39.29
X65.65Y-41.83
X65.65Y-44.37
X65.65Y-46.91
X65.65Y-49.45
X65.65Y-51.99
X65.65Y-54.53
X65.65Y-57.07
X65.65Y-59.61
X65.65Y-62.15
T3
X15.06Y-26.6
X17.6Y-26.6
T4
X22.352Y-15.748
X22.352Y-18.288
X22.352Y-20.828
X22.352Y-23.368
X22.352Y-25.908
X22.352Y-28.448
X22.352Y-30.988
X22.352Y-33.528
X22.352Y-36.068
X22.352Y-38.608
X22.352Y-41.148
X22.352Y-43.688
X22.352Y-46.228
X22.352Y-48.768
X22.352Y-51.308
X22.352Y-53.848
X22.352Y-56.388
X22.352Y-58.928
X22.352Y-61.468
X22.352Y-64.008
X22.352Y-66.548
X22.352Y-69.088
X47.752Y-15.748
X47.752Y-18.288
X47.752Y-20.828
X47.752Y-23.368
X47.752Y-25.908
X47.752Y-28.448
X47.752Y-30.988
X47.752Y-33.528
X47.752Y-36.068
X47.752Y-38.608
X47.752Y-41.148
X47.752Y-43.688
X47.752Y-46.228
X47.752Y-48.768
X47.752Y-51.308
X47.752Y-53.848
X47.752Y-56.388
X47.752Y-58.928
X47.752Y-61.468
X47.752Y-64.008
X47.752Y-66.548
X47.752Y-69.088
X72.395Y-15.895
X72.395Y-18.435
X74.935Y-15.895
X74.935Y-18.435
X77.475Y-15.895
X77.475Y-18.435
X80.015Y-15.895
X80.015Y-18.435
X82.555Y-15.895
X82.555Y-18.435
X85.095Y-15.895
X85.095Y-18.435
T5
X16.65Y-34.76
X16.65Y-39.84
X80.84Y-42.1
X80.84Y-47.675
X80.84Y-53.25
X85.92Y-42.1
X85.92Y-47.675
X85.92Y-53.25
X85.92Y-58.825
X85.92Y-64.4
X85.92Y-70.2
X85.96Y-26.1
X85.96Y-31.167
X85.96Y-36.233
X91.0Y-42.1
X91.0Y-47.675
X91.0Y-53.25
X91.0Y-58.825
X91.0Y-64.4
X91.0Y-70.2
X91.04Y-26.1
X91.04Y-31.167
X91.04Y-36.233
M30
