%TF.GenerationSoftware,KiCad,Pcbnew,10.0.4-10.0.4~ubuntu24.04.1*%
%TF.CreationDate,2026-07-18T20:21:23-04:00*%
%TF.ProjectId,fluidnc-bob,666c7569-646e-4632-9d62-6f622e6b6963,rev?*%
%TF.SameCoordinates,Original*%
%TF.FileFunction,Drillmap*%
%TF.FilePolarity,Positive*%
%FSLAX45Y45*%
G04 Gerber Fmt 4.5, Leading zero omitted, Abs format (unit mm)*
G04 Created by KiCad (PCBNEW 10.0.4-10.0.4~ubuntu24.04.1) date 2026-07-18 20:21:23*
%MOMM*%
%LPD*%
G01*
G04 APERTURE LIST*
%ADD10C,0.050000*%
%ADD11C,0.200000*%
%ADD12C,0.100000*%
%ADD13C,0.130000*%
G04 APERTURE END LIST*
D10*
X1270000Y-1270000D02*
X9510000Y-1270000D01*
X9510000Y-7520000D01*
X1270000Y-7520000D01*
X1270000Y-1270000D01*
D11*
D12*
X1661400Y-6309600D02*
X1691400Y-6339600D01*
X1691400Y-6309600D02*
X1661400Y-6339600D01*
X2880600Y-3744200D02*
X2910600Y-3774200D01*
X2910600Y-3744200D02*
X2880600Y-3774200D01*
X3033000Y-2271000D02*
X3063000Y-2301000D01*
X3063000Y-2271000D02*
X3033000Y-2301000D01*
X3515600Y-6995400D02*
X3545600Y-7025400D01*
X3545600Y-6995400D02*
X3515600Y-7025400D01*
X3769600Y-5420600D02*
X3799600Y-5450600D01*
X3799600Y-5420600D02*
X3769600Y-5450600D01*
X5065000Y-4379200D02*
X5095000Y-4409200D01*
X5095000Y-4379200D02*
X5065000Y-4409200D01*
X5065000Y-4658600D02*
X5095000Y-4688600D01*
X5095000Y-4658600D02*
X5065000Y-4688600D01*
X5065000Y-4938000D02*
X5095000Y-4968000D01*
X5095000Y-4938000D02*
X5065000Y-4968000D01*
X5065000Y-5192000D02*
X5095000Y-5222000D01*
X5095000Y-5192000D02*
X5065000Y-5222000D01*
X5065000Y-5420600D02*
X5095000Y-5450600D01*
X5095000Y-5420600D02*
X5065000Y-5450600D01*
X5065000Y-5674600D02*
X5095000Y-5704600D01*
X5095000Y-5674600D02*
X5065000Y-5704600D01*
X5065000Y-5954000D02*
X5095000Y-5984000D01*
X5095000Y-5954000D02*
X5065000Y-5984000D01*
X5192000Y-4176000D02*
X5222000Y-4206000D01*
X5222000Y-4176000D02*
X5192000Y-4206000D01*
X5395200Y-6868400D02*
X5425200Y-6898400D01*
X5425200Y-6868400D02*
X5395200Y-6898400D01*
X5928600Y-3261600D02*
X5958600Y-3291600D01*
X5958600Y-3261600D02*
X5928600Y-3291600D01*
X6157200Y-4303000D02*
X6187200Y-4333000D01*
X6187200Y-4303000D02*
X6157200Y-4333000D01*
X6208000Y-5903200D02*
X6238000Y-5933200D01*
X6238000Y-5903200D02*
X6208000Y-5933200D01*
X6716000Y-2144000D02*
X6746000Y-2174000D01*
X6746000Y-2144000D02*
X6716000Y-2174000D01*
X7020800Y-6335000D02*
X7050800Y-6365000D01*
X7050800Y-6335000D02*
X7020800Y-6365000D01*
X7020800Y-7097000D02*
X7050800Y-7127000D01*
X7050800Y-7097000D02*
X7020800Y-7127000D01*
X7782800Y-2855200D02*
X7812800Y-2885200D01*
X7812800Y-2855200D02*
X7782800Y-2885200D01*
X7782800Y-3337800D02*
X7812800Y-3367800D01*
X7812800Y-3337800D02*
X7782800Y-3367800D01*
X7782800Y-3820400D02*
X7812800Y-3850400D01*
X7812800Y-3820400D02*
X7782800Y-3850400D01*
X7909800Y-7224000D02*
X7939800Y-7254000D01*
X7939800Y-7224000D02*
X7909800Y-7254000D01*
X7935200Y-2321800D02*
X7965200Y-2351800D01*
X7965200Y-2321800D02*
X7935200Y-2351800D01*
X7935200Y-2880600D02*
X7965200Y-2910600D01*
X7965200Y-2880600D02*
X7935200Y-2910600D01*
X7935200Y-3388600D02*
X7965200Y-3418600D01*
X7965200Y-3388600D02*
X7935200Y-3418600D01*
X7935200Y-6208000D02*
X7965200Y-6238000D01*
X7965200Y-6208000D02*
X7935200Y-6238000D01*
X8316200Y-2017000D02*
X8346200Y-2047000D01*
X8346200Y-2017000D02*
X8316200Y-2047000D01*
X5410000Y-1570000D02*
G75*
G02*
X5330000Y-1570000I-40000J0D01*
G01*
X5330000Y-1570000D02*
G75*
G02*
X5410000Y-1570000I40000J0D01*
G01*
X5410000Y-1820000D02*
G75*
G02*
X5330000Y-1820000I-40000J0D01*
G01*
X5330000Y-1820000D02*
G75*
G02*
X5410000Y-1820000I40000J0D01*
G01*
X5843000Y-3929000D02*
G75*
G02*
X5763000Y-3929000I-40000J0D01*
G01*
X5763000Y-3929000D02*
G75*
G02*
X5843000Y-3929000I40000J0D01*
G01*
X5843000Y-4183000D02*
G75*
G02*
X5763000Y-4183000I-40000J0D01*
G01*
X5763000Y-4183000D02*
G75*
G02*
X5843000Y-4183000I40000J0D01*
G01*
X5843000Y-4437000D02*
G75*
G02*
X5763000Y-4437000I-40000J0D01*
G01*
X5763000Y-4437000D02*
G75*
G02*
X5843000Y-4437000I40000J0D01*
G01*
X5843000Y-4691000D02*
G75*
G02*
X5763000Y-4691000I-40000J0D01*
G01*
X5763000Y-4691000D02*
G75*
G02*
X5843000Y-4691000I40000J0D01*
G01*
X5843000Y-4945000D02*
G75*
G02*
X5763000Y-4945000I-40000J0D01*
G01*
X5763000Y-4945000D02*
G75*
G02*
X5843000Y-4945000I40000J0D01*
G01*
X5843000Y-5199000D02*
G75*
G02*
X5763000Y-5199000I-40000J0D01*
G01*
X5763000Y-5199000D02*
G75*
G02*
X5843000Y-5199000I40000J0D01*
G01*
X5843000Y-5453000D02*
G75*
G02*
X5763000Y-5453000I-40000J0D01*
G01*
X5763000Y-5453000D02*
G75*
G02*
X5843000Y-5453000I40000J0D01*
G01*
X5843000Y-5707000D02*
G75*
G02*
X5763000Y-5707000I-40000J0D01*
G01*
X5763000Y-5707000D02*
G75*
G02*
X5843000Y-5707000I40000J0D01*
G01*
X5843000Y-5961000D02*
G75*
G02*
X5763000Y-5961000I-40000J0D01*
G01*
X5763000Y-5961000D02*
G75*
G02*
X5843000Y-5961000I40000J0D01*
G01*
X5843000Y-6215000D02*
G75*
G02*
X5763000Y-6215000I-40000J0D01*
G01*
X5763000Y-6215000D02*
G75*
G02*
X5843000Y-6215000I40000J0D01*
G01*
X6605000Y-3929000D02*
G75*
G02*
X6525000Y-3929000I-40000J0D01*
G01*
X6525000Y-3929000D02*
G75*
G02*
X6605000Y-3929000I40000J0D01*
G01*
X6605000Y-4183000D02*
G75*
G02*
X6525000Y-4183000I-40000J0D01*
G01*
X6525000Y-4183000D02*
G75*
G02*
X6605000Y-4183000I40000J0D01*
G01*
X6605000Y-4437000D02*
G75*
G02*
X6525000Y-4437000I-40000J0D01*
G01*
X6525000Y-4437000D02*
G75*
G02*
X6605000Y-4437000I40000J0D01*
G01*
X6605000Y-4691000D02*
G75*
G02*
X6525000Y-4691000I-40000J0D01*
G01*
X6525000Y-4691000D02*
G75*
G02*
X6605000Y-4691000I40000J0D01*
G01*
X6605000Y-4945000D02*
G75*
G02*
X6525000Y-4945000I-40000J0D01*
G01*
X6525000Y-4945000D02*
G75*
G02*
X6605000Y-4945000I40000J0D01*
G01*
X6605000Y-5199000D02*
G75*
G02*
X6525000Y-5199000I-40000J0D01*
G01*
X6525000Y-5199000D02*
G75*
G02*
X6605000Y-5199000I40000J0D01*
G01*
X6605000Y-5453000D02*
G75*
G02*
X6525000Y-5453000I-40000J0D01*
G01*
X6525000Y-5453000D02*
G75*
G02*
X6605000Y-5453000I40000J0D01*
G01*
X6605000Y-5707000D02*
G75*
G02*
X6525000Y-5707000I-40000J0D01*
G01*
X6525000Y-5707000D02*
G75*
G02*
X6605000Y-5707000I40000J0D01*
G01*
X6605000Y-5961000D02*
G75*
G02*
X6525000Y-5961000I-40000J0D01*
G01*
X6525000Y-5961000D02*
G75*
G02*
X6605000Y-5961000I40000J0D01*
G01*
X6605000Y-6215000D02*
G75*
G02*
X6525000Y-6215000I-40000J0D01*
G01*
X6525000Y-6215000D02*
G75*
G02*
X6605000Y-6215000I40000J0D01*
G01*
X1506000Y-2615000D02*
X1506000Y-2705000D01*
X1461000Y-2660000D02*
X1551000Y-2660000D01*
X1760000Y-2615000D02*
X1760000Y-2705000D01*
X1715000Y-2660000D02*
X1805000Y-2660000D01*
X2270556Y-1610156D02*
X2270556Y-1539444D01*
X2199844Y-1539444D01*
X2199844Y-1610156D01*
X2270556Y-1610156D01*
X2270556Y-1864156D02*
X2270556Y-1793444D01*
X2199844Y-1793444D01*
X2199844Y-1864156D01*
X2270556Y-1864156D01*
X2270556Y-2118156D02*
X2270556Y-2047444D01*
X2199844Y-2047444D01*
X2199844Y-2118156D01*
X2270556Y-2118156D01*
X2270556Y-2372156D02*
X2270556Y-2301444D01*
X2199844Y-2301444D01*
X2199844Y-2372156D01*
X2270556Y-2372156D01*
X2270556Y-2626156D02*
X2270556Y-2555444D01*
X2199844Y-2555444D01*
X2199844Y-2626156D01*
X2270556Y-2626156D01*
X2270556Y-2880156D02*
X2270556Y-2809444D01*
X2199844Y-2809444D01*
X2199844Y-2880156D01*
X2270556Y-2880156D01*
X2270556Y-3134156D02*
X2270556Y-3063444D01*
X2199844Y-3063444D01*
X2199844Y-3134156D01*
X2270556Y-3134156D01*
X2270556Y-3388156D02*
X2270556Y-3317444D01*
X2199844Y-3317444D01*
X2199844Y-3388156D01*
X2270556Y-3388156D01*
X2270556Y-3642156D02*
X2270556Y-3571444D01*
X2199844Y-3571444D01*
X2199844Y-3642156D01*
X2270556Y-3642156D01*
X2270556Y-3896156D02*
X2270556Y-3825444D01*
X2199844Y-3825444D01*
X2199844Y-3896156D01*
X2270556Y-3896156D01*
X2270556Y-4150156D02*
X2270556Y-4079444D01*
X2199844Y-4079444D01*
X2199844Y-4150156D01*
X2270556Y-4150156D01*
X2270556Y-4404156D02*
X2270556Y-4333444D01*
X2199844Y-4333444D01*
X2199844Y-4404156D01*
X2270556Y-4404156D01*
X2270556Y-4658156D02*
X2270556Y-4587444D01*
X2199844Y-4587444D01*
X2199844Y-4658156D01*
X2270556Y-4658156D01*
X2270556Y-4912156D02*
X2270556Y-4841444D01*
X2199844Y-4841444D01*
X2199844Y-4912156D01*
X2270556Y-4912156D01*
X2270556Y-5166156D02*
X2270556Y-5095444D01*
X2199844Y-5095444D01*
X2199844Y-5166156D01*
X2270556Y-5166156D01*
X2270556Y-5420156D02*
X2270556Y-5349444D01*
X2199844Y-5349444D01*
X2199844Y-5420156D01*
X2270556Y-5420156D01*
X2270556Y-5674156D02*
X2270556Y-5603444D01*
X2199844Y-5603444D01*
X2199844Y-5674156D01*
X2270556Y-5674156D01*
X2270556Y-5928156D02*
X2270556Y-5857444D01*
X2199844Y-5857444D01*
X2199844Y-5928156D01*
X2270556Y-5928156D01*
X2270556Y-6182156D02*
X2270556Y-6111444D01*
X2199844Y-6111444D01*
X2199844Y-6182156D01*
X2270556Y-6182156D01*
X2270556Y-6436156D02*
X2270556Y-6365444D01*
X2199844Y-6365444D01*
X2199844Y-6436156D01*
X2270556Y-6436156D01*
X2270556Y-6690156D02*
X2270556Y-6619444D01*
X2199844Y-6619444D01*
X2199844Y-6690156D01*
X2270556Y-6690156D01*
X2270556Y-6944156D02*
X2270556Y-6873444D01*
X2199844Y-6873444D01*
X2199844Y-6944156D01*
X2270556Y-6944156D01*
X4810556Y-1610156D02*
X4810556Y-1539444D01*
X4739844Y-1539444D01*
X4739844Y-1610156D01*
X4810556Y-1610156D01*
X4810556Y-1864156D02*
X4810556Y-1793444D01*
X4739844Y-1793444D01*
X4739844Y-1864156D01*
X4810556Y-1864156D01*
X4810556Y-2118156D02*
X4810556Y-2047444D01*
X4739844Y-2047444D01*
X4739844Y-2118156D01*
X4810556Y-2118156D01*
X4810556Y-2372156D02*
X4810556Y-2301444D01*
X4739844Y-2301444D01*
X4739844Y-2372156D01*
X4810556Y-2372156D01*
X4810556Y-2626156D02*
X4810556Y-2555444D01*
X4739844Y-2555444D01*
X4739844Y-2626156D01*
X4810556Y-2626156D01*
X4810556Y-2880156D02*
X4810556Y-2809444D01*
X4739844Y-2809444D01*
X4739844Y-2880156D01*
X4810556Y-2880156D01*
X4810556Y-3134156D02*
X4810556Y-3063444D01*
X4739844Y-3063444D01*
X4739844Y-3134156D01*
X4810556Y-3134156D01*
X4810556Y-3388156D02*
X4810556Y-3317444D01*
X4739844Y-3317444D01*
X4739844Y-3388156D01*
X4810556Y-3388156D01*
X4810556Y-3642156D02*
X4810556Y-3571444D01*
X4739844Y-3571444D01*
X4739844Y-3642156D01*
X4810556Y-3642156D01*
X4810556Y-3896156D02*
X4810556Y-3825444D01*
X4739844Y-3825444D01*
X4739844Y-3896156D01*
X4810556Y-3896156D01*
X4810556Y-4150156D02*
X4810556Y-4079444D01*
X4739844Y-4079444D01*
X4739844Y-4150156D01*
X4810556Y-4150156D01*
X4810556Y-4404156D02*
X4810556Y-4333444D01*
X4739844Y-4333444D01*
X4739844Y-4404156D01*
X4810556Y-4404156D01*
X4810556Y-4658156D02*
X4810556Y-4587444D01*
X4739844Y-4587444D01*
X4739844Y-4658156D01*
X4810556Y-4658156D01*
X4810556Y-4912156D02*
X4810556Y-4841444D01*
X4739844Y-4841444D01*
X4739844Y-4912156D01*
X4810556Y-4912156D01*
X4810556Y-5166156D02*
X4810556Y-5095444D01*
X4739844Y-5095444D01*
X4739844Y-5166156D01*
X4810556Y-5166156D01*
X4810556Y-5420156D02*
X4810556Y-5349444D01*
X4739844Y-5349444D01*
X4739844Y-5420156D01*
X4810556Y-5420156D01*
X4810556Y-5674156D02*
X4810556Y-5603444D01*
X4739844Y-5603444D01*
X4739844Y-5674156D01*
X4810556Y-5674156D01*
X4810556Y-5928156D02*
X4810556Y-5857444D01*
X4739844Y-5857444D01*
X4739844Y-5928156D01*
X4810556Y-5928156D01*
X4810556Y-6182156D02*
X4810556Y-6111444D01*
X4739844Y-6111444D01*
X4739844Y-6182156D01*
X4810556Y-6182156D01*
X4810556Y-6436156D02*
X4810556Y-6365444D01*
X4739844Y-6365444D01*
X4739844Y-6436156D01*
X4810556Y-6436156D01*
X4810556Y-6690156D02*
X4810556Y-6619444D01*
X4739844Y-6619444D01*
X4739844Y-6690156D01*
X4810556Y-6690156D01*
X4810556Y-6944156D02*
X4810556Y-6873444D01*
X4739844Y-6873444D01*
X4739844Y-6944156D01*
X4810556Y-6944156D01*
X7274876Y-1624856D02*
X7274876Y-1554144D01*
X7204164Y-1554144D01*
X7204164Y-1624856D01*
X7274876Y-1624856D01*
X7274876Y-1878856D02*
X7274876Y-1808144D01*
X7204164Y-1808144D01*
X7204164Y-1878856D01*
X7274876Y-1878856D01*
X7528876Y-1624856D02*
X7528876Y-1554144D01*
X7458164Y-1554144D01*
X7458164Y-1624856D01*
X7528876Y-1624856D01*
X7528876Y-1878856D02*
X7528876Y-1808144D01*
X7458164Y-1808144D01*
X7458164Y-1878856D01*
X7528876Y-1878856D01*
X7782876Y-1624856D02*
X7782876Y-1554144D01*
X7712164Y-1554144D01*
X7712164Y-1624856D01*
X7782876Y-1624856D01*
X7782876Y-1878856D02*
X7782876Y-1808144D01*
X7712164Y-1808144D01*
X7712164Y-1878856D01*
X7782876Y-1878856D01*
X8036876Y-1624856D02*
X8036876Y-1554144D01*
X7966164Y-1554144D01*
X7966164Y-1624856D01*
X8036876Y-1624856D01*
X8036876Y-1878856D02*
X8036876Y-1808144D01*
X7966164Y-1808144D01*
X7966164Y-1878856D01*
X8036876Y-1878856D01*
X8290876Y-1624856D02*
X8290876Y-1554144D01*
X8220164Y-1554144D01*
X8220164Y-1624856D01*
X8290876Y-1624856D01*
X8290876Y-1878856D02*
X8290876Y-1808144D01*
X8220164Y-1808144D01*
X8220164Y-1878856D01*
X8290876Y-1878856D01*
X8544876Y-1624856D02*
X8544876Y-1554144D01*
X8474164Y-1554144D01*
X8474164Y-1624856D01*
X8544876Y-1624856D01*
X8544876Y-1878856D02*
X8544876Y-1808144D01*
X8474164Y-1808144D01*
X8474164Y-1878856D01*
X8544876Y-1878856D01*
D13*
X1665000Y-3541000D02*
X1730000Y-3476000D01*
X1665000Y-3411000D01*
X1600000Y-3476000D01*
X1665000Y-3541000D01*
X1665000Y-4049000D02*
X1730000Y-3984000D01*
X1665000Y-3919000D01*
X1600000Y-3984000D01*
X1665000Y-4049000D01*
X8084000Y-4275000D02*
X8149000Y-4210000D01*
X8084000Y-4145000D01*
X8019000Y-4210000D01*
X8084000Y-4275000D01*
X8084000Y-4832500D02*
X8149000Y-4767500D01*
X8084000Y-4702500D01*
X8019000Y-4767500D01*
X8084000Y-4832500D01*
X8084000Y-5390000D02*
X8149000Y-5325000D01*
X8084000Y-5260000D01*
X8019000Y-5325000D01*
X8084000Y-5390000D01*
X8592000Y-4275000D02*
X8657000Y-4210000D01*
X8592000Y-4145000D01*
X8527000Y-4210000D01*
X8592000Y-4275000D01*
X8592000Y-4832500D02*
X8657000Y-4767500D01*
X8592000Y-4702500D01*
X8527000Y-4767500D01*
X8592000Y-4832500D01*
X8592000Y-5390000D02*
X8657000Y-5325000D01*
X8592000Y-5260000D01*
X8527000Y-5325000D01*
X8592000Y-5390000D01*
X8592000Y-5947500D02*
X8657000Y-5882500D01*
X8592000Y-5817500D01*
X8527000Y-5882500D01*
X8592000Y-5947500D01*
X8592000Y-6505000D02*
X8657000Y-6440000D01*
X8592000Y-6375000D01*
X8527000Y-6440000D01*
X8592000Y-6505000D01*
X8592000Y-7085000D02*
X8657000Y-7020000D01*
X8592000Y-6955000D01*
X8527000Y-7020000D01*
X8592000Y-7085000D01*
X8596000Y-2675000D02*
X8661000Y-2610000D01*
X8596000Y-2545000D01*
X8531000Y-2610000D01*
X8596000Y-2675000D01*
X8596000Y-3181667D02*
X8661000Y-3116667D01*
X8596000Y-3051667D01*
X8531000Y-3116667D01*
X8596000Y-3181667D01*
X8596000Y-3688333D02*
X8661000Y-3623333D01*
X8596000Y-3558333D01*
X8531000Y-3623333D01*
X8596000Y-3688333D01*
X9100000Y-4275000D02*
X9165000Y-4210000D01*
X9100000Y-4145000D01*
X9035000Y-4210000D01*
X9100000Y-4275000D01*
X9100000Y-4832500D02*
X9165000Y-4767500D01*
X9100000Y-4702500D01*
X9035000Y-4767500D01*
X9100000Y-4832500D01*
X9100000Y-5390000D02*
X9165000Y-5325000D01*
X9100000Y-5260000D01*
X9035000Y-5325000D01*
X9100000Y-5390000D01*
X9100000Y-5947500D02*
X9165000Y-5882500D01*
X9100000Y-5817500D01*
X9035000Y-5882500D01*
X9100000Y-5947500D01*
X9100000Y-6505000D02*
X9165000Y-6440000D01*
X9100000Y-6375000D01*
X9035000Y-6440000D01*
X9100000Y-6505000D01*
X9100000Y-7085000D02*
X9165000Y-7020000D01*
X9100000Y-6955000D01*
X9035000Y-7020000D01*
X9100000Y-7085000D01*
X9104000Y-2675000D02*
X9169000Y-2610000D01*
X9104000Y-2545000D01*
X9039000Y-2610000D01*
X9104000Y-2675000D01*
X9104000Y-3181667D02*
X9169000Y-3116667D01*
X9104000Y-3051667D01*
X9039000Y-3116667D01*
X9104000Y-3181667D01*
X9104000Y-3688333D02*
X9169000Y-3623333D01*
X9104000Y-3558333D01*
X9039000Y-3623333D01*
X9104000Y-3688333D01*
D11*
X1528277Y-7833984D02*
X1528277Y-7633984D01*
X1528277Y-7633984D02*
X1575896Y-7633984D01*
X1575896Y-7633984D02*
X1604467Y-7643508D01*
X1604467Y-7643508D02*
X1623515Y-7662555D01*
X1623515Y-7662555D02*
X1633039Y-7681603D01*
X1633039Y-7681603D02*
X1642562Y-7719698D01*
X1642562Y-7719698D02*
X1642562Y-7748269D01*
X1642562Y-7748269D02*
X1633039Y-7786365D01*
X1633039Y-7786365D02*
X1623515Y-7805412D01*
X1623515Y-7805412D02*
X1604467Y-7824460D01*
X1604467Y-7824460D02*
X1575896Y-7833984D01*
X1575896Y-7833984D02*
X1528277Y-7833984D01*
X1728277Y-7833984D02*
X1728277Y-7700650D01*
X1728277Y-7738746D02*
X1737801Y-7719698D01*
X1737801Y-7719698D02*
X1747324Y-7710174D01*
X1747324Y-7710174D02*
X1766372Y-7700650D01*
X1766372Y-7700650D02*
X1785420Y-7700650D01*
X1852086Y-7833984D02*
X1852086Y-7700650D01*
X1852086Y-7633984D02*
X1842562Y-7643508D01*
X1842562Y-7643508D02*
X1852086Y-7653031D01*
X1852086Y-7653031D02*
X1861610Y-7643508D01*
X1861610Y-7643508D02*
X1852086Y-7633984D01*
X1852086Y-7633984D02*
X1852086Y-7653031D01*
X1975896Y-7833984D02*
X1956848Y-7824460D01*
X1956848Y-7824460D02*
X1947324Y-7805412D01*
X1947324Y-7805412D02*
X1947324Y-7633984D01*
X2080658Y-7833984D02*
X2061610Y-7824460D01*
X2061610Y-7824460D02*
X2052086Y-7805412D01*
X2052086Y-7805412D02*
X2052086Y-7633984D01*
X2309229Y-7833984D02*
X2309229Y-7633984D01*
X2309229Y-7633984D02*
X2375896Y-7776841D01*
X2375896Y-7776841D02*
X2442563Y-7633984D01*
X2442563Y-7633984D02*
X2442563Y-7833984D01*
X2623515Y-7833984D02*
X2623515Y-7729222D01*
X2623515Y-7729222D02*
X2613991Y-7710174D01*
X2613991Y-7710174D02*
X2594944Y-7700650D01*
X2594944Y-7700650D02*
X2556848Y-7700650D01*
X2556848Y-7700650D02*
X2537801Y-7710174D01*
X2623515Y-7824460D02*
X2604467Y-7833984D01*
X2604467Y-7833984D02*
X2556848Y-7833984D01*
X2556848Y-7833984D02*
X2537801Y-7824460D01*
X2537801Y-7824460D02*
X2528277Y-7805412D01*
X2528277Y-7805412D02*
X2528277Y-7786365D01*
X2528277Y-7786365D02*
X2537801Y-7767317D01*
X2537801Y-7767317D02*
X2556848Y-7757793D01*
X2556848Y-7757793D02*
X2604467Y-7757793D01*
X2604467Y-7757793D02*
X2623515Y-7748269D01*
X2718753Y-7700650D02*
X2718753Y-7900650D01*
X2718753Y-7710174D02*
X2737801Y-7700650D01*
X2737801Y-7700650D02*
X2775896Y-7700650D01*
X2775896Y-7700650D02*
X2794944Y-7710174D01*
X2794944Y-7710174D02*
X2804467Y-7719698D01*
X2804467Y-7719698D02*
X2813991Y-7738746D01*
X2813991Y-7738746D02*
X2813991Y-7795888D01*
X2813991Y-7795888D02*
X2804467Y-7814936D01*
X2804467Y-7814936D02*
X2794944Y-7824460D01*
X2794944Y-7824460D02*
X2775896Y-7833984D01*
X2775896Y-7833984D02*
X2737801Y-7833984D01*
X2737801Y-7833984D02*
X2718753Y-7824460D01*
X2899705Y-7814936D02*
X2909229Y-7824460D01*
X2909229Y-7824460D02*
X2899705Y-7833984D01*
X2899705Y-7833984D02*
X2890182Y-7824460D01*
X2890182Y-7824460D02*
X2899705Y-7814936D01*
X2899705Y-7814936D02*
X2899705Y-7833984D01*
X2899705Y-7710174D02*
X2909229Y-7719698D01*
X2909229Y-7719698D02*
X2899705Y-7729222D01*
X2899705Y-7729222D02*
X2890182Y-7719698D01*
X2890182Y-7719698D02*
X2899705Y-7710174D01*
X2899705Y-7710174D02*
X2899705Y-7729222D01*
D12*
X1237500Y-8147500D02*
X1267500Y-8177500D01*
X1267500Y-8147500D02*
X1237500Y-8177500D01*
D11*
X1566372Y-8053984D02*
X1585420Y-8053984D01*
X1585420Y-8053984D02*
X1604467Y-8063508D01*
X1604467Y-8063508D02*
X1613991Y-8073031D01*
X1613991Y-8073031D02*
X1623515Y-8092079D01*
X1623515Y-8092079D02*
X1633039Y-8130174D01*
X1633039Y-8130174D02*
X1633039Y-8177793D01*
X1633039Y-8177793D02*
X1623515Y-8215888D01*
X1623515Y-8215888D02*
X1613991Y-8234936D01*
X1613991Y-8234936D02*
X1604467Y-8244460D01*
X1604467Y-8244460D02*
X1585420Y-8253984D01*
X1585420Y-8253984D02*
X1566372Y-8253984D01*
X1566372Y-8253984D02*
X1547324Y-8244460D01*
X1547324Y-8244460D02*
X1537801Y-8234936D01*
X1537801Y-8234936D02*
X1528277Y-8215888D01*
X1528277Y-8215888D02*
X1518753Y-8177793D01*
X1518753Y-8177793D02*
X1518753Y-8130174D01*
X1518753Y-8130174D02*
X1528277Y-8092079D01*
X1528277Y-8092079D02*
X1537801Y-8073031D01*
X1537801Y-8073031D02*
X1547324Y-8063508D01*
X1547324Y-8063508D02*
X1566372Y-8053984D01*
X1718753Y-8234936D02*
X1728277Y-8244460D01*
X1728277Y-8244460D02*
X1718753Y-8253984D01*
X1718753Y-8253984D02*
X1709229Y-8244460D01*
X1709229Y-8244460D02*
X1718753Y-8234936D01*
X1718753Y-8234936D02*
X1718753Y-8253984D01*
X1794943Y-8053984D02*
X1918753Y-8053984D01*
X1918753Y-8053984D02*
X1852086Y-8130174D01*
X1852086Y-8130174D02*
X1880658Y-8130174D01*
X1880658Y-8130174D02*
X1899705Y-8139698D01*
X1899705Y-8139698D02*
X1909229Y-8149222D01*
X1909229Y-8149222D02*
X1918753Y-8168269D01*
X1918753Y-8168269D02*
X1918753Y-8215888D01*
X1918753Y-8215888D02*
X1909229Y-8234936D01*
X1909229Y-8234936D02*
X1899705Y-8244460D01*
X1899705Y-8244460D02*
X1880658Y-8253984D01*
X1880658Y-8253984D02*
X1823515Y-8253984D01*
X1823515Y-8253984D02*
X1804467Y-8244460D01*
X1804467Y-8244460D02*
X1794943Y-8234936D01*
X2042562Y-8053984D02*
X2061610Y-8053984D01*
X2061610Y-8053984D02*
X2080658Y-8063508D01*
X2080658Y-8063508D02*
X2090182Y-8073031D01*
X2090182Y-8073031D02*
X2099705Y-8092079D01*
X2099705Y-8092079D02*
X2109229Y-8130174D01*
X2109229Y-8130174D02*
X2109229Y-8177793D01*
X2109229Y-8177793D02*
X2099705Y-8215888D01*
X2099705Y-8215888D02*
X2090182Y-8234936D01*
X2090182Y-8234936D02*
X2080658Y-8244460D01*
X2080658Y-8244460D02*
X2061610Y-8253984D01*
X2061610Y-8253984D02*
X2042562Y-8253984D01*
X2042562Y-8253984D02*
X2023515Y-8244460D01*
X2023515Y-8244460D02*
X2013991Y-8234936D01*
X2013991Y-8234936D02*
X2004467Y-8215888D01*
X2004467Y-8215888D02*
X1994943Y-8177793D01*
X1994943Y-8177793D02*
X1994943Y-8130174D01*
X1994943Y-8130174D02*
X2004467Y-8092079D01*
X2004467Y-8092079D02*
X2013991Y-8073031D01*
X2013991Y-8073031D02*
X2023515Y-8063508D01*
X2023515Y-8063508D02*
X2042562Y-8053984D01*
X2233039Y-8053984D02*
X2252086Y-8053984D01*
X2252086Y-8053984D02*
X2271134Y-8063508D01*
X2271134Y-8063508D02*
X2280658Y-8073031D01*
X2280658Y-8073031D02*
X2290182Y-8092079D01*
X2290182Y-8092079D02*
X2299705Y-8130174D01*
X2299705Y-8130174D02*
X2299705Y-8177793D01*
X2299705Y-8177793D02*
X2290182Y-8215888D01*
X2290182Y-8215888D02*
X2280658Y-8234936D01*
X2280658Y-8234936D02*
X2271134Y-8244460D01*
X2271134Y-8244460D02*
X2252086Y-8253984D01*
X2252086Y-8253984D02*
X2233039Y-8253984D01*
X2233039Y-8253984D02*
X2213991Y-8244460D01*
X2213991Y-8244460D02*
X2204467Y-8234936D01*
X2204467Y-8234936D02*
X2194944Y-8215888D01*
X2194944Y-8215888D02*
X2185420Y-8177793D01*
X2185420Y-8177793D02*
X2185420Y-8130174D01*
X2185420Y-8130174D02*
X2194944Y-8092079D01*
X2194944Y-8092079D02*
X2204467Y-8073031D01*
X2204467Y-8073031D02*
X2213991Y-8063508D01*
X2213991Y-8063508D02*
X2233039Y-8053984D01*
X2385420Y-8253984D02*
X2385420Y-8120650D01*
X2385420Y-8139698D02*
X2394944Y-8130174D01*
X2394944Y-8130174D02*
X2413991Y-8120650D01*
X2413991Y-8120650D02*
X2442563Y-8120650D01*
X2442563Y-8120650D02*
X2461610Y-8130174D01*
X2461610Y-8130174D02*
X2471134Y-8149222D01*
X2471134Y-8149222D02*
X2471134Y-8253984D01*
X2471134Y-8149222D02*
X2480658Y-8130174D01*
X2480658Y-8130174D02*
X2499705Y-8120650D01*
X2499705Y-8120650D02*
X2528277Y-8120650D01*
X2528277Y-8120650D02*
X2547325Y-8130174D01*
X2547325Y-8130174D02*
X2556848Y-8149222D01*
X2556848Y-8149222D02*
X2556848Y-8253984D01*
X2652086Y-8253984D02*
X2652086Y-8120650D01*
X2652086Y-8139698D02*
X2661610Y-8130174D01*
X2661610Y-8130174D02*
X2680658Y-8120650D01*
X2680658Y-8120650D02*
X2709229Y-8120650D01*
X2709229Y-8120650D02*
X2728277Y-8130174D01*
X2728277Y-8130174D02*
X2737801Y-8149222D01*
X2737801Y-8149222D02*
X2737801Y-8253984D01*
X2737801Y-8149222D02*
X2747325Y-8130174D01*
X2747325Y-8130174D02*
X2766372Y-8120650D01*
X2766372Y-8120650D02*
X2794944Y-8120650D01*
X2794944Y-8120650D02*
X2813991Y-8130174D01*
X2813991Y-8130174D02*
X2823515Y-8149222D01*
X2823515Y-8149222D02*
X2823515Y-8253984D01*
X3213991Y-8044460D02*
X3042563Y-8301603D01*
X3471134Y-8053984D02*
X3490182Y-8053984D01*
X3490182Y-8053984D02*
X3509229Y-8063508D01*
X3509229Y-8063508D02*
X3518753Y-8073031D01*
X3518753Y-8073031D02*
X3528277Y-8092079D01*
X3528277Y-8092079D02*
X3537801Y-8130174D01*
X3537801Y-8130174D02*
X3537801Y-8177793D01*
X3537801Y-8177793D02*
X3528277Y-8215888D01*
X3528277Y-8215888D02*
X3518753Y-8234936D01*
X3518753Y-8234936D02*
X3509229Y-8244460D01*
X3509229Y-8244460D02*
X3490182Y-8253984D01*
X3490182Y-8253984D02*
X3471134Y-8253984D01*
X3471134Y-8253984D02*
X3452086Y-8244460D01*
X3452086Y-8244460D02*
X3442563Y-8234936D01*
X3442563Y-8234936D02*
X3433039Y-8215888D01*
X3433039Y-8215888D02*
X3423515Y-8177793D01*
X3423515Y-8177793D02*
X3423515Y-8130174D01*
X3423515Y-8130174D02*
X3433039Y-8092079D01*
X3433039Y-8092079D02*
X3442563Y-8073031D01*
X3442563Y-8073031D02*
X3452086Y-8063508D01*
X3452086Y-8063508D02*
X3471134Y-8053984D01*
X3623515Y-8234936D02*
X3633039Y-8244460D01*
X3633039Y-8244460D02*
X3623515Y-8253984D01*
X3623515Y-8253984D02*
X3613991Y-8244460D01*
X3613991Y-8244460D02*
X3623515Y-8234936D01*
X3623515Y-8234936D02*
X3623515Y-8253984D01*
X3756848Y-8053984D02*
X3775896Y-8053984D01*
X3775896Y-8053984D02*
X3794944Y-8063508D01*
X3794944Y-8063508D02*
X3804467Y-8073031D01*
X3804467Y-8073031D02*
X3813991Y-8092079D01*
X3813991Y-8092079D02*
X3823515Y-8130174D01*
X3823515Y-8130174D02*
X3823515Y-8177793D01*
X3823515Y-8177793D02*
X3813991Y-8215888D01*
X3813991Y-8215888D02*
X3804467Y-8234936D01*
X3804467Y-8234936D02*
X3794944Y-8244460D01*
X3794944Y-8244460D02*
X3775896Y-8253984D01*
X3775896Y-8253984D02*
X3756848Y-8253984D01*
X3756848Y-8253984D02*
X3737801Y-8244460D01*
X3737801Y-8244460D02*
X3728277Y-8234936D01*
X3728277Y-8234936D02*
X3718753Y-8215888D01*
X3718753Y-8215888D02*
X3709229Y-8177793D01*
X3709229Y-8177793D02*
X3709229Y-8130174D01*
X3709229Y-8130174D02*
X3718753Y-8092079D01*
X3718753Y-8092079D02*
X3728277Y-8073031D01*
X3728277Y-8073031D02*
X3737801Y-8063508D01*
X3737801Y-8063508D02*
X3756848Y-8053984D01*
X4013991Y-8253984D02*
X3899706Y-8253984D01*
X3956848Y-8253984D02*
X3956848Y-8053984D01*
X3956848Y-8053984D02*
X3937801Y-8082555D01*
X3937801Y-8082555D02*
X3918753Y-8101603D01*
X3918753Y-8101603D02*
X3899706Y-8111127D01*
X4204468Y-8253984D02*
X4090182Y-8253984D01*
X4147325Y-8253984D02*
X4147325Y-8053984D01*
X4147325Y-8053984D02*
X4128277Y-8082555D01*
X4128277Y-8082555D02*
X4109229Y-8101603D01*
X4109229Y-8101603D02*
X4090182Y-8111127D01*
X4318753Y-8139698D02*
X4299706Y-8130174D01*
X4299706Y-8130174D02*
X4290182Y-8120650D01*
X4290182Y-8120650D02*
X4280658Y-8101603D01*
X4280658Y-8101603D02*
X4280658Y-8092079D01*
X4280658Y-8092079D02*
X4290182Y-8073031D01*
X4290182Y-8073031D02*
X4299706Y-8063508D01*
X4299706Y-8063508D02*
X4318753Y-8053984D01*
X4318753Y-8053984D02*
X4356849Y-8053984D01*
X4356849Y-8053984D02*
X4375896Y-8063508D01*
X4375896Y-8063508D02*
X4385420Y-8073031D01*
X4385420Y-8073031D02*
X4394944Y-8092079D01*
X4394944Y-8092079D02*
X4394944Y-8101603D01*
X4394944Y-8101603D02*
X4385420Y-8120650D01*
X4385420Y-8120650D02*
X4375896Y-8130174D01*
X4375896Y-8130174D02*
X4356849Y-8139698D01*
X4356849Y-8139698D02*
X4318753Y-8139698D01*
X4318753Y-8139698D02*
X4299706Y-8149222D01*
X4299706Y-8149222D02*
X4290182Y-8158746D01*
X4290182Y-8158746D02*
X4280658Y-8177793D01*
X4280658Y-8177793D02*
X4280658Y-8215888D01*
X4280658Y-8215888D02*
X4290182Y-8234936D01*
X4290182Y-8234936D02*
X4299706Y-8244460D01*
X4299706Y-8244460D02*
X4318753Y-8253984D01*
X4318753Y-8253984D02*
X4356849Y-8253984D01*
X4356849Y-8253984D02*
X4375896Y-8244460D01*
X4375896Y-8244460D02*
X4385420Y-8234936D01*
X4385420Y-8234936D02*
X4394944Y-8215888D01*
X4394944Y-8215888D02*
X4394944Y-8177793D01*
X4394944Y-8177793D02*
X4385420Y-8158746D01*
X4385420Y-8158746D02*
X4375896Y-8149222D01*
X4375896Y-8149222D02*
X4356849Y-8139698D01*
X4471134Y-8053984D02*
X4471134Y-8092079D01*
X4547325Y-8053984D02*
X4547325Y-8092079D01*
X4842563Y-8330174D02*
X4833039Y-8320650D01*
X4833039Y-8320650D02*
X4813991Y-8292079D01*
X4813991Y-8292079D02*
X4804468Y-8273031D01*
X4804468Y-8273031D02*
X4794944Y-8244460D01*
X4794944Y-8244460D02*
X4785420Y-8196841D01*
X4785420Y-8196841D02*
X4785420Y-8158746D01*
X4785420Y-8158746D02*
X4794944Y-8111127D01*
X4794944Y-8111127D02*
X4804468Y-8082555D01*
X4804468Y-8082555D02*
X4813991Y-8063508D01*
X4813991Y-8063508D02*
X4833039Y-8034936D01*
X4833039Y-8034936D02*
X4842563Y-8025412D01*
X4909230Y-8073031D02*
X4918753Y-8063508D01*
X4918753Y-8063508D02*
X4937801Y-8053984D01*
X4937801Y-8053984D02*
X4985420Y-8053984D01*
X4985420Y-8053984D02*
X5004468Y-8063508D01*
X5004468Y-8063508D02*
X5013991Y-8073031D01*
X5013991Y-8073031D02*
X5023515Y-8092079D01*
X5023515Y-8092079D02*
X5023515Y-8111127D01*
X5023515Y-8111127D02*
X5013991Y-8139698D01*
X5013991Y-8139698D02*
X4899706Y-8253984D01*
X4899706Y-8253984D02*
X5023515Y-8253984D01*
X5118753Y-8253984D02*
X5156849Y-8253984D01*
X5156849Y-8253984D02*
X5175896Y-8244460D01*
X5175896Y-8244460D02*
X5185420Y-8234936D01*
X5185420Y-8234936D02*
X5204468Y-8206365D01*
X5204468Y-8206365D02*
X5213991Y-8168269D01*
X5213991Y-8168269D02*
X5213991Y-8092079D01*
X5213991Y-8092079D02*
X5204468Y-8073031D01*
X5204468Y-8073031D02*
X5194944Y-8063508D01*
X5194944Y-8063508D02*
X5175896Y-8053984D01*
X5175896Y-8053984D02*
X5137801Y-8053984D01*
X5137801Y-8053984D02*
X5118753Y-8063508D01*
X5118753Y-8063508D02*
X5109230Y-8073031D01*
X5109230Y-8073031D02*
X5099706Y-8092079D01*
X5099706Y-8092079D02*
X5099706Y-8139698D01*
X5099706Y-8139698D02*
X5109230Y-8158746D01*
X5109230Y-8158746D02*
X5118753Y-8168269D01*
X5118753Y-8168269D02*
X5137801Y-8177793D01*
X5137801Y-8177793D02*
X5175896Y-8177793D01*
X5175896Y-8177793D02*
X5194944Y-8168269D01*
X5194944Y-8168269D02*
X5204468Y-8158746D01*
X5204468Y-8158746D02*
X5213991Y-8139698D01*
X5452087Y-8253984D02*
X5452087Y-8053984D01*
X5537801Y-8253984D02*
X5537801Y-8149222D01*
X5537801Y-8149222D02*
X5528277Y-8130174D01*
X5528277Y-8130174D02*
X5509230Y-8120650D01*
X5509230Y-8120650D02*
X5480658Y-8120650D01*
X5480658Y-8120650D02*
X5461611Y-8130174D01*
X5461611Y-8130174D02*
X5452087Y-8139698D01*
X5661610Y-8253984D02*
X5642563Y-8244460D01*
X5642563Y-8244460D02*
X5633039Y-8234936D01*
X5633039Y-8234936D02*
X5623515Y-8215888D01*
X5623515Y-8215888D02*
X5623515Y-8158746D01*
X5623515Y-8158746D02*
X5633039Y-8139698D01*
X5633039Y-8139698D02*
X5642563Y-8130174D01*
X5642563Y-8130174D02*
X5661610Y-8120650D01*
X5661610Y-8120650D02*
X5690182Y-8120650D01*
X5690182Y-8120650D02*
X5709230Y-8130174D01*
X5709230Y-8130174D02*
X5718753Y-8139698D01*
X5718753Y-8139698D02*
X5728277Y-8158746D01*
X5728277Y-8158746D02*
X5728277Y-8215888D01*
X5728277Y-8215888D02*
X5718753Y-8234936D01*
X5718753Y-8234936D02*
X5709230Y-8244460D01*
X5709230Y-8244460D02*
X5690182Y-8253984D01*
X5690182Y-8253984D02*
X5661610Y-8253984D01*
X5842563Y-8253984D02*
X5823515Y-8244460D01*
X5823515Y-8244460D02*
X5813991Y-8225412D01*
X5813991Y-8225412D02*
X5813991Y-8053984D01*
X5994944Y-8244460D02*
X5975896Y-8253984D01*
X5975896Y-8253984D02*
X5937801Y-8253984D01*
X5937801Y-8253984D02*
X5918753Y-8244460D01*
X5918753Y-8244460D02*
X5909230Y-8225412D01*
X5909230Y-8225412D02*
X5909230Y-8149222D01*
X5909230Y-8149222D02*
X5918753Y-8130174D01*
X5918753Y-8130174D02*
X5937801Y-8120650D01*
X5937801Y-8120650D02*
X5975896Y-8120650D01*
X5975896Y-8120650D02*
X5994944Y-8130174D01*
X5994944Y-8130174D02*
X6004468Y-8149222D01*
X6004468Y-8149222D02*
X6004468Y-8168269D01*
X6004468Y-8168269D02*
X5909230Y-8187317D01*
X6080658Y-8244460D02*
X6099706Y-8253984D01*
X6099706Y-8253984D02*
X6137801Y-8253984D01*
X6137801Y-8253984D02*
X6156849Y-8244460D01*
X6156849Y-8244460D02*
X6166372Y-8225412D01*
X6166372Y-8225412D02*
X6166372Y-8215888D01*
X6166372Y-8215888D02*
X6156849Y-8196841D01*
X6156849Y-8196841D02*
X6137801Y-8187317D01*
X6137801Y-8187317D02*
X6109230Y-8187317D01*
X6109230Y-8187317D02*
X6090182Y-8177793D01*
X6090182Y-8177793D02*
X6080658Y-8158746D01*
X6080658Y-8158746D02*
X6080658Y-8149222D01*
X6080658Y-8149222D02*
X6090182Y-8130174D01*
X6090182Y-8130174D02*
X6109230Y-8120650D01*
X6109230Y-8120650D02*
X6137801Y-8120650D01*
X6137801Y-8120650D02*
X6156849Y-8130174D01*
X6233039Y-8330174D02*
X6242563Y-8320650D01*
X6242563Y-8320650D02*
X6261611Y-8292079D01*
X6261611Y-8292079D02*
X6271134Y-8273031D01*
X6271134Y-8273031D02*
X6280658Y-8244460D01*
X6280658Y-8244460D02*
X6290182Y-8196841D01*
X6290182Y-8196841D02*
X6290182Y-8158746D01*
X6290182Y-8158746D02*
X6280658Y-8111127D01*
X6280658Y-8111127D02*
X6271134Y-8082555D01*
X6271134Y-8082555D02*
X6261611Y-8063508D01*
X6261611Y-8063508D02*
X6242563Y-8034936D01*
X6242563Y-8034936D02*
X6233039Y-8025412D01*
D12*
X1267500Y-8426500D02*
G75*
G02*
X1187500Y-8426500I-40000J0D01*
G01*
X1187500Y-8426500D02*
G75*
G02*
X1267500Y-8426500I40000J0D01*
G01*
D11*
X1566372Y-8317984D02*
X1585420Y-8317984D01*
X1585420Y-8317984D02*
X1604467Y-8327508D01*
X1604467Y-8327508D02*
X1613991Y-8337031D01*
X1613991Y-8337031D02*
X1623515Y-8356079D01*
X1623515Y-8356079D02*
X1633039Y-8394174D01*
X1633039Y-8394174D02*
X1633039Y-8441793D01*
X1633039Y-8441793D02*
X1623515Y-8479889D01*
X1623515Y-8479889D02*
X1613991Y-8498936D01*
X1613991Y-8498936D02*
X1604467Y-8508460D01*
X1604467Y-8508460D02*
X1585420Y-8517984D01*
X1585420Y-8517984D02*
X1566372Y-8517984D01*
X1566372Y-8517984D02*
X1547324Y-8508460D01*
X1547324Y-8508460D02*
X1537801Y-8498936D01*
X1537801Y-8498936D02*
X1528277Y-8479889D01*
X1528277Y-8479889D02*
X1518753Y-8441793D01*
X1518753Y-8441793D02*
X1518753Y-8394174D01*
X1518753Y-8394174D02*
X1528277Y-8356079D01*
X1528277Y-8356079D02*
X1537801Y-8337031D01*
X1537801Y-8337031D02*
X1547324Y-8327508D01*
X1547324Y-8327508D02*
X1566372Y-8317984D01*
X1718753Y-8498936D02*
X1728277Y-8508460D01*
X1728277Y-8508460D02*
X1718753Y-8517984D01*
X1718753Y-8517984D02*
X1709229Y-8508460D01*
X1709229Y-8508460D02*
X1718753Y-8498936D01*
X1718753Y-8498936D02*
X1718753Y-8517984D01*
X1842562Y-8403698D02*
X1823515Y-8394174D01*
X1823515Y-8394174D02*
X1813991Y-8384650D01*
X1813991Y-8384650D02*
X1804467Y-8365603D01*
X1804467Y-8365603D02*
X1804467Y-8356079D01*
X1804467Y-8356079D02*
X1813991Y-8337031D01*
X1813991Y-8337031D02*
X1823515Y-8327508D01*
X1823515Y-8327508D02*
X1842562Y-8317984D01*
X1842562Y-8317984D02*
X1880658Y-8317984D01*
X1880658Y-8317984D02*
X1899705Y-8327508D01*
X1899705Y-8327508D02*
X1909229Y-8337031D01*
X1909229Y-8337031D02*
X1918753Y-8356079D01*
X1918753Y-8356079D02*
X1918753Y-8365603D01*
X1918753Y-8365603D02*
X1909229Y-8384650D01*
X1909229Y-8384650D02*
X1899705Y-8394174D01*
X1899705Y-8394174D02*
X1880658Y-8403698D01*
X1880658Y-8403698D02*
X1842562Y-8403698D01*
X1842562Y-8403698D02*
X1823515Y-8413222D01*
X1823515Y-8413222D02*
X1813991Y-8422746D01*
X1813991Y-8422746D02*
X1804467Y-8441793D01*
X1804467Y-8441793D02*
X1804467Y-8479889D01*
X1804467Y-8479889D02*
X1813991Y-8498936D01*
X1813991Y-8498936D02*
X1823515Y-8508460D01*
X1823515Y-8508460D02*
X1842562Y-8517984D01*
X1842562Y-8517984D02*
X1880658Y-8517984D01*
X1880658Y-8517984D02*
X1899705Y-8508460D01*
X1899705Y-8508460D02*
X1909229Y-8498936D01*
X1909229Y-8498936D02*
X1918753Y-8479889D01*
X1918753Y-8479889D02*
X1918753Y-8441793D01*
X1918753Y-8441793D02*
X1909229Y-8422746D01*
X1909229Y-8422746D02*
X1899705Y-8413222D01*
X1899705Y-8413222D02*
X1880658Y-8403698D01*
X2042562Y-8317984D02*
X2061610Y-8317984D01*
X2061610Y-8317984D02*
X2080658Y-8327508D01*
X2080658Y-8327508D02*
X2090182Y-8337031D01*
X2090182Y-8337031D02*
X2099705Y-8356079D01*
X2099705Y-8356079D02*
X2109229Y-8394174D01*
X2109229Y-8394174D02*
X2109229Y-8441793D01*
X2109229Y-8441793D02*
X2099705Y-8479889D01*
X2099705Y-8479889D02*
X2090182Y-8498936D01*
X2090182Y-8498936D02*
X2080658Y-8508460D01*
X2080658Y-8508460D02*
X2061610Y-8517984D01*
X2061610Y-8517984D02*
X2042562Y-8517984D01*
X2042562Y-8517984D02*
X2023515Y-8508460D01*
X2023515Y-8508460D02*
X2013991Y-8498936D01*
X2013991Y-8498936D02*
X2004467Y-8479889D01*
X2004467Y-8479889D02*
X1994943Y-8441793D01*
X1994943Y-8441793D02*
X1994943Y-8394174D01*
X1994943Y-8394174D02*
X2004467Y-8356079D01*
X2004467Y-8356079D02*
X2013991Y-8337031D01*
X2013991Y-8337031D02*
X2023515Y-8327508D01*
X2023515Y-8327508D02*
X2042562Y-8317984D01*
X2233039Y-8317984D02*
X2252086Y-8317984D01*
X2252086Y-8317984D02*
X2271134Y-8327508D01*
X2271134Y-8327508D02*
X2280658Y-8337031D01*
X2280658Y-8337031D02*
X2290182Y-8356079D01*
X2290182Y-8356079D02*
X2299705Y-8394174D01*
X2299705Y-8394174D02*
X2299705Y-8441793D01*
X2299705Y-8441793D02*
X2290182Y-8479889D01*
X2290182Y-8479889D02*
X2280658Y-8498936D01*
X2280658Y-8498936D02*
X2271134Y-8508460D01*
X2271134Y-8508460D02*
X2252086Y-8517984D01*
X2252086Y-8517984D02*
X2233039Y-8517984D01*
X2233039Y-8517984D02*
X2213991Y-8508460D01*
X2213991Y-8508460D02*
X2204467Y-8498936D01*
X2204467Y-8498936D02*
X2194944Y-8479889D01*
X2194944Y-8479889D02*
X2185420Y-8441793D01*
X2185420Y-8441793D02*
X2185420Y-8394174D01*
X2185420Y-8394174D02*
X2194944Y-8356079D01*
X2194944Y-8356079D02*
X2204467Y-8337031D01*
X2204467Y-8337031D02*
X2213991Y-8327508D01*
X2213991Y-8327508D02*
X2233039Y-8317984D01*
X2385420Y-8517984D02*
X2385420Y-8384650D01*
X2385420Y-8403698D02*
X2394944Y-8394174D01*
X2394944Y-8394174D02*
X2413991Y-8384650D01*
X2413991Y-8384650D02*
X2442563Y-8384650D01*
X2442563Y-8384650D02*
X2461610Y-8394174D01*
X2461610Y-8394174D02*
X2471134Y-8413222D01*
X2471134Y-8413222D02*
X2471134Y-8517984D01*
X2471134Y-8413222D02*
X2480658Y-8394174D01*
X2480658Y-8394174D02*
X2499705Y-8384650D01*
X2499705Y-8384650D02*
X2528277Y-8384650D01*
X2528277Y-8384650D02*
X2547325Y-8394174D01*
X2547325Y-8394174D02*
X2556848Y-8413222D01*
X2556848Y-8413222D02*
X2556848Y-8517984D01*
X2652086Y-8517984D02*
X2652086Y-8384650D01*
X2652086Y-8403698D02*
X2661610Y-8394174D01*
X2661610Y-8394174D02*
X2680658Y-8384650D01*
X2680658Y-8384650D02*
X2709229Y-8384650D01*
X2709229Y-8384650D02*
X2728277Y-8394174D01*
X2728277Y-8394174D02*
X2737801Y-8413222D01*
X2737801Y-8413222D02*
X2737801Y-8517984D01*
X2737801Y-8413222D02*
X2747325Y-8394174D01*
X2747325Y-8394174D02*
X2766372Y-8384650D01*
X2766372Y-8384650D02*
X2794944Y-8384650D01*
X2794944Y-8384650D02*
X2813991Y-8394174D01*
X2813991Y-8394174D02*
X2823515Y-8413222D01*
X2823515Y-8413222D02*
X2823515Y-8517984D01*
X3213991Y-8308460D02*
X3042563Y-8565603D01*
X3471134Y-8317984D02*
X3490182Y-8317984D01*
X3490182Y-8317984D02*
X3509229Y-8327508D01*
X3509229Y-8327508D02*
X3518753Y-8337031D01*
X3518753Y-8337031D02*
X3528277Y-8356079D01*
X3528277Y-8356079D02*
X3537801Y-8394174D01*
X3537801Y-8394174D02*
X3537801Y-8441793D01*
X3537801Y-8441793D02*
X3528277Y-8479889D01*
X3528277Y-8479889D02*
X3518753Y-8498936D01*
X3518753Y-8498936D02*
X3509229Y-8508460D01*
X3509229Y-8508460D02*
X3490182Y-8517984D01*
X3490182Y-8517984D02*
X3471134Y-8517984D01*
X3471134Y-8517984D02*
X3452086Y-8508460D01*
X3452086Y-8508460D02*
X3442563Y-8498936D01*
X3442563Y-8498936D02*
X3433039Y-8479889D01*
X3433039Y-8479889D02*
X3423515Y-8441793D01*
X3423515Y-8441793D02*
X3423515Y-8394174D01*
X3423515Y-8394174D02*
X3433039Y-8356079D01*
X3433039Y-8356079D02*
X3442563Y-8337031D01*
X3442563Y-8337031D02*
X3452086Y-8327508D01*
X3452086Y-8327508D02*
X3471134Y-8317984D01*
X3623515Y-8498936D02*
X3633039Y-8508460D01*
X3633039Y-8508460D02*
X3623515Y-8517984D01*
X3623515Y-8517984D02*
X3613991Y-8508460D01*
X3613991Y-8508460D02*
X3623515Y-8498936D01*
X3623515Y-8498936D02*
X3623515Y-8517984D01*
X3756848Y-8317984D02*
X3775896Y-8317984D01*
X3775896Y-8317984D02*
X3794944Y-8327508D01*
X3794944Y-8327508D02*
X3804467Y-8337031D01*
X3804467Y-8337031D02*
X3813991Y-8356079D01*
X3813991Y-8356079D02*
X3823515Y-8394174D01*
X3823515Y-8394174D02*
X3823515Y-8441793D01*
X3823515Y-8441793D02*
X3813991Y-8479889D01*
X3813991Y-8479889D02*
X3804467Y-8498936D01*
X3804467Y-8498936D02*
X3794944Y-8508460D01*
X3794944Y-8508460D02*
X3775896Y-8517984D01*
X3775896Y-8517984D02*
X3756848Y-8517984D01*
X3756848Y-8517984D02*
X3737801Y-8508460D01*
X3737801Y-8508460D02*
X3728277Y-8498936D01*
X3728277Y-8498936D02*
X3718753Y-8479889D01*
X3718753Y-8479889D02*
X3709229Y-8441793D01*
X3709229Y-8441793D02*
X3709229Y-8394174D01*
X3709229Y-8394174D02*
X3718753Y-8356079D01*
X3718753Y-8356079D02*
X3728277Y-8337031D01*
X3728277Y-8337031D02*
X3737801Y-8327508D01*
X3737801Y-8327508D02*
X3756848Y-8317984D01*
X3890182Y-8317984D02*
X4013991Y-8317984D01*
X4013991Y-8317984D02*
X3947325Y-8394174D01*
X3947325Y-8394174D02*
X3975896Y-8394174D01*
X3975896Y-8394174D02*
X3994944Y-8403698D01*
X3994944Y-8403698D02*
X4004467Y-8413222D01*
X4004467Y-8413222D02*
X4013991Y-8432270D01*
X4013991Y-8432270D02*
X4013991Y-8479889D01*
X4013991Y-8479889D02*
X4004467Y-8498936D01*
X4004467Y-8498936D02*
X3994944Y-8508460D01*
X3994944Y-8508460D02*
X3975896Y-8517984D01*
X3975896Y-8517984D02*
X3918753Y-8517984D01*
X3918753Y-8517984D02*
X3899706Y-8508460D01*
X3899706Y-8508460D02*
X3890182Y-8498936D01*
X4204468Y-8517984D02*
X4090182Y-8517984D01*
X4147325Y-8517984D02*
X4147325Y-8317984D01*
X4147325Y-8317984D02*
X4128277Y-8346555D01*
X4128277Y-8346555D02*
X4109229Y-8365603D01*
X4109229Y-8365603D02*
X4090182Y-8375127D01*
X4385420Y-8317984D02*
X4290182Y-8317984D01*
X4290182Y-8317984D02*
X4280658Y-8413222D01*
X4280658Y-8413222D02*
X4290182Y-8403698D01*
X4290182Y-8403698D02*
X4309229Y-8394174D01*
X4309229Y-8394174D02*
X4356849Y-8394174D01*
X4356849Y-8394174D02*
X4375896Y-8403698D01*
X4375896Y-8403698D02*
X4385420Y-8413222D01*
X4385420Y-8413222D02*
X4394944Y-8432270D01*
X4394944Y-8432270D02*
X4394944Y-8479889D01*
X4394944Y-8479889D02*
X4385420Y-8498936D01*
X4385420Y-8498936D02*
X4375896Y-8508460D01*
X4375896Y-8508460D02*
X4356849Y-8517984D01*
X4356849Y-8517984D02*
X4309229Y-8517984D01*
X4309229Y-8517984D02*
X4290182Y-8508460D01*
X4290182Y-8508460D02*
X4280658Y-8498936D01*
X4471134Y-8317984D02*
X4471134Y-8356079D01*
X4547325Y-8317984D02*
X4547325Y-8356079D01*
X4842563Y-8594174D02*
X4833039Y-8584650D01*
X4833039Y-8584650D02*
X4813991Y-8556079D01*
X4813991Y-8556079D02*
X4804468Y-8537031D01*
X4804468Y-8537031D02*
X4794944Y-8508460D01*
X4794944Y-8508460D02*
X4785420Y-8460841D01*
X4785420Y-8460841D02*
X4785420Y-8422746D01*
X4785420Y-8422746D02*
X4794944Y-8375127D01*
X4794944Y-8375127D02*
X4804468Y-8346555D01*
X4804468Y-8346555D02*
X4813991Y-8327508D01*
X4813991Y-8327508D02*
X4833039Y-8298936D01*
X4833039Y-8298936D02*
X4842563Y-8289412D01*
X4909230Y-8337031D02*
X4918753Y-8327508D01*
X4918753Y-8327508D02*
X4937801Y-8317984D01*
X4937801Y-8317984D02*
X4985420Y-8317984D01*
X4985420Y-8317984D02*
X5004468Y-8327508D01*
X5004468Y-8327508D02*
X5013991Y-8337031D01*
X5013991Y-8337031D02*
X5023515Y-8356079D01*
X5023515Y-8356079D02*
X5023515Y-8375127D01*
X5023515Y-8375127D02*
X5013991Y-8403698D01*
X5013991Y-8403698D02*
X4899706Y-8517984D01*
X4899706Y-8517984D02*
X5023515Y-8517984D01*
X5099706Y-8337031D02*
X5109230Y-8327508D01*
X5109230Y-8327508D02*
X5128277Y-8317984D01*
X5128277Y-8317984D02*
X5175896Y-8317984D01*
X5175896Y-8317984D02*
X5194944Y-8327508D01*
X5194944Y-8327508D02*
X5204468Y-8337031D01*
X5204468Y-8337031D02*
X5213991Y-8356079D01*
X5213991Y-8356079D02*
X5213991Y-8375127D01*
X5213991Y-8375127D02*
X5204468Y-8403698D01*
X5204468Y-8403698D02*
X5090182Y-8517984D01*
X5090182Y-8517984D02*
X5213991Y-8517984D01*
X5452087Y-8517984D02*
X5452087Y-8317984D01*
X5537801Y-8517984D02*
X5537801Y-8413222D01*
X5537801Y-8413222D02*
X5528277Y-8394174D01*
X5528277Y-8394174D02*
X5509230Y-8384650D01*
X5509230Y-8384650D02*
X5480658Y-8384650D01*
X5480658Y-8384650D02*
X5461611Y-8394174D01*
X5461611Y-8394174D02*
X5452087Y-8403698D01*
X5661610Y-8517984D02*
X5642563Y-8508460D01*
X5642563Y-8508460D02*
X5633039Y-8498936D01*
X5633039Y-8498936D02*
X5623515Y-8479889D01*
X5623515Y-8479889D02*
X5623515Y-8422746D01*
X5623515Y-8422746D02*
X5633039Y-8403698D01*
X5633039Y-8403698D02*
X5642563Y-8394174D01*
X5642563Y-8394174D02*
X5661610Y-8384650D01*
X5661610Y-8384650D02*
X5690182Y-8384650D01*
X5690182Y-8384650D02*
X5709230Y-8394174D01*
X5709230Y-8394174D02*
X5718753Y-8403698D01*
X5718753Y-8403698D02*
X5728277Y-8422746D01*
X5728277Y-8422746D02*
X5728277Y-8479889D01*
X5728277Y-8479889D02*
X5718753Y-8498936D01*
X5718753Y-8498936D02*
X5709230Y-8508460D01*
X5709230Y-8508460D02*
X5690182Y-8517984D01*
X5690182Y-8517984D02*
X5661610Y-8517984D01*
X5842563Y-8517984D02*
X5823515Y-8508460D01*
X5823515Y-8508460D02*
X5813991Y-8489412D01*
X5813991Y-8489412D02*
X5813991Y-8317984D01*
X5994944Y-8508460D02*
X5975896Y-8517984D01*
X5975896Y-8517984D02*
X5937801Y-8517984D01*
X5937801Y-8517984D02*
X5918753Y-8508460D01*
X5918753Y-8508460D02*
X5909230Y-8489412D01*
X5909230Y-8489412D02*
X5909230Y-8413222D01*
X5909230Y-8413222D02*
X5918753Y-8394174D01*
X5918753Y-8394174D02*
X5937801Y-8384650D01*
X5937801Y-8384650D02*
X5975896Y-8384650D01*
X5975896Y-8384650D02*
X5994944Y-8394174D01*
X5994944Y-8394174D02*
X6004468Y-8413222D01*
X6004468Y-8413222D02*
X6004468Y-8432270D01*
X6004468Y-8432270D02*
X5909230Y-8451317D01*
X6080658Y-8508460D02*
X6099706Y-8517984D01*
X6099706Y-8517984D02*
X6137801Y-8517984D01*
X6137801Y-8517984D02*
X6156849Y-8508460D01*
X6156849Y-8508460D02*
X6166372Y-8489412D01*
X6166372Y-8489412D02*
X6166372Y-8479889D01*
X6166372Y-8479889D02*
X6156849Y-8460841D01*
X6156849Y-8460841D02*
X6137801Y-8451317D01*
X6137801Y-8451317D02*
X6109230Y-8451317D01*
X6109230Y-8451317D02*
X6090182Y-8441793D01*
X6090182Y-8441793D02*
X6080658Y-8422746D01*
X6080658Y-8422746D02*
X6080658Y-8413222D01*
X6080658Y-8413222D02*
X6090182Y-8394174D01*
X6090182Y-8394174D02*
X6109230Y-8384650D01*
X6109230Y-8384650D02*
X6137801Y-8384650D01*
X6137801Y-8384650D02*
X6156849Y-8394174D01*
X6233039Y-8594174D02*
X6242563Y-8584650D01*
X6242563Y-8584650D02*
X6261611Y-8556079D01*
X6261611Y-8556079D02*
X6271134Y-8537031D01*
X6271134Y-8537031D02*
X6280658Y-8508460D01*
X6280658Y-8508460D02*
X6290182Y-8460841D01*
X6290182Y-8460841D02*
X6290182Y-8422746D01*
X6290182Y-8422746D02*
X6280658Y-8375127D01*
X6280658Y-8375127D02*
X6271134Y-8346555D01*
X6271134Y-8346555D02*
X6261611Y-8327508D01*
X6261611Y-8327508D02*
X6242563Y-8298936D01*
X6242563Y-8298936D02*
X6233039Y-8289412D01*
D12*
X1222500Y-8645500D02*
X1222500Y-8735500D01*
X1177500Y-8690500D02*
X1267500Y-8690500D01*
D11*
X1566372Y-8581984D02*
X1585420Y-8581984D01*
X1585420Y-8581984D02*
X1604467Y-8591508D01*
X1604467Y-8591508D02*
X1613991Y-8601031D01*
X1613991Y-8601031D02*
X1623515Y-8620079D01*
X1623515Y-8620079D02*
X1633039Y-8658174D01*
X1633039Y-8658174D02*
X1633039Y-8705793D01*
X1633039Y-8705793D02*
X1623515Y-8743889D01*
X1623515Y-8743889D02*
X1613991Y-8762936D01*
X1613991Y-8762936D02*
X1604467Y-8772460D01*
X1604467Y-8772460D02*
X1585420Y-8781984D01*
X1585420Y-8781984D02*
X1566372Y-8781984D01*
X1566372Y-8781984D02*
X1547324Y-8772460D01*
X1547324Y-8772460D02*
X1537801Y-8762936D01*
X1537801Y-8762936D02*
X1528277Y-8743889D01*
X1528277Y-8743889D02*
X1518753Y-8705793D01*
X1518753Y-8705793D02*
X1518753Y-8658174D01*
X1518753Y-8658174D02*
X1528277Y-8620079D01*
X1528277Y-8620079D02*
X1537801Y-8601031D01*
X1537801Y-8601031D02*
X1547324Y-8591508D01*
X1547324Y-8591508D02*
X1566372Y-8581984D01*
X1718753Y-8762936D02*
X1728277Y-8772460D01*
X1728277Y-8772460D02*
X1718753Y-8781984D01*
X1718753Y-8781984D02*
X1709229Y-8772460D01*
X1709229Y-8772460D02*
X1718753Y-8762936D01*
X1718753Y-8762936D02*
X1718753Y-8781984D01*
X1823515Y-8781984D02*
X1861610Y-8781984D01*
X1861610Y-8781984D02*
X1880658Y-8772460D01*
X1880658Y-8772460D02*
X1890182Y-8762936D01*
X1890182Y-8762936D02*
X1909229Y-8734365D01*
X1909229Y-8734365D02*
X1918753Y-8696270D01*
X1918753Y-8696270D02*
X1918753Y-8620079D01*
X1918753Y-8620079D02*
X1909229Y-8601031D01*
X1909229Y-8601031D02*
X1899705Y-8591508D01*
X1899705Y-8591508D02*
X1880658Y-8581984D01*
X1880658Y-8581984D02*
X1842562Y-8581984D01*
X1842562Y-8581984D02*
X1823515Y-8591508D01*
X1823515Y-8591508D02*
X1813991Y-8601031D01*
X1813991Y-8601031D02*
X1804467Y-8620079D01*
X1804467Y-8620079D02*
X1804467Y-8667698D01*
X1804467Y-8667698D02*
X1813991Y-8686746D01*
X1813991Y-8686746D02*
X1823515Y-8696270D01*
X1823515Y-8696270D02*
X1842562Y-8705793D01*
X1842562Y-8705793D02*
X1880658Y-8705793D01*
X1880658Y-8705793D02*
X1899705Y-8696270D01*
X1899705Y-8696270D02*
X1909229Y-8686746D01*
X1909229Y-8686746D02*
X1918753Y-8667698D01*
X2042562Y-8581984D02*
X2061610Y-8581984D01*
X2061610Y-8581984D02*
X2080658Y-8591508D01*
X2080658Y-8591508D02*
X2090182Y-8601031D01*
X2090182Y-8601031D02*
X2099705Y-8620079D01*
X2099705Y-8620079D02*
X2109229Y-8658174D01*
X2109229Y-8658174D02*
X2109229Y-8705793D01*
X2109229Y-8705793D02*
X2099705Y-8743889D01*
X2099705Y-8743889D02*
X2090182Y-8762936D01*
X2090182Y-8762936D02*
X2080658Y-8772460D01*
X2080658Y-8772460D02*
X2061610Y-8781984D01*
X2061610Y-8781984D02*
X2042562Y-8781984D01*
X2042562Y-8781984D02*
X2023515Y-8772460D01*
X2023515Y-8772460D02*
X2013991Y-8762936D01*
X2013991Y-8762936D02*
X2004467Y-8743889D01*
X2004467Y-8743889D02*
X1994943Y-8705793D01*
X1994943Y-8705793D02*
X1994943Y-8658174D01*
X1994943Y-8658174D02*
X2004467Y-8620079D01*
X2004467Y-8620079D02*
X2013991Y-8601031D01*
X2013991Y-8601031D02*
X2023515Y-8591508D01*
X2023515Y-8591508D02*
X2042562Y-8581984D01*
X2233039Y-8581984D02*
X2252086Y-8581984D01*
X2252086Y-8581984D02*
X2271134Y-8591508D01*
X2271134Y-8591508D02*
X2280658Y-8601031D01*
X2280658Y-8601031D02*
X2290182Y-8620079D01*
X2290182Y-8620079D02*
X2299705Y-8658174D01*
X2299705Y-8658174D02*
X2299705Y-8705793D01*
X2299705Y-8705793D02*
X2290182Y-8743889D01*
X2290182Y-8743889D02*
X2280658Y-8762936D01*
X2280658Y-8762936D02*
X2271134Y-8772460D01*
X2271134Y-8772460D02*
X2252086Y-8781984D01*
X2252086Y-8781984D02*
X2233039Y-8781984D01*
X2233039Y-8781984D02*
X2213991Y-8772460D01*
X2213991Y-8772460D02*
X2204467Y-8762936D01*
X2204467Y-8762936D02*
X2194944Y-8743889D01*
X2194944Y-8743889D02*
X2185420Y-8705793D01*
X2185420Y-8705793D02*
X2185420Y-8658174D01*
X2185420Y-8658174D02*
X2194944Y-8620079D01*
X2194944Y-8620079D02*
X2204467Y-8601031D01*
X2204467Y-8601031D02*
X2213991Y-8591508D01*
X2213991Y-8591508D02*
X2233039Y-8581984D01*
X2385420Y-8781984D02*
X2385420Y-8648650D01*
X2385420Y-8667698D02*
X2394944Y-8658174D01*
X2394944Y-8658174D02*
X2413991Y-8648650D01*
X2413991Y-8648650D02*
X2442563Y-8648650D01*
X2442563Y-8648650D02*
X2461610Y-8658174D01*
X2461610Y-8658174D02*
X2471134Y-8677222D01*
X2471134Y-8677222D02*
X2471134Y-8781984D01*
X2471134Y-8677222D02*
X2480658Y-8658174D01*
X2480658Y-8658174D02*
X2499705Y-8648650D01*
X2499705Y-8648650D02*
X2528277Y-8648650D01*
X2528277Y-8648650D02*
X2547325Y-8658174D01*
X2547325Y-8658174D02*
X2556848Y-8677222D01*
X2556848Y-8677222D02*
X2556848Y-8781984D01*
X2652086Y-8781984D02*
X2652086Y-8648650D01*
X2652086Y-8667698D02*
X2661610Y-8658174D01*
X2661610Y-8658174D02*
X2680658Y-8648650D01*
X2680658Y-8648650D02*
X2709229Y-8648650D01*
X2709229Y-8648650D02*
X2728277Y-8658174D01*
X2728277Y-8658174D02*
X2737801Y-8677222D01*
X2737801Y-8677222D02*
X2737801Y-8781984D01*
X2737801Y-8677222D02*
X2747325Y-8658174D01*
X2747325Y-8658174D02*
X2766372Y-8648650D01*
X2766372Y-8648650D02*
X2794944Y-8648650D01*
X2794944Y-8648650D02*
X2813991Y-8658174D01*
X2813991Y-8658174D02*
X2823515Y-8677222D01*
X2823515Y-8677222D02*
X2823515Y-8781984D01*
X3213991Y-8572460D02*
X3042563Y-8829603D01*
X3471134Y-8581984D02*
X3490182Y-8581984D01*
X3490182Y-8581984D02*
X3509229Y-8591508D01*
X3509229Y-8591508D02*
X3518753Y-8601031D01*
X3518753Y-8601031D02*
X3528277Y-8620079D01*
X3528277Y-8620079D02*
X3537801Y-8658174D01*
X3537801Y-8658174D02*
X3537801Y-8705793D01*
X3537801Y-8705793D02*
X3528277Y-8743889D01*
X3528277Y-8743889D02*
X3518753Y-8762936D01*
X3518753Y-8762936D02*
X3509229Y-8772460D01*
X3509229Y-8772460D02*
X3490182Y-8781984D01*
X3490182Y-8781984D02*
X3471134Y-8781984D01*
X3471134Y-8781984D02*
X3452086Y-8772460D01*
X3452086Y-8772460D02*
X3442563Y-8762936D01*
X3442563Y-8762936D02*
X3433039Y-8743889D01*
X3433039Y-8743889D02*
X3423515Y-8705793D01*
X3423515Y-8705793D02*
X3423515Y-8658174D01*
X3423515Y-8658174D02*
X3433039Y-8620079D01*
X3433039Y-8620079D02*
X3442563Y-8601031D01*
X3442563Y-8601031D02*
X3452086Y-8591508D01*
X3452086Y-8591508D02*
X3471134Y-8581984D01*
X3623515Y-8762936D02*
X3633039Y-8772460D01*
X3633039Y-8772460D02*
X3623515Y-8781984D01*
X3623515Y-8781984D02*
X3613991Y-8772460D01*
X3613991Y-8772460D02*
X3623515Y-8762936D01*
X3623515Y-8762936D02*
X3623515Y-8781984D01*
X3756848Y-8581984D02*
X3775896Y-8581984D01*
X3775896Y-8581984D02*
X3794944Y-8591508D01*
X3794944Y-8591508D02*
X3804467Y-8601031D01*
X3804467Y-8601031D02*
X3813991Y-8620079D01*
X3813991Y-8620079D02*
X3823515Y-8658174D01*
X3823515Y-8658174D02*
X3823515Y-8705793D01*
X3823515Y-8705793D02*
X3813991Y-8743889D01*
X3813991Y-8743889D02*
X3804467Y-8762936D01*
X3804467Y-8762936D02*
X3794944Y-8772460D01*
X3794944Y-8772460D02*
X3775896Y-8781984D01*
X3775896Y-8781984D02*
X3756848Y-8781984D01*
X3756848Y-8781984D02*
X3737801Y-8772460D01*
X3737801Y-8772460D02*
X3728277Y-8762936D01*
X3728277Y-8762936D02*
X3718753Y-8743889D01*
X3718753Y-8743889D02*
X3709229Y-8705793D01*
X3709229Y-8705793D02*
X3709229Y-8658174D01*
X3709229Y-8658174D02*
X3718753Y-8620079D01*
X3718753Y-8620079D02*
X3728277Y-8601031D01*
X3728277Y-8601031D02*
X3737801Y-8591508D01*
X3737801Y-8591508D02*
X3756848Y-8581984D01*
X3890182Y-8581984D02*
X4013991Y-8581984D01*
X4013991Y-8581984D02*
X3947325Y-8658174D01*
X3947325Y-8658174D02*
X3975896Y-8658174D01*
X3975896Y-8658174D02*
X3994944Y-8667698D01*
X3994944Y-8667698D02*
X4004467Y-8677222D01*
X4004467Y-8677222D02*
X4013991Y-8696270D01*
X4013991Y-8696270D02*
X4013991Y-8743889D01*
X4013991Y-8743889D02*
X4004467Y-8762936D01*
X4004467Y-8762936D02*
X3994944Y-8772460D01*
X3994944Y-8772460D02*
X3975896Y-8781984D01*
X3975896Y-8781984D02*
X3918753Y-8781984D01*
X3918753Y-8781984D02*
X3899706Y-8772460D01*
X3899706Y-8772460D02*
X3890182Y-8762936D01*
X4194944Y-8581984D02*
X4099706Y-8581984D01*
X4099706Y-8581984D02*
X4090182Y-8677222D01*
X4090182Y-8677222D02*
X4099706Y-8667698D01*
X4099706Y-8667698D02*
X4118753Y-8658174D01*
X4118753Y-8658174D02*
X4166372Y-8658174D01*
X4166372Y-8658174D02*
X4185420Y-8667698D01*
X4185420Y-8667698D02*
X4194944Y-8677222D01*
X4194944Y-8677222D02*
X4204468Y-8696270D01*
X4204468Y-8696270D02*
X4204468Y-8743889D01*
X4204468Y-8743889D02*
X4194944Y-8762936D01*
X4194944Y-8762936D02*
X4185420Y-8772460D01*
X4185420Y-8772460D02*
X4166372Y-8781984D01*
X4166372Y-8781984D02*
X4118753Y-8781984D01*
X4118753Y-8781984D02*
X4099706Y-8772460D01*
X4099706Y-8772460D02*
X4090182Y-8762936D01*
X4375896Y-8648650D02*
X4375896Y-8781984D01*
X4328277Y-8572460D02*
X4280658Y-8715317D01*
X4280658Y-8715317D02*
X4404468Y-8715317D01*
X4471134Y-8581984D02*
X4471134Y-8620079D01*
X4547325Y-8581984D02*
X4547325Y-8620079D01*
X4842563Y-8858174D02*
X4833039Y-8848650D01*
X4833039Y-8848650D02*
X4813991Y-8820079D01*
X4813991Y-8820079D02*
X4804468Y-8801031D01*
X4804468Y-8801031D02*
X4794944Y-8772460D01*
X4794944Y-8772460D02*
X4785420Y-8724841D01*
X4785420Y-8724841D02*
X4785420Y-8686746D01*
X4785420Y-8686746D02*
X4794944Y-8639127D01*
X4794944Y-8639127D02*
X4804468Y-8610555D01*
X4804468Y-8610555D02*
X4813991Y-8591508D01*
X4813991Y-8591508D02*
X4833039Y-8562936D01*
X4833039Y-8562936D02*
X4842563Y-8553412D01*
X4909230Y-8601031D02*
X4918753Y-8591508D01*
X4918753Y-8591508D02*
X4937801Y-8581984D01*
X4937801Y-8581984D02*
X4985420Y-8581984D01*
X4985420Y-8581984D02*
X5004468Y-8591508D01*
X5004468Y-8591508D02*
X5013991Y-8601031D01*
X5013991Y-8601031D02*
X5023515Y-8620079D01*
X5023515Y-8620079D02*
X5023515Y-8639127D01*
X5023515Y-8639127D02*
X5013991Y-8667698D01*
X5013991Y-8667698D02*
X4899706Y-8781984D01*
X4899706Y-8781984D02*
X5023515Y-8781984D01*
X5261611Y-8781984D02*
X5261611Y-8581984D01*
X5347325Y-8781984D02*
X5347325Y-8677222D01*
X5347325Y-8677222D02*
X5337801Y-8658174D01*
X5337801Y-8658174D02*
X5318753Y-8648650D01*
X5318753Y-8648650D02*
X5290182Y-8648650D01*
X5290182Y-8648650D02*
X5271134Y-8658174D01*
X5271134Y-8658174D02*
X5261611Y-8667698D01*
X5471134Y-8781984D02*
X5452087Y-8772460D01*
X5452087Y-8772460D02*
X5442563Y-8762936D01*
X5442563Y-8762936D02*
X5433039Y-8743889D01*
X5433039Y-8743889D02*
X5433039Y-8686746D01*
X5433039Y-8686746D02*
X5442563Y-8667698D01*
X5442563Y-8667698D02*
X5452087Y-8658174D01*
X5452087Y-8658174D02*
X5471134Y-8648650D01*
X5471134Y-8648650D02*
X5499706Y-8648650D01*
X5499706Y-8648650D02*
X5518753Y-8658174D01*
X5518753Y-8658174D02*
X5528277Y-8667698D01*
X5528277Y-8667698D02*
X5537801Y-8686746D01*
X5537801Y-8686746D02*
X5537801Y-8743889D01*
X5537801Y-8743889D02*
X5528277Y-8762936D01*
X5528277Y-8762936D02*
X5518753Y-8772460D01*
X5518753Y-8772460D02*
X5499706Y-8781984D01*
X5499706Y-8781984D02*
X5471134Y-8781984D01*
X5652087Y-8781984D02*
X5633039Y-8772460D01*
X5633039Y-8772460D02*
X5623515Y-8753412D01*
X5623515Y-8753412D02*
X5623515Y-8581984D01*
X5804468Y-8772460D02*
X5785420Y-8781984D01*
X5785420Y-8781984D02*
X5747325Y-8781984D01*
X5747325Y-8781984D02*
X5728277Y-8772460D01*
X5728277Y-8772460D02*
X5718753Y-8753412D01*
X5718753Y-8753412D02*
X5718753Y-8677222D01*
X5718753Y-8677222D02*
X5728277Y-8658174D01*
X5728277Y-8658174D02*
X5747325Y-8648650D01*
X5747325Y-8648650D02*
X5785420Y-8648650D01*
X5785420Y-8648650D02*
X5804468Y-8658174D01*
X5804468Y-8658174D02*
X5813991Y-8677222D01*
X5813991Y-8677222D02*
X5813991Y-8696270D01*
X5813991Y-8696270D02*
X5718753Y-8715317D01*
X5890182Y-8772460D02*
X5909230Y-8781984D01*
X5909230Y-8781984D02*
X5947325Y-8781984D01*
X5947325Y-8781984D02*
X5966372Y-8772460D01*
X5966372Y-8772460D02*
X5975896Y-8753412D01*
X5975896Y-8753412D02*
X5975896Y-8743889D01*
X5975896Y-8743889D02*
X5966372Y-8724841D01*
X5966372Y-8724841D02*
X5947325Y-8715317D01*
X5947325Y-8715317D02*
X5918753Y-8715317D01*
X5918753Y-8715317D02*
X5899706Y-8705793D01*
X5899706Y-8705793D02*
X5890182Y-8686746D01*
X5890182Y-8686746D02*
X5890182Y-8677222D01*
X5890182Y-8677222D02*
X5899706Y-8658174D01*
X5899706Y-8658174D02*
X5918753Y-8648650D01*
X5918753Y-8648650D02*
X5947325Y-8648650D01*
X5947325Y-8648650D02*
X5966372Y-8658174D01*
X6042563Y-8858174D02*
X6052087Y-8848650D01*
X6052087Y-8848650D02*
X6071134Y-8820079D01*
X6071134Y-8820079D02*
X6080658Y-8801031D01*
X6080658Y-8801031D02*
X6090182Y-8772460D01*
X6090182Y-8772460D02*
X6099706Y-8724841D01*
X6099706Y-8724841D02*
X6099706Y-8686746D01*
X6099706Y-8686746D02*
X6090182Y-8639127D01*
X6090182Y-8639127D02*
X6080658Y-8610555D01*
X6080658Y-8610555D02*
X6071134Y-8591508D01*
X6071134Y-8591508D02*
X6052087Y-8562936D01*
X6052087Y-8562936D02*
X6042563Y-8553412D01*
D12*
X1252856Y-8989856D02*
X1252856Y-8919144D01*
X1182144Y-8919144D01*
X1182144Y-8989856D01*
X1252856Y-8989856D01*
D11*
X1633039Y-9045984D02*
X1518753Y-9045984D01*
X1575896Y-9045984D02*
X1575896Y-8845984D01*
X1575896Y-8845984D02*
X1556848Y-8874555D01*
X1556848Y-8874555D02*
X1537801Y-8893603D01*
X1537801Y-8893603D02*
X1518753Y-8903127D01*
X1718753Y-9026936D02*
X1728277Y-9036460D01*
X1728277Y-9036460D02*
X1718753Y-9045984D01*
X1718753Y-9045984D02*
X1709229Y-9036460D01*
X1709229Y-9036460D02*
X1718753Y-9026936D01*
X1718753Y-9026936D02*
X1718753Y-9045984D01*
X1852086Y-8845984D02*
X1871134Y-8845984D01*
X1871134Y-8845984D02*
X1890182Y-8855508D01*
X1890182Y-8855508D02*
X1899705Y-8865031D01*
X1899705Y-8865031D02*
X1909229Y-8884079D01*
X1909229Y-8884079D02*
X1918753Y-8922174D01*
X1918753Y-8922174D02*
X1918753Y-8969793D01*
X1918753Y-8969793D02*
X1909229Y-9007889D01*
X1909229Y-9007889D02*
X1899705Y-9026936D01*
X1899705Y-9026936D02*
X1890182Y-9036460D01*
X1890182Y-9036460D02*
X1871134Y-9045984D01*
X1871134Y-9045984D02*
X1852086Y-9045984D01*
X1852086Y-9045984D02*
X1833039Y-9036460D01*
X1833039Y-9036460D02*
X1823515Y-9026936D01*
X1823515Y-9026936D02*
X1813991Y-9007889D01*
X1813991Y-9007889D02*
X1804467Y-8969793D01*
X1804467Y-8969793D02*
X1804467Y-8922174D01*
X1804467Y-8922174D02*
X1813991Y-8884079D01*
X1813991Y-8884079D02*
X1823515Y-8865031D01*
X1823515Y-8865031D02*
X1833039Y-8855508D01*
X1833039Y-8855508D02*
X1852086Y-8845984D01*
X2042562Y-8845984D02*
X2061610Y-8845984D01*
X2061610Y-8845984D02*
X2080658Y-8855508D01*
X2080658Y-8855508D02*
X2090182Y-8865031D01*
X2090182Y-8865031D02*
X2099705Y-8884079D01*
X2099705Y-8884079D02*
X2109229Y-8922174D01*
X2109229Y-8922174D02*
X2109229Y-8969793D01*
X2109229Y-8969793D02*
X2099705Y-9007889D01*
X2099705Y-9007889D02*
X2090182Y-9026936D01*
X2090182Y-9026936D02*
X2080658Y-9036460D01*
X2080658Y-9036460D02*
X2061610Y-9045984D01*
X2061610Y-9045984D02*
X2042562Y-9045984D01*
X2042562Y-9045984D02*
X2023515Y-9036460D01*
X2023515Y-9036460D02*
X2013991Y-9026936D01*
X2013991Y-9026936D02*
X2004467Y-9007889D01*
X2004467Y-9007889D02*
X1994943Y-8969793D01*
X1994943Y-8969793D02*
X1994943Y-8922174D01*
X1994943Y-8922174D02*
X2004467Y-8884079D01*
X2004467Y-8884079D02*
X2013991Y-8865031D01*
X2013991Y-8865031D02*
X2023515Y-8855508D01*
X2023515Y-8855508D02*
X2042562Y-8845984D01*
X2233039Y-8845984D02*
X2252086Y-8845984D01*
X2252086Y-8845984D02*
X2271134Y-8855508D01*
X2271134Y-8855508D02*
X2280658Y-8865031D01*
X2280658Y-8865031D02*
X2290182Y-8884079D01*
X2290182Y-8884079D02*
X2299705Y-8922174D01*
X2299705Y-8922174D02*
X2299705Y-8969793D01*
X2299705Y-8969793D02*
X2290182Y-9007889D01*
X2290182Y-9007889D02*
X2280658Y-9026936D01*
X2280658Y-9026936D02*
X2271134Y-9036460D01*
X2271134Y-9036460D02*
X2252086Y-9045984D01*
X2252086Y-9045984D02*
X2233039Y-9045984D01*
X2233039Y-9045984D02*
X2213991Y-9036460D01*
X2213991Y-9036460D02*
X2204467Y-9026936D01*
X2204467Y-9026936D02*
X2194944Y-9007889D01*
X2194944Y-9007889D02*
X2185420Y-8969793D01*
X2185420Y-8969793D02*
X2185420Y-8922174D01*
X2185420Y-8922174D02*
X2194944Y-8884079D01*
X2194944Y-8884079D02*
X2204467Y-8865031D01*
X2204467Y-8865031D02*
X2213991Y-8855508D01*
X2213991Y-8855508D02*
X2233039Y-8845984D01*
X2385420Y-9045984D02*
X2385420Y-8912650D01*
X2385420Y-8931698D02*
X2394944Y-8922174D01*
X2394944Y-8922174D02*
X2413991Y-8912650D01*
X2413991Y-8912650D02*
X2442563Y-8912650D01*
X2442563Y-8912650D02*
X2461610Y-8922174D01*
X2461610Y-8922174D02*
X2471134Y-8941222D01*
X2471134Y-8941222D02*
X2471134Y-9045984D01*
X2471134Y-8941222D02*
X2480658Y-8922174D01*
X2480658Y-8922174D02*
X2499705Y-8912650D01*
X2499705Y-8912650D02*
X2528277Y-8912650D01*
X2528277Y-8912650D02*
X2547325Y-8922174D01*
X2547325Y-8922174D02*
X2556848Y-8941222D01*
X2556848Y-8941222D02*
X2556848Y-9045984D01*
X2652086Y-9045984D02*
X2652086Y-8912650D01*
X2652086Y-8931698D02*
X2661610Y-8922174D01*
X2661610Y-8922174D02*
X2680658Y-8912650D01*
X2680658Y-8912650D02*
X2709229Y-8912650D01*
X2709229Y-8912650D02*
X2728277Y-8922174D01*
X2728277Y-8922174D02*
X2737801Y-8941222D01*
X2737801Y-8941222D02*
X2737801Y-9045984D01*
X2737801Y-8941222D02*
X2747325Y-8922174D01*
X2747325Y-8922174D02*
X2766372Y-8912650D01*
X2766372Y-8912650D02*
X2794944Y-8912650D01*
X2794944Y-8912650D02*
X2813991Y-8922174D01*
X2813991Y-8922174D02*
X2823515Y-8941222D01*
X2823515Y-8941222D02*
X2823515Y-9045984D01*
X3213991Y-8836460D02*
X3042563Y-9093603D01*
X3471134Y-8845984D02*
X3490182Y-8845984D01*
X3490182Y-8845984D02*
X3509229Y-8855508D01*
X3509229Y-8855508D02*
X3518753Y-8865031D01*
X3518753Y-8865031D02*
X3528277Y-8884079D01*
X3528277Y-8884079D02*
X3537801Y-8922174D01*
X3537801Y-8922174D02*
X3537801Y-8969793D01*
X3537801Y-8969793D02*
X3528277Y-9007889D01*
X3528277Y-9007889D02*
X3518753Y-9026936D01*
X3518753Y-9026936D02*
X3509229Y-9036460D01*
X3509229Y-9036460D02*
X3490182Y-9045984D01*
X3490182Y-9045984D02*
X3471134Y-9045984D01*
X3471134Y-9045984D02*
X3452086Y-9036460D01*
X3452086Y-9036460D02*
X3442563Y-9026936D01*
X3442563Y-9026936D02*
X3433039Y-9007889D01*
X3433039Y-9007889D02*
X3423515Y-8969793D01*
X3423515Y-8969793D02*
X3423515Y-8922174D01*
X3423515Y-8922174D02*
X3433039Y-8884079D01*
X3433039Y-8884079D02*
X3442563Y-8865031D01*
X3442563Y-8865031D02*
X3452086Y-8855508D01*
X3452086Y-8855508D02*
X3471134Y-8845984D01*
X3623515Y-9026936D02*
X3633039Y-9036460D01*
X3633039Y-9036460D02*
X3623515Y-9045984D01*
X3623515Y-9045984D02*
X3613991Y-9036460D01*
X3613991Y-9036460D02*
X3623515Y-9026936D01*
X3623515Y-9026936D02*
X3623515Y-9045984D01*
X3756848Y-8845984D02*
X3775896Y-8845984D01*
X3775896Y-8845984D02*
X3794944Y-8855508D01*
X3794944Y-8855508D02*
X3804467Y-8865031D01*
X3804467Y-8865031D02*
X3813991Y-8884079D01*
X3813991Y-8884079D02*
X3823515Y-8922174D01*
X3823515Y-8922174D02*
X3823515Y-8969793D01*
X3823515Y-8969793D02*
X3813991Y-9007889D01*
X3813991Y-9007889D02*
X3804467Y-9026936D01*
X3804467Y-9026936D02*
X3794944Y-9036460D01*
X3794944Y-9036460D02*
X3775896Y-9045984D01*
X3775896Y-9045984D02*
X3756848Y-9045984D01*
X3756848Y-9045984D02*
X3737801Y-9036460D01*
X3737801Y-9036460D02*
X3728277Y-9026936D01*
X3728277Y-9026936D02*
X3718753Y-9007889D01*
X3718753Y-9007889D02*
X3709229Y-8969793D01*
X3709229Y-8969793D02*
X3709229Y-8922174D01*
X3709229Y-8922174D02*
X3718753Y-8884079D01*
X3718753Y-8884079D02*
X3728277Y-8865031D01*
X3728277Y-8865031D02*
X3737801Y-8855508D01*
X3737801Y-8855508D02*
X3756848Y-8845984D01*
X3890182Y-8845984D02*
X4013991Y-8845984D01*
X4013991Y-8845984D02*
X3947325Y-8922174D01*
X3947325Y-8922174D02*
X3975896Y-8922174D01*
X3975896Y-8922174D02*
X3994944Y-8931698D01*
X3994944Y-8931698D02*
X4004467Y-8941222D01*
X4004467Y-8941222D02*
X4013991Y-8960270D01*
X4013991Y-8960270D02*
X4013991Y-9007889D01*
X4013991Y-9007889D02*
X4004467Y-9026936D01*
X4004467Y-9026936D02*
X3994944Y-9036460D01*
X3994944Y-9036460D02*
X3975896Y-9045984D01*
X3975896Y-9045984D02*
X3918753Y-9045984D01*
X3918753Y-9045984D02*
X3899706Y-9036460D01*
X3899706Y-9036460D02*
X3890182Y-9026936D01*
X4109229Y-9045984D02*
X4147325Y-9045984D01*
X4147325Y-9045984D02*
X4166372Y-9036460D01*
X4166372Y-9036460D02*
X4175896Y-9026936D01*
X4175896Y-9026936D02*
X4194944Y-8998365D01*
X4194944Y-8998365D02*
X4204468Y-8960270D01*
X4204468Y-8960270D02*
X4204468Y-8884079D01*
X4204468Y-8884079D02*
X4194944Y-8865031D01*
X4194944Y-8865031D02*
X4185420Y-8855508D01*
X4185420Y-8855508D02*
X4166372Y-8845984D01*
X4166372Y-8845984D02*
X4128277Y-8845984D01*
X4128277Y-8845984D02*
X4109229Y-8855508D01*
X4109229Y-8855508D02*
X4099706Y-8865031D01*
X4099706Y-8865031D02*
X4090182Y-8884079D01*
X4090182Y-8884079D02*
X4090182Y-8931698D01*
X4090182Y-8931698D02*
X4099706Y-8950746D01*
X4099706Y-8950746D02*
X4109229Y-8960270D01*
X4109229Y-8960270D02*
X4128277Y-8969793D01*
X4128277Y-8969793D02*
X4166372Y-8969793D01*
X4166372Y-8969793D02*
X4185420Y-8960270D01*
X4185420Y-8960270D02*
X4194944Y-8950746D01*
X4194944Y-8950746D02*
X4204468Y-8931698D01*
X4375896Y-8912650D02*
X4375896Y-9045984D01*
X4328277Y-8836460D02*
X4280658Y-8979317D01*
X4280658Y-8979317D02*
X4404468Y-8979317D01*
X4471134Y-8845984D02*
X4471134Y-8884079D01*
X4547325Y-8845984D02*
X4547325Y-8884079D01*
X4842563Y-9122174D02*
X4833039Y-9112650D01*
X4833039Y-9112650D02*
X4813991Y-9084079D01*
X4813991Y-9084079D02*
X4804468Y-9065031D01*
X4804468Y-9065031D02*
X4794944Y-9036460D01*
X4794944Y-9036460D02*
X4785420Y-8988841D01*
X4785420Y-8988841D02*
X4785420Y-8950746D01*
X4785420Y-8950746D02*
X4794944Y-8903127D01*
X4794944Y-8903127D02*
X4804468Y-8874555D01*
X4804468Y-8874555D02*
X4813991Y-8855508D01*
X4813991Y-8855508D02*
X4833039Y-8826936D01*
X4833039Y-8826936D02*
X4842563Y-8817412D01*
X5013991Y-8845984D02*
X4918753Y-8845984D01*
X4918753Y-8845984D02*
X4909230Y-8941222D01*
X4909230Y-8941222D02*
X4918753Y-8931698D01*
X4918753Y-8931698D02*
X4937801Y-8922174D01*
X4937801Y-8922174D02*
X4985420Y-8922174D01*
X4985420Y-8922174D02*
X5004468Y-8931698D01*
X5004468Y-8931698D02*
X5013991Y-8941222D01*
X5013991Y-8941222D02*
X5023515Y-8960270D01*
X5023515Y-8960270D02*
X5023515Y-9007889D01*
X5023515Y-9007889D02*
X5013991Y-9026936D01*
X5013991Y-9026936D02*
X5004468Y-9036460D01*
X5004468Y-9036460D02*
X4985420Y-9045984D01*
X4985420Y-9045984D02*
X4937801Y-9045984D01*
X4937801Y-9045984D02*
X4918753Y-9036460D01*
X4918753Y-9036460D02*
X4909230Y-9026936D01*
X5194944Y-8845984D02*
X5156849Y-8845984D01*
X5156849Y-8845984D02*
X5137801Y-8855508D01*
X5137801Y-8855508D02*
X5128277Y-8865031D01*
X5128277Y-8865031D02*
X5109230Y-8893603D01*
X5109230Y-8893603D02*
X5099706Y-8931698D01*
X5099706Y-8931698D02*
X5099706Y-9007889D01*
X5099706Y-9007889D02*
X5109230Y-9026936D01*
X5109230Y-9026936D02*
X5118753Y-9036460D01*
X5118753Y-9036460D02*
X5137801Y-9045984D01*
X5137801Y-9045984D02*
X5175896Y-9045984D01*
X5175896Y-9045984D02*
X5194944Y-9036460D01*
X5194944Y-9036460D02*
X5204468Y-9026936D01*
X5204468Y-9026936D02*
X5213991Y-9007889D01*
X5213991Y-9007889D02*
X5213991Y-8960270D01*
X5213991Y-8960270D02*
X5204468Y-8941222D01*
X5204468Y-8941222D02*
X5194944Y-8931698D01*
X5194944Y-8931698D02*
X5175896Y-8922174D01*
X5175896Y-8922174D02*
X5137801Y-8922174D01*
X5137801Y-8922174D02*
X5118753Y-8931698D01*
X5118753Y-8931698D02*
X5109230Y-8941222D01*
X5109230Y-8941222D02*
X5099706Y-8960270D01*
X5452087Y-9045984D02*
X5452087Y-8845984D01*
X5537801Y-9045984D02*
X5537801Y-8941222D01*
X5537801Y-8941222D02*
X5528277Y-8922174D01*
X5528277Y-8922174D02*
X5509230Y-8912650D01*
X5509230Y-8912650D02*
X5480658Y-8912650D01*
X5480658Y-8912650D02*
X5461611Y-8922174D01*
X5461611Y-8922174D02*
X5452087Y-8931698D01*
X5661610Y-9045984D02*
X5642563Y-9036460D01*
X5642563Y-9036460D02*
X5633039Y-9026936D01*
X5633039Y-9026936D02*
X5623515Y-9007889D01*
X5623515Y-9007889D02*
X5623515Y-8950746D01*
X5623515Y-8950746D02*
X5633039Y-8931698D01*
X5633039Y-8931698D02*
X5642563Y-8922174D01*
X5642563Y-8922174D02*
X5661610Y-8912650D01*
X5661610Y-8912650D02*
X5690182Y-8912650D01*
X5690182Y-8912650D02*
X5709230Y-8922174D01*
X5709230Y-8922174D02*
X5718753Y-8931698D01*
X5718753Y-8931698D02*
X5728277Y-8950746D01*
X5728277Y-8950746D02*
X5728277Y-9007889D01*
X5728277Y-9007889D02*
X5718753Y-9026936D01*
X5718753Y-9026936D02*
X5709230Y-9036460D01*
X5709230Y-9036460D02*
X5690182Y-9045984D01*
X5690182Y-9045984D02*
X5661610Y-9045984D01*
X5842563Y-9045984D02*
X5823515Y-9036460D01*
X5823515Y-9036460D02*
X5813991Y-9017412D01*
X5813991Y-9017412D02*
X5813991Y-8845984D01*
X5994944Y-9036460D02*
X5975896Y-9045984D01*
X5975896Y-9045984D02*
X5937801Y-9045984D01*
X5937801Y-9045984D02*
X5918753Y-9036460D01*
X5918753Y-9036460D02*
X5909230Y-9017412D01*
X5909230Y-9017412D02*
X5909230Y-8941222D01*
X5909230Y-8941222D02*
X5918753Y-8922174D01*
X5918753Y-8922174D02*
X5937801Y-8912650D01*
X5937801Y-8912650D02*
X5975896Y-8912650D01*
X5975896Y-8912650D02*
X5994944Y-8922174D01*
X5994944Y-8922174D02*
X6004468Y-8941222D01*
X6004468Y-8941222D02*
X6004468Y-8960270D01*
X6004468Y-8960270D02*
X5909230Y-8979317D01*
X6080658Y-9036460D02*
X6099706Y-9045984D01*
X6099706Y-9045984D02*
X6137801Y-9045984D01*
X6137801Y-9045984D02*
X6156849Y-9036460D01*
X6156849Y-9036460D02*
X6166372Y-9017412D01*
X6166372Y-9017412D02*
X6166372Y-9007889D01*
X6166372Y-9007889D02*
X6156849Y-8988841D01*
X6156849Y-8988841D02*
X6137801Y-8979317D01*
X6137801Y-8979317D02*
X6109230Y-8979317D01*
X6109230Y-8979317D02*
X6090182Y-8969793D01*
X6090182Y-8969793D02*
X6080658Y-8950746D01*
X6080658Y-8950746D02*
X6080658Y-8941222D01*
X6080658Y-8941222D02*
X6090182Y-8922174D01*
X6090182Y-8922174D02*
X6109230Y-8912650D01*
X6109230Y-8912650D02*
X6137801Y-8912650D01*
X6137801Y-8912650D02*
X6156849Y-8922174D01*
X6233039Y-9122174D02*
X6242563Y-9112650D01*
X6242563Y-9112650D02*
X6261611Y-9084079D01*
X6261611Y-9084079D02*
X6271134Y-9065031D01*
X6271134Y-9065031D02*
X6280658Y-9036460D01*
X6280658Y-9036460D02*
X6290182Y-8988841D01*
X6290182Y-8988841D02*
X6290182Y-8950746D01*
X6290182Y-8950746D02*
X6280658Y-8903127D01*
X6280658Y-8903127D02*
X6271134Y-8874555D01*
X6271134Y-8874555D02*
X6261611Y-8855508D01*
X6261611Y-8855508D02*
X6242563Y-8826936D01*
X6242563Y-8826936D02*
X6233039Y-8817412D01*
D13*
X1202500Y-9283500D02*
X1267500Y-9218500D01*
X1202500Y-9153500D01*
X1137500Y-9218500D01*
X1202500Y-9283500D01*
D11*
X1633039Y-9309984D02*
X1518753Y-9309984D01*
X1575896Y-9309984D02*
X1575896Y-9109984D01*
X1575896Y-9109984D02*
X1556848Y-9138555D01*
X1556848Y-9138555D02*
X1537801Y-9157603D01*
X1537801Y-9157603D02*
X1518753Y-9167127D01*
X1718753Y-9290936D02*
X1728277Y-9300460D01*
X1728277Y-9300460D02*
X1718753Y-9309984D01*
X1718753Y-9309984D02*
X1709229Y-9300460D01*
X1709229Y-9300460D02*
X1718753Y-9290936D01*
X1718753Y-9290936D02*
X1718753Y-9309984D01*
X1794943Y-9109984D02*
X1918753Y-9109984D01*
X1918753Y-9109984D02*
X1852086Y-9186174D01*
X1852086Y-9186174D02*
X1880658Y-9186174D01*
X1880658Y-9186174D02*
X1899705Y-9195698D01*
X1899705Y-9195698D02*
X1909229Y-9205222D01*
X1909229Y-9205222D02*
X1918753Y-9224270D01*
X1918753Y-9224270D02*
X1918753Y-9271889D01*
X1918753Y-9271889D02*
X1909229Y-9290936D01*
X1909229Y-9290936D02*
X1899705Y-9300460D01*
X1899705Y-9300460D02*
X1880658Y-9309984D01*
X1880658Y-9309984D02*
X1823515Y-9309984D01*
X1823515Y-9309984D02*
X1804467Y-9300460D01*
X1804467Y-9300460D02*
X1794943Y-9290936D01*
X2042562Y-9109984D02*
X2061610Y-9109984D01*
X2061610Y-9109984D02*
X2080658Y-9119508D01*
X2080658Y-9119508D02*
X2090182Y-9129031D01*
X2090182Y-9129031D02*
X2099705Y-9148079D01*
X2099705Y-9148079D02*
X2109229Y-9186174D01*
X2109229Y-9186174D02*
X2109229Y-9233793D01*
X2109229Y-9233793D02*
X2099705Y-9271889D01*
X2099705Y-9271889D02*
X2090182Y-9290936D01*
X2090182Y-9290936D02*
X2080658Y-9300460D01*
X2080658Y-9300460D02*
X2061610Y-9309984D01*
X2061610Y-9309984D02*
X2042562Y-9309984D01*
X2042562Y-9309984D02*
X2023515Y-9300460D01*
X2023515Y-9300460D02*
X2013991Y-9290936D01*
X2013991Y-9290936D02*
X2004467Y-9271889D01*
X2004467Y-9271889D02*
X1994943Y-9233793D01*
X1994943Y-9233793D02*
X1994943Y-9186174D01*
X1994943Y-9186174D02*
X2004467Y-9148079D01*
X2004467Y-9148079D02*
X2013991Y-9129031D01*
X2013991Y-9129031D02*
X2023515Y-9119508D01*
X2023515Y-9119508D02*
X2042562Y-9109984D01*
X2233039Y-9109984D02*
X2252086Y-9109984D01*
X2252086Y-9109984D02*
X2271134Y-9119508D01*
X2271134Y-9119508D02*
X2280658Y-9129031D01*
X2280658Y-9129031D02*
X2290182Y-9148079D01*
X2290182Y-9148079D02*
X2299705Y-9186174D01*
X2299705Y-9186174D02*
X2299705Y-9233793D01*
X2299705Y-9233793D02*
X2290182Y-9271889D01*
X2290182Y-9271889D02*
X2280658Y-9290936D01*
X2280658Y-9290936D02*
X2271134Y-9300460D01*
X2271134Y-9300460D02*
X2252086Y-9309984D01*
X2252086Y-9309984D02*
X2233039Y-9309984D01*
X2233039Y-9309984D02*
X2213991Y-9300460D01*
X2213991Y-9300460D02*
X2204467Y-9290936D01*
X2204467Y-9290936D02*
X2194944Y-9271889D01*
X2194944Y-9271889D02*
X2185420Y-9233793D01*
X2185420Y-9233793D02*
X2185420Y-9186174D01*
X2185420Y-9186174D02*
X2194944Y-9148079D01*
X2194944Y-9148079D02*
X2204467Y-9129031D01*
X2204467Y-9129031D02*
X2213991Y-9119508D01*
X2213991Y-9119508D02*
X2233039Y-9109984D01*
X2385420Y-9309984D02*
X2385420Y-9176650D01*
X2385420Y-9195698D02*
X2394944Y-9186174D01*
X2394944Y-9186174D02*
X2413991Y-9176650D01*
X2413991Y-9176650D02*
X2442563Y-9176650D01*
X2442563Y-9176650D02*
X2461610Y-9186174D01*
X2461610Y-9186174D02*
X2471134Y-9205222D01*
X2471134Y-9205222D02*
X2471134Y-9309984D01*
X2471134Y-9205222D02*
X2480658Y-9186174D01*
X2480658Y-9186174D02*
X2499705Y-9176650D01*
X2499705Y-9176650D02*
X2528277Y-9176650D01*
X2528277Y-9176650D02*
X2547325Y-9186174D01*
X2547325Y-9186174D02*
X2556848Y-9205222D01*
X2556848Y-9205222D02*
X2556848Y-9309984D01*
X2652086Y-9309984D02*
X2652086Y-9176650D01*
X2652086Y-9195698D02*
X2661610Y-9186174D01*
X2661610Y-9186174D02*
X2680658Y-9176650D01*
X2680658Y-9176650D02*
X2709229Y-9176650D01*
X2709229Y-9176650D02*
X2728277Y-9186174D01*
X2728277Y-9186174D02*
X2737801Y-9205222D01*
X2737801Y-9205222D02*
X2737801Y-9309984D01*
X2737801Y-9205222D02*
X2747325Y-9186174D01*
X2747325Y-9186174D02*
X2766372Y-9176650D01*
X2766372Y-9176650D02*
X2794944Y-9176650D01*
X2794944Y-9176650D02*
X2813991Y-9186174D01*
X2813991Y-9186174D02*
X2823515Y-9205222D01*
X2823515Y-9205222D02*
X2823515Y-9309984D01*
X3213991Y-9100460D02*
X3042563Y-9357603D01*
X3471134Y-9109984D02*
X3490182Y-9109984D01*
X3490182Y-9109984D02*
X3509229Y-9119508D01*
X3509229Y-9119508D02*
X3518753Y-9129031D01*
X3518753Y-9129031D02*
X3528277Y-9148079D01*
X3528277Y-9148079D02*
X3537801Y-9186174D01*
X3537801Y-9186174D02*
X3537801Y-9233793D01*
X3537801Y-9233793D02*
X3528277Y-9271889D01*
X3528277Y-9271889D02*
X3518753Y-9290936D01*
X3518753Y-9290936D02*
X3509229Y-9300460D01*
X3509229Y-9300460D02*
X3490182Y-9309984D01*
X3490182Y-9309984D02*
X3471134Y-9309984D01*
X3471134Y-9309984D02*
X3452086Y-9300460D01*
X3452086Y-9300460D02*
X3442563Y-9290936D01*
X3442563Y-9290936D02*
X3433039Y-9271889D01*
X3433039Y-9271889D02*
X3423515Y-9233793D01*
X3423515Y-9233793D02*
X3423515Y-9186174D01*
X3423515Y-9186174D02*
X3433039Y-9148079D01*
X3433039Y-9148079D02*
X3442563Y-9129031D01*
X3442563Y-9129031D02*
X3452086Y-9119508D01*
X3452086Y-9119508D02*
X3471134Y-9109984D01*
X3623515Y-9290936D02*
X3633039Y-9300460D01*
X3633039Y-9300460D02*
X3623515Y-9309984D01*
X3623515Y-9309984D02*
X3613991Y-9300460D01*
X3613991Y-9300460D02*
X3623515Y-9290936D01*
X3623515Y-9290936D02*
X3623515Y-9309984D01*
X3756848Y-9109984D02*
X3775896Y-9109984D01*
X3775896Y-9109984D02*
X3794944Y-9119508D01*
X3794944Y-9119508D02*
X3804467Y-9129031D01*
X3804467Y-9129031D02*
X3813991Y-9148079D01*
X3813991Y-9148079D02*
X3823515Y-9186174D01*
X3823515Y-9186174D02*
X3823515Y-9233793D01*
X3823515Y-9233793D02*
X3813991Y-9271889D01*
X3813991Y-9271889D02*
X3804467Y-9290936D01*
X3804467Y-9290936D02*
X3794944Y-9300460D01*
X3794944Y-9300460D02*
X3775896Y-9309984D01*
X3775896Y-9309984D02*
X3756848Y-9309984D01*
X3756848Y-9309984D02*
X3737801Y-9300460D01*
X3737801Y-9300460D02*
X3728277Y-9290936D01*
X3728277Y-9290936D02*
X3718753Y-9271889D01*
X3718753Y-9271889D02*
X3709229Y-9233793D01*
X3709229Y-9233793D02*
X3709229Y-9186174D01*
X3709229Y-9186174D02*
X3718753Y-9148079D01*
X3718753Y-9148079D02*
X3728277Y-9129031D01*
X3728277Y-9129031D02*
X3737801Y-9119508D01*
X3737801Y-9119508D02*
X3756848Y-9109984D01*
X4004467Y-9109984D02*
X3909229Y-9109984D01*
X3909229Y-9109984D02*
X3899706Y-9205222D01*
X3899706Y-9205222D02*
X3909229Y-9195698D01*
X3909229Y-9195698D02*
X3928277Y-9186174D01*
X3928277Y-9186174D02*
X3975896Y-9186174D01*
X3975896Y-9186174D02*
X3994944Y-9195698D01*
X3994944Y-9195698D02*
X4004467Y-9205222D01*
X4004467Y-9205222D02*
X4013991Y-9224270D01*
X4013991Y-9224270D02*
X4013991Y-9271889D01*
X4013991Y-9271889D02*
X4004467Y-9290936D01*
X4004467Y-9290936D02*
X3994944Y-9300460D01*
X3994944Y-9300460D02*
X3975896Y-9309984D01*
X3975896Y-9309984D02*
X3928277Y-9309984D01*
X3928277Y-9309984D02*
X3909229Y-9300460D01*
X3909229Y-9300460D02*
X3899706Y-9290936D01*
X4204468Y-9309984D02*
X4090182Y-9309984D01*
X4147325Y-9309984D02*
X4147325Y-9109984D01*
X4147325Y-9109984D02*
X4128277Y-9138555D01*
X4128277Y-9138555D02*
X4109229Y-9157603D01*
X4109229Y-9157603D02*
X4090182Y-9167127D01*
X4280658Y-9129031D02*
X4290182Y-9119508D01*
X4290182Y-9119508D02*
X4309229Y-9109984D01*
X4309229Y-9109984D02*
X4356849Y-9109984D01*
X4356849Y-9109984D02*
X4375896Y-9119508D01*
X4375896Y-9119508D02*
X4385420Y-9129031D01*
X4385420Y-9129031D02*
X4394944Y-9148079D01*
X4394944Y-9148079D02*
X4394944Y-9167127D01*
X4394944Y-9167127D02*
X4385420Y-9195698D01*
X4385420Y-9195698D02*
X4271134Y-9309984D01*
X4271134Y-9309984D02*
X4394944Y-9309984D01*
X4471134Y-9109984D02*
X4471134Y-9148079D01*
X4547325Y-9109984D02*
X4547325Y-9148079D01*
X4842563Y-9386174D02*
X4833039Y-9376650D01*
X4833039Y-9376650D02*
X4813991Y-9348079D01*
X4813991Y-9348079D02*
X4804468Y-9329031D01*
X4804468Y-9329031D02*
X4794944Y-9300460D01*
X4794944Y-9300460D02*
X4785420Y-9252841D01*
X4785420Y-9252841D02*
X4785420Y-9214746D01*
X4785420Y-9214746D02*
X4794944Y-9167127D01*
X4794944Y-9167127D02*
X4804468Y-9138555D01*
X4804468Y-9138555D02*
X4813991Y-9119508D01*
X4813991Y-9119508D02*
X4833039Y-9090936D01*
X4833039Y-9090936D02*
X4842563Y-9081412D01*
X4909230Y-9129031D02*
X4918753Y-9119508D01*
X4918753Y-9119508D02*
X4937801Y-9109984D01*
X4937801Y-9109984D02*
X4985420Y-9109984D01*
X4985420Y-9109984D02*
X5004468Y-9119508D01*
X5004468Y-9119508D02*
X5013991Y-9129031D01*
X5013991Y-9129031D02*
X5023515Y-9148079D01*
X5023515Y-9148079D02*
X5023515Y-9167127D01*
X5023515Y-9167127D02*
X5013991Y-9195698D01*
X5013991Y-9195698D02*
X4899706Y-9309984D01*
X4899706Y-9309984D02*
X5023515Y-9309984D01*
X5090182Y-9109984D02*
X5213991Y-9109984D01*
X5213991Y-9109984D02*
X5147325Y-9186174D01*
X5147325Y-9186174D02*
X5175896Y-9186174D01*
X5175896Y-9186174D02*
X5194944Y-9195698D01*
X5194944Y-9195698D02*
X5204468Y-9205222D01*
X5204468Y-9205222D02*
X5213991Y-9224270D01*
X5213991Y-9224270D02*
X5213991Y-9271889D01*
X5213991Y-9271889D02*
X5204468Y-9290936D01*
X5204468Y-9290936D02*
X5194944Y-9300460D01*
X5194944Y-9300460D02*
X5175896Y-9309984D01*
X5175896Y-9309984D02*
X5118753Y-9309984D01*
X5118753Y-9309984D02*
X5099706Y-9300460D01*
X5099706Y-9300460D02*
X5090182Y-9290936D01*
X5452087Y-9309984D02*
X5452087Y-9109984D01*
X5537801Y-9309984D02*
X5537801Y-9205222D01*
X5537801Y-9205222D02*
X5528277Y-9186174D01*
X5528277Y-9186174D02*
X5509230Y-9176650D01*
X5509230Y-9176650D02*
X5480658Y-9176650D01*
X5480658Y-9176650D02*
X5461611Y-9186174D01*
X5461611Y-9186174D02*
X5452087Y-9195698D01*
X5661610Y-9309984D02*
X5642563Y-9300460D01*
X5642563Y-9300460D02*
X5633039Y-9290936D01*
X5633039Y-9290936D02*
X5623515Y-9271889D01*
X5623515Y-9271889D02*
X5623515Y-9214746D01*
X5623515Y-9214746D02*
X5633039Y-9195698D01*
X5633039Y-9195698D02*
X5642563Y-9186174D01*
X5642563Y-9186174D02*
X5661610Y-9176650D01*
X5661610Y-9176650D02*
X5690182Y-9176650D01*
X5690182Y-9176650D02*
X5709230Y-9186174D01*
X5709230Y-9186174D02*
X5718753Y-9195698D01*
X5718753Y-9195698D02*
X5728277Y-9214746D01*
X5728277Y-9214746D02*
X5728277Y-9271889D01*
X5728277Y-9271889D02*
X5718753Y-9290936D01*
X5718753Y-9290936D02*
X5709230Y-9300460D01*
X5709230Y-9300460D02*
X5690182Y-9309984D01*
X5690182Y-9309984D02*
X5661610Y-9309984D01*
X5842563Y-9309984D02*
X5823515Y-9300460D01*
X5823515Y-9300460D02*
X5813991Y-9281412D01*
X5813991Y-9281412D02*
X5813991Y-9109984D01*
X5994944Y-9300460D02*
X5975896Y-9309984D01*
X5975896Y-9309984D02*
X5937801Y-9309984D01*
X5937801Y-9309984D02*
X5918753Y-9300460D01*
X5918753Y-9300460D02*
X5909230Y-9281412D01*
X5909230Y-9281412D02*
X5909230Y-9205222D01*
X5909230Y-9205222D02*
X5918753Y-9186174D01*
X5918753Y-9186174D02*
X5937801Y-9176650D01*
X5937801Y-9176650D02*
X5975896Y-9176650D01*
X5975896Y-9176650D02*
X5994944Y-9186174D01*
X5994944Y-9186174D02*
X6004468Y-9205222D01*
X6004468Y-9205222D02*
X6004468Y-9224270D01*
X6004468Y-9224270D02*
X5909230Y-9243317D01*
X6080658Y-9300460D02*
X6099706Y-9309984D01*
X6099706Y-9309984D02*
X6137801Y-9309984D01*
X6137801Y-9309984D02*
X6156849Y-9300460D01*
X6156849Y-9300460D02*
X6166372Y-9281412D01*
X6166372Y-9281412D02*
X6166372Y-9271889D01*
X6166372Y-9271889D02*
X6156849Y-9252841D01*
X6156849Y-9252841D02*
X6137801Y-9243317D01*
X6137801Y-9243317D02*
X6109230Y-9243317D01*
X6109230Y-9243317D02*
X6090182Y-9233793D01*
X6090182Y-9233793D02*
X6080658Y-9214746D01*
X6080658Y-9214746D02*
X6080658Y-9205222D01*
X6080658Y-9205222D02*
X6090182Y-9186174D01*
X6090182Y-9186174D02*
X6109230Y-9176650D01*
X6109230Y-9176650D02*
X6137801Y-9176650D01*
X6137801Y-9176650D02*
X6156849Y-9186174D01*
X6233039Y-9386174D02*
X6242563Y-9376650D01*
X6242563Y-9376650D02*
X6261611Y-9348079D01*
X6261611Y-9348079D02*
X6271134Y-9329031D01*
X6271134Y-9329031D02*
X6280658Y-9300460D01*
X6280658Y-9300460D02*
X6290182Y-9252841D01*
X6290182Y-9252841D02*
X6290182Y-9214746D01*
X6290182Y-9214746D02*
X6280658Y-9167127D01*
X6280658Y-9167127D02*
X6271134Y-9138555D01*
X6271134Y-9138555D02*
X6261611Y-9119508D01*
X6261611Y-9119508D02*
X6242563Y-9090936D01*
X6242563Y-9090936D02*
X6233039Y-9081412D01*
M02*
