G04 #@! TF.GenerationSoftware,KiCad,Pcbnew,10.0.4-10.0.4~ubuntu24.04.1*
G04 #@! TF.CreationDate,2026-07-20T12:57:22-04:00*
G04 #@! TF.ProjectId,fluidnc-bob,666c7569-646e-4632-9d62-6f622e6b6963,rev?*
G04 #@! TF.SameCoordinates,Original*
G04 #@! TF.FileFunction,Soldermask,Bot*
G04 #@! TF.FilePolarity,Negative*
%FSLAX46Y46*%
G04 Gerber Fmt 4.6, Leading zero omitted, Abs format (unit mm)*
G04 Created by KiCad (PCBNEW 10.0.4-10.0.4~ubuntu24.04.1) date 2026-07-20 12:57:22*
%MOMM*%
%LPD*%
G01*
G04 APERTURE LIST*
G04 Aperture macros list*
%AMRoundRect*
0 Rectangle with rounded corners*
0 $1 Rounding radius*
0 $2 $3 $4 $5 $6 $7 $8 $9 X,Y pos of 4 corners*
0 Add a 4 corners polygon primitive as box body*
4,1,4,$2,$3,$4,$5,$6,$7,$8,$9,$2,$3,0*
0 Add four circle primitives for the rounded corners*
1,1,$1+$1,$2,$3*
1,1,$1+$1,$4,$5*
1,1,$1+$1,$6,$7*
1,1,$1+$1,$8,$9*
0 Add four rect primitives between the rounded corners*
20,1,$1+$1,$2,$3,$4,$5,0*
20,1,$1+$1,$4,$5,$6,$7,0*
20,1,$1+$1,$6,$7,$8,$9,0*
20,1,$1+$1,$8,$9,$2,$3,0*%
G04 Aperture macros list end*
%ADD10RoundRect,0.250000X-0.550000X-0.550000X0.550000X-0.550000X0.550000X0.550000X-0.550000X0.550000X0*%
%ADD11C,1.600000*%
%ADD12R,3.000000X3.000000*%
%ADD13C,3.000000*%
%ADD14R,1.600000X1.600000*%
%ADD15C,3.200000*%
%ADD16RoundRect,0.250000X0.550000X-0.550000X0.550000X0.550000X-0.550000X0.550000X-0.550000X-0.550000X0*%
%ADD17R,1.700000X1.700000*%
%ADD18C,1.700000*%
%ADD19R,1.800000X1.800000*%
%ADD20C,1.800000*%
G04 APERTURE END LIST*
D10*
X58030000Y-39290000D03*
D11*
X58030000Y-41830000D03*
X58030000Y-44370000D03*
X58030000Y-46910000D03*
X58030000Y-49450000D03*
X58030000Y-51990000D03*
X58030000Y-54530000D03*
X58030000Y-57070000D03*
X58030000Y-59610000D03*
X58030000Y-62150000D03*
X65650000Y-62150000D03*
X65650000Y-59610000D03*
X65650000Y-57070000D03*
X65650000Y-54530000D03*
X65650000Y-51990000D03*
X65650000Y-49450000D03*
X65650000Y-46910000D03*
X65650000Y-44370000D03*
X65650000Y-41830000D03*
X65650000Y-39290000D03*
D12*
X91000000Y-64400000D03*
D13*
X85920000Y-64400000D03*
D14*
X47752000Y-69088000D03*
D11*
X47752000Y-66548000D03*
X47752000Y-64008000D03*
X47752000Y-61468000D03*
X47752000Y-58928000D03*
X47752000Y-56388000D03*
X47752000Y-53848000D03*
X47752000Y-51308000D03*
X47752000Y-48768000D03*
X47752000Y-46228000D03*
X47752000Y-43688000D03*
X47752000Y-41148000D03*
X47752000Y-38608000D03*
X47752000Y-36068000D03*
X47752000Y-33528000D03*
X47752000Y-30988000D03*
X47752000Y-28448000D03*
X47752000Y-25908000D03*
X47752000Y-23368000D03*
X47752000Y-20828000D03*
X47752000Y-18288000D03*
X47752000Y-15748000D03*
X22352000Y-69088000D03*
X22352000Y-66548000D03*
X22352000Y-64008000D03*
X22352000Y-61468000D03*
X22352000Y-58928000D03*
X22352000Y-56388000D03*
X22352000Y-53848000D03*
X22352000Y-51308000D03*
X22352000Y-48768000D03*
X22352000Y-46228000D03*
X22352000Y-43688000D03*
X22352000Y-41148000D03*
X22352000Y-38608000D03*
X22352000Y-36068000D03*
X22352000Y-33528000D03*
X22352000Y-30988000D03*
X22352000Y-28448000D03*
X22352000Y-25908000D03*
X22352000Y-23368000D03*
X22352000Y-20828000D03*
X22352000Y-18288000D03*
X22352000Y-15748000D03*
D12*
X85960000Y-31166667D03*
D13*
X91040000Y-31166667D03*
D12*
X91000000Y-58825000D03*
D13*
X85920000Y-58825000D03*
D15*
X91000000Y-16900000D03*
D12*
X85920000Y-70200000D03*
D13*
X91000000Y-70200000D03*
D15*
X16500000Y-16900000D03*
X16500000Y-70850000D03*
D12*
X85960000Y-36233333D03*
D13*
X91040000Y-36233333D03*
D12*
X91000000Y-53250000D03*
D13*
X85920000Y-53250000D03*
X80840000Y-53250000D03*
D16*
X53700000Y-18200000D03*
D11*
X53700000Y-15700000D03*
D15*
X60800000Y-70850000D03*
D12*
X91000000Y-42100000D03*
D13*
X85920000Y-42100000D03*
X80840000Y-42100000D03*
D12*
X91000000Y-47675000D03*
D13*
X85920000Y-47675000D03*
X80840000Y-47675000D03*
D12*
X85960000Y-26100000D03*
D13*
X91040000Y-26100000D03*
D17*
X85095200Y-15895000D03*
D18*
X85095200Y-18435000D03*
X82555200Y-15895000D03*
X82555200Y-18435000D03*
X80015200Y-15895000D03*
X80015200Y-18435000D03*
X77475200Y-15895000D03*
X77475200Y-18435000D03*
X74935200Y-15895000D03*
X74935200Y-18435000D03*
X72395200Y-15895000D03*
X72395200Y-18435000D03*
D12*
X16650000Y-34760000D03*
D13*
X16650000Y-39840000D03*
D19*
X15060000Y-26600000D03*
D20*
X17600000Y-26600000D03*
M02*
