M48
; DRILL file KiCad 10.0.4-10.0.4~ubuntu24.04.1 date 2026-08-01T14:26:49
; FORMAT={-:-/ absolute / metric / decimal}
; #@! TF.CreationDate,2026-08-01T14:26:49-04:00
; #@! TF.GenerationSoftware,Kicad,Pcbnew,10.0.4-10.0.4~ubuntu24.04.1
; #@! TF.FileFunction,Plated,1,2,PTH
FMAT,2
METRIC
; #@! TA.AperFunction,Plated,PTH,ComponentDrill
T1C0.800
; #@! TA.AperFunction,Plated,PTH,ComponentDrill
T2C0.900
; #@! TA.AperFunction,Plated,PTH,ComponentDrill
T3C1.000
; #@! TA.AperFunction,Plated,PTH,ComponentDrill
T4C1.190
; #@! TA.AperFunction,Plated,PTH,ComponentDrill
T5C1.300
; #@! TA.AperFunction,Plated,PTH,ComponentDrill
T6C3.200
%
G90
G05
T1
X25.791Y-5.334
X28.371Y-57.506
X28.371Y-65.126
X29.591Y-5.334
X30.911Y-57.506
X30.911Y-65.126
X33.451Y-57.506
X33.451Y-65.126
X35.991Y-57.506
X35.991Y-65.126
X36.23Y-5.182
X38.531Y-57.506
X38.531Y-65.126
X40.03Y-5.182
X41.071Y-57.506
X41.071Y-65.126
X43.611Y-57.506
X43.611Y-65.126
X46.151Y-57.506
X46.151Y-65.126
X48.691Y-57.506
X48.691Y-65.126
X51.231Y-57.506
X51.231Y-65.126
T2
X7.819Y-80.086
X10.359Y-80.086
X15.748Y-16.002
X18.288Y-16.002
T3
X3.048Y-25.908
X3.048Y-51.308
X3.658Y-58.572
X3.658Y-61.112
X3.658Y-63.652
X3.658Y-66.192
X3.658Y-68.732
X3.658Y-71.272
X5.588Y-25.908
X5.588Y-51.308
X6.198Y-58.572
X6.198Y-61.112
X6.198Y-63.652
X6.198Y-66.192
X6.198Y-68.732
X6.198Y-71.272
X8.128Y-25.908
X8.128Y-51.308
X10.668Y-25.908
X10.668Y-51.308
X13.208Y-25.908
X13.208Y-51.308
X15.748Y-25.908
X15.748Y-51.308
X18.288Y-25.908
X18.288Y-51.308
X20.828Y-25.908
X20.828Y-51.308
X23.368Y-25.908
X23.368Y-51.308
X25.908Y-25.908
X25.908Y-51.308
X28.448Y-25.908
X28.448Y-51.308
X30.988Y-25.908
X30.988Y-51.308
X33.528Y-25.908
X33.528Y-51.308
X36.068Y-25.908
X36.068Y-51.308
X38.608Y-25.908
X38.608Y-51.308
X41.148Y-25.908
X41.148Y-51.308
X43.688Y-25.908
X43.688Y-51.308
X46.228Y-25.908
X46.228Y-51.308
X48.768Y-25.908
X48.768Y-51.308
X51.308Y-25.908
X51.308Y-51.308
X53.848Y-25.908
X53.848Y-51.308
X56.388Y-25.908
X56.388Y-51.308
T4
X86.922Y-46.689
X86.922Y-49.229
X86.922Y-60.908
X86.922Y-63.448
X86.962Y-69.08
X86.962Y-71.62
X86.962Y-75.897
X86.962Y-78.437
X86.962Y-82.714
X86.962Y-85.254
X87.089Y-53.799
X87.089Y-56.339
T5
X12.903Y-93.726
X13.132Y-5.715
X17.983Y-93.726
X18.212Y-5.715
X23.063Y-93.726
X28.143Y-93.726
X33.223Y-93.726
X39.878Y-93.726
X44.958Y-93.726
X50.038Y-93.726
X55.118Y-93.726
X58.795Y-8.827
X60.198Y-93.726
X60.795Y-2.827
X60.795Y-14.827
X66.853Y-93.726
X71.933Y-93.726
X72.995Y-2.827
X72.995Y-14.827
X77.013Y-93.726
X82.093Y-93.726
X85.535Y-3.905
X85.535Y-8.985
X85.535Y-14.065
X87.173Y-93.726
T6
X5.0Y-5.0
X5.0Y-90.0
X85.0Y-30.0
M30
