%TF.GenerationSoftware,KiCad,Pcbnew,10.0.4-10.0.4~ubuntu24.04.1*%
%TF.CreationDate,2026-07-29T19:25:23-04:00*%
%TF.ProjectId,fluidnc-bob-revD,666c7569-646e-4632-9d62-6f622d726576,rev?*%
%TF.SameCoordinates,Original*%
%TF.FileFunction,Copper,L2,Bot*%
%TF.FilePolarity,Positive*%
%FSLAX46Y46*%
G04 Gerber Fmt 4.6, Leading zero omitted, Abs format (unit mm)*
G04 Created by KiCad (PCBNEW 10.0.4-10.0.4~ubuntu24.04.1) date 2026-07-29 19:25:23*
%MOMM*%
%LPD*%
G01*
G04 APERTURE LIST*
G04 Aperture macros list*
%AMRoundRect*
0 Rectangle with rounded corners*
0 $1 Rounding radius*
0 $2 $3 $4 $5 $6 $7 $8 $9 X,Y pos of 4 corners*
0 Add a 4 corners polygon primitive as box body*
4,1,4,$2,$3,$4,$5,$6,$7,$8,$9,$2,$3,0*
0 Add four circle primitives for the rounded corners*
1,1,$1+$1,$2,$3*
1,1,$1+$1,$4,$5*
1,1,$1+$1,$6,$7*
1,1,$1+$1,$8,$9*
0 Add four rect primitives between the rounded corners*
20,1,$1+$1,$2,$3,$4,$5,0*
20,1,$1+$1,$4,$5,$6,$7,0*
20,1,$1+$1,$6,$7,$8,$9,0*
20,1,$1+$1,$8,$9,$2,$3,0*%
G04 Aperture macros list end*
%TA.AperFunction,ComponentPad*%
%ADD10RoundRect,0.250000X0.550000X-0.550000X0.550000X0.550000X-0.550000X0.550000X-0.550000X-0.550000X0*%
%TD*%
%TA.AperFunction,ComponentPad*%
%ADD11C,1.600000*%
%TD*%
%TA.AperFunction,ComponentPad*%
%ADD12R,1.600000X1.600000*%
%TD*%
%TA.AperFunction,ComponentPad*%
%ADD13C,6.400000*%
%TD*%
%TA.AperFunction,ComponentPad*%
%ADD14RoundRect,0.250000X-1.050000X1.050000X-1.050000X-1.050000X1.050000X-1.050000X1.050000X1.050000X0*%
%TD*%
%TA.AperFunction,ComponentPad*%
%ADD15C,2.600000*%
%TD*%
%TA.AperFunction,ComponentPad*%
%ADD16RoundRect,0.250000X0.845000X-0.620000X0.845000X0.620000X-0.845000X0.620000X-0.845000X-0.620000X0*%
%TD*%
%TA.AperFunction,ComponentPad*%
%ADD17O,2.190000X1.740000*%
%TD*%
%TA.AperFunction,ComponentPad*%
%ADD18RoundRect,0.250000X1.050000X-1.050000X1.050000X1.050000X-1.050000X1.050000X-1.050000X-1.050000X0*%
%TD*%
%TA.AperFunction,ComponentPad*%
%ADD19RoundRect,0.250000X-1.050000X-1.050000X1.050000X-1.050000X1.050000X1.050000X-1.050000X1.050000X0*%
%TD*%
%TA.AperFunction,ComponentPad*%
%ADD20R,1.700000X1.700000*%
%TD*%
%TA.AperFunction,ComponentPad*%
%ADD21C,1.700000*%
%TD*%
%TA.AperFunction,ComponentPad*%
%ADD22R,1.800000X1.800000*%
%TD*%
%TA.AperFunction,ComponentPad*%
%ADD23C,1.800000*%
%TD*%
%TA.AperFunction,ComponentPad*%
%ADD24RoundRect,0.250000X0.620000X0.845000X-0.620000X0.845000X-0.620000X-0.845000X0.620000X-0.845000X0*%
%TD*%
%TA.AperFunction,ComponentPad*%
%ADD25O,1.740000X2.190000*%
%TD*%
%TA.AperFunction,ComponentPad*%
%ADD26R,2.500000X2.500000*%
%TD*%
%TA.AperFunction,ComponentPad*%
%ADD27O,2.500000X2.500000*%
%TD*%
%TA.AperFunction,Conductor*%
%ADD28C,0.500000*%
%TD*%
%TA.AperFunction,Conductor*%
%ADD29C,0.300000*%
%TD*%
G04 APERTURE END LIST*
D10*
%TO.P,U1,1,OE1_1*%
%TO.N,GND*%
X29718000Y-41148000D03*
D11*
%TO.P,U1,2,A1_2*%
%TO.N,Net-(A1-GPIO18)*%
X32258000Y-41148000D03*
%TO.P,U1,3,A2_3*%
%TO.N,Net-(A1-GPIO17)*%
X34798000Y-41148000D03*
%TO.P,U1,4,A3_4*%
%TO.N,Net-(A1-GPIO16)*%
X37338000Y-41148000D03*
%TO.P,U1,5,A4_5*%
%TO.N,Net-(A1-GPIO15)*%
X39878000Y-41148000D03*
%TO.P,U1,6,A5_6*%
%TO.N,Net-(A1-GPIO7)*%
X42418000Y-41148000D03*
%TO.P,U1,7,A6_7*%
%TO.N,Net-(A1-GPIO6)*%
X44958000Y-41148000D03*
%TO.P,U1,8,A7_8*%
%TO.N,Net-(A1-GPIO5)*%
X47498000Y-41148000D03*
%TO.P,U1,9,A8_9*%
%TO.N,Net-(A1-GPIO4)*%
X50038000Y-41148000D03*
%TO.P,U1,10,GND_10*%
%TO.N,GND*%
X52578000Y-41148000D03*
%TO.P,U1,11,Y8_11*%
%TO.N,Net-(U1-Y8)*%
X52578000Y-33528000D03*
%TO.P,U1,12,Y7_12*%
%TO.N,Net-(U1-Y7)*%
X50038000Y-33528000D03*
%TO.P,U1,13,Y6_13*%
%TO.N,Net-(U1-Y6)*%
X47498000Y-33528000D03*
%TO.P,U1,14,Y5_14*%
%TO.N,Net-(U1-Y5)*%
X44958000Y-33528000D03*
%TO.P,U1,15,Y4_15*%
%TO.N,Net-(U1-Y4)*%
X42418000Y-33528000D03*
%TO.P,U1,16,Y3_16*%
%TO.N,Net-(U1-Y3)*%
X39878000Y-33528000D03*
%TO.P,U1,17,Y2_17*%
%TO.N,Net-(U1-Y2)*%
X37338000Y-33528000D03*
%TO.P,U1,18,Y1_18*%
%TO.N,Net-(U1-Y1)*%
X34798000Y-33528000D03*
%TO.P,U1,19,OE2_19*%
%TO.N,GND*%
X32258000Y-33528000D03*
%TO.P,U1,20,VCC_20*%
%TO.N,+5V*%
X29718000Y-33528000D03*
%TD*%
D12*
%TO.P,A1,1,3V3_1*%
%TO.N,+3V3*%
X57607200Y-48387000D03*
D11*
%TO.P,A1,2,3V3_2*%
X55067200Y-48387000D03*
%TO.P,A1,3,RST_3*%
%TO.N,unconnected-(A1-RST-Pad3)*%
X52527200Y-48387000D03*
%TO.P,A1,4,GPIO4_4*%
%TO.N,Net-(A1-GPIO4)*%
X49987200Y-48387000D03*
%TO.P,A1,5,GPIO5_5*%
%TO.N,Net-(A1-GPIO5)*%
X47447200Y-48387000D03*
%TO.P,A1,6,GPIO6_6*%
%TO.N,Net-(A1-GPIO6)*%
X44907200Y-48387000D03*
%TO.P,A1,7,GPIO7_7*%
%TO.N,Net-(A1-GPIO7)*%
X42367200Y-48387000D03*
%TO.P,A1,8,GPIO15_8*%
%TO.N,Net-(A1-GPIO15)*%
X39827200Y-48387000D03*
%TO.P,A1,9,GPIO16_9*%
%TO.N,Net-(A1-GPIO16)*%
X37287200Y-48387000D03*
%TO.P,A1,10,GPIO17_10*%
%TO.N,Net-(A1-GPIO17)*%
X34747200Y-48387000D03*
%TO.P,A1,11,GPIO18_11*%
%TO.N,Net-(A1-GPIO18)*%
X32207200Y-48387000D03*
%TO.P,A1,12,GPIO8_12*%
%TO.N,ESTOP_G*%
X29667200Y-48387000D03*
%TO.P,A1,13,GPIO3_13*%
%TO.N,unconnected-(A1-GPIO3-Pad13)*%
X27127200Y-48387000D03*
%TO.P,A1,14,GPIO46_14*%
%TO.N,unconnected-(A1-GPIO46-Pad14)*%
X24587200Y-48387000D03*
%TO.P,A1,15,GPIO9_15*%
%TO.N,EN_G*%
X22047200Y-48387000D03*
%TO.P,A1,16,GPIO10_16*%
%TO.N,SD_CS*%
X19507200Y-48387000D03*
%TO.P,A1,17,GPIO11_17*%
%TO.N,SD_MOSI*%
X16967200Y-48387000D03*
%TO.P,A1,18,GPIO12_18*%
%TO.N,SD_SCK*%
X14427200Y-48387000D03*
%TO.P,A1,19,GPIO13_19*%
%TO.N,SD_MISO*%
X11887200Y-48387000D03*
%TO.P,A1,20,GPIO14_20*%
%TO.N,unconnected-(A1-GPIO14-Pad20)*%
X9347200Y-48387000D03*
%TO.P,A1,21,5V_21*%
%TO.N,+5V*%
X6807200Y-48387000D03*
%TO.P,A1,22,GND_22*%
%TO.N,GND*%
X4267200Y-48387000D03*
%TO.P,A1,23,GND_23*%
X57607200Y-73787000D03*
%TO.P,A1,24,TX43_24*%
%TO.N,unconnected-(A1-TX43-Pad24)*%
X55067200Y-73787000D03*
%TO.P,A1,25,RX44_25*%
%TO.N,unconnected-(A1-RX44-Pad25)*%
X52527200Y-73787000D03*
%TO.P,A1,26,GPIO1_26*%
%TO.N,LIMZ_G*%
X49987200Y-73787000D03*
%TO.P,A1,27,GPIO2_27*%
%TO.N,LIMY_G*%
X47447200Y-73787000D03*
%TO.P,A1,28,GPIO42_28*%
%TO.N,LIMX_G*%
X44907200Y-73787000D03*
%TO.P,A1,29,GPIO41_29*%
%TO.N,PROBE_G*%
X42367200Y-73787000D03*
%TO.P,A1,30,GPIO40_30*%
%TO.N,unconnected-(A1-GPIO40-Pad30)*%
X39827200Y-73787000D03*
%TO.P,A1,31,GPIO39_31*%
%TO.N,unconnected-(A1-GPIO39-Pad31)*%
X37287200Y-73787000D03*
%TO.P,A1,32,GPIO38_32*%
%TO.N,unconnected-(A1-GPIO38-Pad32)*%
X34747200Y-73787000D03*
%TO.P,A1,33,GPIO37_33*%
%TO.N,unconnected-(A1-GPIO37-Pad33)*%
X32207200Y-73787000D03*
%TO.P,A1,34,GPIO36_34*%
%TO.N,unconnected-(A1-GPIO36-Pad34)*%
X29667200Y-73787000D03*
%TO.P,A1,35,GPIO35_35*%
%TO.N,unconnected-(A1-GPIO35-Pad35)*%
X27127200Y-73787000D03*
%TO.P,A1,36,GPIO0_36*%
%TO.N,unconnected-(A1-GPIO0-Pad36)*%
X24587200Y-73787000D03*
%TO.P,A1,37,GPIO45_37*%
%TO.N,unconnected-(A1-GPIO45-Pad37)*%
X22047200Y-73787000D03*
%TO.P,A1,38,GPIO48_38*%
%TO.N,unconnected-(A1-GPIO48-Pad38)*%
X19507200Y-73787000D03*
%TO.P,A1,39,GPIO47_39*%
%TO.N,unconnected-(A1-GPIO47-Pad39)*%
X16967200Y-73787000D03*
%TO.P,A1,40,GPIO21_40*%
%TO.N,unconnected-(A1-GPIO21-Pad40)*%
X14427200Y-73787000D03*
%TO.P,A1,41,GPIO20_41*%
%TO.N,unconnected-(A1-GPIO20-Pad41)*%
X11887200Y-73787000D03*
%TO.P,A1,42,GPIO19_42*%
%TO.N,unconnected-(A1-GPIO19-Pad42)*%
X9347200Y-73787000D03*
%TO.P,A1,43,GND_43*%
%TO.N,GND*%
X6807200Y-73787000D03*
%TO.P,A1,44,GND_44*%
X4267200Y-73787000D03*
%TD*%
D13*
%TO.P,H3,1*%
%TO.N,N/C*%
X5000000Y-125000000D03*
%TD*%
D14*
%TO.P,J1,1*%
%TO.N,GND*%
X7366000Y-14478000D03*
D15*
%TO.P,J1,2*%
%TO.N,Net-(F1-Pad1)*%
X7366000Y-19558000D03*
%TD*%
D16*
%TO.P,J5,1*%
%TO.N,GND*%
X89428000Y-115321000D03*
D17*
%TO.P,J5,2*%
%TO.N,Net-(C20-Pad1)*%
X89428000Y-112781000D03*
%TD*%
D18*
%TO.P,J3,1*%
%TO.N,YSTEP*%
X88188800Y-62992000D03*
D15*
%TO.P,J3,2*%
%TO.N,GND*%
X88188800Y-57912000D03*
%TO.P,J3,3*%
%TO.N,YDIR*%
X88188800Y-52832000D03*
%TO.P,J3,4*%
%TO.N,+5V*%
X88188800Y-47752000D03*
%TO.P,J3,5*%
%TO.N,EN_SINK*%
X88188800Y-42672000D03*
%TD*%
D13*
%TO.P,H2,1*%
%TO.N,N/C*%
X90000000Y-5000000D03*
%TD*%
D19*
%TO.P,J10,1*%
%TO.N,Net-(RLY1-NO)*%
X18638600Y-125984000D03*
D15*
%TO.P,J10,2*%
%TO.N,Net-(RLY1-COM)*%
X23718600Y-125984000D03*
%TO.P,J10,3*%
%TO.N,Net-(RLY1-NC)*%
X28798600Y-125984000D03*
%TD*%
D13*
%TO.P,H1,1*%
%TO.N,N/C*%
X5000000Y-5000000D03*
%TD*%
D20*
%TO.P,J13,1*%
%TO.N,unconnected-(J13-Pad1)*%
X19558000Y-4826000D03*
D21*
%TO.P,J13,2*%
%TO.N,unconnected-(J13-Pad2)*%
X22098000Y-4826000D03*
%TO.P,J13,3*%
%TO.N,unconnected-(J13-Pad3)*%
X19558000Y-7366000D03*
%TO.P,J13,4*%
%TO.N,unconnected-(J13-Pad4)*%
X22098000Y-7366000D03*
%TO.P,J13,5*%
%TO.N,+3V3*%
X19558000Y-9906000D03*
%TO.P,J13,6*%
%TO.N,unconnected-(J13-Pad6)*%
X22098000Y-9906000D03*
%TO.P,J13,7*%
%TO.N,SD_MISO*%
X19558000Y-12446000D03*
%TO.P,J13,8*%
%TO.N,SD_MOSI*%
X22098000Y-12446000D03*
%TO.P,J13,9*%
%TO.N,SD_SCK*%
X19558000Y-14986000D03*
%TO.P,J13,10*%
%TO.N,SD_CS*%
X22098000Y-14986000D03*
%TO.P,J13,11*%
%TO.N,GND*%
X19558000Y-17526000D03*
%TO.P,J13,12*%
X22098000Y-17526000D03*
%TD*%
D22*
%TO.P,LED1,1,K_1*%
%TO.N,GND*%
X2745100Y-37439600D03*
D23*
%TO.P,LED1,2,A_2*%
%TO.N,Net-(LED1-A)*%
X5285100Y-37439600D03*
%TD*%
D16*
%TO.P,J7,1*%
%TO.N,GND*%
X89428000Y-101102000D03*
D17*
%TO.P,J7,2*%
%TO.N,Net-(C22-Pad1)*%
X89428000Y-98562000D03*
%TD*%
D18*
%TO.P,J4,1*%
%TO.N,ZSTEP*%
X88188800Y-89916000D03*
D15*
%TO.P,J4,2*%
%TO.N,GND*%
X88188800Y-84836000D03*
%TO.P,J4,3*%
%TO.N,ZDIR*%
X88188800Y-79756000D03*
%TO.P,J4,4*%
%TO.N,+5V*%
X88188800Y-74676000D03*
%TO.P,J4,5*%
%TO.N,EN_SINK*%
X88188800Y-69596000D03*
%TD*%
D18*
%TO.P,J2,1*%
%TO.N,XSTEP*%
X88188800Y-36068000D03*
D15*
%TO.P,J2,2*%
%TO.N,GND*%
X88188800Y-30988000D03*
%TO.P,J2,3*%
%TO.N,XDIR*%
X88188800Y-25908000D03*
%TO.P,J2,4*%
%TO.N,+5V*%
X88188800Y-20828000D03*
%TO.P,J2,5*%
%TO.N,EN_SINK*%
X88188800Y-15748000D03*
%TD*%
D24*
%TO.P,J8,1*%
%TO.N,GND*%
X72136000Y-6096000D03*
D25*
%TO.P,J8,2*%
%TO.N,Net-(C23-Pad1)*%
X69596000Y-6096000D03*
%TD*%
D24*
%TO.P,J9,1*%
%TO.N,GND*%
X58415000Y-6096000D03*
D25*
%TO.P,J9,2*%
%TO.N,Net-(C24-Pad1)*%
X55875000Y-6096000D03*
%TD*%
D22*
%TO.P,LED2,1,K_1*%
%TO.N,EN_SINK*%
X68580000Y-79497000D03*
D23*
%TO.P,LED2,2,A_2*%
%TO.N,Net-(LED2-A)*%
X68580000Y-82037000D03*
%TD*%
D26*
%TO.P,RLY1,1,COM_1*%
%TO.N,Net-(RLY1-COM)*%
X23876600Y-98322000D03*
D27*
%TO.P,RLY1,2,COIL+_2*%
%TO.N,+5V*%
X17876600Y-100322000D03*
%TO.P,RLY1,3,NO_3*%
%TO.N,Net-(RLY1-NO)*%
X17876600Y-112522000D03*
%TO.P,RLY1,4,NC_4*%
%TO.N,Net-(RLY1-NC)*%
X29876600Y-112522000D03*
%TO.P,RLY1,5,COIL-_5*%
%TO.N,Net-(D2-A)*%
X29876600Y-100322000D03*
%TD*%
D13*
%TO.P,H4,1*%
%TO.N,N/C*%
X90000000Y-125000000D03*
%TD*%
D16*
%TO.P,J6,1*%
%TO.N,GND*%
X89428000Y-108211500D03*
D17*
%TO.P,J6,2*%
%TO.N,Net-(C21-Pad1)*%
X89428000Y-105671500D03*
%TD*%
D24*
%TO.P,J11,1*%
%TO.N,GND*%
X65278000Y-6096000D03*
D25*
%TO.P,J11,2*%
%TO.N,AUX*%
X62738000Y-6096000D03*
%TD*%
%TO.N,+5V*%
D28*
X33528000Y-29718000D02*
X52832000Y-29718000D01*
X21666200Y-33528000D02*
X29718000Y-33528000D01*
D29*
X5588000Y-88033400D02*
X5588000Y-49606200D01*
X17876600Y-100322000D02*
X5588000Y-88033400D01*
D28*
X6807200Y-48387000D02*
X21666200Y-33528000D01*
X29718000Y-33528000D02*
X33528000Y-29718000D01*
X52832000Y-29718000D02*
X58420000Y-24130000D01*
X84886800Y-24130000D02*
X88188800Y-20828000D01*
X58420000Y-24130000D02*
X84886800Y-24130000D01*
D29*
X5588000Y-49606200D02*
X6807200Y-48387000D01*
%TD*%
%TA.AperFunction,Conductor*%
%TO.N,GND*%
G36*
X20899444Y-15639999D02*
G01*
X20938486Y-15685056D01*
X20942951Y-15693820D01*
X21067890Y-15865786D01*
X21218213Y-16016109D01*
X21390179Y-16141048D01*
X21390181Y-16141049D01*
X21390184Y-16141051D01*
X21399493Y-16145794D01*
X21450290Y-16193766D01*
X21467087Y-16261587D01*
X21444552Y-16327722D01*
X21399505Y-16366760D01*
X21390446Y-16371376D01*
X21390440Y-16371380D01*
X21336282Y-16410727D01*
X21336282Y-16410728D01*
X21968591Y-17043037D01*
X21905007Y-17060075D01*
X21790993Y-17125901D01*
X21697901Y-17218993D01*
X21632075Y-17333007D01*
X21615037Y-17396591D01*
X20982728Y-16764282D01*
X20982727Y-16764282D01*
X20943380Y-16818440D01*
X20938483Y-16828051D01*
X20890506Y-16878845D01*
X20822684Y-16895638D01*
X20756550Y-16873098D01*
X20717516Y-16828048D01*
X20712626Y-16818452D01*
X20673270Y-16764282D01*
X20673269Y-16764282D01*
X20040962Y-17396590D01*
X20023925Y-17333007D01*
X19958099Y-17218993D01*
X19865007Y-17125901D01*
X19750993Y-17060075D01*
X19687409Y-17043037D01*
X20319716Y-16410728D01*
X20265547Y-16371373D01*
X20265547Y-16371372D01*
X20256500Y-16366763D01*
X20205706Y-16318788D01*
X20188912Y-16250966D01*
X20211451Y-16184832D01*
X20256508Y-16145793D01*
X20265816Y-16141051D01*
X20345007Y-16083515D01*
X20437786Y-16016109D01*
X20437788Y-16016106D01*
X20437792Y-16016104D01*
X20588104Y-15865792D01*
X20588106Y-15865788D01*
X20588109Y-15865786D01*
X20713048Y-15693820D01*
X20713047Y-15693820D01*
X20713051Y-15693816D01*
X20717514Y-15685054D01*
X20765488Y-15634259D01*
X20833308Y-15617463D01*
X20899444Y-15639999D01*
G37*
%TD.AperFunction*%
%TA.AperFunction,Conductor*%
G36*
X94442539Y-520185D02*
G01*
X94488294Y-572989D01*
X94499500Y-624500D01*
X94499500Y-129321900D01*
X94479815Y-129388939D01*
X94427011Y-129434694D01*
X94375500Y-129445900D01*
X34922000Y-129445900D01*
X34854961Y-129426215D01*
X34809206Y-129373411D01*
X34798000Y-129321900D01*
X34798000Y-124818209D01*
X86299500Y-124818209D01*
X86299500Y-125181790D01*
X86335137Y-125543630D01*
X86406064Y-125900212D01*
X86406067Y-125900223D01*
X86511614Y-126248165D01*
X86650754Y-126584078D01*
X86650756Y-126584083D01*
X86822140Y-126904720D01*
X86822151Y-126904738D01*
X87024140Y-127207035D01*
X87024150Y-127207049D01*
X87254807Y-127488106D01*
X87511893Y-127745192D01*
X87511898Y-127745196D01*
X87511899Y-127745197D01*
X87792956Y-127975854D01*
X88095268Y-128177853D01*
X88095277Y-128177858D01*
X88095279Y-128177859D01*
X88415916Y-128349243D01*
X88415918Y-128349243D01*
X88415924Y-128349247D01*
X88751836Y-128488386D01*
X89099767Y-128593930D01*
X89099773Y-128593931D01*
X89099776Y-128593932D01*
X89099787Y-128593935D01*
X89456369Y-128664862D01*
X89818206Y-128700500D01*
X89818209Y-128700500D01*
X90181791Y-128700500D01*
X90181794Y-128700500D01*
X90543631Y-128664862D01*
X90613045Y-128651054D01*
X90900212Y-128593935D01*
X90900223Y-128593932D01*
X90900223Y-128593931D01*
X90900233Y-128593930D01*
X91248164Y-128488386D01*
X91584076Y-128349247D01*
X91904732Y-128177853D01*
X92207044Y-127975854D01*
X92488101Y-127745197D01*
X92745197Y-127488101D01*
X92975854Y-127207044D01*
X93177853Y-126904732D01*
X93349247Y-126584076D01*
X93488386Y-126248164D01*
X93593930Y-125900233D01*
X93593932Y-125900223D01*
X93593935Y-125900212D01*
X93664862Y-125543630D01*
X93700500Y-125181790D01*
X93700500Y-124818209D01*
X93664862Y-124456369D01*
X93593935Y-124099787D01*
X93593932Y-124099776D01*
X93593931Y-124099773D01*
X93593930Y-124099767D01*
X93488386Y-123751836D01*
X93349247Y-123415924D01*
X93177853Y-123095268D01*
X92975854Y-122792956D01*
X92745197Y-122511899D01*
X92745196Y-122511898D01*
X92745192Y-122511893D01*
X92488106Y-122254807D01*
X92207049Y-122024150D01*
X92207048Y-122024149D01*
X92207044Y-122024146D01*
X91904732Y-121822147D01*
X91904727Y-121822144D01*
X91904720Y-121822140D01*
X91584083Y-121650756D01*
X91584078Y-121650754D01*
X91248165Y-121511614D01*
X90900223Y-121406067D01*
X90900212Y-121406064D01*
X90543630Y-121335137D01*
X90271111Y-121308296D01*
X90181794Y-121299500D01*
X89818206Y-121299500D01*
X89735679Y-121307628D01*
X89456369Y-121335137D01*
X89099787Y-121406064D01*
X89099776Y-121406067D01*
X88751834Y-121511614D01*
X88415921Y-121650754D01*
X88415916Y-121650756D01*
X88095279Y-121822140D01*
X88095261Y-121822151D01*
X87792964Y-122024140D01*
X87792950Y-122024150D01*
X87511893Y-122254807D01*
X87254807Y-122511893D01*
X87024150Y-122792950D01*
X87024140Y-122792964D01*
X86822151Y-123095261D01*
X86822140Y-123095279D01*
X86650756Y-123415916D01*
X86650754Y-123415921D01*
X86511614Y-123751834D01*
X86406067Y-124099776D01*
X86406064Y-124099787D01*
X86335137Y-124456369D01*
X86299500Y-124818209D01*
X34798000Y-124818209D01*
X34798000Y-112673133D01*
X87832500Y-112673133D01*
X87832500Y-112888866D01*
X87866245Y-113101922D01*
X87866246Y-113101926D01*
X87932908Y-113307089D01*
X88030843Y-113499299D01*
X88157641Y-113673821D01*
X88157643Y-113673823D01*
X88300003Y-113816183D01*
X88333488Y-113877506D01*
X88328504Y-113947198D01*
X88286632Y-114003131D01*
X88264728Y-114016245D01*
X88263885Y-114016637D01*
X88114654Y-114108684D01*
X87990684Y-114232654D01*
X87898643Y-114381875D01*
X87898641Y-114381880D01*
X87843494Y-114548302D01*
X87843493Y-114548309D01*
X87833000Y-114651013D01*
X87833000Y-115071000D01*
X88885291Y-115071000D01*
X88873548Y-115091339D01*
X88833000Y-115242667D01*
X88833000Y-115399333D01*
X88873548Y-115550661D01*
X88885291Y-115571000D01*
X87833001Y-115571000D01*
X87833001Y-115990986D01*
X87843494Y-116093697D01*
X87898641Y-116260119D01*
X87898643Y-116260124D01*
X87990684Y-116409345D01*
X88114654Y-116533315D01*
X88263875Y-116625356D01*
X88263880Y-116625358D01*
X88430302Y-116680505D01*
X88430309Y-116680506D01*
X88533019Y-116690999D01*
X89177999Y-116690999D01*
X89178000Y-116690998D01*
X89178000Y-115863709D01*
X89198339Y-115875452D01*
X89349667Y-115916000D01*
X89506333Y-115916000D01*
X89657661Y-115875452D01*
X89678000Y-115863709D01*
X89678000Y-116690999D01*
X90322972Y-116690999D01*
X90322986Y-116690998D01*
X90425697Y-116680505D01*
X90592119Y-116625358D01*
X90592124Y-116625356D01*
X90741345Y-116533315D01*
X90865315Y-116409345D01*
X90957356Y-116260124D01*
X90957358Y-116260119D01*
X91012505Y-116093697D01*
X91012506Y-116093690D01*
X91022999Y-115990986D01*
X91023000Y-115990973D01*
X91023000Y-115571000D01*
X89970709Y-115571000D01*
X89982452Y-115550661D01*
X90023000Y-115399333D01*
X90023000Y-115242667D01*
X89982452Y-115091339D01*
X89970709Y-115071000D01*
X91022999Y-115071000D01*
X91022999Y-114651028D01*
X91022998Y-114651013D01*
X91012505Y-114548302D01*
X90957358Y-114381880D01*
X90957356Y-114381875D01*
X90865315Y-114232654D01*
X90741345Y-114108684D01*
X90592118Y-114016640D01*
X90591277Y-114016248D01*
X90590796Y-114015824D01*
X90585975Y-114012851D01*
X90586483Y-114012027D01*
X90538836Y-113970078D01*
X90519681Y-113902885D01*
X90539894Y-113836003D01*
X90555987Y-113816192D01*
X90698359Y-113673821D01*
X90825157Y-113499299D01*
X90923092Y-113307089D01*
X90989754Y-113101926D01*
X91004752Y-113007230D01*
X91023500Y-112888866D01*
X91023500Y-112673133D01*
X90989754Y-112460077D01*
X90989754Y-112460074D01*
X90923092Y-112254911D01*
X90825157Y-112062701D01*
X90698359Y-111888179D01*
X90545821Y-111735641D01*
X90371299Y-111608843D01*
X90179089Y-111510908D01*
X89973926Y-111444246D01*
X89973924Y-111444245D01*
X89973922Y-111444245D01*
X89760866Y-111410500D01*
X89760861Y-111410500D01*
X89095139Y-111410500D01*
X89095134Y-111410500D01*
X88882077Y-111444245D01*
X88676908Y-111510909D01*
X88484700Y-111608843D01*
X88385129Y-111681186D01*
X88310179Y-111735641D01*
X88310177Y-111735643D01*
X88310176Y-111735643D01*
X88157643Y-111888176D01*
X88157643Y-111888177D01*
X88157641Y-111888179D01*
X88103186Y-111963129D01*
X88030843Y-112062700D01*
X87932909Y-112254908D01*
X87866245Y-112460077D01*
X87832500Y-112673133D01*
X34798000Y-112673133D01*
X34798000Y-108966000D01*
X34645943Y-108881473D01*
X29448806Y-105992426D01*
X28863658Y-105667147D01*
X28677446Y-105563633D01*
X87832500Y-105563633D01*
X87832500Y-105779366D01*
X87866245Y-105992422D01*
X87866246Y-105992426D01*
X87932908Y-106197589D01*
X88030843Y-106389799D01*
X88157641Y-106564321D01*
X88157643Y-106564323D01*
X88300003Y-106706683D01*
X88333488Y-106768006D01*
X88328504Y-106837698D01*
X88286632Y-106893631D01*
X88264728Y-106906745D01*
X88263885Y-106907137D01*
X88114654Y-106999184D01*
X87990684Y-107123154D01*
X87898643Y-107272375D01*
X87898641Y-107272380D01*
X87843494Y-107438802D01*
X87843493Y-107438809D01*
X87833000Y-107541513D01*
X87833000Y-107961500D01*
X88885291Y-107961500D01*
X88873548Y-107981839D01*
X88833000Y-108133167D01*
X88833000Y-108289833D01*
X88873548Y-108441161D01*
X88885291Y-108461500D01*
X87833001Y-108461500D01*
X87833001Y-108881486D01*
X87843494Y-108984197D01*
X87898641Y-109150619D01*
X87898643Y-109150624D01*
X87990684Y-109299845D01*
X88114654Y-109423815D01*
X88263875Y-109515856D01*
X88263880Y-109515858D01*
X88430302Y-109571005D01*
X88430309Y-109571006D01*
X88533019Y-109581499D01*
X89177999Y-109581499D01*
X89178000Y-109581498D01*
X89178000Y-108754209D01*
X89198339Y-108765952D01*
X89349667Y-108806500D01*
X89506333Y-108806500D01*
X89657661Y-108765952D01*
X89678000Y-108754209D01*
X89678000Y-109581499D01*
X90322972Y-109581499D01*
X90322986Y-109581498D01*
X90425697Y-109571005D01*
X90592119Y-109515858D01*
X90592124Y-109515856D01*
X90741345Y-109423815D01*
X90865315Y-109299845D01*
X90957356Y-109150624D01*
X90957358Y-109150619D01*
X91012505Y-108984197D01*
X91012506Y-108984190D01*
X91022999Y-108881486D01*
X91023000Y-108881473D01*
X91023000Y-108461500D01*
X89970709Y-108461500D01*
X89982452Y-108441161D01*
X90023000Y-108289833D01*
X90023000Y-108133167D01*
X89982452Y-107981839D01*
X89970709Y-107961500D01*
X91022999Y-107961500D01*
X91022999Y-107541528D01*
X91022998Y-107541513D01*
X91012505Y-107438802D01*
X90957358Y-107272380D01*
X90957356Y-107272375D01*
X90865315Y-107123154D01*
X90741345Y-106999184D01*
X90592118Y-106907140D01*
X90591277Y-106906748D01*
X90590796Y-106906324D01*
X90585975Y-106903351D01*
X90586483Y-106902527D01*
X90538836Y-106860578D01*
X90519681Y-106793385D01*
X90539894Y-106726503D01*
X90555987Y-106706692D01*
X90698359Y-106564321D01*
X90825157Y-106389799D01*
X90923092Y-106197589D01*
X90989754Y-105992426D01*
X91004752Y-105897730D01*
X91023500Y-105779366D01*
X91023500Y-105563633D01*
X90989754Y-105350577D01*
X90989754Y-105350574D01*
X90923092Y-105145411D01*
X90825157Y-104953201D01*
X90698359Y-104778679D01*
X90545821Y-104626141D01*
X90371299Y-104499343D01*
X90179089Y-104401408D01*
X89973926Y-104334746D01*
X89973924Y-104334745D01*
X89973922Y-104334745D01*
X89760866Y-104301000D01*
X89760861Y-104301000D01*
X89095139Y-104301000D01*
X89095134Y-104301000D01*
X88882077Y-104334745D01*
X88676908Y-104401409D01*
X88484700Y-104499343D01*
X88385129Y-104571686D01*
X88310179Y-104626141D01*
X88310177Y-104626143D01*
X88310176Y-104626143D01*
X88157643Y-104778676D01*
X88157643Y-104778677D01*
X88157641Y-104778679D01*
X88103186Y-104853629D01*
X88030843Y-104953200D01*
X87932909Y-105145408D01*
X87866245Y-105350577D01*
X87832500Y-105563633D01*
X28677446Y-105563633D01*
X27495752Y-104906739D01*
X27446722Y-104856962D01*
X27432000Y-104798359D01*
X27432000Y-100207258D01*
X28126100Y-100207258D01*
X28126100Y-100436741D01*
X28140689Y-100547548D01*
X28156052Y-100664238D01*
X28156053Y-100664240D01*
X28215442Y-100885887D01*
X28303250Y-101097876D01*
X28303257Y-101097890D01*
X28417992Y-101296617D01*
X28557681Y-101478661D01*
X28557689Y-101478670D01*
X28719930Y-101640911D01*
X28719938Y-101640918D01*
X28901982Y-101780607D01*
X28901985Y-101780608D01*
X28901988Y-101780611D01*
X29100712Y-101895344D01*
X29100717Y-101895346D01*
X29100723Y-101895349D01*
X29192080Y-101933190D01*
X29312713Y-101983158D01*
X29534362Y-102042548D01*
X29761866Y-102072500D01*
X29761873Y-102072500D01*
X29991327Y-102072500D01*
X29991334Y-102072500D01*
X30218838Y-102042548D01*
X30440487Y-101983158D01*
X30652488Y-101895344D01*
X30851212Y-101780611D01*
X31033261Y-101640919D01*
X31033265Y-101640914D01*
X31033270Y-101640911D01*
X31195511Y-101478670D01*
X31195514Y-101478665D01*
X31195519Y-101478661D01*
X31335211Y-101296612D01*
X31449944Y-101097888D01*
X31537758Y-100885887D01*
X31597148Y-100664238D01*
X31627100Y-100436734D01*
X31627100Y-100207266D01*
X31597148Y-99979762D01*
X31537758Y-99758113D01*
X31479308Y-99617003D01*
X31449949Y-99546123D01*
X31449946Y-99546117D01*
X31449944Y-99546112D01*
X31335211Y-99347388D01*
X31335208Y-99347385D01*
X31335207Y-99347382D01*
X31195518Y-99165338D01*
X31195511Y-99165330D01*
X31033270Y-99003089D01*
X31033261Y-99003081D01*
X30851217Y-98863392D01*
X30652490Y-98748657D01*
X30652476Y-98748650D01*
X30440487Y-98660842D01*
X30427137Y-98657265D01*
X30218838Y-98601452D01*
X29996697Y-98572206D01*
X29991341Y-98571500D01*
X29991334Y-98571500D01*
X29761866Y-98571500D01*
X29761858Y-98571500D01*
X29545315Y-98600009D01*
X29534362Y-98601452D01*
X29440676Y-98626554D01*
X29312712Y-98660842D01*
X29100723Y-98748650D01*
X29100709Y-98748657D01*
X28901982Y-98863392D01*
X28719938Y-99003081D01*
X28557681Y-99165338D01*
X28417992Y-99347382D01*
X28303257Y-99546109D01*
X28303250Y-99546123D01*
X28215442Y-99758112D01*
X28156053Y-99979759D01*
X28156051Y-99979770D01*
X28126100Y-100207258D01*
X27432000Y-100207258D01*
X27432000Y-98454133D01*
X87832500Y-98454133D01*
X87832500Y-98669866D01*
X87863152Y-98863392D01*
X87866246Y-98882926D01*
X87932908Y-99088089D01*
X88030843Y-99280299D01*
X88157641Y-99454821D01*
X88157643Y-99454823D01*
X88300003Y-99597183D01*
X88333488Y-99658506D01*
X88328504Y-99728198D01*
X88286632Y-99784131D01*
X88264728Y-99797245D01*
X88263885Y-99797637D01*
X88114654Y-99889684D01*
X87990684Y-100013654D01*
X87898643Y-100162875D01*
X87898641Y-100162880D01*
X87843494Y-100329302D01*
X87843493Y-100329309D01*
X87833000Y-100432013D01*
X87833000Y-100852000D01*
X88885291Y-100852000D01*
X88873548Y-100872339D01*
X88833000Y-101023667D01*
X88833000Y-101180333D01*
X88873548Y-101331661D01*
X88885291Y-101352000D01*
X87833001Y-101352000D01*
X87833001Y-101771986D01*
X87843494Y-101874697D01*
X87898641Y-102041119D01*
X87898643Y-102041124D01*
X87990684Y-102190345D01*
X88114654Y-102314315D01*
X88263875Y-102406356D01*
X88263880Y-102406358D01*
X88430302Y-102461505D01*
X88430309Y-102461506D01*
X88533019Y-102471999D01*
X89177999Y-102471999D01*
X89178000Y-102471998D01*
X89178000Y-101644709D01*
X89198339Y-101656452D01*
X89349667Y-101697000D01*
X89506333Y-101697000D01*
X89657661Y-101656452D01*
X89678000Y-101644709D01*
X89678000Y-102471999D01*
X90322972Y-102471999D01*
X90322986Y-102471998D01*
X90425697Y-102461505D01*
X90592119Y-102406358D01*
X90592124Y-102406356D01*
X90741345Y-102314315D01*
X90865315Y-102190345D01*
X90957356Y-102041124D01*
X90957358Y-102041119D01*
X91012505Y-101874697D01*
X91012506Y-101874690D01*
X91022999Y-101771986D01*
X91023000Y-101771973D01*
X91023000Y-101352000D01*
X89970709Y-101352000D01*
X89982452Y-101331661D01*
X90023000Y-101180333D01*
X90023000Y-101023667D01*
X89982452Y-100872339D01*
X89970709Y-100852000D01*
X91022999Y-100852000D01*
X91022999Y-100432028D01*
X91022998Y-100432013D01*
X91012505Y-100329302D01*
X90957358Y-100162880D01*
X90957356Y-100162875D01*
X90865315Y-100013654D01*
X90741345Y-99889684D01*
X90592118Y-99797640D01*
X90591277Y-99797248D01*
X90590796Y-99796824D01*
X90585975Y-99793851D01*
X90586483Y-99793027D01*
X90538836Y-99751078D01*
X90519681Y-99683885D01*
X90539894Y-99617003D01*
X90555987Y-99597192D01*
X90698359Y-99454821D01*
X90825157Y-99280299D01*
X90923092Y-99088089D01*
X90989754Y-98882926D01*
X91011021Y-98748650D01*
X91023500Y-98669866D01*
X91023500Y-98454133D01*
X90989754Y-98241077D01*
X90989754Y-98241074D01*
X90923092Y-98035911D01*
X90825157Y-97843701D01*
X90698359Y-97669179D01*
X90545821Y-97516641D01*
X90371299Y-97389843D01*
X90179089Y-97291908D01*
X89973926Y-97225246D01*
X89973924Y-97225245D01*
X89973922Y-97225245D01*
X89760866Y-97191500D01*
X89760861Y-97191500D01*
X89095139Y-97191500D01*
X89095134Y-97191500D01*
X88882077Y-97225245D01*
X88676908Y-97291909D01*
X88484700Y-97389843D01*
X88385129Y-97462186D01*
X88310179Y-97516641D01*
X88310177Y-97516643D01*
X88310176Y-97516643D01*
X88157643Y-97669176D01*
X88157643Y-97669177D01*
X88157641Y-97669179D01*
X88103186Y-97744129D01*
X88030843Y-97843700D01*
X87932909Y-98035908D01*
X87866245Y-98241077D01*
X87832500Y-98454133D01*
X27432000Y-98454133D01*
X27432000Y-93472000D01*
X20320000Y-93472000D01*
X20320000Y-104827599D01*
X20300315Y-104894638D01*
X20254353Y-104937011D01*
X12700000Y-108966000D01*
X12700000Y-129321900D01*
X12680315Y-129388939D01*
X12627511Y-129434694D01*
X12576000Y-129445900D01*
X624500Y-129445900D01*
X557461Y-129426215D01*
X511706Y-129373411D01*
X500500Y-129321900D01*
X500500Y-124818209D01*
X1299500Y-124818209D01*
X1299500Y-125181790D01*
X1335137Y-125543630D01*
X1406064Y-125900212D01*
X1406067Y-125900223D01*
X1511614Y-126248165D01*
X1650754Y-126584078D01*
X1650756Y-126584083D01*
X1822140Y-126904720D01*
X1822151Y-126904738D01*
X2024140Y-127207035D01*
X2024150Y-127207049D01*
X2254807Y-127488106D01*
X2511893Y-127745192D01*
X2511898Y-127745196D01*
X2511899Y-127745197D01*
X2792956Y-127975854D01*
X3095268Y-128177853D01*
X3095277Y-128177858D01*
X3095279Y-128177859D01*
X3415916Y-128349243D01*
X3415918Y-128349243D01*
X3415924Y-128349247D01*
X3751836Y-128488386D01*
X4099767Y-128593930D01*
X4099773Y-128593931D01*
X4099776Y-128593932D01*
X4099787Y-128593935D01*
X4456369Y-128664862D01*
X4818206Y-128700500D01*
X4818209Y-128700500D01*
X5181791Y-128700500D01*
X5181794Y-128700500D01*
X5543631Y-128664862D01*
X5613045Y-128651054D01*
X5900212Y-128593935D01*
X5900223Y-128593932D01*
X5900223Y-128593931D01*
X5900233Y-128593930D01*
X6248164Y-128488386D01*
X6584076Y-128349247D01*
X6904732Y-128177853D01*
X7207044Y-127975854D01*
X7488101Y-127745197D01*
X7745197Y-127488101D01*
X7975854Y-127207044D01*
X8177853Y-126904732D01*
X8349247Y-126584076D01*
X8488386Y-126248164D01*
X8593930Y-125900233D01*
X8593932Y-125900223D01*
X8593935Y-125900212D01*
X8664862Y-125543630D01*
X8700500Y-125181790D01*
X8700500Y-124818209D01*
X8664862Y-124456369D01*
X8593935Y-124099787D01*
X8593932Y-124099776D01*
X8593931Y-124099773D01*
X8593930Y-124099767D01*
X8488386Y-123751836D01*
X8349247Y-123415924D01*
X8177853Y-123095268D01*
X7975854Y-122792956D01*
X7745197Y-122511899D01*
X7745196Y-122511898D01*
X7745192Y-122511893D01*
X7488106Y-122254807D01*
X7207049Y-122024150D01*
X7207048Y-122024149D01*
X7207044Y-122024146D01*
X6904732Y-121822147D01*
X6904727Y-121822144D01*
X6904720Y-121822140D01*
X6584083Y-121650756D01*
X6584078Y-121650754D01*
X6248165Y-121511614D01*
X5900223Y-121406067D01*
X5900212Y-121406064D01*
X5543630Y-121335137D01*
X5271111Y-121308296D01*
X5181794Y-121299500D01*
X4818206Y-121299500D01*
X4735679Y-121307628D01*
X4456369Y-121335137D01*
X4099787Y-121406064D01*
X4099776Y-121406067D01*
X3751834Y-121511614D01*
X3415921Y-121650754D01*
X3415916Y-121650756D01*
X3095279Y-121822140D01*
X3095261Y-121822151D01*
X2792964Y-122024140D01*
X2792950Y-122024150D01*
X2511893Y-122254807D01*
X2254807Y-122511893D01*
X2024150Y-122792950D01*
X2024140Y-122792964D01*
X1822151Y-123095261D01*
X1822140Y-123095279D01*
X1650756Y-123415916D01*
X1650754Y-123415921D01*
X1511614Y-123751834D01*
X1406067Y-124099776D01*
X1406064Y-124099787D01*
X1335137Y-124456369D01*
X1299500Y-124818209D01*
X500500Y-124818209D01*
X500500Y-48284682D01*
X2967200Y-48284682D01*
X2967200Y-48489317D01*
X2999209Y-48691417D01*
X3062444Y-48886031D01*
X3155341Y-49068350D01*
X3155347Y-49068359D01*
X3187723Y-49112921D01*
X3187724Y-49112922D01*
X3784237Y-48516409D01*
X3801275Y-48579993D01*
X3867101Y-48694007D01*
X3960193Y-48787099D01*
X4074207Y-48852925D01*
X4137790Y-48869962D01*
X3541276Y-49466474D01*
X3585850Y-49498859D01*
X3768168Y-49591755D01*
X3962782Y-49654990D01*
X4164883Y-49687000D01*
X4369517Y-49687000D01*
X4571617Y-49654990D01*
X4770860Y-49590251D01*
X4771194Y-49591278D01*
X4835512Y-49584361D01*
X4897993Y-49615634D01*
X4933647Y-49675722D01*
X4937500Y-49706392D01*
X4937500Y-72467607D01*
X4917815Y-72534646D01*
X4865011Y-72580401D01*
X4795853Y-72590345D01*
X4770937Y-72583511D01*
X4770860Y-72583749D01*
X4571617Y-72519009D01*
X4369517Y-72487000D01*
X4164883Y-72487000D01*
X3962782Y-72519009D01*
X3768168Y-72582244D01*
X3585844Y-72675143D01*
X3541277Y-72707523D01*
X3541277Y-72707524D01*
X4137790Y-73304037D01*
X4074207Y-73321075D01*
X3960193Y-73386901D01*
X3867101Y-73479993D01*
X3801275Y-73594007D01*
X3784237Y-73657590D01*
X3187724Y-73061077D01*
X3187723Y-73061077D01*
X3155343Y-73105644D01*
X3062444Y-73287968D01*
X2999209Y-73482582D01*
X2967200Y-73684682D01*
X2967200Y-73889317D01*
X2999209Y-74091417D01*
X3062444Y-74286031D01*
X3155341Y-74468350D01*
X3155347Y-74468359D01*
X3187723Y-74512921D01*
X3187724Y-74512922D01*
X3784237Y-73916409D01*
X3801275Y-73979993D01*
X3867101Y-74094007D01*
X3960193Y-74187099D01*
X4074207Y-74252925D01*
X4137789Y-74269962D01*
X3541276Y-74866474D01*
X3585850Y-74898859D01*
X3768168Y-74991755D01*
X3962782Y-75054990D01*
X4164883Y-75087000D01*
X4369517Y-75087000D01*
X4571617Y-75054990D01*
X4770860Y-74990251D01*
X4771194Y-74991278D01*
X4835512Y-74984361D01*
X4897993Y-75015634D01*
X4933647Y-75075722D01*
X4937500Y-75106392D01*
X4937500Y-88097469D01*
X4943176Y-88126001D01*
X4943176Y-88126003D01*
X4962497Y-88223136D01*
X4962499Y-88223144D01*
X5011534Y-88341525D01*
X5082726Y-88448073D01*
X5082727Y-88448074D01*
X16208792Y-99574138D01*
X16242277Y-99635461D01*
X16237293Y-99705153D01*
X16235672Y-99709271D01*
X16215447Y-99758097D01*
X16215442Y-99758113D01*
X16156053Y-99979759D01*
X16156051Y-99979770D01*
X16126100Y-100207258D01*
X16126100Y-100436741D01*
X16140689Y-100547548D01*
X16156052Y-100664238D01*
X16156053Y-100664240D01*
X16215442Y-100885887D01*
X16303250Y-101097876D01*
X16303257Y-101097890D01*
X16417992Y-101296617D01*
X16557681Y-101478661D01*
X16557689Y-101478670D01*
X16719930Y-101640911D01*
X16719938Y-101640918D01*
X16901982Y-101780607D01*
X16901985Y-101780608D01*
X16901988Y-101780611D01*
X17100712Y-101895344D01*
X17100717Y-101895346D01*
X17100723Y-101895349D01*
X17192080Y-101933190D01*
X17312713Y-101983158D01*
X17534362Y-102042548D01*
X17761866Y-102072500D01*
X17761873Y-102072500D01*
X17991327Y-102072500D01*
X17991334Y-102072500D01*
X18218838Y-102042548D01*
X18440487Y-101983158D01*
X18652488Y-101895344D01*
X18851212Y-101780611D01*
X19033261Y-101640919D01*
X19033265Y-101640914D01*
X19033270Y-101640911D01*
X19195511Y-101478670D01*
X19195514Y-101478665D01*
X19195519Y-101478661D01*
X19335211Y-101296612D01*
X19449944Y-101097888D01*
X19537758Y-100885887D01*
X19597148Y-100664238D01*
X19627100Y-100436734D01*
X19627100Y-100207266D01*
X19597148Y-99979762D01*
X19537758Y-99758113D01*
X19479308Y-99617003D01*
X19449949Y-99546123D01*
X19449946Y-99546117D01*
X19449944Y-99546112D01*
X19335211Y-99347388D01*
X19335208Y-99347385D01*
X19335207Y-99347382D01*
X19195518Y-99165338D01*
X19195511Y-99165330D01*
X19033270Y-99003089D01*
X19033261Y-99003081D01*
X18851217Y-98863392D01*
X18652490Y-98748657D01*
X18652476Y-98748650D01*
X18440487Y-98660842D01*
X18427137Y-98657265D01*
X18218838Y-98601452D01*
X18180815Y-98596446D01*
X17991341Y-98571500D01*
X17991334Y-98571500D01*
X17761866Y-98571500D01*
X17761858Y-98571500D01*
X17545315Y-98600009D01*
X17534362Y-98601452D01*
X17326063Y-98657265D01*
X17312713Y-98660842D01*
X17312697Y-98660847D01*
X17263871Y-98681072D01*
X17194402Y-98688541D01*
X17131923Y-98657265D01*
X17128738Y-98654192D01*
X7290529Y-88815983D01*
X86388300Y-88815983D01*
X86388300Y-91016001D01*
X86388301Y-91016018D01*
X86398800Y-91118796D01*
X86398801Y-91118799D01*
X86453985Y-91285331D01*
X86453986Y-91285334D01*
X86546088Y-91434656D01*
X86670144Y-91558712D01*
X86819466Y-91650814D01*
X86986003Y-91705999D01*
X87088791Y-91716500D01*
X89288808Y-91716499D01*
X89391597Y-91705999D01*
X89558134Y-91650814D01*
X89707456Y-91558712D01*
X89831512Y-91434656D01*
X89923614Y-91285334D01*
X89978799Y-91118797D01*
X89989300Y-91016009D01*
X89989299Y-88815992D01*
X89978799Y-88713203D01*
X89923614Y-88546666D01*
X89831512Y-88397344D01*
X89707456Y-88273288D01*
X89558134Y-88181186D01*
X89391597Y-88126001D01*
X89391595Y-88126000D01*
X89288810Y-88115500D01*
X87088798Y-88115500D01*
X87088781Y-88115501D01*
X86986003Y-88126000D01*
X86986000Y-88126001D01*
X86819468Y-88181185D01*
X86819463Y-88181187D01*
X86670142Y-88273289D01*
X86546089Y-88397342D01*
X86453987Y-88546663D01*
X86453986Y-88546666D01*
X86398801Y-88713203D01*
X86398801Y-88713204D01*
X86398800Y-88713204D01*
X86388300Y-88815983D01*
X7290529Y-88815983D01*
X6274819Y-87800273D01*
X6241334Y-87738950D01*
X6238500Y-87712592D01*
X6238500Y-84718014D01*
X86388800Y-84718014D01*
X86388800Y-84953985D01*
X86419599Y-85187914D01*
X86480670Y-85415837D01*
X86570960Y-85633819D01*
X86570965Y-85633828D01*
X86688944Y-85838171D01*
X86688945Y-85838172D01*
X86751521Y-85919723D01*
X87587758Y-85083487D01*
X87612778Y-85143890D01*
X87683912Y-85250351D01*
X87774449Y-85340888D01*
X87880910Y-85412022D01*
X87941311Y-85437041D01*
X87105075Y-86273277D01*
X87186627Y-86335854D01*
X87186628Y-86335855D01*
X87390971Y-86453834D01*
X87390980Y-86453839D01*
X87608963Y-86544129D01*
X87608961Y-86544129D01*
X87836885Y-86605200D01*
X88070814Y-86635999D01*
X88070829Y-86636000D01*
X88306771Y-86636000D01*
X88306785Y-86635999D01*
X88540714Y-86605200D01*
X88768637Y-86544129D01*
X88986619Y-86453839D01*
X88986628Y-86453834D01*
X89190981Y-86335850D01*
X89272523Y-86273279D01*
X89272523Y-86273276D01*
X88436287Y-85437041D01*
X88496690Y-85412022D01*
X88603151Y-85340888D01*
X88693688Y-85250351D01*
X88764822Y-85143890D01*
X88789841Y-85083488D01*
X89626076Y-85919723D01*
X89626079Y-85919723D01*
X89688650Y-85838181D01*
X89806634Y-85633828D01*
X89806639Y-85633819D01*
X89896929Y-85415837D01*
X89958000Y-85187914D01*
X89988799Y-84953985D01*
X89988800Y-84953971D01*
X89988800Y-84718028D01*
X89988799Y-84718014D01*
X89958000Y-84484085D01*
X89896929Y-84256162D01*
X89806639Y-84038180D01*
X89806634Y-84038171D01*
X89688655Y-83833828D01*
X89688654Y-83833827D01*
X89626077Y-83752275D01*
X88789841Y-84588511D01*
X88764822Y-84528110D01*
X88693688Y-84421649D01*
X88603151Y-84331112D01*
X88496690Y-84259978D01*
X88436288Y-84234958D01*
X89272523Y-83398721D01*
X89190972Y-83336145D01*
X89190971Y-83336144D01*
X88986628Y-83218165D01*
X88986619Y-83218160D01*
X88768636Y-83127870D01*
X88768638Y-83127870D01*
X88540714Y-83066799D01*
X88306785Y-83036000D01*
X88070814Y-83036000D01*
X87836885Y-83066799D01*
X87608962Y-83127870D01*
X87390980Y-83218160D01*
X87390971Y-83218165D01*
X87186628Y-83336144D01*
X87186618Y-83336150D01*
X87105075Y-83398720D01*
X87105075Y-83398721D01*
X87941312Y-84234958D01*
X87880910Y-84259978D01*
X87774449Y-84331112D01*
X87683912Y-84421649D01*
X87612778Y-84528110D01*
X87587758Y-84588511D01*
X86751521Y-83752275D01*
X86751520Y-83752275D01*
X86688950Y-83833818D01*
X86688944Y-83833828D01*
X86570965Y-84038171D01*
X86570960Y-84038180D01*
X86480670Y-84256162D01*
X86419599Y-84484085D01*
X86388800Y-84718014D01*
X6238500Y-84718014D01*
X6238500Y-78549135D01*
X67179500Y-78549135D01*
X67179500Y-80444870D01*
X67179501Y-80444876D01*
X67185908Y-80504483D01*
X67236202Y-80639328D01*
X67236206Y-80639335D01*
X67322452Y-80754544D01*
X67322455Y-80754547D01*
X67437664Y-80840793D01*
X67437671Y-80840797D01*
X67517580Y-80870601D01*
X67573514Y-80912472D01*
X67597931Y-80977936D01*
X67583080Y-81046209D01*
X67561929Y-81074463D01*
X67511756Y-81124636D01*
X67511752Y-81124641D01*
X67382187Y-81302974D01*
X67282104Y-81499393D01*
X67282103Y-81499396D01*
X67213985Y-81709047D01*
X67179500Y-81926778D01*
X67179500Y-82147221D01*
X67213985Y-82364952D01*
X67282103Y-82574603D01*
X67282104Y-82574606D01*
X67382187Y-82771025D01*
X67511752Y-82949358D01*
X67511756Y-82949363D01*
X67667636Y-83105243D01*
X67667641Y-83105247D01*
X67823054Y-83218160D01*
X67845978Y-83234815D01*
X67974375Y-83300237D01*
X68042393Y-83334895D01*
X68042396Y-83334896D01*
X68147221Y-83368955D01*
X68252049Y-83403015D01*
X68469778Y-83437500D01*
X68469779Y-83437500D01*
X68690221Y-83437500D01*
X68690222Y-83437500D01*
X68907951Y-83403015D01*
X69117606Y-83334895D01*
X69117607Y-83334894D01*
X69117618Y-83334890D01*
X69314020Y-83234816D01*
X69314019Y-83234816D01*
X69314022Y-83234815D01*
X69492365Y-83105242D01*
X69648242Y-82949365D01*
X69777815Y-82771022D01*
X69877895Y-82574606D01*
X69946015Y-82364951D01*
X69980500Y-82147222D01*
X69980500Y-81926778D01*
X69946015Y-81709049D01*
X69877895Y-81499394D01*
X69877895Y-81499393D01*
X69814148Y-81374285D01*
X69777815Y-81302978D01*
X69743879Y-81256269D01*
X69648247Y-81124641D01*
X69648243Y-81124636D01*
X69598071Y-81074464D01*
X69564586Y-81013141D01*
X69569570Y-80943449D01*
X69611442Y-80887516D01*
X69642420Y-80870601D01*
X69722326Y-80840798D01*
X69722326Y-80840797D01*
X69722331Y-80840796D01*
X69837546Y-80754546D01*
X69923796Y-80639331D01*
X69974091Y-80504483D01*
X69980500Y-80444873D01*
X69980499Y-79637995D01*
X86388300Y-79637995D01*
X86388300Y-79874004D01*
X86388301Y-79874020D01*
X86419106Y-80108010D01*
X86480194Y-80335993D01*
X86570514Y-80554045D01*
X86570519Y-80554056D01*
X86619756Y-80639335D01*
X86688527Y-80758450D01*
X86688529Y-80758453D01*
X86688530Y-80758454D01*
X86832206Y-80945697D01*
X86832212Y-80945704D01*
X86999095Y-81112587D01*
X86999102Y-81112593D01*
X87109106Y-81197001D01*
X87186350Y-81256273D01*
X87317718Y-81332118D01*
X87390743Y-81374280D01*
X87390748Y-81374282D01*
X87390751Y-81374284D01*
X87608807Y-81464606D01*
X87836786Y-81525693D01*
X88070789Y-81556500D01*
X88070796Y-81556500D01*
X88306804Y-81556500D01*
X88306811Y-81556500D01*
X88540814Y-81525693D01*
X88768793Y-81464606D01*
X88986849Y-81374284D01*
X89191250Y-81256273D01*
X89378499Y-81112592D01*
X89545392Y-80945699D01*
X89689073Y-80758450D01*
X89807084Y-80554049D01*
X89897406Y-80335993D01*
X89958493Y-80108014D01*
X89989300Y-79874011D01*
X89989300Y-79637989D01*
X89958493Y-79403986D01*
X89897406Y-79176007D01*
X89807084Y-78957951D01*
X89807082Y-78957948D01*
X89807080Y-78957943D01*
X89764918Y-78884918D01*
X89689073Y-78753550D01*
X89545392Y-78566301D01*
X89545387Y-78566295D01*
X89378504Y-78399412D01*
X89378497Y-78399406D01*
X89191254Y-78255730D01*
X89191253Y-78255729D01*
X89191250Y-78255727D01*
X89109757Y-78208677D01*
X88986856Y-78137719D01*
X88986845Y-78137714D01*
X88768793Y-78047394D01*
X88540810Y-77986306D01*
X88306820Y-77955501D01*
X88306817Y-77955500D01*
X88306811Y-77955500D01*
X88070789Y-77955500D01*
X88070783Y-77955500D01*
X88070779Y-77955501D01*
X87836789Y-77986306D01*
X87608806Y-78047394D01*
X87390754Y-78137714D01*
X87390743Y-78137719D01*
X87186345Y-78255730D01*
X86999102Y-78399406D01*
X86999095Y-78399412D01*
X86832212Y-78566295D01*
X86832206Y-78566302D01*
X86688530Y-78753545D01*
X86570519Y-78957943D01*
X86570514Y-78957954D01*
X86480194Y-79176006D01*
X86419106Y-79403989D01*
X86388301Y-79637979D01*
X86388300Y-79637995D01*
X69980499Y-79637995D01*
X69980499Y-79403989D01*
X69980499Y-78549129D01*
X69980498Y-78549123D01*
X69980497Y-78549116D01*
X69974091Y-78489517D01*
X69923796Y-78354669D01*
X69923795Y-78354668D01*
X69923793Y-78354664D01*
X69837547Y-78239455D01*
X69837544Y-78239452D01*
X69722335Y-78153206D01*
X69722328Y-78153202D01*
X69587482Y-78102908D01*
X69587483Y-78102908D01*
X69527883Y-78096501D01*
X69527881Y-78096500D01*
X69527873Y-78096500D01*
X69527864Y-78096500D01*
X67632129Y-78096500D01*
X67632123Y-78096501D01*
X67572516Y-78102908D01*
X67437671Y-78153202D01*
X67437664Y-78153206D01*
X67322455Y-78239452D01*
X67322452Y-78239455D01*
X67236206Y-78354664D01*
X67236202Y-78354671D01*
X67185908Y-78489517D01*
X67179501Y-78549116D01*
X67179501Y-78549123D01*
X67179500Y-78549135D01*
X6238500Y-78549135D01*
X6238500Y-75139790D01*
X6258185Y-75072751D01*
X6310989Y-75026996D01*
X6380147Y-75017052D01*
X6400819Y-75021859D01*
X6502782Y-75054990D01*
X6704883Y-75087000D01*
X6909517Y-75087000D01*
X7111617Y-75054990D01*
X7306231Y-74991755D01*
X7488549Y-74898859D01*
X7533121Y-74866474D01*
X6936609Y-74269962D01*
X7000193Y-74252925D01*
X7114207Y-74187099D01*
X7207299Y-74094007D01*
X7273125Y-73979993D01*
X7290162Y-73916409D01*
X7886674Y-74512921D01*
X7919061Y-74468347D01*
X7919061Y-74468346D01*
X7966434Y-74375371D01*
X8014408Y-74324575D01*
X8082228Y-74307779D01*
X8148364Y-74330316D01*
X8187403Y-74375369D01*
X8234913Y-74468611D01*
X8355228Y-74634213D01*
X8499986Y-74778971D01*
X8620426Y-74866474D01*
X8665590Y-74899287D01*
X8781807Y-74958503D01*
X8847976Y-74992218D01*
X8847978Y-74992218D01*
X8847981Y-74992220D01*
X8952337Y-75026127D01*
X9042665Y-75055477D01*
X9143757Y-75071488D01*
X9244848Y-75087500D01*
X9244849Y-75087500D01*
X9449551Y-75087500D01*
X9449552Y-75087500D01*
X9651734Y-75055477D01*
X9846419Y-74992220D01*
X10028810Y-74899287D01*
X10173699Y-74794020D01*
X10194413Y-74778971D01*
X10194415Y-74778968D01*
X10194419Y-74778966D01*
X10339166Y-74634219D01*
X10339168Y-74634215D01*
X10339171Y-74634213D01*
X10459484Y-74468614D01*
X10459486Y-74468611D01*
X10459487Y-74468610D01*
X10506716Y-74375917D01*
X10554689Y-74325123D01*
X10622510Y-74308328D01*
X10688645Y-74330865D01*
X10727685Y-74375919D01*
X10774915Y-74468614D01*
X10895228Y-74634213D01*
X11039986Y-74778971D01*
X11160426Y-74866474D01*
X11205590Y-74899287D01*
X11321807Y-74958503D01*
X11387976Y-74992218D01*
X11387978Y-74992218D01*
X11387981Y-74992220D01*
X11492337Y-75026127D01*
X11582665Y-75055477D01*
X11683757Y-75071488D01*
X11784848Y-75087500D01*
X11784849Y-75087500D01*
X11989551Y-75087500D01*
X11989552Y-75087500D01*
X12191734Y-75055477D01*
X12386419Y-74992220D01*
X12568810Y-74899287D01*
X12713699Y-74794020D01*
X12734413Y-74778971D01*
X12734415Y-74778968D01*
X12734419Y-74778966D01*
X12879166Y-74634219D01*
X12879168Y-74634215D01*
X12879171Y-74634213D01*
X12999484Y-74468614D01*
X12999486Y-74468611D01*
X12999487Y-74468610D01*
X13046716Y-74375917D01*
X13094689Y-74325123D01*
X13162510Y-74308328D01*
X13228645Y-74330865D01*
X13267685Y-74375919D01*
X13314915Y-74468614D01*
X13435228Y-74634213D01*
X13579986Y-74778971D01*
X13700426Y-74866474D01*
X13745590Y-74899287D01*
X13861807Y-74958503D01*
X13927976Y-74992218D01*
X13927978Y-74992218D01*
X13927981Y-74992220D01*
X14032337Y-75026127D01*
X14122665Y-75055477D01*
X14223757Y-75071488D01*
X14324848Y-75087500D01*
X14324849Y-75087500D01*
X14529551Y-75087500D01*
X14529552Y-75087500D01*
X14731734Y-75055477D01*
X14926419Y-74992220D01*
X15108810Y-74899287D01*
X15253699Y-74794020D01*
X15274413Y-74778971D01*
X15274415Y-74778968D01*
X15274419Y-74778966D01*
X15419166Y-74634219D01*
X15419168Y-74634215D01*
X15419171Y-74634213D01*
X15539484Y-74468614D01*
X15539486Y-74468611D01*
X15539487Y-74468610D01*
X15586716Y-74375917D01*
X15634689Y-74325123D01*
X15702510Y-74308328D01*
X15768645Y-74330865D01*
X15807685Y-74375919D01*
X15854915Y-74468614D01*
X15975228Y-74634213D01*
X16119986Y-74778971D01*
X16240426Y-74866474D01*
X16285590Y-74899287D01*
X16401807Y-74958503D01*
X16467976Y-74992218D01*
X16467978Y-74992218D01*
X16467981Y-74992220D01*
X16572337Y-75026127D01*
X16662665Y-75055477D01*
X16763757Y-75071488D01*
X16864848Y-75087500D01*
X16864849Y-75087500D01*
X17069551Y-75087500D01*
X17069552Y-75087500D01*
X17271734Y-75055477D01*
X17466419Y-74992220D01*
X17648810Y-74899287D01*
X17793699Y-74794020D01*
X17814413Y-74778971D01*
X17814415Y-74778968D01*
X17814419Y-74778966D01*
X17959166Y-74634219D01*
X17959168Y-74634215D01*
X17959171Y-74634213D01*
X18079484Y-74468614D01*
X18079486Y-74468611D01*
X18079487Y-74468610D01*
X18126716Y-74375917D01*
X18174689Y-74325123D01*
X18242510Y-74308328D01*
X18308645Y-74330865D01*
X18347685Y-74375919D01*
X18394915Y-74468614D01*
X18515228Y-74634213D01*
X18659986Y-74778971D01*
X18780426Y-74866474D01*
X18825590Y-74899287D01*
X18941807Y-74958503D01*
X19007976Y-74992218D01*
X19007978Y-74992218D01*
X19007981Y-74992220D01*
X19112337Y-75026127D01*
X19202665Y-75055477D01*
X19303757Y-75071488D01*
X19404848Y-75087500D01*
X19404849Y-75087500D01*
X19609551Y-75087500D01*
X19609552Y-75087500D01*
X19811734Y-75055477D01*
X20006419Y-74992220D01*
X20188810Y-74899287D01*
X20333699Y-74794020D01*
X20354413Y-74778971D01*
X20354415Y-74778968D01*
X20354419Y-74778966D01*
X20499166Y-74634219D01*
X20499168Y-74634215D01*
X20499171Y-74634213D01*
X20619484Y-74468614D01*
X20619486Y-74468611D01*
X20619487Y-74468610D01*
X20666716Y-74375917D01*
X20714689Y-74325123D01*
X20782510Y-74308328D01*
X20848645Y-74330865D01*
X20887685Y-74375919D01*
X20934915Y-74468614D01*
X21055228Y-74634213D01*
X21199986Y-74778971D01*
X21320426Y-74866474D01*
X21365590Y-74899287D01*
X21481807Y-74958503D01*
X21547976Y-74992218D01*
X21547978Y-74992218D01*
X21547981Y-74992220D01*
X21652337Y-75026127D01*
X21742665Y-75055477D01*
X21843757Y-75071488D01*
X21944848Y-75087500D01*
X21944849Y-75087500D01*
X22149551Y-75087500D01*
X22149552Y-75087500D01*
X22351734Y-75055477D01*
X22546419Y-74992220D01*
X22728810Y-74899287D01*
X22873699Y-74794020D01*
X22894413Y-74778971D01*
X22894415Y-74778968D01*
X22894419Y-74778966D01*
X23039166Y-74634219D01*
X23039168Y-74634215D01*
X23039171Y-74634213D01*
X23159484Y-74468614D01*
X23159486Y-74468611D01*
X23159487Y-74468610D01*
X23206716Y-74375917D01*
X23254689Y-74325123D01*
X23322510Y-74308328D01*
X23388645Y-74330865D01*
X23427685Y-74375919D01*
X23474915Y-74468614D01*
X23595228Y-74634213D01*
X23739986Y-74778971D01*
X23860426Y-74866474D01*
X23905590Y-74899287D01*
X24021807Y-74958503D01*
X24087976Y-74992218D01*
X24087978Y-74992218D01*
X24087981Y-74992220D01*
X24192337Y-75026127D01*
X24282665Y-75055477D01*
X24383757Y-75071488D01*
X24484848Y-75087500D01*
X24484849Y-75087500D01*
X24689551Y-75087500D01*
X24689552Y-75087500D01*
X24891734Y-75055477D01*
X25086419Y-74992220D01*
X25268810Y-74899287D01*
X25413699Y-74794020D01*
X25434413Y-74778971D01*
X25434415Y-74778968D01*
X25434419Y-74778966D01*
X25579166Y-74634219D01*
X25579168Y-74634215D01*
X25579171Y-74634213D01*
X25699484Y-74468614D01*
X25699486Y-74468611D01*
X25699487Y-74468610D01*
X25746716Y-74375917D01*
X25794689Y-74325123D01*
X25862510Y-74308328D01*
X25928645Y-74330865D01*
X25967685Y-74375919D01*
X26014915Y-74468614D01*
X26135228Y-74634213D01*
X26279986Y-74778971D01*
X26400426Y-74866474D01*
X26445590Y-74899287D01*
X26561807Y-74958503D01*
X26627976Y-74992218D01*
X26627978Y-74992218D01*
X26627981Y-74992220D01*
X26732337Y-75026127D01*
X26822665Y-75055477D01*
X26923757Y-75071488D01*
X27024848Y-75087500D01*
X27024849Y-75087500D01*
X27229551Y-75087500D01*
X27229552Y-75087500D01*
X27431734Y-75055477D01*
X27626419Y-74992220D01*
X27808810Y-74899287D01*
X27953699Y-74794020D01*
X27974413Y-74778971D01*
X27974415Y-74778968D01*
X27974419Y-74778966D01*
X28119166Y-74634219D01*
X28119168Y-74634215D01*
X28119171Y-74634213D01*
X28239484Y-74468614D01*
X28239486Y-74468611D01*
X28239487Y-74468610D01*
X28286716Y-74375917D01*
X28334689Y-74325123D01*
X28402510Y-74308328D01*
X28468645Y-74330865D01*
X28507685Y-74375919D01*
X28554915Y-74468614D01*
X28675228Y-74634213D01*
X28819986Y-74778971D01*
X28940426Y-74866474D01*
X28985590Y-74899287D01*
X29101807Y-74958503D01*
X29167976Y-74992218D01*
X29167978Y-74992218D01*
X29167981Y-74992220D01*
X29272337Y-75026127D01*
X29362665Y-75055477D01*
X29463757Y-75071488D01*
X29564848Y-75087500D01*
X29564849Y-75087500D01*
X29769551Y-75087500D01*
X29769552Y-75087500D01*
X29971734Y-75055477D01*
X30166419Y-74992220D01*
X30348810Y-74899287D01*
X30493699Y-74794020D01*
X30514413Y-74778971D01*
X30514415Y-74778968D01*
X30514419Y-74778966D01*
X30659166Y-74634219D01*
X30659168Y-74634215D01*
X30659171Y-74634213D01*
X30779484Y-74468614D01*
X30779486Y-74468611D01*
X30779487Y-74468610D01*
X30826716Y-74375917D01*
X30874689Y-74325123D01*
X30942510Y-74308328D01*
X31008645Y-74330865D01*
X31047685Y-74375919D01*
X31094915Y-74468614D01*
X31215228Y-74634213D01*
X31359986Y-74778971D01*
X31480426Y-74866474D01*
X31525590Y-74899287D01*
X31641807Y-74958503D01*
X31707976Y-74992218D01*
X31707978Y-74992218D01*
X31707981Y-74992220D01*
X31812337Y-75026127D01*
X31902665Y-75055477D01*
X32003757Y-75071488D01*
X32104848Y-75087500D01*
X32104849Y-75087500D01*
X32309551Y-75087500D01*
X32309552Y-75087500D01*
X32511734Y-75055477D01*
X32706419Y-74992220D01*
X32888810Y-74899287D01*
X33033699Y-74794020D01*
X33054413Y-74778971D01*
X33054415Y-74778968D01*
X33054419Y-74778966D01*
X33199166Y-74634219D01*
X33199168Y-74634215D01*
X33199171Y-74634213D01*
X33319484Y-74468614D01*
X33319486Y-74468611D01*
X33319487Y-74468610D01*
X33366716Y-74375917D01*
X33414689Y-74325123D01*
X33482510Y-74308328D01*
X33548645Y-74330865D01*
X33587685Y-74375919D01*
X33634915Y-74468614D01*
X33755228Y-74634213D01*
X33899986Y-74778971D01*
X34020426Y-74866474D01*
X34065590Y-74899287D01*
X34181807Y-74958503D01*
X34247976Y-74992218D01*
X34247978Y-74992218D01*
X34247981Y-74992220D01*
X34352337Y-75026127D01*
X34442665Y-75055477D01*
X34543757Y-75071488D01*
X34644848Y-75087500D01*
X34644849Y-75087500D01*
X34849551Y-75087500D01*
X34849552Y-75087500D01*
X35051734Y-75055477D01*
X35246419Y-74992220D01*
X35428810Y-74899287D01*
X35573699Y-74794020D01*
X35594413Y-74778971D01*
X35594415Y-74778968D01*
X35594419Y-74778966D01*
X35739166Y-74634219D01*
X35739168Y-74634215D01*
X35739171Y-74634213D01*
X35859484Y-74468614D01*
X35859486Y-74468611D01*
X35859487Y-74468610D01*
X35906716Y-74375917D01*
X35954689Y-74325123D01*
X36022510Y-74308328D01*
X36088645Y-74330865D01*
X36127685Y-74375919D01*
X36174915Y-74468614D01*
X36295228Y-74634213D01*
X36439986Y-74778971D01*
X36560426Y-74866474D01*
X36605590Y-74899287D01*
X36721807Y-74958503D01*
X36787976Y-74992218D01*
X36787978Y-74992218D01*
X36787981Y-74992220D01*
X36892337Y-75026127D01*
X36982665Y-75055477D01*
X37083757Y-75071488D01*
X37184848Y-75087500D01*
X37184849Y-75087500D01*
X37389551Y-75087500D01*
X37389552Y-75087500D01*
X37591734Y-75055477D01*
X37786419Y-74992220D01*
X37968810Y-74899287D01*
X38113699Y-74794020D01*
X38134413Y-74778971D01*
X38134415Y-74778968D01*
X38134419Y-74778966D01*
X38279166Y-74634219D01*
X38279168Y-74634215D01*
X38279171Y-74634213D01*
X38399484Y-74468614D01*
X38399486Y-74468611D01*
X38399487Y-74468610D01*
X38446716Y-74375917D01*
X38494689Y-74325123D01*
X38562510Y-74308328D01*
X38628645Y-74330865D01*
X38667685Y-74375919D01*
X38714915Y-74468614D01*
X38835228Y-74634213D01*
X38979986Y-74778971D01*
X39100426Y-74866474D01*
X39145590Y-74899287D01*
X39261807Y-74958503D01*
X39327976Y-74992218D01*
X39327978Y-74992218D01*
X39327981Y-74992220D01*
X39432337Y-75026127D01*
X39522665Y-75055477D01*
X39623757Y-75071488D01*
X39724848Y-75087500D01*
X39724849Y-75087500D01*
X39929551Y-75087500D01*
X39929552Y-75087500D01*
X40131734Y-75055477D01*
X40326419Y-74992220D01*
X40508810Y-74899287D01*
X40653699Y-74794020D01*
X40674413Y-74778971D01*
X40674415Y-74778968D01*
X40674419Y-74778966D01*
X40819166Y-74634219D01*
X40819168Y-74634215D01*
X40819171Y-74634213D01*
X40939484Y-74468614D01*
X40939486Y-74468611D01*
X40939487Y-74468610D01*
X40986716Y-74375917D01*
X41034689Y-74325123D01*
X41102510Y-74308328D01*
X41168645Y-74330865D01*
X41207685Y-74375919D01*
X41254915Y-74468614D01*
X41375228Y-74634213D01*
X41519986Y-74778971D01*
X41640426Y-74866474D01*
X41685590Y-74899287D01*
X41801807Y-74958503D01*
X41867976Y-74992218D01*
X41867978Y-74992218D01*
X41867981Y-74992220D01*
X41972337Y-75026127D01*
X42062665Y-75055477D01*
X42163757Y-75071488D01*
X42264848Y-75087500D01*
X42264849Y-75087500D01*
X42469551Y-75087500D01*
X42469552Y-75087500D01*
X42671734Y-75055477D01*
X42866419Y-74992220D01*
X43048810Y-74899287D01*
X43193699Y-74794020D01*
X43214413Y-74778971D01*
X43214415Y-74778968D01*
X43214419Y-74778966D01*
X43359166Y-74634219D01*
X43359168Y-74634215D01*
X43359171Y-74634213D01*
X43479484Y-74468614D01*
X43479486Y-74468611D01*
X43479487Y-74468610D01*
X43526716Y-74375917D01*
X43574689Y-74325123D01*
X43642510Y-74308328D01*
X43708645Y-74330865D01*
X43747685Y-74375919D01*
X43794915Y-74468614D01*
X43915228Y-74634213D01*
X44059986Y-74778971D01*
X44180426Y-74866474D01*
X44225590Y-74899287D01*
X44341807Y-74958503D01*
X44407976Y-74992218D01*
X44407978Y-74992218D01*
X44407981Y-74992220D01*
X44512337Y-75026127D01*
X44602665Y-75055477D01*
X44703757Y-75071488D01*
X44804848Y-75087500D01*
X44804849Y-75087500D01*
X45009551Y-75087500D01*
X45009552Y-75087500D01*
X45211734Y-75055477D01*
X45406419Y-74992220D01*
X45588810Y-74899287D01*
X45733699Y-74794020D01*
X45754413Y-74778971D01*
X45754415Y-74778968D01*
X45754419Y-74778966D01*
X45899166Y-74634219D01*
X45899168Y-74634215D01*
X45899171Y-74634213D01*
X46019484Y-74468614D01*
X46019486Y-74468611D01*
X46019487Y-74468610D01*
X46066716Y-74375917D01*
X46114689Y-74325123D01*
X46182510Y-74308328D01*
X46248645Y-74330865D01*
X46287685Y-74375919D01*
X46334915Y-74468614D01*
X46455228Y-74634213D01*
X46599986Y-74778971D01*
X46720426Y-74866474D01*
X46765590Y-74899287D01*
X46881807Y-74958503D01*
X46947976Y-74992218D01*
X46947978Y-74992218D01*
X46947981Y-74992220D01*
X47052337Y-75026127D01*
X47142665Y-75055477D01*
X47243757Y-75071488D01*
X47344848Y-75087500D01*
X47344849Y-75087500D01*
X47549551Y-75087500D01*
X47549552Y-75087500D01*
X47751734Y-75055477D01*
X47946419Y-74992220D01*
X48128810Y-74899287D01*
X48273699Y-74794020D01*
X48294413Y-74778971D01*
X48294415Y-74778968D01*
X48294419Y-74778966D01*
X48439166Y-74634219D01*
X48439168Y-74634215D01*
X48439171Y-74634213D01*
X48559484Y-74468614D01*
X48559486Y-74468611D01*
X48559487Y-74468610D01*
X48606716Y-74375917D01*
X48654689Y-74325123D01*
X48722510Y-74308328D01*
X48788645Y-74330865D01*
X48827685Y-74375919D01*
X48874915Y-74468614D01*
X48995228Y-74634213D01*
X49139986Y-74778971D01*
X49260426Y-74866474D01*
X49305590Y-74899287D01*
X49421807Y-74958503D01*
X49487976Y-74992218D01*
X49487978Y-74992218D01*
X49487981Y-74992220D01*
X49592337Y-75026127D01*
X49682665Y-75055477D01*
X49783757Y-75071488D01*
X49884848Y-75087500D01*
X49884849Y-75087500D01*
X50089551Y-75087500D01*
X50089552Y-75087500D01*
X50291734Y-75055477D01*
X50486419Y-74992220D01*
X50668810Y-74899287D01*
X50813699Y-74794020D01*
X50834413Y-74778971D01*
X50834415Y-74778968D01*
X50834419Y-74778966D01*
X50979166Y-74634219D01*
X50979168Y-74634215D01*
X50979171Y-74634213D01*
X51099484Y-74468614D01*
X51099486Y-74468611D01*
X51099487Y-74468610D01*
X51146716Y-74375917D01*
X51194689Y-74325123D01*
X51262510Y-74308328D01*
X51328645Y-74330865D01*
X51367685Y-74375919D01*
X51414915Y-74468614D01*
X51535228Y-74634213D01*
X51679986Y-74778971D01*
X51800426Y-74866474D01*
X51845590Y-74899287D01*
X51961807Y-74958503D01*
X52027976Y-74992218D01*
X52027978Y-74992218D01*
X52027981Y-74992220D01*
X52132337Y-75026127D01*
X52222665Y-75055477D01*
X52323757Y-75071488D01*
X52424848Y-75087500D01*
X52424849Y-75087500D01*
X52629551Y-75087500D01*
X52629552Y-75087500D01*
X52831734Y-75055477D01*
X53026419Y-74992220D01*
X53208810Y-74899287D01*
X53353699Y-74794020D01*
X53374413Y-74778971D01*
X53374415Y-74778968D01*
X53374419Y-74778966D01*
X53519166Y-74634219D01*
X53519168Y-74634215D01*
X53519171Y-74634213D01*
X53639484Y-74468614D01*
X53639486Y-74468611D01*
X53639487Y-74468610D01*
X53686716Y-74375917D01*
X53734689Y-74325123D01*
X53802510Y-74308328D01*
X53868645Y-74330865D01*
X53907685Y-74375919D01*
X53954915Y-74468614D01*
X54075228Y-74634213D01*
X54219986Y-74778971D01*
X54340426Y-74866474D01*
X54385590Y-74899287D01*
X54501807Y-74958503D01*
X54567976Y-74992218D01*
X54567978Y-74992218D01*
X54567981Y-74992220D01*
X54672337Y-75026127D01*
X54762665Y-75055477D01*
X54863757Y-75071488D01*
X54964848Y-75087500D01*
X54964849Y-75087500D01*
X55169551Y-75087500D01*
X55169552Y-75087500D01*
X55371734Y-75055477D01*
X55566419Y-74992220D01*
X55748810Y-74899287D01*
X55893699Y-74794020D01*
X55914413Y-74778971D01*
X55914415Y-74778968D01*
X55914419Y-74778966D01*
X56059166Y-74634219D01*
X56059168Y-74634215D01*
X56059171Y-74634213D01*
X56179486Y-74468611D01*
X56179615Y-74468359D01*
X56226995Y-74375369D01*
X56274969Y-74324573D01*
X56342790Y-74307778D01*
X56408925Y-74330315D01*
X56447965Y-74375369D01*
X56495341Y-74468350D01*
X56495347Y-74468359D01*
X56527723Y-74512921D01*
X56527724Y-74512922D01*
X57124237Y-73916409D01*
X57141275Y-73979993D01*
X57207101Y-74094007D01*
X57300193Y-74187099D01*
X57414207Y-74252925D01*
X57477790Y-74269962D01*
X56881276Y-74866474D01*
X56925850Y-74898859D01*
X57108168Y-74991755D01*
X57302782Y-75054990D01*
X57504883Y-75087000D01*
X57709517Y-75087000D01*
X57911617Y-75054990D01*
X58106231Y-74991755D01*
X58288549Y-74898859D01*
X58333121Y-74866474D01*
X58024642Y-74557995D01*
X86388300Y-74557995D01*
X86388300Y-74794004D01*
X86388301Y-74794020D01*
X86419106Y-75028010D01*
X86480194Y-75255993D01*
X86570514Y-75474045D01*
X86570519Y-75474056D01*
X86641477Y-75596957D01*
X86688527Y-75678450D01*
X86688529Y-75678453D01*
X86688530Y-75678454D01*
X86832206Y-75865697D01*
X86832212Y-75865704D01*
X86999095Y-76032587D01*
X86999101Y-76032592D01*
X87186350Y-76176273D01*
X87317718Y-76252118D01*
X87390743Y-76294280D01*
X87390748Y-76294282D01*
X87390751Y-76294284D01*
X87608807Y-76384606D01*
X87836786Y-76445693D01*
X88070789Y-76476500D01*
X88070796Y-76476500D01*
X88306804Y-76476500D01*
X88306811Y-76476500D01*
X88540814Y-76445693D01*
X88768793Y-76384606D01*
X88986849Y-76294284D01*
X89191250Y-76176273D01*
X89378499Y-76032592D01*
X89545392Y-75865699D01*
X89689073Y-75678450D01*
X89807084Y-75474049D01*
X89897406Y-75255993D01*
X89958493Y-75028014D01*
X89989300Y-74794011D01*
X89989300Y-74557989D01*
X89958493Y-74323986D01*
X89897406Y-74096007D01*
X89807084Y-73877951D01*
X89807082Y-73877948D01*
X89807080Y-73877943D01*
X89754573Y-73786999D01*
X89689073Y-73673550D01*
X89545392Y-73486301D01*
X89545387Y-73486295D01*
X89378504Y-73319412D01*
X89378497Y-73319406D01*
X89191254Y-73175730D01*
X89191253Y-73175729D01*
X89191250Y-73175727D01*
X89069877Y-73105652D01*
X88986856Y-73057719D01*
X88986845Y-73057714D01*
X88768793Y-72967394D01*
X88540810Y-72906306D01*
X88306820Y-72875501D01*
X88306817Y-72875500D01*
X88306811Y-72875500D01*
X88070789Y-72875500D01*
X88070783Y-72875500D01*
X88070779Y-72875501D01*
X87836789Y-72906306D01*
X87608806Y-72967394D01*
X87390754Y-73057714D01*
X87390743Y-73057719D01*
X87186345Y-73175730D01*
X86999102Y-73319406D01*
X86999095Y-73319412D01*
X86832212Y-73486295D01*
X86832206Y-73486302D01*
X86688530Y-73673545D01*
X86570519Y-73877943D01*
X86570514Y-73877954D01*
X86480194Y-74096006D01*
X86419106Y-74323989D01*
X86388301Y-74557979D01*
X86388300Y-74557995D01*
X58024642Y-74557995D01*
X57736609Y-74269962D01*
X57800193Y-74252925D01*
X57914207Y-74187099D01*
X58007299Y-74094007D01*
X58073125Y-73979993D01*
X58090162Y-73916409D01*
X58686674Y-74512921D01*
X58709837Y-74481043D01*
X58709838Y-74481041D01*
X58719057Y-74468353D01*
X58719058Y-74468351D01*
X58811955Y-74286031D01*
X58875190Y-74091417D01*
X58907200Y-73889317D01*
X58907200Y-73684682D01*
X58875190Y-73482582D01*
X58811955Y-73287968D01*
X58719059Y-73105650D01*
X58686674Y-73061077D01*
X58686674Y-73061076D01*
X58090162Y-73657589D01*
X58073125Y-73594007D01*
X58007299Y-73479993D01*
X57914207Y-73386901D01*
X57800193Y-73321075D01*
X57736608Y-73304037D01*
X58333122Y-72707524D01*
X58333121Y-72707523D01*
X58288559Y-72675147D01*
X58288550Y-72675141D01*
X58106231Y-72582244D01*
X57911617Y-72519009D01*
X57709517Y-72487000D01*
X57504883Y-72487000D01*
X57302782Y-72519009D01*
X57108168Y-72582244D01*
X56925844Y-72675143D01*
X56881277Y-72707523D01*
X56881277Y-72707524D01*
X57477791Y-73304037D01*
X57414207Y-73321075D01*
X57300193Y-73386901D01*
X57207101Y-73479993D01*
X57141275Y-73594007D01*
X57124237Y-73657590D01*
X56527724Y-73061077D01*
X56527723Y-73061077D01*
X56495343Y-73105644D01*
X56447965Y-73198630D01*
X56399990Y-73249426D01*
X56332169Y-73266221D01*
X56266034Y-73243683D01*
X56226995Y-73198630D01*
X56215327Y-73175730D01*
X56179487Y-73105390D01*
X56179485Y-73105387D01*
X56179484Y-73105385D01*
X56059171Y-72939786D01*
X55914413Y-72795028D01*
X55748813Y-72674715D01*
X55748812Y-72674714D01*
X55748810Y-72674713D01*
X55691853Y-72645691D01*
X55566423Y-72581781D01*
X55371734Y-72518522D01*
X55197195Y-72490878D01*
X55169552Y-72486500D01*
X54964848Y-72486500D01*
X54940529Y-72490351D01*
X54762665Y-72518522D01*
X54567976Y-72581781D01*
X54385586Y-72674715D01*
X54219986Y-72795028D01*
X54075228Y-72939786D01*
X53954915Y-73105386D01*
X53907685Y-73198080D01*
X53859710Y-73248876D01*
X53791889Y-73265671D01*
X53725754Y-73243134D01*
X53686715Y-73198080D01*
X53675327Y-73175730D01*
X53639487Y-73105390D01*
X53607292Y-73061077D01*
X53519171Y-72939786D01*
X53374413Y-72795028D01*
X53208813Y-72674715D01*
X53208812Y-72674714D01*
X53208810Y-72674713D01*
X53151853Y-72645691D01*
X53026423Y-72581781D01*
X52831734Y-72518522D01*
X52657195Y-72490878D01*
X52629552Y-72486500D01*
X52424848Y-72486500D01*
X52400529Y-72490351D01*
X52222665Y-72518522D01*
X52027976Y-72581781D01*
X51845586Y-72674715D01*
X51679986Y-72795028D01*
X51535228Y-72939786D01*
X51414915Y-73105386D01*
X51367685Y-73198080D01*
X51319710Y-73248876D01*
X51251889Y-73265671D01*
X51185754Y-73243134D01*
X51146715Y-73198080D01*
X51135327Y-73175730D01*
X51099487Y-73105390D01*
X51067292Y-73061077D01*
X50979171Y-72939786D01*
X50834413Y-72795028D01*
X50668813Y-72674715D01*
X50668812Y-72674714D01*
X50668810Y-72674713D01*
X50611853Y-72645691D01*
X50486423Y-72581781D01*
X50291734Y-72518522D01*
X50117195Y-72490878D01*
X50089552Y-72486500D01*
X49884848Y-72486500D01*
X49860529Y-72490351D01*
X49682665Y-72518522D01*
X49487976Y-72581781D01*
X49305586Y-72674715D01*
X49139986Y-72795028D01*
X48995228Y-72939786D01*
X48874915Y-73105386D01*
X48827685Y-73198080D01*
X48779710Y-73248876D01*
X48711889Y-73265671D01*
X48645754Y-73243134D01*
X48606715Y-73198080D01*
X48595327Y-73175730D01*
X48559487Y-73105390D01*
X48527292Y-73061077D01*
X48439171Y-72939786D01*
X48294413Y-72795028D01*
X48128813Y-72674715D01*
X48128812Y-72674714D01*
X48128810Y-72674713D01*
X48071853Y-72645691D01*
X47946423Y-72581781D01*
X47751734Y-72518522D01*
X47577195Y-72490878D01*
X47549552Y-72486500D01*
X47344848Y-72486500D01*
X47320529Y-72490351D01*
X47142665Y-72518522D01*
X46947976Y-72581781D01*
X46765586Y-72674715D01*
X46599986Y-72795028D01*
X46455228Y-72939786D01*
X46334915Y-73105386D01*
X46287685Y-73198080D01*
X46239710Y-73248876D01*
X46171889Y-73265671D01*
X46105754Y-73243134D01*
X46066715Y-73198080D01*
X46055327Y-73175730D01*
X46019487Y-73105390D01*
X45987292Y-73061077D01*
X45899171Y-72939786D01*
X45754413Y-72795028D01*
X45588813Y-72674715D01*
X45588812Y-72674714D01*
X45588810Y-72674713D01*
X45531853Y-72645691D01*
X45406423Y-72581781D01*
X45211734Y-72518522D01*
X45037195Y-72490878D01*
X45009552Y-72486500D01*
X44804848Y-72486500D01*
X44780529Y-72490351D01*
X44602665Y-72518522D01*
X44407976Y-72581781D01*
X44225586Y-72674715D01*
X44059986Y-72795028D01*
X43915228Y-72939786D01*
X43794915Y-73105386D01*
X43747685Y-73198080D01*
X43699710Y-73248876D01*
X43631889Y-73265671D01*
X43565754Y-73243134D01*
X43526715Y-73198080D01*
X43515327Y-73175730D01*
X43479487Y-73105390D01*
X43447292Y-73061077D01*
X43359171Y-72939786D01*
X43214413Y-72795028D01*
X43048813Y-72674715D01*
X43048812Y-72674714D01*
X43048810Y-72674713D01*
X42991853Y-72645691D01*
X42866423Y-72581781D01*
X42671734Y-72518522D01*
X42497195Y-72490878D01*
X42469552Y-72486500D01*
X42264848Y-72486500D01*
X42240529Y-72490351D01*
X42062665Y-72518522D01*
X41867976Y-72581781D01*
X41685586Y-72674715D01*
X41519986Y-72795028D01*
X41375228Y-72939786D01*
X41254915Y-73105386D01*
X41207685Y-73198080D01*
X41159710Y-73248876D01*
X41091889Y-73265671D01*
X41025754Y-73243134D01*
X40986715Y-73198080D01*
X40975327Y-73175730D01*
X40939487Y-73105390D01*
X40907292Y-73061077D01*
X40819171Y-72939786D01*
X40674413Y-72795028D01*
X40508813Y-72674715D01*
X40508812Y-72674714D01*
X40508810Y-72674713D01*
X40451853Y-72645691D01*
X40326423Y-72581781D01*
X40131734Y-72518522D01*
X39957195Y-72490878D01*
X39929552Y-72486500D01*
X39724848Y-72486500D01*
X39700529Y-72490351D01*
X39522665Y-72518522D01*
X39327976Y-72581781D01*
X39145586Y-72674715D01*
X38979986Y-72795028D01*
X38835228Y-72939786D01*
X38714915Y-73105386D01*
X38667685Y-73198080D01*
X38619710Y-73248876D01*
X38551889Y-73265671D01*
X38485754Y-73243134D01*
X38446715Y-73198080D01*
X38435327Y-73175730D01*
X38399487Y-73105390D01*
X38367292Y-73061077D01*
X38279171Y-72939786D01*
X38134413Y-72795028D01*
X37968813Y-72674715D01*
X37968812Y-72674714D01*
X37968810Y-72674713D01*
X37911853Y-72645691D01*
X37786423Y-72581781D01*
X37591734Y-72518522D01*
X37417195Y-72490878D01*
X37389552Y-72486500D01*
X37184848Y-72486500D01*
X37160529Y-72490351D01*
X36982665Y-72518522D01*
X36787976Y-72581781D01*
X36605586Y-72674715D01*
X36439986Y-72795028D01*
X36295228Y-72939786D01*
X36174915Y-73105386D01*
X36127685Y-73198080D01*
X36079710Y-73248876D01*
X36011889Y-73265671D01*
X35945754Y-73243134D01*
X35906715Y-73198080D01*
X35895327Y-73175730D01*
X35859487Y-73105390D01*
X35827292Y-73061077D01*
X35739171Y-72939786D01*
X35594413Y-72795028D01*
X35428813Y-72674715D01*
X35428812Y-72674714D01*
X35428810Y-72674713D01*
X35371853Y-72645691D01*
X35246423Y-72581781D01*
X35051734Y-72518522D01*
X34877195Y-72490878D01*
X34849552Y-72486500D01*
X34644848Y-72486500D01*
X34620529Y-72490351D01*
X34442665Y-72518522D01*
X34247976Y-72581781D01*
X34065586Y-72674715D01*
X33899986Y-72795028D01*
X33755228Y-72939786D01*
X33634915Y-73105386D01*
X33587685Y-73198080D01*
X33539710Y-73248876D01*
X33471889Y-73265671D01*
X33405754Y-73243134D01*
X33366715Y-73198080D01*
X33355327Y-73175730D01*
X33319487Y-73105390D01*
X33287292Y-73061077D01*
X33199171Y-72939786D01*
X33054413Y-72795028D01*
X32888813Y-72674715D01*
X32888812Y-72674714D01*
X32888810Y-72674713D01*
X32831853Y-72645691D01*
X32706423Y-72581781D01*
X32511734Y-72518522D01*
X32337195Y-72490878D01*
X32309552Y-72486500D01*
X32104848Y-72486500D01*
X32080529Y-72490351D01*
X31902665Y-72518522D01*
X31707976Y-72581781D01*
X31525586Y-72674715D01*
X31359986Y-72795028D01*
X31215228Y-72939786D01*
X31094915Y-73105386D01*
X31047685Y-73198080D01*
X30999710Y-73248876D01*
X30931889Y-73265671D01*
X30865754Y-73243134D01*
X30826715Y-73198080D01*
X30815327Y-73175730D01*
X30779487Y-73105390D01*
X30747292Y-73061077D01*
X30659171Y-72939786D01*
X30514413Y-72795028D01*
X30348813Y-72674715D01*
X30348812Y-72674714D01*
X30348810Y-72674713D01*
X30291853Y-72645691D01*
X30166423Y-72581781D01*
X29971734Y-72518522D01*
X29797195Y-72490878D01*
X29769552Y-72486500D01*
X29564848Y-72486500D01*
X29540529Y-72490351D01*
X29362665Y-72518522D01*
X29167976Y-72581781D01*
X28985586Y-72674715D01*
X28819986Y-72795028D01*
X28675228Y-72939786D01*
X28554915Y-73105386D01*
X28507685Y-73198080D01*
X28459710Y-73248876D01*
X28391889Y-73265671D01*
X28325754Y-73243134D01*
X28286715Y-73198080D01*
X28275327Y-73175730D01*
X28239487Y-73105390D01*
X28207292Y-73061077D01*
X28119171Y-72939786D01*
X27974413Y-72795028D01*
X27808813Y-72674715D01*
X27808812Y-72674714D01*
X27808810Y-72674713D01*
X27751853Y-72645691D01*
X27626423Y-72581781D01*
X27431734Y-72518522D01*
X27257195Y-72490878D01*
X27229552Y-72486500D01*
X27024848Y-72486500D01*
X27000529Y-72490351D01*
X26822665Y-72518522D01*
X26627976Y-72581781D01*
X26445586Y-72674715D01*
X26279986Y-72795028D01*
X26135228Y-72939786D01*
X26014915Y-73105386D01*
X25967685Y-73198080D01*
X25919710Y-73248876D01*
X25851889Y-73265671D01*
X25785754Y-73243134D01*
X25746715Y-73198080D01*
X25735327Y-73175730D01*
X25699487Y-73105390D01*
X25667292Y-73061077D01*
X25579171Y-72939786D01*
X25434413Y-72795028D01*
X25268813Y-72674715D01*
X25268812Y-72674714D01*
X25268810Y-72674713D01*
X25211853Y-72645691D01*
X25086423Y-72581781D01*
X24891734Y-72518522D01*
X24717195Y-72490878D01*
X24689552Y-72486500D01*
X24484848Y-72486500D01*
X24460529Y-72490351D01*
X24282665Y-72518522D01*
X24087976Y-72581781D01*
X23905586Y-72674715D01*
X23739986Y-72795028D01*
X23595228Y-72939786D01*
X23474915Y-73105386D01*
X23427685Y-73198080D01*
X23379710Y-73248876D01*
X23311889Y-73265671D01*
X23245754Y-73243134D01*
X23206715Y-73198080D01*
X23195327Y-73175730D01*
X23159487Y-73105390D01*
X23127292Y-73061077D01*
X23039171Y-72939786D01*
X22894413Y-72795028D01*
X22728813Y-72674715D01*
X22728812Y-72674714D01*
X22728810Y-72674713D01*
X22671853Y-72645691D01*
X22546423Y-72581781D01*
X22351734Y-72518522D01*
X22177195Y-72490878D01*
X22149552Y-72486500D01*
X21944848Y-72486500D01*
X21920529Y-72490351D01*
X21742665Y-72518522D01*
X21547976Y-72581781D01*
X21365586Y-72674715D01*
X21199986Y-72795028D01*
X21055228Y-72939786D01*
X20934915Y-73105386D01*
X20887685Y-73198080D01*
X20839710Y-73248876D01*
X20771889Y-73265671D01*
X20705754Y-73243134D01*
X20666715Y-73198080D01*
X20655327Y-73175730D01*
X20619487Y-73105390D01*
X20587292Y-73061077D01*
X20499171Y-72939786D01*
X20354413Y-72795028D01*
X20188813Y-72674715D01*
X20188812Y-72674714D01*
X20188810Y-72674713D01*
X20131853Y-72645691D01*
X20006423Y-72581781D01*
X19811734Y-72518522D01*
X19637195Y-72490878D01*
X19609552Y-72486500D01*
X19404848Y-72486500D01*
X19380529Y-72490351D01*
X19202665Y-72518522D01*
X19007976Y-72581781D01*
X18825586Y-72674715D01*
X18659986Y-72795028D01*
X18515228Y-72939786D01*
X18394915Y-73105386D01*
X18347685Y-73198080D01*
X18299710Y-73248876D01*
X18231889Y-73265671D01*
X18165754Y-73243134D01*
X18126715Y-73198080D01*
X18115327Y-73175730D01*
X18079487Y-73105390D01*
X18047292Y-73061077D01*
X17959171Y-72939786D01*
X17814413Y-72795028D01*
X17648813Y-72674715D01*
X17648812Y-72674714D01*
X17648810Y-72674713D01*
X17591853Y-72645691D01*
X17466423Y-72581781D01*
X17271734Y-72518522D01*
X17097195Y-72490878D01*
X17069552Y-72486500D01*
X16864848Y-72486500D01*
X16840529Y-72490351D01*
X16662665Y-72518522D01*
X16467976Y-72581781D01*
X16285586Y-72674715D01*
X16119986Y-72795028D01*
X15975228Y-72939786D01*
X15854915Y-73105386D01*
X15807685Y-73198080D01*
X15759710Y-73248876D01*
X15691889Y-73265671D01*
X15625754Y-73243134D01*
X15586715Y-73198080D01*
X15575327Y-73175730D01*
X15539487Y-73105390D01*
X15507292Y-73061077D01*
X15419171Y-72939786D01*
X15274413Y-72795028D01*
X15108813Y-72674715D01*
X15108812Y-72674714D01*
X15108810Y-72674713D01*
X15051853Y-72645691D01*
X14926423Y-72581781D01*
X14731734Y-72518522D01*
X14557195Y-72490878D01*
X14529552Y-72486500D01*
X14324848Y-72486500D01*
X14300529Y-72490351D01*
X14122665Y-72518522D01*
X13927976Y-72581781D01*
X13745586Y-72674715D01*
X13579986Y-72795028D01*
X13435228Y-72939786D01*
X13314915Y-73105386D01*
X13267685Y-73198080D01*
X13219710Y-73248876D01*
X13151889Y-73265671D01*
X13085754Y-73243134D01*
X13046715Y-73198080D01*
X13035327Y-73175730D01*
X12999487Y-73105390D01*
X12967292Y-73061077D01*
X12879171Y-72939786D01*
X12734413Y-72795028D01*
X12568813Y-72674715D01*
X12568812Y-72674714D01*
X12568810Y-72674713D01*
X12511853Y-72645691D01*
X12386423Y-72581781D01*
X12191734Y-72518522D01*
X12017195Y-72490878D01*
X11989552Y-72486500D01*
X11784848Y-72486500D01*
X11760529Y-72490351D01*
X11582665Y-72518522D01*
X11387976Y-72581781D01*
X11205586Y-72674715D01*
X11039986Y-72795028D01*
X10895228Y-72939786D01*
X10774915Y-73105386D01*
X10727685Y-73198080D01*
X10679710Y-73248876D01*
X10611889Y-73265671D01*
X10545754Y-73243134D01*
X10506715Y-73198080D01*
X10495327Y-73175730D01*
X10459487Y-73105390D01*
X10427292Y-73061077D01*
X10339171Y-72939786D01*
X10194413Y-72795028D01*
X10028813Y-72674715D01*
X10028812Y-72674714D01*
X10028810Y-72674713D01*
X9971853Y-72645691D01*
X9846423Y-72581781D01*
X9651734Y-72518522D01*
X9477195Y-72490878D01*
X9449552Y-72486500D01*
X9244848Y-72486500D01*
X9220529Y-72490351D01*
X9042665Y-72518522D01*
X8847976Y-72581781D01*
X8665586Y-72674715D01*
X8499986Y-72795028D01*
X8355228Y-72939786D01*
X8234913Y-73105388D01*
X8187403Y-73198630D01*
X8139428Y-73249426D01*
X8071607Y-73266220D01*
X8005472Y-73243682D01*
X7966434Y-73198628D01*
X7919061Y-73105652D01*
X7886674Y-73061077D01*
X7886674Y-73061076D01*
X7290162Y-73657589D01*
X7273125Y-73594007D01*
X7207299Y-73479993D01*
X7114207Y-73386901D01*
X7000193Y-73321075D01*
X6936608Y-73304037D01*
X7533122Y-72707524D01*
X7533121Y-72707523D01*
X7488559Y-72675147D01*
X7488550Y-72675141D01*
X7306231Y-72582244D01*
X7111617Y-72519009D01*
X6909517Y-72487000D01*
X6704883Y-72487000D01*
X6502781Y-72519010D01*
X6502778Y-72519010D01*
X6400818Y-72552140D01*
X6330977Y-72554135D01*
X6271144Y-72518055D01*
X6240316Y-72455354D01*
X6238500Y-72434209D01*
X6238500Y-69477995D01*
X86388300Y-69477995D01*
X86388300Y-69714004D01*
X86388301Y-69714020D01*
X86419106Y-69948010D01*
X86480194Y-70175993D01*
X86570514Y-70394045D01*
X86570519Y-70394056D01*
X86641477Y-70516957D01*
X86688527Y-70598450D01*
X86688529Y-70598453D01*
X86688530Y-70598454D01*
X86832206Y-70785697D01*
X86832212Y-70785704D01*
X86999095Y-70952587D01*
X86999101Y-70952592D01*
X87186350Y-71096273D01*
X87317718Y-71172118D01*
X87390743Y-71214280D01*
X87390748Y-71214282D01*
X87390751Y-71214284D01*
X87608807Y-71304606D01*
X87836786Y-71365693D01*
X88070789Y-71396500D01*
X88070796Y-71396500D01*
X88306804Y-71396500D01*
X88306811Y-71396500D01*
X88540814Y-71365693D01*
X88768793Y-71304606D01*
X88986849Y-71214284D01*
X89191250Y-71096273D01*
X89378499Y-70952592D01*
X89545392Y-70785699D01*
X89689073Y-70598450D01*
X89807084Y-70394049D01*
X89897406Y-70175993D01*
X89958493Y-69948014D01*
X89989300Y-69714011D01*
X89989300Y-69477989D01*
X89958493Y-69243986D01*
X89897406Y-69016007D01*
X89807084Y-68797951D01*
X89807082Y-68797948D01*
X89807080Y-68797943D01*
X89764918Y-68724918D01*
X89689073Y-68593550D01*
X89545392Y-68406301D01*
X89545387Y-68406295D01*
X89378504Y-68239412D01*
X89378497Y-68239406D01*
X89191254Y-68095730D01*
X89191253Y-68095729D01*
X89191250Y-68095727D01*
X89109757Y-68048677D01*
X88986856Y-67977719D01*
X88986845Y-67977714D01*
X88768793Y-67887394D01*
X88540810Y-67826306D01*
X88306820Y-67795501D01*
X88306817Y-67795500D01*
X88306811Y-67795500D01*
X88070789Y-67795500D01*
X88070783Y-67795500D01*
X88070779Y-67795501D01*
X87836789Y-67826306D01*
X87608806Y-67887394D01*
X87390754Y-67977714D01*
X87390743Y-67977719D01*
X87186345Y-68095730D01*
X86999102Y-68239406D01*
X86999095Y-68239412D01*
X86832212Y-68406295D01*
X86832206Y-68406302D01*
X86688530Y-68593545D01*
X86570519Y-68797943D01*
X86570514Y-68797954D01*
X86480194Y-69016006D01*
X86419106Y-69243989D01*
X86388301Y-69477979D01*
X86388300Y-69477995D01*
X6238500Y-69477995D01*
X6238500Y-61891983D01*
X86388300Y-61891983D01*
X86388300Y-64092001D01*
X86388301Y-64092018D01*
X86398800Y-64194796D01*
X86398801Y-64194799D01*
X86453985Y-64361331D01*
X86453986Y-64361334D01*
X86546088Y-64510656D01*
X86670144Y-64634712D01*
X86819466Y-64726814D01*
X86986003Y-64781999D01*
X87088791Y-64792500D01*
X89288808Y-64792499D01*
X89391597Y-64781999D01*
X89558134Y-64726814D01*
X89707456Y-64634712D01*
X89831512Y-64510656D01*
X89923614Y-64361334D01*
X89978799Y-64194797D01*
X89989300Y-64092009D01*
X89989299Y-61891992D01*
X89978799Y-61789203D01*
X89923614Y-61622666D01*
X89831512Y-61473344D01*
X89707456Y-61349288D01*
X89558134Y-61257186D01*
X89391597Y-61202001D01*
X89391595Y-61202000D01*
X89288810Y-61191500D01*
X87088798Y-61191500D01*
X87088781Y-61191501D01*
X86986003Y-61202000D01*
X86986000Y-61202001D01*
X86819468Y-61257185D01*
X86819463Y-61257187D01*
X86670142Y-61349289D01*
X86546089Y-61473342D01*
X86453987Y-61622663D01*
X86453986Y-61622666D01*
X86398801Y-61789203D01*
X86398801Y-61789204D01*
X86398800Y-61789204D01*
X86388300Y-61891983D01*
X6238500Y-61891983D01*
X6238500Y-57794014D01*
X86388800Y-57794014D01*
X86388800Y-58029985D01*
X86419599Y-58263914D01*
X86480670Y-58491837D01*
X86570960Y-58709819D01*
X86570965Y-58709828D01*
X86688944Y-58914171D01*
X86688945Y-58914172D01*
X86751521Y-58995723D01*
X87587758Y-58159487D01*
X87612778Y-58219890D01*
X87683912Y-58326351D01*
X87774449Y-58416888D01*
X87880910Y-58488022D01*
X87941311Y-58513041D01*
X87105075Y-59349277D01*
X87186627Y-59411854D01*
X87186628Y-59411855D01*
X87390971Y-59529834D01*
X87390980Y-59529839D01*
X87608963Y-59620129D01*
X87608961Y-59620129D01*
X87836885Y-59681200D01*
X88070814Y-59711999D01*
X88070829Y-59712000D01*
X88306771Y-59712000D01*
X88306785Y-59711999D01*
X88540714Y-59681200D01*
X88768637Y-59620129D01*
X88986619Y-59529839D01*
X88986628Y-59529834D01*
X89190981Y-59411850D01*
X89272523Y-59349279D01*
X89272523Y-59349276D01*
X88436287Y-58513041D01*
X88496690Y-58488022D01*
X88603151Y-58416888D01*
X88693688Y-58326351D01*
X88764822Y-58219890D01*
X88789841Y-58159488D01*
X89626076Y-58995723D01*
X89626079Y-58995723D01*
X89688650Y-58914181D01*
X89806634Y-58709828D01*
X89806639Y-58709819D01*
X89896929Y-58491837D01*
X89958000Y-58263914D01*
X89988799Y-58029985D01*
X89988800Y-58029971D01*
X89988800Y-57794028D01*
X89988799Y-57794014D01*
X89958000Y-57560085D01*
X89896929Y-57332162D01*
X89806639Y-57114180D01*
X89806634Y-57114171D01*
X89688655Y-56909828D01*
X89688654Y-56909827D01*
X89626077Y-56828275D01*
X88789841Y-57664511D01*
X88764822Y-57604110D01*
X88693688Y-57497649D01*
X88603151Y-57407112D01*
X88496690Y-57335978D01*
X88436288Y-57310958D01*
X89272523Y-56474721D01*
X89190972Y-56412145D01*
X89190971Y-56412144D01*
X88986628Y-56294165D01*
X88986619Y-56294160D01*
X88768636Y-56203870D01*
X88768638Y-56203870D01*
X88540714Y-56142799D01*
X88306785Y-56112000D01*
X88070814Y-56112000D01*
X87836885Y-56142799D01*
X87608962Y-56203870D01*
X87390980Y-56294160D01*
X87390971Y-56294165D01*
X87186628Y-56412144D01*
X87186618Y-56412150D01*
X87105075Y-56474720D01*
X87105075Y-56474721D01*
X87941312Y-57310958D01*
X87880910Y-57335978D01*
X87774449Y-57407112D01*
X87683912Y-57497649D01*
X87612778Y-57604110D01*
X87587758Y-57664511D01*
X86751521Y-56828275D01*
X86751520Y-56828275D01*
X86688950Y-56909818D01*
X86688944Y-56909828D01*
X86570965Y-57114171D01*
X86570960Y-57114180D01*
X86480670Y-57332162D01*
X86419599Y-57560085D01*
X86388800Y-57794014D01*
X6238500Y-57794014D01*
X6238500Y-52713995D01*
X86388300Y-52713995D01*
X86388300Y-52950004D01*
X86388301Y-52950020D01*
X86419106Y-53184010D01*
X86480194Y-53411993D01*
X86570514Y-53630045D01*
X86570519Y-53630056D01*
X86641477Y-53752957D01*
X86688527Y-53834450D01*
X86688529Y-53834453D01*
X86688530Y-53834454D01*
X86832206Y-54021697D01*
X86832212Y-54021704D01*
X86999095Y-54188587D01*
X86999101Y-54188592D01*
X87186350Y-54332273D01*
X87317718Y-54408118D01*
X87390743Y-54450280D01*
X87390748Y-54450282D01*
X87390751Y-54450284D01*
X87608807Y-54540606D01*
X87836786Y-54601693D01*
X88070789Y-54632500D01*
X88070796Y-54632500D01*
X88306804Y-54632500D01*
X88306811Y-54632500D01*
X88540814Y-54601693D01*
X88768793Y-54540606D01*
X88986849Y-54450284D01*
X89191250Y-54332273D01*
X89378499Y-54188592D01*
X89545392Y-54021699D01*
X89689073Y-53834450D01*
X89807084Y-53630049D01*
X89897406Y-53411993D01*
X89958493Y-53184014D01*
X89989300Y-52950011D01*
X89989300Y-52713989D01*
X89958493Y-52479986D01*
X89897406Y-52252007D01*
X89807084Y-52033951D01*
X89807082Y-52033948D01*
X89807080Y-52033943D01*
X89764918Y-51960918D01*
X89689073Y-51829550D01*
X89545392Y-51642301D01*
X89545387Y-51642295D01*
X89378504Y-51475412D01*
X89378497Y-51475406D01*
X89191254Y-51331730D01*
X89191253Y-51331729D01*
X89191250Y-51331727D01*
X89109757Y-51284677D01*
X88986856Y-51213719D01*
X88986845Y-51213714D01*
X88768793Y-51123394D01*
X88540810Y-51062306D01*
X88306820Y-51031501D01*
X88306817Y-51031500D01*
X88306811Y-51031500D01*
X88070789Y-51031500D01*
X88070783Y-51031500D01*
X88070779Y-51031501D01*
X87836789Y-51062306D01*
X87608806Y-51123394D01*
X87390754Y-51213714D01*
X87390743Y-51213719D01*
X87186345Y-51331730D01*
X86999102Y-51475406D01*
X86999095Y-51475412D01*
X86832212Y-51642295D01*
X86832206Y-51642302D01*
X86688530Y-51829545D01*
X86570519Y-52033943D01*
X86570514Y-52033954D01*
X86480194Y-52252006D01*
X86419106Y-52479989D01*
X86388301Y-52713979D01*
X86388300Y-52713995D01*
X6238500Y-52713995D01*
X6238500Y-49927007D01*
X6247145Y-49897564D01*
X6253668Y-49867581D01*
X6257422Y-49862565D01*
X6258185Y-49859968D01*
X6274813Y-49839331D01*
X6420010Y-49694134D01*
X6481329Y-49660652D01*
X6527086Y-49659345D01*
X6623919Y-49674681D01*
X6704848Y-49687500D01*
X6704849Y-49687500D01*
X6909551Y-49687500D01*
X6909552Y-49687500D01*
X7111734Y-49655477D01*
X7306419Y-49592220D01*
X7488810Y-49499287D01*
X7602818Y-49416456D01*
X7654413Y-49378971D01*
X7654415Y-49378968D01*
X7654419Y-49378966D01*
X7799166Y-49234219D01*
X7799168Y-49234215D01*
X7799171Y-49234213D01*
X7919484Y-49068614D01*
X7919483Y-49068614D01*
X7919487Y-49068610D01*
X7966716Y-48975917D01*
X8014689Y-48925123D01*
X8082510Y-48908328D01*
X8148645Y-48930865D01*
X8187685Y-48975919D01*
X8234915Y-49068614D01*
X8355228Y-49234213D01*
X8499986Y-49378971D01*
X8620426Y-49466474D01*
X8665590Y-49499287D01*
X8749676Y-49542131D01*
X8847976Y-49592218D01*
X8847978Y-49592218D01*
X8847981Y-49592220D01*
X8920042Y-49615634D01*
X9042665Y-49655477D01*
X9143757Y-49671488D01*
X9244848Y-49687500D01*
X9244849Y-49687500D01*
X9449551Y-49687500D01*
X9449552Y-49687500D01*
X9651734Y-49655477D01*
X9846419Y-49592220D01*
X10028810Y-49499287D01*
X10142818Y-49416456D01*
X10194413Y-49378971D01*
X10194415Y-49378968D01*
X10194419Y-49378966D01*
X10339166Y-49234219D01*
X10339168Y-49234215D01*
X10339171Y-49234213D01*
X10459484Y-49068614D01*
X10459483Y-49068614D01*
X10459487Y-49068610D01*
X10506716Y-48975917D01*
X10554689Y-48925123D01*
X10622510Y-48908328D01*
X10688645Y-48930865D01*
X10727685Y-48975919D01*
X10774915Y-49068614D01*
X10895228Y-49234213D01*
X11039986Y-49378971D01*
X11160426Y-49466474D01*
X11205590Y-49499287D01*
X11289676Y-49542131D01*
X11387976Y-49592218D01*
X11387978Y-49592218D01*
X11387981Y-49592220D01*
X11460042Y-49615634D01*
X11582665Y-49655477D01*
X11683757Y-49671488D01*
X11784848Y-49687500D01*
X11784849Y-49687500D01*
X11989551Y-49687500D01*
X11989552Y-49687500D01*
X12191734Y-49655477D01*
X12386419Y-49592220D01*
X12568810Y-49499287D01*
X12682818Y-49416456D01*
X12734413Y-49378971D01*
X12734415Y-49378968D01*
X12734419Y-49378966D01*
X12879166Y-49234219D01*
X12879168Y-49234215D01*
X12879171Y-49234213D01*
X12999484Y-49068614D01*
X12999483Y-49068614D01*
X12999487Y-49068610D01*
X13046716Y-48975917D01*
X13094689Y-48925123D01*
X13162510Y-48908328D01*
X13228645Y-48930865D01*
X13267685Y-48975919D01*
X13314915Y-49068614D01*
X13435228Y-49234213D01*
X13579986Y-49378971D01*
X13700426Y-49466474D01*
X13745590Y-49499287D01*
X13829676Y-49542131D01*
X13927976Y-49592218D01*
X13927978Y-49592218D01*
X13927981Y-49592220D01*
X14000042Y-49615634D01*
X14122665Y-49655477D01*
X14223757Y-49671488D01*
X14324848Y-49687500D01*
X14324849Y-49687500D01*
X14529551Y-49687500D01*
X14529552Y-49687500D01*
X14731734Y-49655477D01*
X14926419Y-49592220D01*
X15108810Y-49499287D01*
X15222818Y-49416456D01*
X15274413Y-49378971D01*
X15274415Y-49378968D01*
X15274419Y-49378966D01*
X15419166Y-49234219D01*
X15419168Y-49234215D01*
X15419171Y-49234213D01*
X15539484Y-49068614D01*
X15539483Y-49068614D01*
X15539487Y-49068610D01*
X15586716Y-48975917D01*
X15634689Y-48925123D01*
X15702510Y-48908328D01*
X15768645Y-48930865D01*
X15807685Y-48975919D01*
X15854915Y-49068614D01*
X15975228Y-49234213D01*
X16119986Y-49378971D01*
X16240426Y-49466474D01*
X16285590Y-49499287D01*
X16369676Y-49542131D01*
X16467976Y-49592218D01*
X16467978Y-49592218D01*
X16467981Y-49592220D01*
X16540042Y-49615634D01*
X16662665Y-49655477D01*
X16763757Y-49671488D01*
X16864848Y-49687500D01*
X16864849Y-49687500D01*
X17069551Y-49687500D01*
X17069552Y-49687500D01*
X17271734Y-49655477D01*
X17466419Y-49592220D01*
X17648810Y-49499287D01*
X17762818Y-49416456D01*
X17814413Y-49378971D01*
X17814415Y-49378968D01*
X17814419Y-49378966D01*
X17959166Y-49234219D01*
X17959168Y-49234215D01*
X17959171Y-49234213D01*
X18079484Y-49068614D01*
X18079483Y-49068614D01*
X18079487Y-49068610D01*
X18126716Y-48975917D01*
X18174689Y-48925123D01*
X18242510Y-48908328D01*
X18308645Y-48930865D01*
X18347685Y-48975919D01*
X18394915Y-49068614D01*
X18515228Y-49234213D01*
X18659986Y-49378971D01*
X18780426Y-49466474D01*
X18825590Y-49499287D01*
X18909676Y-49542131D01*
X19007976Y-49592218D01*
X19007978Y-49592218D01*
X19007981Y-49592220D01*
X19080042Y-49615634D01*
X19202665Y-49655477D01*
X19303757Y-49671488D01*
X19404848Y-49687500D01*
X19404849Y-49687500D01*
X19609551Y-49687500D01*
X19609552Y-49687500D01*
X19811734Y-49655477D01*
X20006419Y-49592220D01*
X20188810Y-49499287D01*
X20302818Y-49416456D01*
X20354413Y-49378971D01*
X20354415Y-49378968D01*
X20354419Y-49378966D01*
X20499166Y-49234219D01*
X20499168Y-49234215D01*
X20499171Y-49234213D01*
X20619484Y-49068614D01*
X20619483Y-49068614D01*
X20619487Y-49068610D01*
X20666716Y-48975917D01*
X20714689Y-48925123D01*
X20782510Y-48908328D01*
X20848645Y-48930865D01*
X20887685Y-48975919D01*
X20934915Y-49068614D01*
X21055228Y-49234213D01*
X21199986Y-49378971D01*
X21320426Y-49466474D01*
X21365590Y-49499287D01*
X21449676Y-49542131D01*
X21547976Y-49592218D01*
X21547978Y-49592218D01*
X21547981Y-49592220D01*
X21620042Y-49615634D01*
X21742665Y-49655477D01*
X21843757Y-49671488D01*
X21944848Y-49687500D01*
X21944849Y-49687500D01*
X22149551Y-49687500D01*
X22149552Y-49687500D01*
X22351734Y-49655477D01*
X22546419Y-49592220D01*
X22728810Y-49499287D01*
X22842818Y-49416456D01*
X22894413Y-49378971D01*
X22894415Y-49378968D01*
X22894419Y-49378966D01*
X23039166Y-49234219D01*
X23039168Y-49234215D01*
X23039171Y-49234213D01*
X23159484Y-49068614D01*
X23159483Y-49068614D01*
X23159487Y-49068610D01*
X23206716Y-48975917D01*
X23254689Y-48925123D01*
X23322510Y-48908328D01*
X23388645Y-48930865D01*
X23427685Y-48975919D01*
X23474915Y-49068614D01*
X23595228Y-49234213D01*
X23739986Y-49378971D01*
X23860426Y-49466474D01*
X23905590Y-49499287D01*
X23989676Y-49542131D01*
X24087976Y-49592218D01*
X24087978Y-49592218D01*
X24087981Y-49592220D01*
X24160042Y-49615634D01*
X24282665Y-49655477D01*
X24383757Y-49671488D01*
X24484848Y-49687500D01*
X24484849Y-49687500D01*
X24689551Y-49687500D01*
X24689552Y-49687500D01*
X24891734Y-49655477D01*
X25086419Y-49592220D01*
X25268810Y-49499287D01*
X25382818Y-49416456D01*
X25434413Y-49378971D01*
X25434415Y-49378968D01*
X25434419Y-49378966D01*
X25579166Y-49234219D01*
X25579168Y-49234215D01*
X25579171Y-49234213D01*
X25699484Y-49068614D01*
X25699483Y-49068614D01*
X25699487Y-49068610D01*
X25746716Y-48975917D01*
X25794689Y-48925123D01*
X25862510Y-48908328D01*
X25928645Y-48930865D01*
X25967685Y-48975919D01*
X26014915Y-49068614D01*
X26135228Y-49234213D01*
X26279986Y-49378971D01*
X26400426Y-49466474D01*
X26445590Y-49499287D01*
X26529676Y-49542131D01*
X26627976Y-49592218D01*
X26627978Y-49592218D01*
X26627981Y-49592220D01*
X26700042Y-49615634D01*
X26822665Y-49655477D01*
X26923757Y-49671488D01*
X27024848Y-49687500D01*
X27024849Y-49687500D01*
X27229551Y-49687500D01*
X27229552Y-49687500D01*
X27431734Y-49655477D01*
X27626419Y-49592220D01*
X27808810Y-49499287D01*
X27922818Y-49416456D01*
X27974413Y-49378971D01*
X27974415Y-49378968D01*
X27974419Y-49378966D01*
X28119166Y-49234219D01*
X28119168Y-49234215D01*
X28119171Y-49234213D01*
X28239484Y-49068614D01*
X28239483Y-49068614D01*
X28239487Y-49068610D01*
X28286716Y-48975917D01*
X28334689Y-48925123D01*
X28402510Y-48908328D01*
X28468645Y-48930865D01*
X28507685Y-48975919D01*
X28554915Y-49068614D01*
X28675228Y-49234213D01*
X28819986Y-49378971D01*
X28940426Y-49466474D01*
X28985590Y-49499287D01*
X29069676Y-49542131D01*
X29167976Y-49592218D01*
X29167978Y-49592218D01*
X29167981Y-49592220D01*
X29240042Y-49615634D01*
X29362665Y-49655477D01*
X29463757Y-49671488D01*
X29564848Y-49687500D01*
X29564849Y-49687500D01*
X29769551Y-49687500D01*
X29769552Y-49687500D01*
X29971734Y-49655477D01*
X30166419Y-49592220D01*
X30348810Y-49499287D01*
X30462818Y-49416456D01*
X30514413Y-49378971D01*
X30514415Y-49378968D01*
X30514419Y-49378966D01*
X30659166Y-49234219D01*
X30659168Y-49234215D01*
X30659171Y-49234213D01*
X30779484Y-49068614D01*
X30779483Y-49068614D01*
X30779487Y-49068610D01*
X30826716Y-48975917D01*
X30874689Y-48925123D01*
X30942510Y-48908328D01*
X31008645Y-48930865D01*
X31047685Y-48975919D01*
X31094915Y-49068614D01*
X31215228Y-49234213D01*
X31359986Y-49378971D01*
X31480426Y-49466474D01*
X31525590Y-49499287D01*
X31609676Y-49542131D01*
X31707976Y-49592218D01*
X31707978Y-49592218D01*
X31707981Y-49592220D01*
X31780042Y-49615634D01*
X31902665Y-49655477D01*
X32003757Y-49671488D01*
X32104848Y-49687500D01*
X32104849Y-49687500D01*
X32309551Y-49687500D01*
X32309552Y-49687500D01*
X32511734Y-49655477D01*
X32706419Y-49592220D01*
X32888810Y-49499287D01*
X33002818Y-49416456D01*
X33054413Y-49378971D01*
X33054415Y-49378968D01*
X33054419Y-49378966D01*
X33199166Y-49234219D01*
X33199168Y-49234215D01*
X33199171Y-49234213D01*
X33319484Y-49068614D01*
X33319483Y-49068614D01*
X33319487Y-49068610D01*
X33366716Y-48975917D01*
X33414689Y-48925123D01*
X33482510Y-48908328D01*
X33548645Y-48930865D01*
X33587685Y-48975919D01*
X33634915Y-49068614D01*
X33755228Y-49234213D01*
X33899986Y-49378971D01*
X34020426Y-49466474D01*
X34065590Y-49499287D01*
X34149676Y-49542131D01*
X34247976Y-49592218D01*
X34247978Y-49592218D01*
X34247981Y-49592220D01*
X34320042Y-49615634D01*
X34442665Y-49655477D01*
X34543757Y-49671488D01*
X34644848Y-49687500D01*
X34644849Y-49687500D01*
X34849551Y-49687500D01*
X34849552Y-49687500D01*
X35051734Y-49655477D01*
X35246419Y-49592220D01*
X35428810Y-49499287D01*
X35542818Y-49416456D01*
X35594413Y-49378971D01*
X35594415Y-49378968D01*
X35594419Y-49378966D01*
X35739166Y-49234219D01*
X35739168Y-49234215D01*
X35739171Y-49234213D01*
X35859484Y-49068614D01*
X35859483Y-49068614D01*
X35859487Y-49068610D01*
X35906716Y-48975917D01*
X35954689Y-48925123D01*
X36022510Y-48908328D01*
X36088645Y-48930865D01*
X36127685Y-48975919D01*
X36174915Y-49068614D01*
X36295228Y-49234213D01*
X36439986Y-49378971D01*
X36560426Y-49466474D01*
X36605590Y-49499287D01*
X36689676Y-49542131D01*
X36787976Y-49592218D01*
X36787978Y-49592218D01*
X36787981Y-49592220D01*
X36860042Y-49615634D01*
X36982665Y-49655477D01*
X37083757Y-49671488D01*
X37184848Y-49687500D01*
X37184849Y-49687500D01*
X37389551Y-49687500D01*
X37389552Y-49687500D01*
X37591734Y-49655477D01*
X37786419Y-49592220D01*
X37968810Y-49499287D01*
X38082818Y-49416456D01*
X38134413Y-49378971D01*
X38134415Y-49378968D01*
X38134419Y-49378966D01*
X38279166Y-49234219D01*
X38279168Y-49234215D01*
X38279171Y-49234213D01*
X38399484Y-49068614D01*
X38399483Y-49068614D01*
X38399487Y-49068610D01*
X38446716Y-48975917D01*
X38494689Y-48925123D01*
X38562510Y-48908328D01*
X38628645Y-48930865D01*
X38667685Y-48975919D01*
X38714915Y-49068614D01*
X38835228Y-49234213D01*
X38979986Y-49378971D01*
X39100426Y-49466474D01*
X39145590Y-49499287D01*
X39229676Y-49542131D01*
X39327976Y-49592218D01*
X39327978Y-49592218D01*
X39327981Y-49592220D01*
X39400042Y-49615634D01*
X39522665Y-49655477D01*
X39623757Y-49671488D01*
X39724848Y-49687500D01*
X39724849Y-49687500D01*
X39929551Y-49687500D01*
X39929552Y-49687500D01*
X40131734Y-49655477D01*
X40326419Y-49592220D01*
X40508810Y-49499287D01*
X40622818Y-49416456D01*
X40674413Y-49378971D01*
X40674415Y-49378968D01*
X40674419Y-49378966D01*
X40819166Y-49234219D01*
X40819168Y-49234215D01*
X40819171Y-49234213D01*
X40939484Y-49068614D01*
X40939483Y-49068614D01*
X40939487Y-49068610D01*
X40986716Y-48975917D01*
X41034689Y-48925123D01*
X41102510Y-48908328D01*
X41168645Y-48930865D01*
X41207685Y-48975919D01*
X41254915Y-49068614D01*
X41375228Y-49234213D01*
X41519986Y-49378971D01*
X41640426Y-49466474D01*
X41685590Y-49499287D01*
X41769676Y-49542131D01*
X41867976Y-49592218D01*
X41867978Y-49592218D01*
X41867981Y-49592220D01*
X41940042Y-49615634D01*
X42062665Y-49655477D01*
X42163757Y-49671488D01*
X42264848Y-49687500D01*
X42264849Y-49687500D01*
X42469551Y-49687500D01*
X42469552Y-49687500D01*
X42671734Y-49655477D01*
X42866419Y-49592220D01*
X43048810Y-49499287D01*
X43162818Y-49416456D01*
X43214413Y-49378971D01*
X43214415Y-49378968D01*
X43214419Y-49378966D01*
X43359166Y-49234219D01*
X43359168Y-49234215D01*
X43359171Y-49234213D01*
X43479484Y-49068614D01*
X43479483Y-49068614D01*
X43479487Y-49068610D01*
X43526716Y-48975917D01*
X43574689Y-48925123D01*
X43642510Y-48908328D01*
X43708645Y-48930865D01*
X43747685Y-48975919D01*
X43794915Y-49068614D01*
X43915228Y-49234213D01*
X44059986Y-49378971D01*
X44180426Y-49466474D01*
X44225590Y-49499287D01*
X44309676Y-49542131D01*
X44407976Y-49592218D01*
X44407978Y-49592218D01*
X44407981Y-49592220D01*
X44480042Y-49615634D01*
X44602665Y-49655477D01*
X44703757Y-49671488D01*
X44804848Y-49687500D01*
X44804849Y-49687500D01*
X45009551Y-49687500D01*
X45009552Y-49687500D01*
X45211734Y-49655477D01*
X45406419Y-49592220D01*
X45588810Y-49499287D01*
X45702818Y-49416456D01*
X45754413Y-49378971D01*
X45754415Y-49378968D01*
X45754419Y-49378966D01*
X45899166Y-49234219D01*
X45899168Y-49234215D01*
X45899171Y-49234213D01*
X46019484Y-49068614D01*
X46019483Y-49068614D01*
X46019487Y-49068610D01*
X46066716Y-48975917D01*
X46114689Y-48925123D01*
X46182510Y-48908328D01*
X46248645Y-48930865D01*
X46287685Y-48975919D01*
X46334915Y-49068614D01*
X46455228Y-49234213D01*
X46599986Y-49378971D01*
X46720426Y-49466474D01*
X46765590Y-49499287D01*
X46849676Y-49542131D01*
X46947976Y-49592218D01*
X46947978Y-49592218D01*
X46947981Y-49592220D01*
X47020042Y-49615634D01*
X47142665Y-49655477D01*
X47243757Y-49671488D01*
X47344848Y-49687500D01*
X47344849Y-49687500D01*
X47549551Y-49687500D01*
X47549552Y-49687500D01*
X47751734Y-49655477D01*
X47946419Y-49592220D01*
X48128810Y-49499287D01*
X48242818Y-49416456D01*
X48294413Y-49378971D01*
X48294415Y-49378968D01*
X48294419Y-49378966D01*
X48439166Y-49234219D01*
X48439168Y-49234215D01*
X48439171Y-49234213D01*
X48559484Y-49068614D01*
X48559483Y-49068614D01*
X48559487Y-49068610D01*
X48606716Y-48975917D01*
X48654689Y-48925123D01*
X48722510Y-48908328D01*
X48788645Y-48930865D01*
X48827685Y-48975919D01*
X48874915Y-49068614D01*
X48995228Y-49234213D01*
X49139986Y-49378971D01*
X49260426Y-49466474D01*
X49305590Y-49499287D01*
X49389676Y-49542131D01*
X49487976Y-49592218D01*
X49487978Y-49592218D01*
X49487981Y-49592220D01*
X49560042Y-49615634D01*
X49682665Y-49655477D01*
X49783757Y-49671488D01*
X49884848Y-49687500D01*
X49884849Y-49687500D01*
X50089551Y-49687500D01*
X50089552Y-49687500D01*
X50291734Y-49655477D01*
X50486419Y-49592220D01*
X50668810Y-49499287D01*
X50782818Y-49416456D01*
X50834413Y-49378971D01*
X50834415Y-49378968D01*
X50834419Y-49378966D01*
X50979166Y-49234219D01*
X50979168Y-49234215D01*
X50979171Y-49234213D01*
X51099484Y-49068614D01*
X51099483Y-49068614D01*
X51099487Y-49068610D01*
X51146716Y-48975917D01*
X51194689Y-48925123D01*
X51262510Y-48908328D01*
X51328645Y-48930865D01*
X51367685Y-48975919D01*
X51414915Y-49068614D01*
X51535228Y-49234213D01*
X51679986Y-49378971D01*
X51800426Y-49466474D01*
X51845590Y-49499287D01*
X51929676Y-49542131D01*
X52027976Y-49592218D01*
X52027978Y-49592218D01*
X52027981Y-49592220D01*
X52100042Y-49615634D01*
X52222665Y-49655477D01*
X52323757Y-49671488D01*
X52424848Y-49687500D01*
X52424849Y-49687500D01*
X52629551Y-49687500D01*
X52629552Y-49687500D01*
X52831734Y-49655477D01*
X53026419Y-49592220D01*
X53208810Y-49499287D01*
X53322818Y-49416456D01*
X53374413Y-49378971D01*
X53374415Y-49378968D01*
X53374419Y-49378966D01*
X53519166Y-49234219D01*
X53519168Y-49234215D01*
X53519171Y-49234213D01*
X53639484Y-49068614D01*
X53639483Y-49068614D01*
X53639487Y-49068610D01*
X53686716Y-48975917D01*
X53734689Y-48925123D01*
X53802510Y-48908328D01*
X53868645Y-48930865D01*
X53907685Y-48975919D01*
X53954915Y-49068614D01*
X54075228Y-49234213D01*
X54219986Y-49378971D01*
X54340426Y-49466474D01*
X54385590Y-49499287D01*
X54469676Y-49542131D01*
X54567976Y-49592218D01*
X54567978Y-49592218D01*
X54567981Y-49592220D01*
X54640042Y-49615634D01*
X54762665Y-49655477D01*
X54863757Y-49671488D01*
X54964848Y-49687500D01*
X54964849Y-49687500D01*
X55169551Y-49687500D01*
X55169552Y-49687500D01*
X55371734Y-49655477D01*
X55566419Y-49592220D01*
X55748810Y-49499287D01*
X55862818Y-49416456D01*
X55914413Y-49378971D01*
X55914415Y-49378968D01*
X55914419Y-49378966D01*
X56059166Y-49234219D01*
X56085530Y-49197930D01*
X56140858Y-49155265D01*
X56210471Y-49149284D01*
X56272267Y-49181889D01*
X56306626Y-49242726D01*
X56309138Y-49257559D01*
X56313107Y-49294480D01*
X56363402Y-49429328D01*
X56363406Y-49429335D01*
X56449652Y-49544544D01*
X56449655Y-49544547D01*
X56564864Y-49630793D01*
X56564871Y-49630797D01*
X56699717Y-49681091D01*
X56699716Y-49681091D01*
X56706644Y-49681835D01*
X56759327Y-49687500D01*
X58455072Y-49687499D01*
X58514683Y-49681091D01*
X58649531Y-49630796D01*
X58764746Y-49544546D01*
X58850996Y-49429331D01*
X58901291Y-49294483D01*
X58907700Y-49234873D01*
X58907699Y-47633995D01*
X86388300Y-47633995D01*
X86388300Y-47870004D01*
X86388301Y-47870020D01*
X86419106Y-48104010D01*
X86480194Y-48331993D01*
X86570514Y-48550045D01*
X86570519Y-48550056D01*
X86641477Y-48672957D01*
X86688527Y-48754450D01*
X86688529Y-48754453D01*
X86688530Y-48754454D01*
X86832206Y-48941697D01*
X86832212Y-48941704D01*
X86999095Y-49108587D01*
X86999102Y-49108593D01*
X87094624Y-49181889D01*
X87186350Y-49252273D01*
X87317718Y-49328118D01*
X87390743Y-49370280D01*
X87390748Y-49370282D01*
X87390751Y-49370284D01*
X87608807Y-49460606D01*
X87836786Y-49521693D01*
X88070789Y-49552500D01*
X88070796Y-49552500D01*
X88306804Y-49552500D01*
X88306811Y-49552500D01*
X88540814Y-49521693D01*
X88768793Y-49460606D01*
X88986849Y-49370284D01*
X89191250Y-49252273D01*
X89378499Y-49108592D01*
X89545392Y-48941699D01*
X89689073Y-48754450D01*
X89807084Y-48550049D01*
X89897406Y-48331993D01*
X89958493Y-48104014D01*
X89989300Y-47870011D01*
X89989300Y-47633989D01*
X89958493Y-47399986D01*
X89897406Y-47172007D01*
X89807084Y-46953951D01*
X89807082Y-46953948D01*
X89807080Y-46953943D01*
X89762117Y-46876066D01*
X89689073Y-46749550D01*
X89545392Y-46562301D01*
X89545387Y-46562295D01*
X89378504Y-46395412D01*
X89378497Y-46395406D01*
X89191254Y-46251730D01*
X89191253Y-46251729D01*
X89191250Y-46251727D01*
X89109757Y-46204677D01*
X88986856Y-46133719D01*
X88986845Y-46133714D01*
X88768793Y-46043394D01*
X88540810Y-45982306D01*
X88306820Y-45951501D01*
X88306817Y-45951500D01*
X88306811Y-45951500D01*
X88070789Y-45951500D01*
X88070783Y-45951500D01*
X88070779Y-45951501D01*
X87836789Y-45982306D01*
X87608806Y-46043394D01*
X87390754Y-46133714D01*
X87390743Y-46133719D01*
X87186345Y-46251730D01*
X86999102Y-46395406D01*
X86999095Y-46395412D01*
X86832212Y-46562295D01*
X86832206Y-46562302D01*
X86688530Y-46749545D01*
X86570519Y-46953943D01*
X86570514Y-46953954D01*
X86480194Y-47172006D01*
X86419106Y-47399989D01*
X86388301Y-47633979D01*
X86388300Y-47633995D01*
X58907699Y-47633995D01*
X58907699Y-47539128D01*
X58901291Y-47479517D01*
X58850996Y-47344669D01*
X58850995Y-47344668D01*
X58850993Y-47344664D01*
X58764747Y-47229455D01*
X58764744Y-47229452D01*
X58649535Y-47143206D01*
X58649528Y-47143202D01*
X58514682Y-47092908D01*
X58514683Y-47092908D01*
X58455083Y-47086501D01*
X58455081Y-47086500D01*
X58455073Y-47086500D01*
X58455064Y-47086500D01*
X56759329Y-47086500D01*
X56759323Y-47086501D01*
X56699716Y-47092908D01*
X56564871Y-47143202D01*
X56564864Y-47143206D01*
X56449655Y-47229452D01*
X56449652Y-47229455D01*
X56363406Y-47344664D01*
X56363402Y-47344671D01*
X56313108Y-47479516D01*
X56309139Y-47516440D01*
X56282401Y-47580991D01*
X56225009Y-47620839D01*
X56155183Y-47623332D01*
X56095095Y-47587679D01*
X56085532Y-47576070D01*
X56059167Y-47539782D01*
X55914413Y-47395028D01*
X55748813Y-47274715D01*
X55748812Y-47274714D01*
X55748810Y-47274713D01*
X55691853Y-47245691D01*
X55566423Y-47181781D01*
X55371734Y-47118522D01*
X55197195Y-47090878D01*
X55169552Y-47086500D01*
X54964848Y-47086500D01*
X54940529Y-47090351D01*
X54762665Y-47118522D01*
X54567976Y-47181781D01*
X54385586Y-47274715D01*
X54219986Y-47395028D01*
X54075228Y-47539786D01*
X53954915Y-47705386D01*
X53907685Y-47798080D01*
X53859710Y-47848876D01*
X53791889Y-47865671D01*
X53725754Y-47843134D01*
X53686715Y-47798080D01*
X53639620Y-47705652D01*
X53639487Y-47705390D01*
X53607292Y-47661077D01*
X53519171Y-47539786D01*
X53374413Y-47395028D01*
X53208813Y-47274715D01*
X53208812Y-47274714D01*
X53208810Y-47274713D01*
X53151853Y-47245691D01*
X53026423Y-47181781D01*
X52831734Y-47118522D01*
X52657195Y-47090878D01*
X52629552Y-47086500D01*
X52424848Y-47086500D01*
X52400529Y-47090351D01*
X52222665Y-47118522D01*
X52027976Y-47181781D01*
X51845586Y-47274715D01*
X51679986Y-47395028D01*
X51535228Y-47539786D01*
X51414915Y-47705386D01*
X51367685Y-47798080D01*
X51319710Y-47848876D01*
X51251889Y-47865671D01*
X51185754Y-47843134D01*
X51146715Y-47798080D01*
X51099620Y-47705652D01*
X51099487Y-47705390D01*
X51067292Y-47661077D01*
X50979171Y-47539786D01*
X50834413Y-47395028D01*
X50668813Y-47274715D01*
X50668812Y-47274714D01*
X50668810Y-47274713D01*
X50611853Y-47245691D01*
X50486423Y-47181781D01*
X50291734Y-47118522D01*
X50117195Y-47090878D01*
X50089552Y-47086500D01*
X49884848Y-47086500D01*
X49860529Y-47090351D01*
X49682665Y-47118522D01*
X49487976Y-47181781D01*
X49305586Y-47274715D01*
X49139986Y-47395028D01*
X48995228Y-47539786D01*
X48874915Y-47705386D01*
X48827685Y-47798080D01*
X48779710Y-47848876D01*
X48711889Y-47865671D01*
X48645754Y-47843134D01*
X48606715Y-47798080D01*
X48559620Y-47705652D01*
X48559487Y-47705390D01*
X48527292Y-47661077D01*
X48439171Y-47539786D01*
X48294413Y-47395028D01*
X48128813Y-47274715D01*
X48128812Y-47274714D01*
X48128810Y-47274713D01*
X48071853Y-47245691D01*
X47946423Y-47181781D01*
X47751734Y-47118522D01*
X47577195Y-47090878D01*
X47549552Y-47086500D01*
X47344848Y-47086500D01*
X47320529Y-47090351D01*
X47142665Y-47118522D01*
X46947976Y-47181781D01*
X46765586Y-47274715D01*
X46599986Y-47395028D01*
X46455228Y-47539786D01*
X46334915Y-47705386D01*
X46287685Y-47798080D01*
X46239710Y-47848876D01*
X46171889Y-47865671D01*
X46105754Y-47843134D01*
X46066715Y-47798080D01*
X46019620Y-47705652D01*
X46019487Y-47705390D01*
X45987292Y-47661077D01*
X45899171Y-47539786D01*
X45754413Y-47395028D01*
X45588813Y-47274715D01*
X45588812Y-47274714D01*
X45588810Y-47274713D01*
X45531853Y-47245691D01*
X45406423Y-47181781D01*
X45211734Y-47118522D01*
X45037195Y-47090878D01*
X45009552Y-47086500D01*
X44804848Y-47086500D01*
X44780529Y-47090351D01*
X44602665Y-47118522D01*
X44407976Y-47181781D01*
X44225586Y-47274715D01*
X44059986Y-47395028D01*
X43915228Y-47539786D01*
X43794915Y-47705386D01*
X43747685Y-47798080D01*
X43699710Y-47848876D01*
X43631889Y-47865671D01*
X43565754Y-47843134D01*
X43526715Y-47798080D01*
X43479620Y-47705652D01*
X43479487Y-47705390D01*
X43447292Y-47661077D01*
X43359171Y-47539786D01*
X43214413Y-47395028D01*
X43048813Y-47274715D01*
X43048812Y-47274714D01*
X43048810Y-47274713D01*
X42991853Y-47245691D01*
X42866423Y-47181781D01*
X42671734Y-47118522D01*
X42497195Y-47090878D01*
X42469552Y-47086500D01*
X42264848Y-47086500D01*
X42240529Y-47090351D01*
X42062665Y-47118522D01*
X41867976Y-47181781D01*
X41685586Y-47274715D01*
X41519986Y-47395028D01*
X41375228Y-47539786D01*
X41254915Y-47705386D01*
X41207685Y-47798080D01*
X41159710Y-47848876D01*
X41091889Y-47865671D01*
X41025754Y-47843134D01*
X40986715Y-47798080D01*
X40939620Y-47705652D01*
X40939487Y-47705390D01*
X40907292Y-47661077D01*
X40819171Y-47539786D01*
X40674413Y-47395028D01*
X40508813Y-47274715D01*
X40508812Y-47274714D01*
X40508810Y-47274713D01*
X40451853Y-47245691D01*
X40326423Y-47181781D01*
X40131734Y-47118522D01*
X39957195Y-47090878D01*
X39929552Y-47086500D01*
X39724848Y-47086500D01*
X39700529Y-47090351D01*
X39522665Y-47118522D01*
X39327976Y-47181781D01*
X39145586Y-47274715D01*
X38979986Y-47395028D01*
X38835228Y-47539786D01*
X38714915Y-47705386D01*
X38667685Y-47798080D01*
X38619710Y-47848876D01*
X38551889Y-47865671D01*
X38485754Y-47843134D01*
X38446715Y-47798080D01*
X38399620Y-47705652D01*
X38399487Y-47705390D01*
X38367292Y-47661077D01*
X38279171Y-47539786D01*
X38134413Y-47395028D01*
X37968813Y-47274715D01*
X37968812Y-47274714D01*
X37968810Y-47274713D01*
X37911853Y-47245691D01*
X37786423Y-47181781D01*
X37591734Y-47118522D01*
X37417195Y-47090878D01*
X37389552Y-47086500D01*
X37184848Y-47086500D01*
X37160529Y-47090351D01*
X36982665Y-47118522D01*
X36787976Y-47181781D01*
X36605586Y-47274715D01*
X36439986Y-47395028D01*
X36295228Y-47539786D01*
X36174915Y-47705386D01*
X36127685Y-47798080D01*
X36079710Y-47848876D01*
X36011889Y-47865671D01*
X35945754Y-47843134D01*
X35906715Y-47798080D01*
X35859620Y-47705652D01*
X35859487Y-47705390D01*
X35827292Y-47661077D01*
X35739171Y-47539786D01*
X35594413Y-47395028D01*
X35428813Y-47274715D01*
X35428812Y-47274714D01*
X35428810Y-47274713D01*
X35371853Y-47245691D01*
X35246423Y-47181781D01*
X35051734Y-47118522D01*
X34877195Y-47090878D01*
X34849552Y-47086500D01*
X34644848Y-47086500D01*
X34620529Y-47090351D01*
X34442665Y-47118522D01*
X34247976Y-47181781D01*
X34065586Y-47274715D01*
X33899986Y-47395028D01*
X33755228Y-47539786D01*
X33634915Y-47705386D01*
X33587685Y-47798080D01*
X33539710Y-47848876D01*
X33471889Y-47865671D01*
X33405754Y-47843134D01*
X33366715Y-47798080D01*
X33319620Y-47705652D01*
X33319487Y-47705390D01*
X33287292Y-47661077D01*
X33199171Y-47539786D01*
X33054413Y-47395028D01*
X32888813Y-47274715D01*
X32888812Y-47274714D01*
X32888810Y-47274713D01*
X32831853Y-47245691D01*
X32706423Y-47181781D01*
X32511734Y-47118522D01*
X32337195Y-47090878D01*
X32309552Y-47086500D01*
X32104848Y-47086500D01*
X32080529Y-47090351D01*
X31902665Y-47118522D01*
X31707976Y-47181781D01*
X31525586Y-47274715D01*
X31359986Y-47395028D01*
X31215228Y-47539786D01*
X31094915Y-47705386D01*
X31047685Y-47798080D01*
X30999710Y-47848876D01*
X30931889Y-47865671D01*
X30865754Y-47843134D01*
X30826715Y-47798080D01*
X30779620Y-47705652D01*
X30779487Y-47705390D01*
X30747292Y-47661077D01*
X30659171Y-47539786D01*
X30514413Y-47395028D01*
X30348813Y-47274715D01*
X30348812Y-47274714D01*
X30348810Y-47274713D01*
X30291853Y-47245691D01*
X30166423Y-47181781D01*
X29971734Y-47118522D01*
X29797195Y-47090878D01*
X29769552Y-47086500D01*
X29564848Y-47086500D01*
X29540529Y-47090351D01*
X29362665Y-47118522D01*
X29167976Y-47181781D01*
X28985586Y-47274715D01*
X28819986Y-47395028D01*
X28675228Y-47539786D01*
X28554915Y-47705386D01*
X28507685Y-47798080D01*
X28459710Y-47848876D01*
X28391889Y-47865671D01*
X28325754Y-47843134D01*
X28286715Y-47798080D01*
X28239620Y-47705652D01*
X28239487Y-47705390D01*
X28207292Y-47661077D01*
X28119171Y-47539786D01*
X27974413Y-47395028D01*
X27808813Y-47274715D01*
X27808812Y-47274714D01*
X27808810Y-47274713D01*
X27751853Y-47245691D01*
X27626423Y-47181781D01*
X27431734Y-47118522D01*
X27257195Y-47090878D01*
X27229552Y-47086500D01*
X27024848Y-47086500D01*
X27000529Y-47090351D01*
X26822665Y-47118522D01*
X26627976Y-47181781D01*
X26445586Y-47274715D01*
X26279986Y-47395028D01*
X26135228Y-47539786D01*
X26014915Y-47705386D01*
X25967685Y-47798080D01*
X25919710Y-47848876D01*
X25851889Y-47865671D01*
X25785754Y-47843134D01*
X25746715Y-47798080D01*
X25699620Y-47705652D01*
X25699487Y-47705390D01*
X25667292Y-47661077D01*
X25579171Y-47539786D01*
X25434413Y-47395028D01*
X25268813Y-47274715D01*
X25268812Y-47274714D01*
X25268810Y-47274713D01*
X25211853Y-47245691D01*
X25086423Y-47181781D01*
X24891734Y-47118522D01*
X24717195Y-47090878D01*
X24689552Y-47086500D01*
X24484848Y-47086500D01*
X24460529Y-47090351D01*
X24282665Y-47118522D01*
X24087976Y-47181781D01*
X23905586Y-47274715D01*
X23739986Y-47395028D01*
X23595228Y-47539786D01*
X23474915Y-47705386D01*
X23427685Y-47798080D01*
X23379710Y-47848876D01*
X23311889Y-47865671D01*
X23245754Y-47843134D01*
X23206715Y-47798080D01*
X23159620Y-47705652D01*
X23159487Y-47705390D01*
X23127292Y-47661077D01*
X23039171Y-47539786D01*
X22894413Y-47395028D01*
X22728813Y-47274715D01*
X22728812Y-47274714D01*
X22728810Y-47274713D01*
X22671853Y-47245691D01*
X22546423Y-47181781D01*
X22351734Y-47118522D01*
X22177195Y-47090878D01*
X22149552Y-47086500D01*
X21944848Y-47086500D01*
X21920529Y-47090351D01*
X21742665Y-47118522D01*
X21547976Y-47181781D01*
X21365586Y-47274715D01*
X21199986Y-47395028D01*
X21055228Y-47539786D01*
X20934915Y-47705386D01*
X20887685Y-47798080D01*
X20839710Y-47848876D01*
X20771889Y-47865671D01*
X20705754Y-47843134D01*
X20666715Y-47798080D01*
X20619620Y-47705652D01*
X20619487Y-47705390D01*
X20587292Y-47661077D01*
X20499171Y-47539786D01*
X20354413Y-47395028D01*
X20188813Y-47274715D01*
X20188812Y-47274714D01*
X20188810Y-47274713D01*
X20131853Y-47245691D01*
X20006423Y-47181781D01*
X19811734Y-47118522D01*
X19637195Y-47090878D01*
X19609552Y-47086500D01*
X19404848Y-47086500D01*
X19380529Y-47090351D01*
X19202665Y-47118522D01*
X19007976Y-47181781D01*
X18825586Y-47274715D01*
X18659986Y-47395028D01*
X18515228Y-47539786D01*
X18394915Y-47705386D01*
X18347685Y-47798080D01*
X18299710Y-47848876D01*
X18231889Y-47865671D01*
X18165754Y-47843134D01*
X18126715Y-47798080D01*
X18079620Y-47705652D01*
X18079487Y-47705390D01*
X18047292Y-47661077D01*
X17959171Y-47539786D01*
X17814413Y-47395028D01*
X17648813Y-47274715D01*
X17648812Y-47274714D01*
X17648810Y-47274713D01*
X17591853Y-47245691D01*
X17466423Y-47181781D01*
X17271734Y-47118522D01*
X17097195Y-47090878D01*
X17069552Y-47086500D01*
X16864848Y-47086500D01*
X16840529Y-47090351D01*
X16662665Y-47118522D01*
X16467976Y-47181781D01*
X16285586Y-47274715D01*
X16119986Y-47395028D01*
X15975228Y-47539786D01*
X15854915Y-47705386D01*
X15807685Y-47798080D01*
X15759710Y-47848876D01*
X15691889Y-47865671D01*
X15625754Y-47843134D01*
X15586715Y-47798080D01*
X15539620Y-47705652D01*
X15539487Y-47705390D01*
X15507292Y-47661077D01*
X15419171Y-47539786D01*
X15274413Y-47395028D01*
X15108813Y-47274715D01*
X15108812Y-47274714D01*
X15108810Y-47274713D01*
X15051853Y-47245691D01*
X14926423Y-47181781D01*
X14731734Y-47118522D01*
X14557195Y-47090878D01*
X14529552Y-47086500D01*
X14324848Y-47086500D01*
X14300529Y-47090351D01*
X14122665Y-47118522D01*
X13927976Y-47181781D01*
X13745586Y-47274715D01*
X13579986Y-47395028D01*
X13435228Y-47539786D01*
X13314915Y-47705386D01*
X13267685Y-47798080D01*
X13219710Y-47848876D01*
X13151889Y-47865671D01*
X13085754Y-47843134D01*
X13046715Y-47798080D01*
X12999620Y-47705652D01*
X12999487Y-47705390D01*
X12967292Y-47661077D01*
X12879171Y-47539786D01*
X12734413Y-47395028D01*
X12568813Y-47274715D01*
X12568812Y-47274714D01*
X12568810Y-47274713D01*
X12511853Y-47245691D01*
X12386423Y-47181781D01*
X12191734Y-47118522D01*
X12017195Y-47090878D01*
X11989552Y-47086500D01*
X11784848Y-47086500D01*
X11760529Y-47090351D01*
X11582665Y-47118522D01*
X11387976Y-47181781D01*
X11205586Y-47274715D01*
X11039986Y-47395028D01*
X10895228Y-47539786D01*
X10774915Y-47705386D01*
X10727685Y-47798080D01*
X10679710Y-47848876D01*
X10611889Y-47865671D01*
X10545754Y-47843134D01*
X10506715Y-47798080D01*
X10459620Y-47705652D01*
X10459487Y-47705390D01*
X10427292Y-47661077D01*
X10339171Y-47539786D01*
X10194413Y-47395028D01*
X10028813Y-47274715D01*
X10028812Y-47274714D01*
X10028810Y-47274713D01*
X9971853Y-47245691D01*
X9846423Y-47181781D01*
X9651734Y-47118522D01*
X9479855Y-47091299D01*
X9449552Y-47086500D01*
X9449551Y-47086500D01*
X9447783Y-47086220D01*
X9384648Y-47056291D01*
X9347717Y-46996979D01*
X9348715Y-46927117D01*
X9379498Y-46876068D01*
X13701572Y-42553995D01*
X86388300Y-42553995D01*
X86388300Y-42790004D01*
X86388301Y-42790020D01*
X86419106Y-43024010D01*
X86480194Y-43251993D01*
X86570514Y-43470045D01*
X86570519Y-43470056D01*
X86641477Y-43592957D01*
X86688527Y-43674450D01*
X86688529Y-43674453D01*
X86688530Y-43674454D01*
X86832206Y-43861697D01*
X86832212Y-43861704D01*
X86999095Y-44028587D01*
X86999101Y-44028592D01*
X87186350Y-44172273D01*
X87317718Y-44248118D01*
X87390743Y-44290280D01*
X87390748Y-44290282D01*
X87390751Y-44290284D01*
X87608807Y-44380606D01*
X87836786Y-44441693D01*
X88070789Y-44472500D01*
X88070796Y-44472500D01*
X88306804Y-44472500D01*
X88306811Y-44472500D01*
X88540814Y-44441693D01*
X88768793Y-44380606D01*
X88986849Y-44290284D01*
X89191250Y-44172273D01*
X89378499Y-44028592D01*
X89545392Y-43861699D01*
X89689073Y-43674450D01*
X89807084Y-43470049D01*
X89897406Y-43251993D01*
X89958493Y-43024014D01*
X89989300Y-42790011D01*
X89989300Y-42553989D01*
X89958493Y-42319986D01*
X89897406Y-42092007D01*
X89807084Y-41873951D01*
X89807082Y-41873948D01*
X89807080Y-41873943D01*
X89734358Y-41747986D01*
X89689073Y-41669550D01*
X89545392Y-41482301D01*
X89545387Y-41482295D01*
X89378504Y-41315412D01*
X89378497Y-41315406D01*
X89191254Y-41171730D01*
X89191253Y-41171729D01*
X89191250Y-41171727D01*
X89109757Y-41124677D01*
X88986856Y-41053719D01*
X88986845Y-41053714D01*
X88768793Y-40963394D01*
X88540814Y-40902307D01*
X88540813Y-40902306D01*
X88540810Y-40902306D01*
X88306820Y-40871501D01*
X88306817Y-40871500D01*
X88306811Y-40871500D01*
X88070789Y-40871500D01*
X88070783Y-40871500D01*
X88070779Y-40871501D01*
X87836789Y-40902306D01*
X87608806Y-40963394D01*
X87390754Y-41053714D01*
X87390743Y-41053719D01*
X87186345Y-41171730D01*
X86999102Y-41315406D01*
X86999095Y-41315412D01*
X86832212Y-41482295D01*
X86832206Y-41482302D01*
X86688530Y-41669545D01*
X86570519Y-41873943D01*
X86570514Y-41873954D01*
X86480194Y-42092006D01*
X86419106Y-42319989D01*
X86388301Y-42553979D01*
X86388300Y-42553995D01*
X13701572Y-42553995D01*
X15707554Y-40548013D01*
X28418000Y-40548013D01*
X28418000Y-40898000D01*
X29402314Y-40898000D01*
X29397920Y-40902394D01*
X29345259Y-40993606D01*
X29318000Y-41095339D01*
X29318000Y-41200661D01*
X29345259Y-41302394D01*
X29397920Y-41393606D01*
X29402314Y-41398000D01*
X28418001Y-41398000D01*
X28418001Y-41747986D01*
X28428494Y-41850697D01*
X28483641Y-42017119D01*
X28483643Y-42017124D01*
X28575684Y-42166345D01*
X28699654Y-42290315D01*
X28848875Y-42382356D01*
X28848880Y-42382358D01*
X29015302Y-42437505D01*
X29015309Y-42437506D01*
X29118019Y-42447999D01*
X29467999Y-42447999D01*
X29468000Y-42447998D01*
X29468000Y-41463686D01*
X29472394Y-41468080D01*
X29563606Y-41520741D01*
X29665339Y-41548000D01*
X29770661Y-41548000D01*
X29872394Y-41520741D01*
X29963606Y-41468080D01*
X29968000Y-41463686D01*
X29968000Y-42447999D01*
X30317972Y-42447999D01*
X30317986Y-42447998D01*
X30420697Y-42437505D01*
X30587119Y-42382358D01*
X30587124Y-42382356D01*
X30736345Y-42290315D01*
X30860315Y-42166345D01*
X30952356Y-42017124D01*
X30952359Y-42017117D01*
X30979592Y-41934932D01*
X31019364Y-41877487D01*
X31083879Y-41850663D01*
X31152655Y-41862977D01*
X31197617Y-41901050D01*
X31266034Y-41995219D01*
X31410786Y-42139971D01*
X31531226Y-42227474D01*
X31576390Y-42260287D01*
X31692607Y-42319503D01*
X31758776Y-42353218D01*
X31758778Y-42353218D01*
X31758781Y-42353220D01*
X31848459Y-42382358D01*
X31953465Y-42416477D01*
X32022790Y-42427457D01*
X32155648Y-42448500D01*
X32155649Y-42448500D01*
X32360351Y-42448500D01*
X32360352Y-42448500D01*
X32562534Y-42416477D01*
X32757219Y-42353220D01*
X32939610Y-42260287D01*
X33032590Y-42192732D01*
X33105213Y-42139971D01*
X33105215Y-42139968D01*
X33105219Y-42139966D01*
X33249966Y-41995219D01*
X33249968Y-41995215D01*
X33249971Y-41995213D01*
X33370284Y-41829614D01*
X33370286Y-41829611D01*
X33370287Y-41829610D01*
X33417516Y-41736917D01*
X33465489Y-41686123D01*
X33533310Y-41669328D01*
X33599445Y-41691865D01*
X33638483Y-41736917D01*
X33682348Y-41823006D01*
X33685715Y-41829614D01*
X33806028Y-41995213D01*
X33950786Y-42139971D01*
X34071226Y-42227474D01*
X34116390Y-42260287D01*
X34232607Y-42319503D01*
X34298776Y-42353218D01*
X34298778Y-42353218D01*
X34298781Y-42353220D01*
X34388459Y-42382358D01*
X34493465Y-42416477D01*
X34562790Y-42427457D01*
X34695648Y-42448500D01*
X34695649Y-42448500D01*
X34900351Y-42448500D01*
X34900352Y-42448500D01*
X35102534Y-42416477D01*
X35297219Y-42353220D01*
X35479610Y-42260287D01*
X35572590Y-42192732D01*
X35645213Y-42139971D01*
X35645215Y-42139968D01*
X35645219Y-42139966D01*
X35789966Y-41995219D01*
X35789968Y-41995215D01*
X35789971Y-41995213D01*
X35910284Y-41829614D01*
X35910286Y-41829611D01*
X35910287Y-41829610D01*
X35957516Y-41736917D01*
X36005489Y-41686123D01*
X36073310Y-41669328D01*
X36139445Y-41691865D01*
X36178483Y-41736917D01*
X36222348Y-41823006D01*
X36225715Y-41829614D01*
X36346028Y-41995213D01*
X36490786Y-42139971D01*
X36611226Y-42227474D01*
X36656390Y-42260287D01*
X36772607Y-42319503D01*
X36838776Y-42353218D01*
X36838778Y-42353218D01*
X36838781Y-42353220D01*
X36928459Y-42382358D01*
X37033465Y-42416477D01*
X37102790Y-42427457D01*
X37235648Y-42448500D01*
X37235649Y-42448500D01*
X37440351Y-42448500D01*
X37440352Y-42448500D01*
X37642534Y-42416477D01*
X37837219Y-42353220D01*
X38019610Y-42260287D01*
X38112590Y-42192732D01*
X38185213Y-42139971D01*
X38185215Y-42139968D01*
X38185219Y-42139966D01*
X38329966Y-41995219D01*
X38329968Y-41995215D01*
X38329971Y-41995213D01*
X38450284Y-41829614D01*
X38450286Y-41829611D01*
X38450287Y-41829610D01*
X38497516Y-41736917D01*
X38545489Y-41686123D01*
X38613310Y-41669328D01*
X38679445Y-41691865D01*
X38718483Y-41736917D01*
X38762348Y-41823006D01*
X38765715Y-41829614D01*
X38886028Y-41995213D01*
X39030786Y-42139971D01*
X39151226Y-42227474D01*
X39196390Y-42260287D01*
X39312607Y-42319503D01*
X39378776Y-42353218D01*
X39378778Y-42353218D01*
X39378781Y-42353220D01*
X39468459Y-42382358D01*
X39573465Y-42416477D01*
X39642790Y-42427457D01*
X39775648Y-42448500D01*
X39775649Y-42448500D01*
X39980351Y-42448500D01*
X39980352Y-42448500D01*
X40182534Y-42416477D01*
X40377219Y-42353220D01*
X40559610Y-42260287D01*
X40652590Y-42192732D01*
X40725213Y-42139971D01*
X40725215Y-42139968D01*
X40725219Y-42139966D01*
X40869966Y-41995219D01*
X40869968Y-41995215D01*
X40869971Y-41995213D01*
X40990284Y-41829614D01*
X40990286Y-41829611D01*
X40990287Y-41829610D01*
X41037516Y-41736917D01*
X41085489Y-41686123D01*
X41153310Y-41669328D01*
X41219445Y-41691865D01*
X41258483Y-41736917D01*
X41302348Y-41823006D01*
X41305715Y-41829614D01*
X41426028Y-41995213D01*
X41570786Y-42139971D01*
X41691226Y-42227474D01*
X41736390Y-42260287D01*
X41852607Y-42319503D01*
X41918776Y-42353218D01*
X41918778Y-42353218D01*
X41918781Y-42353220D01*
X42008459Y-42382358D01*
X42113465Y-42416477D01*
X42182790Y-42427457D01*
X42315648Y-42448500D01*
X42315649Y-42448500D01*
X42520351Y-42448500D01*
X42520352Y-42448500D01*
X42722534Y-42416477D01*
X42917219Y-42353220D01*
X43099610Y-42260287D01*
X43192590Y-42192732D01*
X43265213Y-42139971D01*
X43265215Y-42139968D01*
X43265219Y-42139966D01*
X43409966Y-41995219D01*
X43409968Y-41995215D01*
X43409971Y-41995213D01*
X43530284Y-41829614D01*
X43530286Y-41829611D01*
X43530287Y-41829610D01*
X43577516Y-41736917D01*
X43625489Y-41686123D01*
X43693310Y-41669328D01*
X43759445Y-41691865D01*
X43798483Y-41736917D01*
X43842348Y-41823006D01*
X43845715Y-41829614D01*
X43966028Y-41995213D01*
X44110786Y-42139971D01*
X44231226Y-42227474D01*
X44276390Y-42260287D01*
X44392607Y-42319503D01*
X44458776Y-42353218D01*
X44458778Y-42353218D01*
X44458781Y-42353220D01*
X44548459Y-42382358D01*
X44653465Y-42416477D01*
X44722790Y-42427457D01*
X44855648Y-42448500D01*
X44855649Y-42448500D01*
X45060351Y-42448500D01*
X45060352Y-42448500D01*
X45262534Y-42416477D01*
X45457219Y-42353220D01*
X45639610Y-42260287D01*
X45732590Y-42192732D01*
X45805213Y-42139971D01*
X45805215Y-42139968D01*
X45805219Y-42139966D01*
X45949966Y-41995219D01*
X45949968Y-41995215D01*
X45949971Y-41995213D01*
X46070284Y-41829614D01*
X46070286Y-41829611D01*
X46070287Y-41829610D01*
X46117516Y-41736917D01*
X46165489Y-41686123D01*
X46233310Y-41669328D01*
X46299445Y-41691865D01*
X46338483Y-41736917D01*
X46382348Y-41823006D01*
X46385715Y-41829614D01*
X46506028Y-41995213D01*
X46650786Y-42139971D01*
X46771226Y-42227474D01*
X46816390Y-42260287D01*
X46932607Y-42319503D01*
X46998776Y-42353218D01*
X46998778Y-42353218D01*
X46998781Y-42353220D01*
X47088459Y-42382358D01*
X47193465Y-42416477D01*
X47262790Y-42427457D01*
X47395648Y-42448500D01*
X47395649Y-42448500D01*
X47600351Y-42448500D01*
X47600352Y-42448500D01*
X47802534Y-42416477D01*
X47997219Y-42353220D01*
X48179610Y-42260287D01*
X48272590Y-42192732D01*
X48345213Y-42139971D01*
X48345215Y-42139968D01*
X48345219Y-42139966D01*
X48489966Y-41995219D01*
X48489968Y-41995215D01*
X48489971Y-41995213D01*
X48610284Y-41829614D01*
X48610286Y-41829611D01*
X48610287Y-41829610D01*
X48657516Y-41736917D01*
X48705489Y-41686123D01*
X48773310Y-41669328D01*
X48839445Y-41691865D01*
X48878483Y-41736917D01*
X48922348Y-41823006D01*
X48925715Y-41829614D01*
X49046028Y-41995213D01*
X49190786Y-42139971D01*
X49311226Y-42227474D01*
X49356390Y-42260287D01*
X49472607Y-42319503D01*
X49538776Y-42353218D01*
X49538778Y-42353218D01*
X49538781Y-42353220D01*
X49628459Y-42382358D01*
X49733465Y-42416477D01*
X49802790Y-42427457D01*
X49935648Y-42448500D01*
X49935649Y-42448500D01*
X50140351Y-42448500D01*
X50140352Y-42448500D01*
X50342534Y-42416477D01*
X50537219Y-42353220D01*
X50719610Y-42260287D01*
X50812590Y-42192732D01*
X50885213Y-42139971D01*
X50885215Y-42139968D01*
X50885219Y-42139966D01*
X51029966Y-41995219D01*
X51029968Y-41995215D01*
X51029971Y-41995213D01*
X51126045Y-41862977D01*
X51150287Y-41829610D01*
X51197795Y-41736369D01*
X51245769Y-41685573D01*
X51313590Y-41668778D01*
X51379725Y-41691315D01*
X51418765Y-41736369D01*
X51466141Y-41829350D01*
X51466147Y-41829359D01*
X51498523Y-41873921D01*
X51498524Y-41873922D01*
X52178000Y-41194446D01*
X52178000Y-41200661D01*
X52205259Y-41302394D01*
X52257920Y-41393606D01*
X52332394Y-41468080D01*
X52423606Y-41520741D01*
X52525339Y-41548000D01*
X52531553Y-41548000D01*
X51852076Y-42227474D01*
X51896650Y-42259859D01*
X52078968Y-42352755D01*
X52273582Y-42415990D01*
X52475683Y-42448000D01*
X52680317Y-42448000D01*
X52810019Y-42427457D01*
X52882417Y-42415990D01*
X53077031Y-42352755D01*
X53259349Y-42259859D01*
X53303921Y-42227474D01*
X52624447Y-41548000D01*
X52630661Y-41548000D01*
X52732394Y-41520741D01*
X52823606Y-41468080D01*
X52898080Y-41393606D01*
X52950741Y-41302394D01*
X52978000Y-41200661D01*
X52978000Y-41194447D01*
X53657474Y-41873921D01*
X53689859Y-41829349D01*
X53782755Y-41647031D01*
X53845990Y-41452417D01*
X53878000Y-41250317D01*
X53878000Y-41045682D01*
X53845990Y-40843582D01*
X53782755Y-40648968D01*
X53689859Y-40466650D01*
X53657474Y-40422077D01*
X53657474Y-40422076D01*
X52978000Y-41101551D01*
X52978000Y-41095339D01*
X52950741Y-40993606D01*
X52898080Y-40902394D01*
X52823606Y-40827920D01*
X52732394Y-40775259D01*
X52630661Y-40748000D01*
X52624446Y-40748000D01*
X53303922Y-40068524D01*
X53303921Y-40068523D01*
X53259359Y-40036147D01*
X53259350Y-40036141D01*
X53077031Y-39943244D01*
X52882417Y-39880009D01*
X52680317Y-39848000D01*
X52475683Y-39848000D01*
X52273582Y-39880009D01*
X52078968Y-39943244D01*
X51896644Y-40036143D01*
X51852077Y-40068523D01*
X51852077Y-40068524D01*
X52531554Y-40748000D01*
X52525339Y-40748000D01*
X52423606Y-40775259D01*
X52332394Y-40827920D01*
X52257920Y-40902394D01*
X52205259Y-40993606D01*
X52178000Y-41095339D01*
X52178000Y-41101553D01*
X51498524Y-40422077D01*
X51498523Y-40422077D01*
X51466143Y-40466644D01*
X51418765Y-40559630D01*
X51370790Y-40610426D01*
X51302969Y-40627221D01*
X51236834Y-40604683D01*
X51197795Y-40559630D01*
X51150284Y-40466385D01*
X51029971Y-40300786D01*
X50885213Y-40156028D01*
X50719613Y-40035715D01*
X50719612Y-40035714D01*
X50719610Y-40035713D01*
X50660675Y-40005684D01*
X50537223Y-39942781D01*
X50342534Y-39879522D01*
X50167995Y-39851878D01*
X50140352Y-39847500D01*
X49935648Y-39847500D01*
X49911329Y-39851351D01*
X49733465Y-39879522D01*
X49538776Y-39942781D01*
X49356386Y-40035715D01*
X49190786Y-40156028D01*
X49046028Y-40300786D01*
X48925715Y-40466386D01*
X48878485Y-40559080D01*
X48830510Y-40609876D01*
X48762689Y-40626671D01*
X48696554Y-40604134D01*
X48657515Y-40559080D01*
X48610419Y-40466650D01*
X48610287Y-40466390D01*
X48578092Y-40422077D01*
X48489971Y-40300786D01*
X48345213Y-40156028D01*
X48179613Y-40035715D01*
X48179612Y-40035714D01*
X48179610Y-40035713D01*
X48120675Y-40005684D01*
X47997223Y-39942781D01*
X47802534Y-39879522D01*
X47627995Y-39851878D01*
X47600352Y-39847500D01*
X47395648Y-39847500D01*
X47371329Y-39851351D01*
X47193465Y-39879522D01*
X46998776Y-39942781D01*
X46816386Y-40035715D01*
X46650786Y-40156028D01*
X46506028Y-40300786D01*
X46385715Y-40466386D01*
X46338485Y-40559080D01*
X46290510Y-40609876D01*
X46222689Y-40626671D01*
X46156554Y-40604134D01*
X46117515Y-40559080D01*
X46070419Y-40466650D01*
X46070287Y-40466390D01*
X46038092Y-40422077D01*
X45949971Y-40300786D01*
X45805213Y-40156028D01*
X45639613Y-40035715D01*
X45639612Y-40035714D01*
X45639610Y-40035713D01*
X45580675Y-40005684D01*
X45457223Y-39942781D01*
X45262534Y-39879522D01*
X45087995Y-39851878D01*
X45060352Y-39847500D01*
X44855648Y-39847500D01*
X44831329Y-39851351D01*
X44653465Y-39879522D01*
X44458776Y-39942781D01*
X44276386Y-40035715D01*
X44110786Y-40156028D01*
X43966028Y-40300786D01*
X43845715Y-40466386D01*
X43798485Y-40559080D01*
X43750510Y-40609876D01*
X43682689Y-40626671D01*
X43616554Y-40604134D01*
X43577515Y-40559080D01*
X43530419Y-40466650D01*
X43530287Y-40466390D01*
X43498092Y-40422077D01*
X43409971Y-40300786D01*
X43265213Y-40156028D01*
X43099613Y-40035715D01*
X43099612Y-40035714D01*
X43099610Y-40035713D01*
X43040675Y-40005684D01*
X42917223Y-39942781D01*
X42722534Y-39879522D01*
X42547995Y-39851878D01*
X42520352Y-39847500D01*
X42315648Y-39847500D01*
X42291329Y-39851351D01*
X42113465Y-39879522D01*
X41918776Y-39942781D01*
X41736386Y-40035715D01*
X41570786Y-40156028D01*
X41426028Y-40300786D01*
X41305715Y-40466386D01*
X41258485Y-40559080D01*
X41210510Y-40609876D01*
X41142689Y-40626671D01*
X41076554Y-40604134D01*
X41037515Y-40559080D01*
X40990419Y-40466650D01*
X40990287Y-40466390D01*
X40958092Y-40422077D01*
X40869971Y-40300786D01*
X40725213Y-40156028D01*
X40559613Y-40035715D01*
X40559612Y-40035714D01*
X40559610Y-40035713D01*
X40500675Y-40005684D01*
X40377223Y-39942781D01*
X40182534Y-39879522D01*
X40007995Y-39851878D01*
X39980352Y-39847500D01*
X39775648Y-39847500D01*
X39751329Y-39851351D01*
X39573465Y-39879522D01*
X39378776Y-39942781D01*
X39196386Y-40035715D01*
X39030786Y-40156028D01*
X38886028Y-40300786D01*
X38765715Y-40466386D01*
X38718485Y-40559080D01*
X38670510Y-40609876D01*
X38602689Y-40626671D01*
X38536554Y-40604134D01*
X38497515Y-40559080D01*
X38450419Y-40466650D01*
X38450287Y-40466390D01*
X38418092Y-40422077D01*
X38329971Y-40300786D01*
X38185213Y-40156028D01*
X38019613Y-40035715D01*
X38019612Y-40035714D01*
X38019610Y-40035713D01*
X37960675Y-40005684D01*
X37837223Y-39942781D01*
X37642534Y-39879522D01*
X37467995Y-39851878D01*
X37440352Y-39847500D01*
X37235648Y-39847500D01*
X37211329Y-39851351D01*
X37033465Y-39879522D01*
X36838776Y-39942781D01*
X36656386Y-40035715D01*
X36490786Y-40156028D01*
X36346028Y-40300786D01*
X36225715Y-40466386D01*
X36178485Y-40559080D01*
X36130510Y-40609876D01*
X36062689Y-40626671D01*
X35996554Y-40604134D01*
X35957515Y-40559080D01*
X35910419Y-40466650D01*
X35910287Y-40466390D01*
X35878092Y-40422077D01*
X35789971Y-40300786D01*
X35645213Y-40156028D01*
X35479613Y-40035715D01*
X35479612Y-40035714D01*
X35479610Y-40035713D01*
X35420675Y-40005684D01*
X35297223Y-39942781D01*
X35102534Y-39879522D01*
X34927995Y-39851878D01*
X34900352Y-39847500D01*
X34695648Y-39847500D01*
X34671329Y-39851351D01*
X34493465Y-39879522D01*
X34298776Y-39942781D01*
X34116386Y-40035715D01*
X33950786Y-40156028D01*
X33806028Y-40300786D01*
X33685715Y-40466386D01*
X33638485Y-40559080D01*
X33590510Y-40609876D01*
X33522689Y-40626671D01*
X33456554Y-40604134D01*
X33417515Y-40559080D01*
X33370419Y-40466650D01*
X33370287Y-40466390D01*
X33338092Y-40422077D01*
X33249971Y-40300786D01*
X33105213Y-40156028D01*
X32939613Y-40035715D01*
X32939612Y-40035714D01*
X32939610Y-40035713D01*
X32880675Y-40005684D01*
X32757223Y-39942781D01*
X32562534Y-39879522D01*
X32387995Y-39851878D01*
X32360352Y-39847500D01*
X32155648Y-39847500D01*
X32131329Y-39851351D01*
X31953465Y-39879522D01*
X31758776Y-39942781D01*
X31576386Y-40035715D01*
X31410786Y-40156028D01*
X31266032Y-40300782D01*
X31197616Y-40394949D01*
X31142286Y-40437614D01*
X31072672Y-40443593D01*
X31010877Y-40410987D01*
X30979592Y-40361067D01*
X30952358Y-40278880D01*
X30952356Y-40278875D01*
X30860315Y-40129654D01*
X30736345Y-40005684D01*
X30587124Y-39913643D01*
X30587119Y-39913641D01*
X30420697Y-39858494D01*
X30420690Y-39858493D01*
X30317986Y-39848000D01*
X29968000Y-39848000D01*
X29968000Y-40832314D01*
X29963606Y-40827920D01*
X29872394Y-40775259D01*
X29770661Y-40748000D01*
X29665339Y-40748000D01*
X29563606Y-40775259D01*
X29472394Y-40827920D01*
X29468000Y-40832314D01*
X29468000Y-39848000D01*
X29118028Y-39848000D01*
X29118012Y-39848001D01*
X29015302Y-39858494D01*
X28848880Y-39913641D01*
X28848875Y-39913643D01*
X28699654Y-40005684D01*
X28575684Y-40129654D01*
X28483643Y-40278875D01*
X28483641Y-40278880D01*
X28428494Y-40445302D01*
X28428493Y-40445309D01*
X28418000Y-40548013D01*
X15707554Y-40548013D01*
X21287584Y-34967983D01*
X86388300Y-34967983D01*
X86388300Y-37168001D01*
X86388301Y-37168018D01*
X86398800Y-37270796D01*
X86398801Y-37270799D01*
X86435105Y-37380356D01*
X86453986Y-37437334D01*
X86546088Y-37586656D01*
X86670144Y-37710712D01*
X86819466Y-37802814D01*
X86986003Y-37857999D01*
X87088791Y-37868500D01*
X89288808Y-37868499D01*
X89391597Y-37857999D01*
X89558134Y-37802814D01*
X89707456Y-37710712D01*
X89831512Y-37586656D01*
X89923614Y-37437334D01*
X89978799Y-37270797D01*
X89989300Y-37168009D01*
X89989299Y-34967992D01*
X89978799Y-34865203D01*
X89923614Y-34698666D01*
X89831512Y-34549344D01*
X89707456Y-34425288D01*
X89558134Y-34333186D01*
X89391597Y-34278001D01*
X89391595Y-34278000D01*
X89288810Y-34267500D01*
X87088798Y-34267500D01*
X87088781Y-34267501D01*
X86986003Y-34278000D01*
X86986000Y-34278001D01*
X86819468Y-34333185D01*
X86819463Y-34333187D01*
X86670142Y-34425289D01*
X86546089Y-34549342D01*
X86453987Y-34698663D01*
X86453985Y-34698668D01*
X86442536Y-34733220D01*
X86398801Y-34865203D01*
X86398801Y-34865204D01*
X86398800Y-34865204D01*
X86388300Y-34967983D01*
X21287584Y-34967983D01*
X21940748Y-34314819D01*
X22002071Y-34281334D01*
X22028429Y-34278500D01*
X28592582Y-34278500D01*
X28659621Y-34298185D01*
X28692900Y-34329615D01*
X28726028Y-34375212D01*
X28726032Y-34375217D01*
X28870786Y-34519971D01*
X28991226Y-34607474D01*
X29036390Y-34640287D01*
X29150959Y-34698663D01*
X29218776Y-34733218D01*
X29218778Y-34733218D01*
X29218781Y-34733220D01*
X29323137Y-34767127D01*
X29413465Y-34796477D01*
X29514557Y-34812488D01*
X29615648Y-34828500D01*
X29615649Y-34828500D01*
X29820351Y-34828500D01*
X29820352Y-34828500D01*
X30022534Y-34796477D01*
X30217219Y-34733220D01*
X30399610Y-34640287D01*
X30492590Y-34572732D01*
X30565213Y-34519971D01*
X30565215Y-34519968D01*
X30565219Y-34519966D01*
X30709966Y-34375219D01*
X30709968Y-34375215D01*
X30709971Y-34375213D01*
X30830286Y-34209611D01*
X30830415Y-34209359D01*
X30877795Y-34116369D01*
X30925769Y-34065573D01*
X30993590Y-34048778D01*
X31059725Y-34071315D01*
X31098765Y-34116369D01*
X31146141Y-34209350D01*
X31146147Y-34209359D01*
X31178523Y-34253921D01*
X31178524Y-34253922D01*
X31858000Y-33574446D01*
X31858000Y-33580661D01*
X31885259Y-33682394D01*
X31937920Y-33773606D01*
X32012394Y-33848080D01*
X32103606Y-33900741D01*
X32205339Y-33928000D01*
X32211553Y-33928000D01*
X31532076Y-34607474D01*
X31576650Y-34639859D01*
X31758968Y-34732755D01*
X31953582Y-34795990D01*
X32155683Y-34828000D01*
X32360317Y-34828000D01*
X32562417Y-34795990D01*
X32757031Y-34732755D01*
X32939349Y-34639859D01*
X32983921Y-34607474D01*
X32304447Y-33928000D01*
X32310661Y-33928000D01*
X32412394Y-33900741D01*
X32503606Y-33848080D01*
X32578080Y-33773606D01*
X32630741Y-33682394D01*
X32658000Y-33580661D01*
X32658000Y-33574447D01*
X33337474Y-34253921D01*
X33369861Y-34209347D01*
X33369861Y-34209346D01*
X33417234Y-34116371D01*
X33465208Y-34065575D01*
X33533028Y-34048779D01*
X33599164Y-34071316D01*
X33638203Y-34116369D01*
X33685713Y-34209611D01*
X33806028Y-34375213D01*
X33950786Y-34519971D01*
X34071226Y-34607474D01*
X34116390Y-34640287D01*
X34230959Y-34698663D01*
X34298776Y-34733218D01*
X34298778Y-34733218D01*
X34298781Y-34733220D01*
X34403137Y-34767127D01*
X34493465Y-34796477D01*
X34594557Y-34812488D01*
X34695648Y-34828500D01*
X34695649Y-34828500D01*
X34900351Y-34828500D01*
X34900352Y-34828500D01*
X35102534Y-34796477D01*
X35297219Y-34733220D01*
X35479610Y-34640287D01*
X35572590Y-34572732D01*
X35645213Y-34519971D01*
X35645215Y-34519968D01*
X35645219Y-34519966D01*
X35789966Y-34375219D01*
X35789968Y-34375215D01*
X35789971Y-34375213D01*
X35910284Y-34209614D01*
X35910286Y-34209611D01*
X35910287Y-34209610D01*
X35957516Y-34116917D01*
X36005489Y-34066123D01*
X36073310Y-34049328D01*
X36139445Y-34071865D01*
X36178485Y-34116919D01*
X36225715Y-34209614D01*
X36346028Y-34375213D01*
X36490786Y-34519971D01*
X36611226Y-34607474D01*
X36656390Y-34640287D01*
X36770959Y-34698663D01*
X36838776Y-34733218D01*
X36838778Y-34733218D01*
X36838781Y-34733220D01*
X36943137Y-34767127D01*
X37033465Y-34796477D01*
X37134557Y-34812488D01*
X37235648Y-34828500D01*
X37235649Y-34828500D01*
X37440351Y-34828500D01*
X37440352Y-34828500D01*
X37642534Y-34796477D01*
X37837219Y-34733220D01*
X38019610Y-34640287D01*
X38112590Y-34572732D01*
X38185213Y-34519971D01*
X38185215Y-34519968D01*
X38185219Y-34519966D01*
X38329966Y-34375219D01*
X38329968Y-34375215D01*
X38329971Y-34375213D01*
X38450284Y-34209614D01*
X38450286Y-34209611D01*
X38450287Y-34209610D01*
X38497516Y-34116917D01*
X38545489Y-34066123D01*
X38613310Y-34049328D01*
X38679445Y-34071865D01*
X38718485Y-34116919D01*
X38765715Y-34209614D01*
X38886028Y-34375213D01*
X39030786Y-34519971D01*
X39151226Y-34607474D01*
X39196390Y-34640287D01*
X39310959Y-34698663D01*
X39378776Y-34733218D01*
X39378778Y-34733218D01*
X39378781Y-34733220D01*
X39483137Y-34767127D01*
X39573465Y-34796477D01*
X39674557Y-34812488D01*
X39775648Y-34828500D01*
X39775649Y-34828500D01*
X39980351Y-34828500D01*
X39980352Y-34828500D01*
X40182534Y-34796477D01*
X40377219Y-34733220D01*
X40559610Y-34640287D01*
X40652590Y-34572732D01*
X40725213Y-34519971D01*
X40725215Y-34519968D01*
X40725219Y-34519966D01*
X40869966Y-34375219D01*
X40869968Y-34375215D01*
X40869971Y-34375213D01*
X40990284Y-34209614D01*
X40990286Y-34209611D01*
X40990287Y-34209610D01*
X41037516Y-34116917D01*
X41085489Y-34066123D01*
X41153310Y-34049328D01*
X41219445Y-34071865D01*
X41258485Y-34116919D01*
X41305715Y-34209614D01*
X41426028Y-34375213D01*
X41570786Y-34519971D01*
X41691226Y-34607474D01*
X41736390Y-34640287D01*
X41850959Y-34698663D01*
X41918776Y-34733218D01*
X41918778Y-34733218D01*
X41918781Y-34733220D01*
X42023137Y-34767127D01*
X42113465Y-34796477D01*
X42214557Y-34812488D01*
X42315648Y-34828500D01*
X42315649Y-34828500D01*
X42520351Y-34828500D01*
X42520352Y-34828500D01*
X42722534Y-34796477D01*
X42917219Y-34733220D01*
X43099610Y-34640287D01*
X43192590Y-34572732D01*
X43265213Y-34519971D01*
X43265215Y-34519968D01*
X43265219Y-34519966D01*
X43409966Y-34375219D01*
X43409968Y-34375215D01*
X43409971Y-34375213D01*
X43530284Y-34209614D01*
X43530286Y-34209611D01*
X43530287Y-34209610D01*
X43577516Y-34116917D01*
X43625489Y-34066123D01*
X43693310Y-34049328D01*
X43759445Y-34071865D01*
X43798485Y-34116919D01*
X43845715Y-34209614D01*
X43966028Y-34375213D01*
X44110786Y-34519971D01*
X44231226Y-34607474D01*
X44276390Y-34640287D01*
X44390959Y-34698663D01*
X44458776Y-34733218D01*
X44458778Y-34733218D01*
X44458781Y-34733220D01*
X44563137Y-34767127D01*
X44653465Y-34796477D01*
X44754557Y-34812488D01*
X44855648Y-34828500D01*
X44855649Y-34828500D01*
X45060351Y-34828500D01*
X45060352Y-34828500D01*
X45262534Y-34796477D01*
X45457219Y-34733220D01*
X45639610Y-34640287D01*
X45732590Y-34572732D01*
X45805213Y-34519971D01*
X45805215Y-34519968D01*
X45805219Y-34519966D01*
X45949966Y-34375219D01*
X45949968Y-34375215D01*
X45949971Y-34375213D01*
X46070284Y-34209614D01*
X46070286Y-34209611D01*
X46070287Y-34209610D01*
X46117516Y-34116917D01*
X46165489Y-34066123D01*
X46233310Y-34049328D01*
X46299445Y-34071865D01*
X46338485Y-34116919D01*
X46385715Y-34209614D01*
X46506028Y-34375213D01*
X46650786Y-34519971D01*
X46771226Y-34607474D01*
X46816390Y-34640287D01*
X46930959Y-34698663D01*
X46998776Y-34733218D01*
X46998778Y-34733218D01*
X46998781Y-34733220D01*
X47103137Y-34767127D01*
X47193465Y-34796477D01*
X47294557Y-34812488D01*
X47395648Y-34828500D01*
X47395649Y-34828500D01*
X47600351Y-34828500D01*
X47600352Y-34828500D01*
X47802534Y-34796477D01*
X47997219Y-34733220D01*
X48179610Y-34640287D01*
X48272590Y-34572732D01*
X48345213Y-34519971D01*
X48345215Y-34519968D01*
X48345219Y-34519966D01*
X48489966Y-34375219D01*
X48489968Y-34375215D01*
X48489971Y-34375213D01*
X48610284Y-34209614D01*
X48610286Y-34209611D01*
X48610287Y-34209610D01*
X48657516Y-34116917D01*
X48705489Y-34066123D01*
X48773310Y-34049328D01*
X48839445Y-34071865D01*
X48878485Y-34116919D01*
X48925715Y-34209614D01*
X49046028Y-34375213D01*
X49190786Y-34519971D01*
X49311226Y-34607474D01*
X49356390Y-34640287D01*
X49470959Y-34698663D01*
X49538776Y-34733218D01*
X49538778Y-34733218D01*
X49538781Y-34733220D01*
X49643137Y-34767127D01*
X49733465Y-34796477D01*
X49834557Y-34812488D01*
X49935648Y-34828500D01*
X49935649Y-34828500D01*
X50140351Y-34828500D01*
X50140352Y-34828500D01*
X50342534Y-34796477D01*
X50537219Y-34733220D01*
X50719610Y-34640287D01*
X50812590Y-34572732D01*
X50885213Y-34519971D01*
X50885215Y-34519968D01*
X50885219Y-34519966D01*
X51029966Y-34375219D01*
X51029968Y-34375215D01*
X51029971Y-34375213D01*
X51150284Y-34209614D01*
X51150286Y-34209611D01*
X51150287Y-34209610D01*
X51197516Y-34116917D01*
X51245489Y-34066123D01*
X51313310Y-34049328D01*
X51379445Y-34071865D01*
X51418485Y-34116919D01*
X51465715Y-34209614D01*
X51586028Y-34375213D01*
X51730786Y-34519971D01*
X51851226Y-34607474D01*
X51896390Y-34640287D01*
X52010959Y-34698663D01*
X52078776Y-34733218D01*
X52078778Y-34733218D01*
X52078781Y-34733220D01*
X52183137Y-34767127D01*
X52273465Y-34796477D01*
X52374557Y-34812488D01*
X52475648Y-34828500D01*
X52475649Y-34828500D01*
X52680351Y-34828500D01*
X52680352Y-34828500D01*
X52882534Y-34796477D01*
X53077219Y-34733220D01*
X53259610Y-34640287D01*
X53352590Y-34572732D01*
X53425213Y-34519971D01*
X53425215Y-34519968D01*
X53425219Y-34519966D01*
X53569966Y-34375219D01*
X53569968Y-34375215D01*
X53569971Y-34375213D01*
X53648227Y-34267501D01*
X53690287Y-34209610D01*
X53783220Y-34027219D01*
X53846477Y-33832534D01*
X53878500Y-33630352D01*
X53878500Y-33425648D01*
X53859798Y-33307569D01*
X53846477Y-33223465D01*
X53783218Y-33028776D01*
X53737515Y-32939080D01*
X53690287Y-32846390D01*
X53682556Y-32835749D01*
X53569971Y-32680786D01*
X53425219Y-32536034D01*
X53425211Y-32536028D01*
X53344850Y-32477643D01*
X53344849Y-32477641D01*
X53259613Y-32415715D01*
X53259612Y-32415714D01*
X53259610Y-32415713D01*
X53202653Y-32386691D01*
X53077223Y-32322781D01*
X52882534Y-32259522D01*
X52707995Y-32231878D01*
X52680352Y-32227500D01*
X52475648Y-32227500D01*
X52451329Y-32231351D01*
X52273465Y-32259522D01*
X52078776Y-32322781D01*
X51896386Y-32415715D01*
X51730786Y-32536028D01*
X51586028Y-32680786D01*
X51465715Y-32846386D01*
X51418485Y-32939080D01*
X51370510Y-32989876D01*
X51302689Y-33006671D01*
X51236554Y-32984134D01*
X51197515Y-32939080D01*
X51196883Y-32937840D01*
X51150287Y-32846390D01*
X51142556Y-32835749D01*
X51029971Y-32680786D01*
X50885213Y-32536028D01*
X50719613Y-32415715D01*
X50719612Y-32415714D01*
X50719610Y-32415713D01*
X50662653Y-32386691D01*
X50537223Y-32322781D01*
X50342534Y-32259522D01*
X50167995Y-32231878D01*
X50140352Y-32227500D01*
X49935648Y-32227500D01*
X49911329Y-32231351D01*
X49733465Y-32259522D01*
X49538776Y-32322781D01*
X49356386Y-32415715D01*
X49190786Y-32536028D01*
X49046028Y-32680786D01*
X48925715Y-32846386D01*
X48878485Y-32939080D01*
X48830510Y-32989876D01*
X48762689Y-33006671D01*
X48696554Y-32984134D01*
X48657515Y-32939080D01*
X48656883Y-32937840D01*
X48610287Y-32846390D01*
X48602556Y-32835749D01*
X48489971Y-32680786D01*
X48345213Y-32536028D01*
X48179613Y-32415715D01*
X48179612Y-32415714D01*
X48179610Y-32415713D01*
X48122653Y-32386691D01*
X47997223Y-32322781D01*
X47802534Y-32259522D01*
X47627995Y-32231878D01*
X47600352Y-32227500D01*
X47395648Y-32227500D01*
X47371329Y-32231351D01*
X47193465Y-32259522D01*
X46998776Y-32322781D01*
X46816386Y-32415715D01*
X46650786Y-32536028D01*
X46506028Y-32680786D01*
X46385715Y-32846386D01*
X46338485Y-32939080D01*
X46290510Y-32989876D01*
X46222689Y-33006671D01*
X46156554Y-32984134D01*
X46117515Y-32939080D01*
X46116883Y-32937840D01*
X46070287Y-32846390D01*
X46062556Y-32835749D01*
X45949971Y-32680786D01*
X45805213Y-32536028D01*
X45639613Y-32415715D01*
X45639612Y-32415714D01*
X45639610Y-32415713D01*
X45582653Y-32386691D01*
X45457223Y-32322781D01*
X45262534Y-32259522D01*
X45087995Y-32231878D01*
X45060352Y-32227500D01*
X44855648Y-32227500D01*
X44831329Y-32231351D01*
X44653465Y-32259522D01*
X44458776Y-32322781D01*
X44276386Y-32415715D01*
X44110786Y-32536028D01*
X43966028Y-32680786D01*
X43845715Y-32846386D01*
X43798485Y-32939080D01*
X43750510Y-32989876D01*
X43682689Y-33006671D01*
X43616554Y-32984134D01*
X43577515Y-32939080D01*
X43576883Y-32937840D01*
X43530287Y-32846390D01*
X43522556Y-32835749D01*
X43409971Y-32680786D01*
X43265213Y-32536028D01*
X43099613Y-32415715D01*
X43099612Y-32415714D01*
X43099610Y-32415713D01*
X43042653Y-32386691D01*
X42917223Y-32322781D01*
X42722534Y-32259522D01*
X42547995Y-32231878D01*
X42520352Y-32227500D01*
X42315648Y-32227500D01*
X42291329Y-32231351D01*
X42113465Y-32259522D01*
X41918776Y-32322781D01*
X41736386Y-32415715D01*
X41570786Y-32536028D01*
X41426028Y-32680786D01*
X41305715Y-32846386D01*
X41258485Y-32939080D01*
X41210510Y-32989876D01*
X41142689Y-33006671D01*
X41076554Y-32984134D01*
X41037515Y-32939080D01*
X41036883Y-32937840D01*
X40990287Y-32846390D01*
X40982556Y-32835749D01*
X40869971Y-32680786D01*
X40725213Y-32536028D01*
X40559613Y-32415715D01*
X40559612Y-32415714D01*
X40559610Y-32415713D01*
X40502653Y-32386691D01*
X40377223Y-32322781D01*
X40182534Y-32259522D01*
X40007995Y-32231878D01*
X39980352Y-32227500D01*
X39775648Y-32227500D01*
X39751329Y-32231351D01*
X39573465Y-32259522D01*
X39378776Y-32322781D01*
X39196386Y-32415715D01*
X39030786Y-32536028D01*
X38886028Y-32680786D01*
X38765715Y-32846386D01*
X38718485Y-32939080D01*
X38670510Y-32989876D01*
X38602689Y-33006671D01*
X38536554Y-32984134D01*
X38497515Y-32939080D01*
X38496883Y-32937840D01*
X38450287Y-32846390D01*
X38442556Y-32835749D01*
X38329971Y-32680786D01*
X38185213Y-32536028D01*
X38019613Y-32415715D01*
X38019612Y-32415714D01*
X38019610Y-32415713D01*
X37962653Y-32386691D01*
X37837223Y-32322781D01*
X37642534Y-32259522D01*
X37467995Y-32231878D01*
X37440352Y-32227500D01*
X37235648Y-32227500D01*
X37211329Y-32231351D01*
X37033465Y-32259522D01*
X36838776Y-32322781D01*
X36656386Y-32415715D01*
X36490786Y-32536028D01*
X36346028Y-32680786D01*
X36225715Y-32846386D01*
X36178485Y-32939080D01*
X36130510Y-32989876D01*
X36062689Y-33006671D01*
X35996554Y-32984134D01*
X35957515Y-32939080D01*
X35956883Y-32937840D01*
X35910287Y-32846390D01*
X35902556Y-32835749D01*
X35789971Y-32680786D01*
X35645213Y-32536028D01*
X35479613Y-32415715D01*
X35479612Y-32415714D01*
X35479610Y-32415713D01*
X35422653Y-32386691D01*
X35297223Y-32322781D01*
X35102534Y-32259522D01*
X34927995Y-32231878D01*
X34900352Y-32227500D01*
X34695648Y-32227500D01*
X34671329Y-32231351D01*
X34493465Y-32259522D01*
X34298776Y-32322781D01*
X34116386Y-32415715D01*
X33950786Y-32536028D01*
X33806028Y-32680786D01*
X33685713Y-32846388D01*
X33638203Y-32939630D01*
X33590228Y-32990426D01*
X33522407Y-33007220D01*
X33456272Y-32984682D01*
X33417234Y-32939628D01*
X33369861Y-32846652D01*
X33337474Y-32802077D01*
X33337474Y-32802076D01*
X32658000Y-33481551D01*
X32658000Y-33475339D01*
X32630741Y-33373606D01*
X32578080Y-33282394D01*
X32503606Y-33207920D01*
X32412394Y-33155259D01*
X32310661Y-33128000D01*
X32304446Y-33128000D01*
X32983922Y-32448524D01*
X32983921Y-32448523D01*
X32939359Y-32416147D01*
X32939350Y-32416141D01*
X32757031Y-32323244D01*
X32562417Y-32260009D01*
X32358146Y-32227656D01*
X32295011Y-32197727D01*
X32258080Y-32138415D01*
X32259078Y-32068553D01*
X32289860Y-32017505D01*
X33437353Y-30870014D01*
X86388800Y-30870014D01*
X86388800Y-31105985D01*
X86419599Y-31339914D01*
X86480670Y-31567837D01*
X86570960Y-31785819D01*
X86570965Y-31785828D01*
X86688944Y-31990171D01*
X86688945Y-31990172D01*
X86751521Y-32071723D01*
X87587758Y-31235487D01*
X87612778Y-31295890D01*
X87683912Y-31402351D01*
X87774449Y-31492888D01*
X87880910Y-31564022D01*
X87941311Y-31589041D01*
X87105075Y-32425277D01*
X87186627Y-32487854D01*
X87186628Y-32487855D01*
X87390971Y-32605834D01*
X87390980Y-32605839D01*
X87608963Y-32696129D01*
X87608961Y-32696129D01*
X87836885Y-32757200D01*
X88070814Y-32787999D01*
X88070829Y-32788000D01*
X88306771Y-32788000D01*
X88306785Y-32787999D01*
X88540714Y-32757200D01*
X88768637Y-32696129D01*
X88986619Y-32605839D01*
X88986628Y-32605834D01*
X89190981Y-32487850D01*
X89272523Y-32425279D01*
X89272523Y-32425276D01*
X88436287Y-31589041D01*
X88496690Y-31564022D01*
X88603151Y-31492888D01*
X88693688Y-31402351D01*
X88764822Y-31295890D01*
X88789841Y-31235487D01*
X89626076Y-32071723D01*
X89626079Y-32071723D01*
X89688650Y-31990181D01*
X89806634Y-31785828D01*
X89806639Y-31785819D01*
X89896929Y-31567837D01*
X89958000Y-31339914D01*
X89988799Y-31105985D01*
X89988800Y-31105971D01*
X89988800Y-30870028D01*
X89988799Y-30870014D01*
X89958000Y-30636085D01*
X89896929Y-30408162D01*
X89806639Y-30190180D01*
X89806634Y-30190171D01*
X89688655Y-29985828D01*
X89688654Y-29985827D01*
X89626077Y-29904275D01*
X88789841Y-30740511D01*
X88764822Y-30680110D01*
X88693688Y-30573649D01*
X88603151Y-30483112D01*
X88496690Y-30411978D01*
X88436288Y-30386958D01*
X89272523Y-29550721D01*
X89190972Y-29488145D01*
X89190971Y-29488144D01*
X88986628Y-29370165D01*
X88986619Y-29370160D01*
X88768636Y-29279870D01*
X88768638Y-29279870D01*
X88540714Y-29218799D01*
X88306785Y-29188000D01*
X88070814Y-29188000D01*
X87836885Y-29218799D01*
X87608962Y-29279870D01*
X87390980Y-29370160D01*
X87390971Y-29370165D01*
X87186628Y-29488144D01*
X87186618Y-29488150D01*
X87105075Y-29550720D01*
X87105075Y-29550721D01*
X87941312Y-30386958D01*
X87880910Y-30411978D01*
X87774449Y-30483112D01*
X87683912Y-30573649D01*
X87612778Y-30680110D01*
X87587758Y-30740511D01*
X86751521Y-29904275D01*
X86751520Y-29904275D01*
X86688950Y-29985818D01*
X86688944Y-29985828D01*
X86570965Y-30190171D01*
X86570960Y-30190180D01*
X86480670Y-30408162D01*
X86419599Y-30636085D01*
X86388800Y-30870014D01*
X33437353Y-30870014D01*
X33802548Y-30504819D01*
X33863871Y-30471334D01*
X33890229Y-30468500D01*
X52905920Y-30468500D01*
X53003462Y-30449096D01*
X53050913Y-30439658D01*
X53187495Y-30383084D01*
X53236729Y-30350186D01*
X53254968Y-30338000D01*
X53261071Y-30333921D01*
X53310416Y-30300952D01*
X57821371Y-25789995D01*
X86388300Y-25789995D01*
X86388300Y-26026004D01*
X86388301Y-26026020D01*
X86419106Y-26260010D01*
X86480194Y-26487993D01*
X86570514Y-26706045D01*
X86570519Y-26706056D01*
X86641477Y-26828957D01*
X86688527Y-26910450D01*
X86688529Y-26910453D01*
X86688530Y-26910454D01*
X86832206Y-27097697D01*
X86832212Y-27097704D01*
X86999095Y-27264587D01*
X86999101Y-27264592D01*
X87186350Y-27408273D01*
X87317718Y-27484118D01*
X87390743Y-27526280D01*
X87390748Y-27526282D01*
X87390751Y-27526284D01*
X87608807Y-27616606D01*
X87836786Y-27677693D01*
X88070789Y-27708500D01*
X88070796Y-27708500D01*
X88306804Y-27708500D01*
X88306811Y-27708500D01*
X88540814Y-27677693D01*
X88768793Y-27616606D01*
X88986849Y-27526284D01*
X89191250Y-27408273D01*
X89378499Y-27264592D01*
X89545392Y-27097699D01*
X89689073Y-26910450D01*
X89807084Y-26706049D01*
X89897406Y-26487993D01*
X89958493Y-26260014D01*
X89989300Y-26026011D01*
X89989300Y-25789989D01*
X89958493Y-25555986D01*
X89897406Y-25328007D01*
X89807084Y-25109951D01*
X89807082Y-25109948D01*
X89807080Y-25109943D01*
X89764918Y-25036918D01*
X89689073Y-24905550D01*
X89604310Y-24795084D01*
X89545393Y-24718302D01*
X89545387Y-24718295D01*
X89378504Y-24551412D01*
X89378497Y-24551406D01*
X89191254Y-24407730D01*
X89191253Y-24407729D01*
X89191250Y-24407727D01*
X89109757Y-24360677D01*
X88986856Y-24289719D01*
X88986845Y-24289714D01*
X88768793Y-24199394D01*
X88540810Y-24138306D01*
X88306820Y-24107501D01*
X88306817Y-24107500D01*
X88306811Y-24107500D01*
X88070789Y-24107500D01*
X88070783Y-24107500D01*
X88070779Y-24107501D01*
X87836789Y-24138306D01*
X87608806Y-24199394D01*
X87390754Y-24289714D01*
X87390743Y-24289719D01*
X87186345Y-24407730D01*
X86999102Y-24551406D01*
X86999095Y-24551412D01*
X86832212Y-24718295D01*
X86832206Y-24718302D01*
X86688530Y-24905545D01*
X86570519Y-25109943D01*
X86570514Y-25109954D01*
X86480194Y-25328006D01*
X86419106Y-25555989D01*
X86388301Y-25789979D01*
X86388300Y-25789995D01*
X57821371Y-25789995D01*
X58694548Y-24916818D01*
X58755871Y-24883334D01*
X58782229Y-24880500D01*
X84960720Y-24880500D01*
X85058262Y-24861096D01*
X85105713Y-24851658D01*
X85242295Y-24795084D01*
X85298544Y-24757500D01*
X85365216Y-24712952D01*
X87505150Y-22573016D01*
X87566471Y-22539533D01*
X87624921Y-22540923D01*
X87836786Y-22597693D01*
X88070789Y-22628500D01*
X88070796Y-22628500D01*
X88306804Y-22628500D01*
X88306811Y-22628500D01*
X88540814Y-22597693D01*
X88768793Y-22536606D01*
X88986849Y-22446284D01*
X89191250Y-22328273D01*
X89378499Y-22184592D01*
X89545392Y-22017699D01*
X89689073Y-21830450D01*
X89807084Y-21626049D01*
X89897406Y-21407993D01*
X89958493Y-21180014D01*
X89989300Y-20946011D01*
X89989300Y-20709989D01*
X89958493Y-20475986D01*
X89897406Y-20248007D01*
X89807084Y-20029951D01*
X89807082Y-20029948D01*
X89807080Y-20029943D01*
X89737836Y-19910010D01*
X89689073Y-19825550D01*
X89574328Y-19676011D01*
X89545393Y-19638302D01*
X89545387Y-19638295D01*
X89378504Y-19471412D01*
X89378497Y-19471406D01*
X89191254Y-19327730D01*
X89191253Y-19327729D01*
X89191250Y-19327727D01*
X89109757Y-19280677D01*
X88986856Y-19209719D01*
X88986845Y-19209714D01*
X88768793Y-19119394D01*
X88540810Y-19058306D01*
X88306820Y-19027501D01*
X88306817Y-19027500D01*
X88306811Y-19027500D01*
X88070789Y-19027500D01*
X88070783Y-19027500D01*
X88070779Y-19027501D01*
X87836789Y-19058306D01*
X87608806Y-19119394D01*
X87390754Y-19209714D01*
X87390743Y-19209719D01*
X87186345Y-19327730D01*
X86999102Y-19471406D01*
X86999095Y-19471412D01*
X86832212Y-19638295D01*
X86832206Y-19638302D01*
X86688530Y-19825545D01*
X86570519Y-20029943D01*
X86570514Y-20029954D01*
X86480194Y-20248006D01*
X86419106Y-20475989D01*
X86388301Y-20709979D01*
X86388300Y-20709995D01*
X86388300Y-20946004D01*
X86388301Y-20946020D01*
X86419106Y-21180012D01*
X86475875Y-21391875D01*
X86474212Y-21461725D01*
X86443781Y-21511649D01*
X84612251Y-23343181D01*
X84550928Y-23376666D01*
X84524570Y-23379500D01*
X58346080Y-23379500D01*
X58201092Y-23408340D01*
X58201082Y-23408343D01*
X58064511Y-23464912D01*
X58064498Y-23464919D01*
X57941584Y-23547048D01*
X57941580Y-23547051D01*
X52557451Y-28931181D01*
X52496128Y-28964666D01*
X52469770Y-28967500D01*
X33454076Y-28967500D01*
X33425242Y-28973234D01*
X33425243Y-28973235D01*
X33309093Y-28996339D01*
X33309083Y-28996342D01*
X33229081Y-29029479D01*
X33229082Y-29029480D01*
X33172505Y-29052915D01*
X33090372Y-29107795D01*
X33049585Y-29135047D01*
X33049581Y-29135050D01*
X29983105Y-32201526D01*
X29921782Y-32235011D01*
X29876026Y-32236318D01*
X29820352Y-32227500D01*
X29615648Y-32227500D01*
X29591329Y-32231351D01*
X29413465Y-32259522D01*
X29218776Y-32322781D01*
X29036386Y-32415715D01*
X28870786Y-32536028D01*
X28726032Y-32680782D01*
X28726028Y-32680787D01*
X28692900Y-32726385D01*
X28637571Y-32769051D01*
X28592582Y-32777500D01*
X21592280Y-32777500D01*
X21447292Y-32806340D01*
X21447282Y-32806343D01*
X21310711Y-32862912D01*
X21310698Y-32862919D01*
X21187784Y-32945048D01*
X21187780Y-32945051D01*
X7072305Y-47060526D01*
X7010982Y-47094011D01*
X6965226Y-47095318D01*
X6909552Y-47086500D01*
X6704848Y-47086500D01*
X6680529Y-47090351D01*
X6502665Y-47118522D01*
X6307976Y-47181781D01*
X6125586Y-47274715D01*
X5959986Y-47395028D01*
X5815228Y-47539786D01*
X5694913Y-47705388D01*
X5647403Y-47798630D01*
X5599428Y-47849426D01*
X5531607Y-47866220D01*
X5465472Y-47843682D01*
X5426434Y-47798628D01*
X5379061Y-47705652D01*
X5346674Y-47661077D01*
X5346674Y-47661076D01*
X4750162Y-48257590D01*
X4733125Y-48194007D01*
X4667299Y-48079993D01*
X4574207Y-47986901D01*
X4460193Y-47921075D01*
X4396608Y-47904037D01*
X4993122Y-47307524D01*
X4993121Y-47307523D01*
X4948559Y-47275147D01*
X4948550Y-47275141D01*
X4766231Y-47182244D01*
X4571617Y-47119009D01*
X4369517Y-47087000D01*
X4164883Y-47087000D01*
X3962782Y-47119009D01*
X3768168Y-47182244D01*
X3585844Y-47275143D01*
X3541277Y-47307523D01*
X3541277Y-47307524D01*
X4137791Y-47904037D01*
X4074207Y-47921075D01*
X3960193Y-47986901D01*
X3867101Y-48079993D01*
X3801275Y-48194007D01*
X3784237Y-48257590D01*
X3187724Y-47661077D01*
X3187723Y-47661077D01*
X3155343Y-47705644D01*
X3062444Y-47887968D01*
X2999209Y-48082582D01*
X2967200Y-48284682D01*
X500500Y-48284682D01*
X500500Y-36491755D01*
X1345100Y-36491755D01*
X1345100Y-37189600D01*
X2369822Y-37189600D01*
X2325767Y-37265906D01*
X2295100Y-37380356D01*
X2295100Y-37498844D01*
X2325767Y-37613294D01*
X2369822Y-37689600D01*
X1345100Y-37689600D01*
X1345100Y-38387444D01*
X1351501Y-38446972D01*
X1351503Y-38446979D01*
X1401745Y-38581686D01*
X1401749Y-38581693D01*
X1487909Y-38696787D01*
X1487912Y-38696790D01*
X1603006Y-38782950D01*
X1603013Y-38782954D01*
X1737720Y-38833196D01*
X1737727Y-38833198D01*
X1797255Y-38839599D01*
X1797272Y-38839600D01*
X2495100Y-38839600D01*
X2495100Y-37814877D01*
X2571406Y-37858933D01*
X2685856Y-37889600D01*
X2804344Y-37889600D01*
X2918794Y-37858933D01*
X2995100Y-37814877D01*
X2995100Y-38839600D01*
X3692928Y-38839600D01*
X3692944Y-38839599D01*
X3752472Y-38833198D01*
X3752479Y-38833196D01*
X3887186Y-38782954D01*
X3887193Y-38782950D01*
X4002287Y-38696790D01*
X4002290Y-38696787D01*
X4088450Y-38581693D01*
X4088454Y-38581686D01*
X4118313Y-38501631D01*
X4160184Y-38445697D01*
X4225648Y-38421280D01*
X4293921Y-38436131D01*
X4322176Y-38457283D01*
X4372736Y-38507843D01*
X4372741Y-38507847D01*
X4528292Y-38620860D01*
X4551078Y-38637415D01*
X4667601Y-38696787D01*
X4747493Y-38737495D01*
X4747496Y-38737496D01*
X4852321Y-38771555D01*
X4957149Y-38805615D01*
X5174878Y-38840100D01*
X5174879Y-38840100D01*
X5395321Y-38840100D01*
X5395322Y-38840100D01*
X5613051Y-38805615D01*
X5822706Y-38737495D01*
X6019122Y-38637415D01*
X6197465Y-38507842D01*
X6353342Y-38351965D01*
X6482915Y-38173622D01*
X6582995Y-37977206D01*
X6651115Y-37767551D01*
X6685600Y-37549822D01*
X6685600Y-37329378D01*
X6651115Y-37111649D01*
X6617055Y-37006821D01*
X6582996Y-36901996D01*
X6582995Y-36901993D01*
X6548337Y-36833975D01*
X6482915Y-36705578D01*
X6466360Y-36682792D01*
X6353347Y-36527241D01*
X6353343Y-36527236D01*
X6197463Y-36371356D01*
X6197458Y-36371352D01*
X6019125Y-36241787D01*
X6019124Y-36241786D01*
X6019122Y-36241785D01*
X5956196Y-36209722D01*
X5822706Y-36141704D01*
X5822703Y-36141703D01*
X5613052Y-36073585D01*
X5504186Y-36056342D01*
X5395322Y-36039100D01*
X5174878Y-36039100D01*
X5102301Y-36050595D01*
X4957147Y-36073585D01*
X4747496Y-36141703D01*
X4747493Y-36141704D01*
X4551074Y-36241787D01*
X4372741Y-36371352D01*
X4372736Y-36371356D01*
X4322175Y-36421917D01*
X4260852Y-36455401D01*
X4191160Y-36450416D01*
X4135227Y-36408545D01*
X4118313Y-36377568D01*
X4088454Y-36297513D01*
X4088450Y-36297506D01*
X4002290Y-36182412D01*
X4002287Y-36182409D01*
X3887193Y-36096249D01*
X3887186Y-36096245D01*
X3752479Y-36046003D01*
X3752472Y-36046001D01*
X3692944Y-36039600D01*
X2995100Y-36039600D01*
X2995100Y-37064322D01*
X2918794Y-37020267D01*
X2804344Y-36989600D01*
X2685856Y-36989600D01*
X2571406Y-37020267D01*
X2495100Y-37064322D01*
X2495100Y-36039600D01*
X1797255Y-36039600D01*
X1737727Y-36046001D01*
X1737720Y-36046003D01*
X1603013Y-36096245D01*
X1603006Y-36096249D01*
X1487912Y-36182409D01*
X1487909Y-36182412D01*
X1401749Y-36297506D01*
X1401745Y-36297513D01*
X1351503Y-36432220D01*
X1351501Y-36432227D01*
X1345100Y-36491755D01*
X500500Y-36491755D01*
X500500Y-19439995D01*
X5565500Y-19439995D01*
X5565500Y-19676004D01*
X5565501Y-19676020D01*
X5596306Y-19910010D01*
X5657394Y-20137993D01*
X5747714Y-20356045D01*
X5747719Y-20356056D01*
X5816962Y-20475986D01*
X5865727Y-20560450D01*
X5865729Y-20560453D01*
X5865730Y-20560454D01*
X6009406Y-20747697D01*
X6009412Y-20747704D01*
X6176295Y-20914587D01*
X6176301Y-20914592D01*
X6363550Y-21058273D01*
X6494918Y-21134118D01*
X6567943Y-21176280D01*
X6567948Y-21176282D01*
X6567951Y-21176284D01*
X6786007Y-21266606D01*
X7013986Y-21327693D01*
X7247989Y-21358500D01*
X7247996Y-21358500D01*
X7484004Y-21358500D01*
X7484011Y-21358500D01*
X7718014Y-21327693D01*
X7945993Y-21266606D01*
X8164049Y-21176284D01*
X8368450Y-21058273D01*
X8555699Y-20914592D01*
X8722592Y-20747699D01*
X8866273Y-20560450D01*
X8984284Y-20356049D01*
X9074606Y-20137993D01*
X9135693Y-19910014D01*
X9166500Y-19676011D01*
X9166500Y-19439989D01*
X9135693Y-19205986D01*
X9074606Y-18978007D01*
X8984284Y-18759951D01*
X8866273Y-18555550D01*
X8722592Y-18368301D01*
X8722587Y-18368295D01*
X8555704Y-18201412D01*
X8555697Y-18201406D01*
X8368454Y-18057730D01*
X8368453Y-18057729D01*
X8368450Y-18057727D01*
X8254478Y-17991925D01*
X8164056Y-17939719D01*
X8164045Y-17939714D01*
X7945993Y-17849394D01*
X7718010Y-17788306D01*
X7484020Y-17757501D01*
X7484017Y-17757500D01*
X7484011Y-17757500D01*
X7247989Y-17757500D01*
X7247983Y-17757500D01*
X7247979Y-17757501D01*
X7013989Y-17788306D01*
X6786006Y-17849394D01*
X6567954Y-17939714D01*
X6567943Y-17939719D01*
X6363545Y-18057730D01*
X6176302Y-18201406D01*
X6176295Y-18201412D01*
X6009412Y-18368295D01*
X6009406Y-18368302D01*
X5865730Y-18555545D01*
X5747719Y-18759943D01*
X5747714Y-18759954D01*
X5657394Y-18978006D01*
X5596306Y-19205989D01*
X5565501Y-19439979D01*
X5565500Y-19439995D01*
X500500Y-19439995D01*
X500500Y-13378013D01*
X5566000Y-13378013D01*
X5566000Y-14228000D01*
X6765999Y-14228000D01*
X6740979Y-14288402D01*
X6716000Y-14413981D01*
X6716000Y-14542019D01*
X6740979Y-14667598D01*
X6765999Y-14728000D01*
X5566001Y-14728000D01*
X5566001Y-15577986D01*
X5576494Y-15680697D01*
X5631641Y-15847119D01*
X5631643Y-15847124D01*
X5723684Y-15996345D01*
X5847654Y-16120315D01*
X5996875Y-16212356D01*
X5996880Y-16212358D01*
X6163302Y-16267505D01*
X6163309Y-16267506D01*
X6266019Y-16277999D01*
X7115999Y-16277999D01*
X7116000Y-16277998D01*
X7116000Y-15078001D01*
X7176402Y-15103021D01*
X7301981Y-15128000D01*
X7430019Y-15128000D01*
X7555598Y-15103021D01*
X7616000Y-15078001D01*
X7616000Y-16277999D01*
X8465972Y-16277999D01*
X8465986Y-16277998D01*
X8568697Y-16267505D01*
X8735119Y-16212358D01*
X8735124Y-16212356D01*
X8884345Y-16120315D01*
X9008315Y-15996345D01*
X9100356Y-15847124D01*
X9100358Y-15847119D01*
X9155505Y-15680697D01*
X9155506Y-15680690D01*
X9165999Y-15577986D01*
X9166000Y-15577973D01*
X9166000Y-14728000D01*
X7966001Y-14728000D01*
X7991021Y-14667598D01*
X8016000Y-14542019D01*
X8016000Y-14413981D01*
X7991021Y-14288402D01*
X7966001Y-14228000D01*
X9165999Y-14228000D01*
X9165999Y-13378028D01*
X9165998Y-13378013D01*
X9155505Y-13275302D01*
X9100358Y-13108880D01*
X9100356Y-13108875D01*
X9008315Y-12959654D01*
X8884345Y-12835684D01*
X8735124Y-12743643D01*
X8735119Y-12743641D01*
X8568697Y-12688494D01*
X8568690Y-12688493D01*
X8465986Y-12678000D01*
X7616000Y-12678000D01*
X7616000Y-13877998D01*
X7555598Y-13852979D01*
X7430019Y-13828000D01*
X7301981Y-13828000D01*
X7176402Y-13852979D01*
X7116000Y-13877998D01*
X7116000Y-12678000D01*
X6266028Y-12678000D01*
X6266012Y-12678001D01*
X6163302Y-12688494D01*
X5996880Y-12743641D01*
X5996875Y-12743643D01*
X5847654Y-12835684D01*
X5723684Y-12959654D01*
X5631643Y-13108875D01*
X5631641Y-13108880D01*
X5576494Y-13275302D01*
X5576493Y-13275309D01*
X5566000Y-13378013D01*
X500500Y-13378013D01*
X500500Y-4818206D01*
X1299500Y-4818206D01*
X1299500Y-5181794D01*
X1310337Y-5291829D01*
X1335137Y-5543630D01*
X1406064Y-5900212D01*
X1406067Y-5900223D01*
X1511614Y-6248165D01*
X1650754Y-6584078D01*
X1650756Y-6584083D01*
X1822140Y-6904720D01*
X1822151Y-6904738D01*
X2024140Y-7207035D01*
X2024150Y-7207049D01*
X2254807Y-7488106D01*
X2511893Y-7745192D01*
X2511898Y-7745196D01*
X2511899Y-7745197D01*
X2792956Y-7975854D01*
X3095268Y-8177853D01*
X3095277Y-8177858D01*
X3095279Y-8177859D01*
X3415916Y-8349243D01*
X3415918Y-8349243D01*
X3415924Y-8349247D01*
X3751836Y-8488386D01*
X4099767Y-8593930D01*
X4099773Y-8593931D01*
X4099776Y-8593932D01*
X4099787Y-8593935D01*
X4456369Y-8664862D01*
X4818206Y-8700500D01*
X4818209Y-8700500D01*
X5181791Y-8700500D01*
X5181794Y-8700500D01*
X5543631Y-8664862D01*
X5662026Y-8641312D01*
X5900212Y-8593935D01*
X5900223Y-8593932D01*
X5900223Y-8593931D01*
X5900233Y-8593930D01*
X6248164Y-8488386D01*
X6584076Y-8349247D01*
X6904732Y-8177853D01*
X7207044Y-7975854D01*
X7488101Y-7745197D01*
X7745197Y-7488101D01*
X7975854Y-7207044D01*
X8177853Y-6904732D01*
X8349247Y-6584076D01*
X8488386Y-6248164D01*
X8593930Y-5900233D01*
X8593932Y-5900223D01*
X8593935Y-5900212D01*
X8664862Y-5543630D01*
X8684434Y-5344911D01*
X8700500Y-5181794D01*
X8700500Y-4818206D01*
X8664862Y-4456369D01*
X8635268Y-4307588D01*
X8593935Y-4099787D01*
X8593929Y-4099763D01*
X8584504Y-4068696D01*
X8541865Y-3928135D01*
X18207500Y-3928135D01*
X18207500Y-5723870D01*
X18207501Y-5723876D01*
X18213908Y-5783483D01*
X18264202Y-5918328D01*
X18264206Y-5918335D01*
X18350452Y-6033544D01*
X18350455Y-6033547D01*
X18465664Y-6119793D01*
X18465671Y-6119797D01*
X18597082Y-6168810D01*
X18653016Y-6210681D01*
X18677433Y-6276145D01*
X18662582Y-6344418D01*
X18641431Y-6372673D01*
X18527889Y-6486215D01*
X18402951Y-6658179D01*
X18306444Y-6847585D01*
X18240753Y-7049760D01*
X18207500Y-7259713D01*
X18207500Y-7472286D01*
X18240478Y-7680505D01*
X18240754Y-7682243D01*
X18261207Y-7745192D01*
X18306444Y-7884414D01*
X18402951Y-8073820D01*
X18527890Y-8245786D01*
X18678213Y-8396109D01*
X18850182Y-8521050D01*
X18858946Y-8525516D01*
X18909742Y-8573491D01*
X18926536Y-8641312D01*
X18903998Y-8707447D01*
X18858946Y-8746484D01*
X18850182Y-8750949D01*
X18678213Y-8875890D01*
X18527890Y-9026213D01*
X18402951Y-9198179D01*
X18306444Y-9387585D01*
X18240753Y-9589760D01*
X18207500Y-9799713D01*
X18207500Y-10012286D01*
X18240753Y-10222239D01*
X18306444Y-10424414D01*
X18402951Y-10613820D01*
X18527890Y-10785786D01*
X18678213Y-10936109D01*
X18850182Y-11061050D01*
X18858946Y-11065516D01*
X18909742Y-11113491D01*
X18926536Y-11181312D01*
X18903998Y-11247447D01*
X18858946Y-11286484D01*
X18850182Y-11290949D01*
X18678213Y-11415890D01*
X18527890Y-11566213D01*
X18402951Y-11738179D01*
X18306444Y-11927585D01*
X18240753Y-12129760D01*
X18207500Y-12339713D01*
X18207500Y-12552286D01*
X18240753Y-12762239D01*
X18306444Y-12964414D01*
X18402951Y-13153820D01*
X18527890Y-13325786D01*
X18678213Y-13476109D01*
X18850182Y-13601050D01*
X18858946Y-13605516D01*
X18909742Y-13653491D01*
X18926536Y-13721312D01*
X18903998Y-13787447D01*
X18858946Y-13826484D01*
X18850182Y-13830949D01*
X18678213Y-13955890D01*
X18527890Y-14106213D01*
X18402951Y-14278179D01*
X18306444Y-14467585D01*
X18240753Y-14669760D01*
X18207500Y-14879713D01*
X18207500Y-15092286D01*
X18240753Y-15302239D01*
X18306444Y-15504414D01*
X18402951Y-15693820D01*
X18527890Y-15865786D01*
X18678213Y-16016109D01*
X18850179Y-16141048D01*
X18850181Y-16141049D01*
X18850184Y-16141051D01*
X18859493Y-16145794D01*
X18910290Y-16193766D01*
X18927087Y-16261587D01*
X18904552Y-16327722D01*
X18859505Y-16366760D01*
X18850446Y-16371376D01*
X18850440Y-16371380D01*
X18796282Y-16410727D01*
X18796282Y-16410728D01*
X19428591Y-17043037D01*
X19365007Y-17060075D01*
X19250993Y-17125901D01*
X19157901Y-17218993D01*
X19092075Y-17333007D01*
X19075037Y-17396591D01*
X18442728Y-16764282D01*
X18442727Y-16764282D01*
X18403380Y-16818439D01*
X18306904Y-17007782D01*
X18241242Y-17209869D01*
X18241242Y-17209872D01*
X18208000Y-17419753D01*
X18208000Y-17632246D01*
X18241242Y-17842127D01*
X18241242Y-17842130D01*
X18306904Y-18044217D01*
X18403375Y-18233550D01*
X18442728Y-18287716D01*
X19075037Y-17655408D01*
X19092075Y-17718993D01*
X19157901Y-17833007D01*
X19250993Y-17926099D01*
X19365007Y-17991925D01*
X19428590Y-18008962D01*
X18796282Y-18641269D01*
X18796282Y-18641270D01*
X18850449Y-18680624D01*
X19039782Y-18777095D01*
X19241870Y-18842757D01*
X19451754Y-18876000D01*
X19664246Y-18876000D01*
X19874127Y-18842757D01*
X19874130Y-18842757D01*
X20076217Y-18777095D01*
X20265554Y-18680622D01*
X20319716Y-18641270D01*
X20319717Y-18641270D01*
X19687408Y-18008962D01*
X19750993Y-17991925D01*
X19865007Y-17926099D01*
X19958099Y-17833007D01*
X20023925Y-17718993D01*
X20040962Y-17655408D01*
X20673270Y-18287717D01*
X20673270Y-18287716D01*
X20712622Y-18233554D01*
X20717514Y-18223954D01*
X20765488Y-18173157D01*
X20833308Y-18156361D01*
X20899444Y-18178897D01*
X20938486Y-18223954D01*
X20943375Y-18233550D01*
X20982728Y-18287716D01*
X21615037Y-17655408D01*
X21632075Y-17718993D01*
X21697901Y-17833007D01*
X21790993Y-17926099D01*
X21905007Y-17991925D01*
X21968590Y-18008962D01*
X21336282Y-18641269D01*
X21336282Y-18641270D01*
X21390449Y-18680624D01*
X21579782Y-18777095D01*
X21781870Y-18842757D01*
X21991754Y-18876000D01*
X22204246Y-18876000D01*
X22414127Y-18842757D01*
X22414130Y-18842757D01*
X22616217Y-18777095D01*
X22805554Y-18680622D01*
X22859716Y-18641270D01*
X22859717Y-18641270D01*
X22227408Y-18008962D01*
X22290993Y-17991925D01*
X22405007Y-17926099D01*
X22498099Y-17833007D01*
X22563925Y-17718993D01*
X22580962Y-17655409D01*
X23213270Y-18287717D01*
X23213270Y-18287716D01*
X23252622Y-18233554D01*
X23349095Y-18044217D01*
X23414757Y-17842130D01*
X23414757Y-17842127D01*
X23448000Y-17632246D01*
X23448000Y-17419753D01*
X23414757Y-17209872D01*
X23414757Y-17209869D01*
X23349095Y-17007782D01*
X23252624Y-16818449D01*
X23213270Y-16764282D01*
X23213269Y-16764282D01*
X22580962Y-17396590D01*
X22563925Y-17333007D01*
X22498099Y-17218993D01*
X22405007Y-17125901D01*
X22290993Y-17060075D01*
X22227409Y-17043037D01*
X22859716Y-16410728D01*
X22805547Y-16371373D01*
X22805547Y-16371372D01*
X22796500Y-16366763D01*
X22745706Y-16318788D01*
X22728912Y-16250966D01*
X22751451Y-16184832D01*
X22796508Y-16145793D01*
X22805816Y-16141051D01*
X22885007Y-16083515D01*
X22977786Y-16016109D01*
X22977788Y-16016106D01*
X22977792Y-16016104D01*
X23128104Y-15865792D01*
X23128106Y-15865788D01*
X23128109Y-15865786D01*
X23253048Y-15693820D01*
X23253047Y-15693820D01*
X23253051Y-15693816D01*
X23285569Y-15629995D01*
X86388300Y-15629995D01*
X86388300Y-15866004D01*
X86388301Y-15866020D01*
X86408060Y-16016109D01*
X86419107Y-16100014D01*
X86441834Y-16184832D01*
X86480194Y-16327993D01*
X86570514Y-16546045D01*
X86570519Y-16546056D01*
X86641477Y-16668957D01*
X86688527Y-16750450D01*
X86688529Y-16750453D01*
X86688530Y-16750454D01*
X86832206Y-16937697D01*
X86832212Y-16937704D01*
X86999095Y-17104587D01*
X86999101Y-17104592D01*
X87186350Y-17248273D01*
X87317718Y-17324118D01*
X87390743Y-17366280D01*
X87390748Y-17366282D01*
X87390751Y-17366284D01*
X87608807Y-17456606D01*
X87836786Y-17517693D01*
X88070789Y-17548500D01*
X88070796Y-17548500D01*
X88306804Y-17548500D01*
X88306811Y-17548500D01*
X88540814Y-17517693D01*
X88768793Y-17456606D01*
X88986849Y-17366284D01*
X89191250Y-17248273D01*
X89378499Y-17104592D01*
X89545392Y-16937699D01*
X89689073Y-16750450D01*
X89807084Y-16546049D01*
X89897406Y-16327993D01*
X89958493Y-16100014D01*
X89989300Y-15866011D01*
X89989300Y-15629989D01*
X89958493Y-15395986D01*
X89897406Y-15168007D01*
X89807084Y-14949951D01*
X89807082Y-14949948D01*
X89807080Y-14949943D01*
X89712363Y-14785890D01*
X89689073Y-14745550D01*
X89545392Y-14558301D01*
X89545387Y-14558295D01*
X89378504Y-14391412D01*
X89378497Y-14391406D01*
X89191254Y-14247730D01*
X89191253Y-14247729D01*
X89191250Y-14247727D01*
X89109757Y-14200677D01*
X88986856Y-14129719D01*
X88986845Y-14129714D01*
X88768793Y-14039394D01*
X88540810Y-13978306D01*
X88306820Y-13947501D01*
X88306817Y-13947500D01*
X88306811Y-13947500D01*
X88070789Y-13947500D01*
X88070783Y-13947500D01*
X88070779Y-13947501D01*
X87836789Y-13978306D01*
X87608806Y-14039394D01*
X87390754Y-14129714D01*
X87390743Y-14129719D01*
X87186345Y-14247730D01*
X86999102Y-14391406D01*
X86999095Y-14391412D01*
X86832212Y-14558295D01*
X86832206Y-14558302D01*
X86688530Y-14745545D01*
X86570519Y-14949943D01*
X86570514Y-14949954D01*
X86480194Y-15168006D01*
X86419106Y-15395989D01*
X86388301Y-15629979D01*
X86388300Y-15629995D01*
X23285569Y-15629995D01*
X23349557Y-15504412D01*
X23415246Y-15302243D01*
X23448500Y-15092287D01*
X23448500Y-14879713D01*
X23415246Y-14669757D01*
X23349557Y-14467588D01*
X23253051Y-14278184D01*
X23253049Y-14278181D01*
X23253048Y-14278179D01*
X23128109Y-14106213D01*
X22977786Y-13955890D01*
X22805820Y-13830951D01*
X22800028Y-13828000D01*
X22797054Y-13826485D01*
X22746259Y-13778512D01*
X22729463Y-13710692D01*
X22751999Y-13644556D01*
X22797054Y-13605515D01*
X22805816Y-13601051D01*
X22827789Y-13585086D01*
X22977786Y-13476109D01*
X22977788Y-13476106D01*
X22977792Y-13476104D01*
X23128104Y-13325792D01*
X23128106Y-13325788D01*
X23128109Y-13325786D01*
X23253048Y-13153820D01*
X23253047Y-13153820D01*
X23253051Y-13153816D01*
X23349557Y-12964412D01*
X23415246Y-12762243D01*
X23448500Y-12552287D01*
X23448500Y-12339713D01*
X23415246Y-12129757D01*
X23349557Y-11927588D01*
X23253051Y-11738184D01*
X23253049Y-11738181D01*
X23253048Y-11738179D01*
X23128109Y-11566213D01*
X22977786Y-11415890D01*
X22805820Y-11290951D01*
X22805115Y-11290591D01*
X22797054Y-11286485D01*
X22746259Y-11238512D01*
X22729463Y-11170692D01*
X22751999Y-11104556D01*
X22797054Y-11065515D01*
X22805816Y-11061051D01*
X22827789Y-11045086D01*
X22977786Y-10936109D01*
X22977788Y-10936106D01*
X22977792Y-10936104D01*
X23128104Y-10785792D01*
X23128106Y-10785788D01*
X23128109Y-10785786D01*
X23253048Y-10613820D01*
X23253047Y-10613820D01*
X23253051Y-10613816D01*
X23349557Y-10424412D01*
X23415246Y-10222243D01*
X23448500Y-10012287D01*
X23448500Y-9799713D01*
X23415246Y-9589757D01*
X23349557Y-9387588D01*
X23253051Y-9198184D01*
X23253049Y-9198181D01*
X23253048Y-9198179D01*
X23128109Y-9026213D01*
X22977786Y-8875890D01*
X22805820Y-8750951D01*
X22805115Y-8750591D01*
X22797054Y-8746485D01*
X22746259Y-8698512D01*
X22729463Y-8630692D01*
X22751999Y-8564556D01*
X22797054Y-8525515D01*
X22805816Y-8521051D01*
X22850777Y-8488385D01*
X22977786Y-8396109D01*
X22977788Y-8396106D01*
X22977792Y-8396104D01*
X23128104Y-8245792D01*
X23128106Y-8245788D01*
X23128109Y-8245786D01*
X23253048Y-8073820D01*
X23253047Y-8073820D01*
X23253051Y-8073816D01*
X23349557Y-7884412D01*
X23415246Y-7682243D01*
X23448500Y-7472287D01*
X23448500Y-7259713D01*
X23415246Y-7049757D01*
X23349557Y-6847588D01*
X23253051Y-6658184D01*
X23253049Y-6658181D01*
X23253048Y-6658179D01*
X23128109Y-6486213D01*
X22977786Y-6335890D01*
X22805820Y-6210951D01*
X22805115Y-6210591D01*
X22797054Y-6206485D01*
X22746259Y-6158512D01*
X22729463Y-6090692D01*
X22751999Y-6024556D01*
X22797054Y-5985515D01*
X22805816Y-5981051D01*
X22892138Y-5918335D01*
X22977786Y-5856109D01*
X22977788Y-5856106D01*
X22977792Y-5856104D01*
X23070763Y-5763133D01*
X54504500Y-5763133D01*
X54504500Y-6428866D01*
X54538245Y-6641922D01*
X54538246Y-6641926D01*
X54604908Y-6847089D01*
X54702843Y-7039299D01*
X54829641Y-7213821D01*
X54982179Y-7366359D01*
X55156701Y-7493157D01*
X55348911Y-7591092D01*
X55554074Y-7657754D01*
X55633973Y-7670408D01*
X55767134Y-7691500D01*
X55767139Y-7691500D01*
X55982866Y-7691500D01*
X56101230Y-7672752D01*
X56195926Y-7657754D01*
X56401089Y-7591092D01*
X56593299Y-7493157D01*
X56767821Y-7366359D01*
X56910186Y-7223993D01*
X56971505Y-7190511D01*
X57041197Y-7195495D01*
X57097131Y-7237366D01*
X57110248Y-7259277D01*
X57110640Y-7260118D01*
X57202684Y-7409345D01*
X57326654Y-7533315D01*
X57475875Y-7625356D01*
X57475880Y-7625358D01*
X57642302Y-7680505D01*
X57642309Y-7680506D01*
X57745019Y-7690999D01*
X58164999Y-7690999D01*
X58165000Y-7690998D01*
X58165000Y-6638709D01*
X58185339Y-6650452D01*
X58336667Y-6691000D01*
X58493333Y-6691000D01*
X58644661Y-6650452D01*
X58665000Y-6638709D01*
X58665000Y-7690999D01*
X59084972Y-7690999D01*
X59084986Y-7690998D01*
X59187697Y-7680505D01*
X59354119Y-7625358D01*
X59354124Y-7625356D01*
X59503345Y-7533315D01*
X59627315Y-7409345D01*
X59719356Y-7260124D01*
X59719358Y-7260119D01*
X59774505Y-7093697D01*
X59774506Y-7093690D01*
X59784999Y-6990986D01*
X59785000Y-6990973D01*
X59785000Y-6346000D01*
X58957709Y-6346000D01*
X58969452Y-6325661D01*
X59010000Y-6174333D01*
X59010000Y-6017667D01*
X58969452Y-5866339D01*
X58957709Y-5846000D01*
X59784999Y-5846000D01*
X59784999Y-5763133D01*
X61367500Y-5763133D01*
X61367500Y-6428866D01*
X61401245Y-6641922D01*
X61401246Y-6641926D01*
X61467908Y-6847089D01*
X61565843Y-7039299D01*
X61692641Y-7213821D01*
X61845179Y-7366359D01*
X62019701Y-7493157D01*
X62211911Y-7591092D01*
X62417074Y-7657754D01*
X62496973Y-7670408D01*
X62630134Y-7691500D01*
X62630139Y-7691500D01*
X62845866Y-7691500D01*
X62964230Y-7672752D01*
X63058926Y-7657754D01*
X63264089Y-7591092D01*
X63456299Y-7493157D01*
X63630821Y-7366359D01*
X63773186Y-7223993D01*
X63834505Y-7190511D01*
X63904197Y-7195495D01*
X63960131Y-7237366D01*
X63973248Y-7259277D01*
X63973640Y-7260118D01*
X64065684Y-7409345D01*
X64189654Y-7533315D01*
X64338875Y-7625356D01*
X64338880Y-7625358D01*
X64505302Y-7680505D01*
X64505309Y-7680506D01*
X64608019Y-7690999D01*
X65027999Y-7690999D01*
X65028000Y-7690998D01*
X65028000Y-6638709D01*
X65048339Y-6650452D01*
X65199667Y-6691000D01*
X65356333Y-6691000D01*
X65507661Y-6650452D01*
X65528000Y-6638709D01*
X65528000Y-7690999D01*
X65947972Y-7690999D01*
X65947986Y-7690998D01*
X66050697Y-7680505D01*
X66217119Y-7625358D01*
X66217124Y-7625356D01*
X66366345Y-7533315D01*
X66490315Y-7409345D01*
X66582356Y-7260124D01*
X66582358Y-7260119D01*
X66637505Y-7093697D01*
X66637506Y-7093690D01*
X66647999Y-6990986D01*
X66648000Y-6990973D01*
X66648000Y-6346000D01*
X65820709Y-6346000D01*
X65832452Y-6325661D01*
X65873000Y-6174333D01*
X65873000Y-6017667D01*
X65832452Y-5866339D01*
X65820709Y-5846000D01*
X66647999Y-5846000D01*
X66647999Y-5763133D01*
X68225500Y-5763133D01*
X68225500Y-6428866D01*
X68259245Y-6641922D01*
X68259246Y-6641926D01*
X68325908Y-6847089D01*
X68423843Y-7039299D01*
X68550641Y-7213821D01*
X68703179Y-7366359D01*
X68877701Y-7493157D01*
X69069911Y-7591092D01*
X69275074Y-7657754D01*
X69354973Y-7670408D01*
X69488134Y-7691500D01*
X69488139Y-7691500D01*
X69703866Y-7691500D01*
X69822230Y-7672752D01*
X69916926Y-7657754D01*
X70122089Y-7591092D01*
X70314299Y-7493157D01*
X70488821Y-7366359D01*
X70631186Y-7223993D01*
X70692505Y-7190511D01*
X70762197Y-7195495D01*
X70818131Y-7237366D01*
X70831248Y-7259277D01*
X70831640Y-7260118D01*
X70923684Y-7409345D01*
X71047654Y-7533315D01*
X71196875Y-7625356D01*
X71196880Y-7625358D01*
X71363302Y-7680505D01*
X71363309Y-7680506D01*
X71466019Y-7690999D01*
X71885999Y-7690999D01*
X71886000Y-7690998D01*
X71886000Y-6638709D01*
X71906339Y-6650452D01*
X72057667Y-6691000D01*
X72214333Y-6691000D01*
X72365661Y-6650452D01*
X72386000Y-6638709D01*
X72386000Y-7690999D01*
X72805972Y-7690999D01*
X72805986Y-7690998D01*
X72908697Y-7680505D01*
X73075119Y-7625358D01*
X73075124Y-7625356D01*
X73224345Y-7533315D01*
X73348315Y-7409345D01*
X73440356Y-7260124D01*
X73440358Y-7260119D01*
X73495505Y-7093697D01*
X73495506Y-7093690D01*
X73505999Y-6990986D01*
X73506000Y-6990973D01*
X73506000Y-6346000D01*
X72678709Y-6346000D01*
X72690452Y-6325661D01*
X72731000Y-6174333D01*
X72731000Y-6017667D01*
X72690452Y-5866339D01*
X72678709Y-5846000D01*
X73505999Y-5846000D01*
X73505999Y-5201028D01*
X73505998Y-5201013D01*
X73495505Y-5098302D01*
X73440358Y-4931880D01*
X73440354Y-4931871D01*
X73408519Y-4880258D01*
X73408518Y-4880256D01*
X73370245Y-4818206D01*
X86299500Y-4818206D01*
X86299500Y-5181794D01*
X86310337Y-5291829D01*
X86335137Y-5543630D01*
X86406064Y-5900212D01*
X86406067Y-5900223D01*
X86511614Y-6248165D01*
X86650754Y-6584078D01*
X86650756Y-6584083D01*
X86822140Y-6904720D01*
X86822151Y-6904738D01*
X87024140Y-7207035D01*
X87024150Y-7207049D01*
X87254807Y-7488106D01*
X87511893Y-7745192D01*
X87511898Y-7745196D01*
X87511899Y-7745197D01*
X87792956Y-7975854D01*
X88095268Y-8177853D01*
X88095277Y-8177858D01*
X88095279Y-8177859D01*
X88415916Y-8349243D01*
X88415918Y-8349243D01*
X88415924Y-8349247D01*
X88751836Y-8488386D01*
X89099767Y-8593930D01*
X89099773Y-8593931D01*
X89099776Y-8593932D01*
X89099787Y-8593935D01*
X89456369Y-8664862D01*
X89818206Y-8700500D01*
X89818209Y-8700500D01*
X90181791Y-8700500D01*
X90181794Y-8700500D01*
X90543631Y-8664862D01*
X90662026Y-8641312D01*
X90900212Y-8593935D01*
X90900223Y-8593932D01*
X90900223Y-8593931D01*
X90900233Y-8593930D01*
X91248164Y-8488386D01*
X91584076Y-8349247D01*
X91904732Y-8177853D01*
X92207044Y-7975854D01*
X92488101Y-7745197D01*
X92745197Y-7488101D01*
X92975854Y-7207044D01*
X93177853Y-6904732D01*
X93349247Y-6584076D01*
X93488386Y-6248164D01*
X93593930Y-5900233D01*
X93593932Y-5900223D01*
X93593935Y-5900212D01*
X93664862Y-5543630D01*
X93684434Y-5344911D01*
X93700500Y-5181794D01*
X93700500Y-4818206D01*
X93664862Y-4456369D01*
X93635268Y-4307588D01*
X93593935Y-4099787D01*
X93593932Y-4099776D01*
X93593931Y-4099773D01*
X93593930Y-4099767D01*
X93488386Y-3751836D01*
X93349247Y-3415924D01*
X93177853Y-3095268D01*
X92975854Y-2792956D01*
X92745197Y-2511899D01*
X92745196Y-2511898D01*
X92745192Y-2511893D01*
X92488106Y-2254807D01*
X92207049Y-2024150D01*
X92207048Y-2024149D01*
X92207044Y-2024146D01*
X91904732Y-1822147D01*
X91904727Y-1822144D01*
X91904720Y-1822140D01*
X91584083Y-1650756D01*
X91584078Y-1650754D01*
X91248165Y-1511614D01*
X90900223Y-1406067D01*
X90900212Y-1406064D01*
X90543630Y-1335137D01*
X90271111Y-1308296D01*
X90181794Y-1299500D01*
X89818206Y-1299500D01*
X89735679Y-1307628D01*
X89456369Y-1335137D01*
X89099787Y-1406064D01*
X89099776Y-1406067D01*
X88751834Y-1511614D01*
X88415921Y-1650754D01*
X88415916Y-1650756D01*
X88095279Y-1822140D01*
X88095261Y-1822151D01*
X87792964Y-2024140D01*
X87792950Y-2024150D01*
X87511893Y-2254807D01*
X87254807Y-2511893D01*
X87024150Y-2792950D01*
X87024140Y-2792964D01*
X86822151Y-3095261D01*
X86822140Y-3095279D01*
X86650756Y-3415916D01*
X86650754Y-3415921D01*
X86511614Y-3751834D01*
X86406067Y-4099776D01*
X86406064Y-4099787D01*
X86335137Y-4456369D01*
X86311256Y-4698843D01*
X86299500Y-4818206D01*
X73370245Y-4818206D01*
X73348319Y-4782659D01*
X73348316Y-4782655D01*
X73224345Y-4658684D01*
X73075124Y-4566643D01*
X73075119Y-4566641D01*
X72908697Y-4511494D01*
X72908690Y-4511493D01*
X72805986Y-4501000D01*
X72386000Y-4501000D01*
X72386000Y-5553290D01*
X72365661Y-5541548D01*
X72214333Y-5501000D01*
X72057667Y-5501000D01*
X71906339Y-5541548D01*
X71886000Y-5553290D01*
X71886000Y-4501000D01*
X71466028Y-4501000D01*
X71466012Y-4501001D01*
X71363302Y-4511494D01*
X71196880Y-4566641D01*
X71196875Y-4566643D01*
X71047654Y-4658684D01*
X70923684Y-4782654D01*
X70831637Y-4931885D01*
X70831245Y-4932728D01*
X70830821Y-4933208D01*
X70827851Y-4938025D01*
X70827027Y-4937517D01*
X70785072Y-4985167D01*
X70717879Y-5004318D01*
X70650998Y-4984101D01*
X70631183Y-4968003D01*
X70488823Y-4825643D01*
X70488821Y-4825641D01*
X70314299Y-4698843D01*
X70122089Y-4600908D01*
X69916926Y-4534246D01*
X69916924Y-4534245D01*
X69916922Y-4534245D01*
X69703866Y-4500500D01*
X69703861Y-4500500D01*
X69488139Y-4500500D01*
X69488134Y-4500500D01*
X69275077Y-4534245D01*
X69069908Y-4600909D01*
X68877700Y-4698843D01*
X68778129Y-4771186D01*
X68703179Y-4825641D01*
X68703177Y-4825643D01*
X68703176Y-4825643D01*
X68550643Y-4978176D01*
X68550643Y-4978177D01*
X68550641Y-4978179D01*
X68545564Y-4985167D01*
X68423843Y-5152700D01*
X68325909Y-5344908D01*
X68259245Y-5550077D01*
X68225500Y-5763133D01*
X66647999Y-5763133D01*
X66647999Y-5201028D01*
X66647998Y-5201013D01*
X66637505Y-5098302D01*
X66582358Y-4931880D01*
X66582356Y-4931875D01*
X66490315Y-4782654D01*
X66366345Y-4658684D01*
X66217124Y-4566643D01*
X66217119Y-4566641D01*
X66050697Y-4511494D01*
X66050690Y-4511493D01*
X65947986Y-4501000D01*
X65528000Y-4501000D01*
X65528000Y-5553290D01*
X65507661Y-5541548D01*
X65356333Y-5501000D01*
X65199667Y-5501000D01*
X65048339Y-5541548D01*
X65028000Y-5553290D01*
X65028000Y-4501000D01*
X64608028Y-4501000D01*
X64608012Y-4501001D01*
X64505302Y-4511494D01*
X64338880Y-4566641D01*
X64338875Y-4566643D01*
X64189654Y-4658684D01*
X64065684Y-4782654D01*
X63973637Y-4931885D01*
X63973245Y-4932728D01*
X63972821Y-4933208D01*
X63969851Y-4938025D01*
X63969027Y-4937517D01*
X63927072Y-4985167D01*
X63859879Y-5004318D01*
X63792998Y-4984101D01*
X63773183Y-4968003D01*
X63630823Y-4825643D01*
X63630821Y-4825641D01*
X63456299Y-4698843D01*
X63264089Y-4600908D01*
X63058926Y-4534246D01*
X63058924Y-4534245D01*
X63058922Y-4534245D01*
X62845866Y-4500500D01*
X62845861Y-4500500D01*
X62630139Y-4500500D01*
X62630134Y-4500500D01*
X62417077Y-4534245D01*
X62211908Y-4600909D01*
X62019700Y-4698843D01*
X61920129Y-4771186D01*
X61845179Y-4825641D01*
X61845177Y-4825643D01*
X61845176Y-4825643D01*
X61692643Y-4978176D01*
X61692643Y-4978177D01*
X61692641Y-4978179D01*
X61687564Y-4985167D01*
X61565843Y-5152700D01*
X61467909Y-5344908D01*
X61401245Y-5550077D01*
X61367500Y-5763133D01*
X59784999Y-5763133D01*
X59784999Y-5201028D01*
X59784998Y-5201013D01*
X59774505Y-5098302D01*
X59719358Y-4931880D01*
X59719356Y-4931875D01*
X59627315Y-4782654D01*
X59503345Y-4658684D01*
X59354124Y-4566643D01*
X59354119Y-4566641D01*
X59187697Y-4511494D01*
X59187690Y-4511493D01*
X59084986Y-4501000D01*
X58665000Y-4501000D01*
X58665000Y-5553290D01*
X58644661Y-5541548D01*
X58493333Y-5501000D01*
X58336667Y-5501000D01*
X58185339Y-5541548D01*
X58165000Y-5553290D01*
X58165000Y-4501000D01*
X57745028Y-4501000D01*
X57745012Y-4501001D01*
X57642302Y-4511494D01*
X57475880Y-4566641D01*
X57475875Y-4566643D01*
X57326654Y-4658684D01*
X57202684Y-4782654D01*
X57110637Y-4931885D01*
X57110245Y-4932728D01*
X57109821Y-4933208D01*
X57106851Y-4938025D01*
X57106027Y-4937517D01*
X57064072Y-4985167D01*
X56996879Y-5004318D01*
X56929998Y-4984101D01*
X56910183Y-4968003D01*
X56767823Y-4825643D01*
X56767821Y-4825641D01*
X56593299Y-4698843D01*
X56401089Y-4600908D01*
X56195926Y-4534246D01*
X56195924Y-4534245D01*
X56195922Y-4534245D01*
X55982866Y-4500500D01*
X55982861Y-4500500D01*
X55767139Y-4500500D01*
X55767134Y-4500500D01*
X55554077Y-4534245D01*
X55348908Y-4600909D01*
X55156700Y-4698843D01*
X55057129Y-4771186D01*
X54982179Y-4825641D01*
X54982177Y-4825643D01*
X54982176Y-4825643D01*
X54829643Y-4978176D01*
X54829643Y-4978177D01*
X54829641Y-4978179D01*
X54824564Y-4985167D01*
X54702843Y-5152700D01*
X54604909Y-5344908D01*
X54538245Y-5550077D01*
X54504500Y-5763133D01*
X23070763Y-5763133D01*
X23128104Y-5705792D01*
X23134225Y-5697366D01*
X23142934Y-5685381D01*
X23194704Y-5614124D01*
X23253051Y-5533816D01*
X23349557Y-5344412D01*
X23415246Y-5142243D01*
X23448500Y-4932287D01*
X23448500Y-4719713D01*
X23415246Y-4509757D01*
X23349557Y-4307588D01*
X23253051Y-4118184D01*
X23253049Y-4118181D01*
X23253048Y-4118179D01*
X23128109Y-3946213D01*
X22977786Y-3795890D01*
X22805820Y-3670951D01*
X22616414Y-3574444D01*
X22616413Y-3574443D01*
X22616412Y-3574443D01*
X22414243Y-3508754D01*
X22414241Y-3508753D01*
X22414240Y-3508753D01*
X22252957Y-3483208D01*
X22204287Y-3475500D01*
X21991713Y-3475500D01*
X21943042Y-3483208D01*
X21781760Y-3508753D01*
X21579585Y-3574444D01*
X21390179Y-3670951D01*
X21218215Y-3795889D01*
X21104673Y-3909431D01*
X21043350Y-3942915D01*
X20973658Y-3937931D01*
X20917725Y-3896059D01*
X20900810Y-3865082D01*
X20851797Y-3733671D01*
X20851793Y-3733664D01*
X20765547Y-3618455D01*
X20765544Y-3618452D01*
X20650335Y-3532206D01*
X20650328Y-3532202D01*
X20515482Y-3481908D01*
X20515483Y-3481908D01*
X20455883Y-3475501D01*
X20455881Y-3475500D01*
X20455873Y-3475500D01*
X20455864Y-3475500D01*
X18660129Y-3475500D01*
X18660123Y-3475501D01*
X18600516Y-3481908D01*
X18465671Y-3532202D01*
X18465664Y-3532206D01*
X18350455Y-3618452D01*
X18350452Y-3618455D01*
X18264206Y-3733664D01*
X18264202Y-3733671D01*
X18213908Y-3868517D01*
X18207501Y-3928116D01*
X18207500Y-3928135D01*
X8541865Y-3928135D01*
X8488386Y-3751836D01*
X8349247Y-3415924D01*
X8177853Y-3095268D01*
X7975854Y-2792956D01*
X7745197Y-2511899D01*
X7745196Y-2511898D01*
X7745192Y-2511893D01*
X7488106Y-2254807D01*
X7207049Y-2024150D01*
X7207048Y-2024149D01*
X7207044Y-2024146D01*
X6904732Y-1822147D01*
X6904727Y-1822144D01*
X6904720Y-1822140D01*
X6584083Y-1650756D01*
X6584078Y-1650754D01*
X6248165Y-1511614D01*
X5900223Y-1406067D01*
X5900212Y-1406064D01*
X5543630Y-1335137D01*
X5271111Y-1308296D01*
X5181794Y-1299500D01*
X4818206Y-1299500D01*
X4735679Y-1307628D01*
X4456369Y-1335137D01*
X4099787Y-1406064D01*
X4099776Y-1406067D01*
X3751834Y-1511614D01*
X3415921Y-1650754D01*
X3415916Y-1650756D01*
X3095279Y-1822140D01*
X3095261Y-1822151D01*
X2792964Y-2024140D01*
X2792950Y-2024150D01*
X2511893Y-2254807D01*
X2254807Y-2511893D01*
X2024150Y-2792950D01*
X2024140Y-2792964D01*
X1822151Y-3095261D01*
X1822140Y-3095279D01*
X1650756Y-3415916D01*
X1650754Y-3415921D01*
X1511614Y-3751834D01*
X1406067Y-4099776D01*
X1406064Y-4099787D01*
X1335137Y-4456369D01*
X1311256Y-4698843D01*
X1299500Y-4818206D01*
X500500Y-4818206D01*
X500500Y-624500D01*
X520185Y-557461D01*
X572989Y-511706D01*
X624500Y-500500D01*
X94375500Y-500500D01*
X94442539Y-520185D01*
G37*
%TD.AperFunction*%
%TD*%
%TA.AperFunction,NonConductor*%
G36*
X21021578Y-5709488D02*
G01*
X21076418Y-5721417D01*
X21104673Y-5742569D01*
X21218213Y-5856109D01*
X21390182Y-5981050D01*
X21398946Y-5985516D01*
X21449742Y-6033491D01*
X21466536Y-6101312D01*
X21443998Y-6167447D01*
X21398946Y-6206484D01*
X21390182Y-6210949D01*
X21218213Y-6335890D01*
X21067890Y-6486213D01*
X20942949Y-6658182D01*
X20938484Y-6666946D01*
X20890509Y-6717742D01*
X20822688Y-6734536D01*
X20756553Y-6711998D01*
X20717516Y-6666946D01*
X20713050Y-6658182D01*
X20588109Y-6486213D01*
X20474569Y-6372673D01*
X20441084Y-6311350D01*
X20446068Y-6241658D01*
X20487940Y-6185725D01*
X20518915Y-6168810D01*
X20650331Y-6119796D01*
X20765546Y-6033546D01*
X20851796Y-5918331D01*
X20900811Y-5786914D01*
X20942682Y-5730983D01*
X20983728Y-5715673D01*
X21008145Y-5706566D01*
X21008146Y-5706566D01*
X21021578Y-5709488D01*
G37*
%TD.AperFunction*%
%TA.AperFunction,NonConductor*%
G36*
X20899444Y-8019999D02*
G01*
X20938486Y-8065056D01*
X20942951Y-8073820D01*
X21067890Y-8245786D01*
X21218213Y-8396109D01*
X21390182Y-8521050D01*
X21398946Y-8525516D01*
X21449742Y-8573491D01*
X21466536Y-8641312D01*
X21443998Y-8707447D01*
X21398946Y-8746484D01*
X21390182Y-8750949D01*
X21218213Y-8875890D01*
X21067890Y-9026213D01*
X20942949Y-9198182D01*
X20938484Y-9206946D01*
X20890509Y-9257742D01*
X20822688Y-9274536D01*
X20756553Y-9251998D01*
X20717516Y-9206946D01*
X20713050Y-9198182D01*
X20588109Y-9026213D01*
X20437786Y-8875890D01*
X20265820Y-8750951D01*
X20265115Y-8750591D01*
X20257054Y-8746485D01*
X20206259Y-8698512D01*
X20189463Y-8630692D01*
X20211999Y-8564556D01*
X20257054Y-8525515D01*
X20265816Y-8521051D01*
X20310777Y-8488385D01*
X20437786Y-8396109D01*
X20437788Y-8396106D01*
X20437792Y-8396104D01*
X20588104Y-8245792D01*
X20588106Y-8245788D01*
X20588109Y-8245786D01*
X20713048Y-8073820D01*
X20713047Y-8073820D01*
X20713051Y-8073816D01*
X20717514Y-8065054D01*
X20765488Y-8014259D01*
X20833308Y-7997463D01*
X20899444Y-8019999D01*
G37*
%TD.AperFunction*%
%TA.AperFunction,NonConductor*%
G36*
X20899444Y-10559999D02*
G01*
X20938486Y-10605056D01*
X20942951Y-10613820D01*
X21067890Y-10785786D01*
X21218213Y-10936109D01*
X21390182Y-11061050D01*
X21398946Y-11065516D01*
X21449742Y-11113491D01*
X21466536Y-11181312D01*
X21443998Y-11247447D01*
X21398946Y-11286484D01*
X21390182Y-11290949D01*
X21218213Y-11415890D01*
X21067890Y-11566213D01*
X20942949Y-11738182D01*
X20938484Y-11746946D01*
X20890509Y-11797742D01*
X20822688Y-11814536D01*
X20756553Y-11791998D01*
X20717516Y-11746946D01*
X20713050Y-11738182D01*
X20588109Y-11566213D01*
X20437786Y-11415890D01*
X20265820Y-11290951D01*
X20265115Y-11290591D01*
X20257054Y-11286485D01*
X20206259Y-11238512D01*
X20189463Y-11170692D01*
X20211999Y-11104556D01*
X20257054Y-11065515D01*
X20265816Y-11061051D01*
X20287789Y-11045086D01*
X20437786Y-10936109D01*
X20437788Y-10936106D01*
X20437792Y-10936104D01*
X20588104Y-10785792D01*
X20588106Y-10785788D01*
X20588109Y-10785786D01*
X20713048Y-10613820D01*
X20713047Y-10613820D01*
X20713051Y-10613816D01*
X20717514Y-10605054D01*
X20765488Y-10554259D01*
X20833308Y-10537463D01*
X20899444Y-10559999D01*
G37*
%TD.AperFunction*%
%TA.AperFunction,NonConductor*%
G36*
X20899444Y-13099999D02*
G01*
X20938486Y-13145056D01*
X20942951Y-13153820D01*
X21067890Y-13325786D01*
X21218213Y-13476109D01*
X21390182Y-13601050D01*
X21398946Y-13605516D01*
X21449742Y-13653491D01*
X21466536Y-13721312D01*
X21443998Y-13787447D01*
X21398946Y-13826484D01*
X21390182Y-13830949D01*
X21218213Y-13955890D01*
X21067890Y-14106213D01*
X20942949Y-14278182D01*
X20938484Y-14286946D01*
X20890509Y-14337742D01*
X20822688Y-14354536D01*
X20756553Y-14331998D01*
X20717516Y-14286946D01*
X20713050Y-14278182D01*
X20588109Y-14106213D01*
X20437786Y-13955890D01*
X20265820Y-13830951D01*
X20260028Y-13828000D01*
X20257054Y-13826485D01*
X20206259Y-13778512D01*
X20189463Y-13710692D01*
X20211999Y-13644556D01*
X20257054Y-13605515D01*
X20265816Y-13601051D01*
X20287789Y-13585086D01*
X20437786Y-13476109D01*
X20437788Y-13476106D01*
X20437792Y-13476104D01*
X20588104Y-13325792D01*
X20588106Y-13325788D01*
X20588109Y-13325786D01*
X20713048Y-13153820D01*
X20713047Y-13153820D01*
X20713051Y-13153816D01*
X20717514Y-13145054D01*
X20765488Y-13094259D01*
X20833308Y-13077463D01*
X20899444Y-13099999D01*
G37*
%TD.AperFunction*%
M02*
