M48
; DRILL file KiCad 10.0.4-10.0.4~ubuntu24.04.1 date 2026-07-29T19:25:33
; FORMAT={-:-/ absolute / metric / decimal}
; #@! TF.CreationDate,2026-07-29T19:25:33-04:00
; #@! TF.GenerationSoftware,Kicad,Pcbnew,10.0.4-10.0.4~ubuntu24.04.1
; #@! TF.FileFunction,Plated,1,2,PTH
FMAT,2
METRIC
; #@! TA.AperFunction,Plated,PTH,ComponentDrill
T1C0.800
; #@! TA.AperFunction,Plated,PTH,ComponentDrill
T2C0.900
; #@! TA.AperFunction,Plated,PTH,ComponentDrill
T3C1.000
; #@! TA.AperFunction,Plated,PTH,ComponentDrill
T4C1.190
; #@! TA.AperFunction,Plated,PTH,ComponentDrill
T5C1.300
; #@! TA.AperFunction,Plated,PTH,ComponentDrill
T6C3.200
%
G90
G05
T1
X29.718Y-33.528
X29.718Y-41.148
X32.258Y-33.528
X32.258Y-41.148
X34.798Y-33.528
X34.798Y-41.148
X37.338Y-33.528
X37.338Y-41.148
X39.878Y-33.528
X39.878Y-41.148
X42.418Y-33.528
X42.418Y-41.148
X44.958Y-33.528
X44.958Y-41.148
X47.498Y-33.528
X47.498Y-41.148
X50.038Y-33.528
X50.038Y-41.148
X52.578Y-33.528
X52.578Y-41.148
T2
X2.745Y-37.44
X5.285Y-37.44
X68.58Y-79.497
X68.58Y-82.037
T3
X4.267Y-48.387
X4.267Y-73.787
X6.807Y-48.387
X6.807Y-73.787
X9.347Y-48.387
X9.347Y-73.787
X11.887Y-48.387
X11.887Y-73.787
X14.427Y-48.387
X14.427Y-73.787
X16.967Y-48.387
X16.967Y-73.787
X19.507Y-48.387
X19.507Y-73.787
X19.558Y-4.826
X19.558Y-7.366
X19.558Y-9.906
X19.558Y-12.446
X19.558Y-14.986
X19.558Y-17.526
X22.047Y-48.387
X22.047Y-73.787
X22.098Y-4.826
X22.098Y-7.366
X22.098Y-9.906
X22.098Y-12.446
X22.098Y-14.986
X22.098Y-17.526
X24.587Y-48.387
X24.587Y-73.787
X27.127Y-48.387
X27.127Y-73.787
X29.667Y-48.387
X29.667Y-73.787
X32.207Y-48.387
X32.207Y-73.787
X34.747Y-48.387
X34.747Y-73.787
X37.287Y-48.387
X37.287Y-73.787
X39.827Y-48.387
X39.827Y-73.787
X42.367Y-48.387
X42.367Y-73.787
X44.907Y-48.387
X44.907Y-73.787
X47.447Y-48.387
X47.447Y-73.787
X49.987Y-48.387
X49.987Y-73.787
X52.527Y-48.387
X52.527Y-73.787
X55.067Y-48.387
X55.067Y-73.787
X57.607Y-48.387
X57.607Y-73.787
T4
X55.875Y-6.096
X58.415Y-6.096
X62.738Y-6.096
X65.278Y-6.096
X69.596Y-6.096
X72.136Y-6.096
X89.428Y-98.562
X89.428Y-101.102
X89.428Y-105.671
X89.428Y-108.212
X89.428Y-112.781
X89.428Y-115.321
T5
X7.366Y-14.478
X7.366Y-19.558
X17.877Y-100.322
X17.877Y-112.522
X18.639Y-125.984
X23.719Y-125.984
X23.877Y-98.322
X28.799Y-125.984
X29.877Y-100.322
X29.877Y-112.522
X88.189Y-15.748
X88.189Y-20.828
X88.189Y-25.908
X88.189Y-30.988
X88.189Y-36.068
X88.189Y-42.672
X88.189Y-47.752
X88.189Y-52.832
X88.189Y-57.912
X88.189Y-62.992
X88.189Y-69.596
X88.189Y-74.676
X88.189Y-79.756
X88.189Y-84.836
X88.189Y-89.916
T6
X5.0Y-5.0
X5.0Y-125.0
X90.0Y-5.0
X90.0Y-125.0
M30
